<svg xmlns="http://www.w3.org/2000/svg" xmlns:xlink="http://www.w3.org/1999/xlink"><symbol viewBox="0 0 18.334 11.666" id="icon-arrow-right" xmlns="http://www.w3.org/2000/svg"><path d="M11.911 1.422A.834.834 0 0113.09.244l5 5a.834.834 0 010 1.178l-5 5a.833.833 0 11-1.179-1.178l3.578-3.578H.843A.838.838 0 010 5.833C0 5.373.377 5 .843 5h14.646l-3.578-3.578z"/></symbol><symbol id="icon-arrow-right-white" viewBox="-270 275.3 18.3 11.7" xml:space="preserve" xmlns="http://www.w3.org/2000/svg"><style>.abst0{fill:#fff}</style><path class="abst0" d="M-258.1 276.8c-.3-.3-.3-.9 0-1.2.3-.3.9-.3 1.2 0l5 5c.3.3.3.9 0 1.2l-5 5c-.3.3-.9.3-1.2 0-.3-.3-.3-.9 0-1.2l3.6-3.6h-14.6c-.5 0-.8-.4-.8-.8 0-.5.4-.8.8-.8h14.6l-3.6-3.6z"/></symbol><symbol viewBox="-41 -19 606 606.249" id="icon-cake" xmlns="http://www.w3.org/2000/svg"><path d="M522.262 516.543c0-14.356-11.559-26-25.758-26h-.797v-180.41c0-27.766-22.578-50.41-50.41-50.41H297.98V142.797c0-7.418-3.988-14.36-10.445-18.027l-34.457-19.856c-6.535-3.754-14.598-3.832-20.976-.082-6.301 3.668-10.204 10.605-10.204 18.184V259.8H74.336c-27.754 0-50.406 22.566-50.406 50.41v36.527c-.078.551-.078 1.114-.078 1.676 0 .559.078 1.11.078 1.672v140.613h-.633c-14.203 0-25.762 11.645-25.762 26v24.406c0 14.356 11.559 26.004 25.762 26.004h473.121c14.2 0 25.766-11.648 25.766-26.004v-24.562zM24.734 539.828v-22.172h470.489v22.172zm246.13-370.07l-21.93-12.684v-23.293l21.93 12.598zm-21.852 5.742l21.93 12.68v31.898l-21.93-12.683zm0 50.398l21.93 12.684v21.219h-21.93zm-174.676 61.02h370.96c12.84 0 23.29 10.445 23.29 23.293v26.633c-9.727 2.797-18.508 8.46-25.207 16.515l-14.113 17.149c-4.551 5.496-11.25 8.527-18.426 8.37-7.016-.155-13.238-3.183-17.547-8.538-.078-.156-.234-.313-.324-.473l-15.946-20.894c-9.496-12.364-23.687-19.625-39.082-19.942-15.39-.32-29.914 6.38-39.875 18.426l-18.91 23.05c-4.547 5.497-11.246 8.528-18.418 8.372-7.183-.156-13.8-3.43-18.11-9.012l-15.632-20.816v-.078-.082c-9.328-12.204-24.008-19.621-39.312-19.938-15.239-.32-29.672 6.379-39.649 18.426l-20.02 24.324c-4.386 5.336-11.003 8.379-18.023 8.379h-.078c-6.937 0-13.484-3.121-17.945-8.617l-15.242-18.508c-6.7-8.137-15.551-13.797-25.442-16.586v-26.48c-.234-12.528 10.215-22.973 23.05-22.973zm-23.285 79.36c1.676 1.199 3.187 2.55 4.543 4.152l15.234 18.496c9.652 11.726 23.77 18.426 38.848 18.426h.078c15.152 0 29.27-6.622 38.84-18.18l20.02-24.41c4.624-5.586 11.323-8.77 18.265-8.617 7.098.167 13.957 3.593 18.266 9.257l15.628 20.817v.156c9.336 12.203 23.614 19.383 39.086 19.7h1.036c15.156 0 29.27-6.614 38.843-18.184l18.903-23.051c4.55-5.496 11.484-8.77 18.421-8.617 7.106.168 13.641 3.515 18.106 9.257l15.39 20.176c.169.242.325.563.563.801 9.332 12.203 23.45 19.3 38.84 19.617H411c15.156 0 29.273-6.613 38.844-18.183l14.117-17.145c1.277-1.598 2.793-2.953 4.309-4.066V490.7H51.05zm0 0M262.172 95.902a13.26 13.26 0 006.621-1.761c6.539-3.672 8.848-11.961 5.187-18.426-2.796-4.942-3.433-11.242-1.683-16.903 1.437-4.714 4.308-8.296 8.062-10.214 8.055-3.668 15.395-8.618 21.688-14.676a35.233 35.233 0 013.273 20.66c-1.68 11.965-9.25 22.172-20.257 27.2-6.786 3.113-9.813 11.167-6.7 17.945 2.317 4.941 7.176 7.894 12.364 7.894 1.914 0 3.824-.394 5.664-1.273 19.46-8.934 32.859-26.887 35.812-48.098 2.95-21.297-4.871-42.273-21.144-56.148l-.157-.164a2.402 2.402 0 00-.558-.395 2.48 2.48 0 00-.555-.402c-.078 0-.078-.078-.164-.157-.078-.082-.238-.16-.316-.16-.235-.156-.48-.242-.72-.398a4.366 4.366 0 00-.562-.242c-.234-.079-.472-.23-.715-.317-.234-.082-.394-.16-.64-.238-.235-.082-.395-.16-.629-.238-.242-.078-.484-.157-.723-.157-.16-.082-.398-.082-.554-.168-.239-.078-.485-.078-.723-.16-.156 0-.402-.078-.559-.078-.238 0-.476 0-.797-.078H301.414c-.164 0-.402 0-.559.078-.242 0-.476.078-.714.078-.246 0-.403.082-.641.082-.246.078-.398.078-.64.164-.239.082-.4.082-.637.16-.243.079-.399.157-.563.157-.234.078-.394.16-.64.238-.157.078-.395.16-.551.246a2.063 2.063 0 00-.637.317c-.156.078-.402.234-.562.312-.157.086-.395.242-.563.32-.156.16-.395.239-.55.403-.165.16-.321.238-.485.398-.23.156-.399.317-.555.477-.16.164-.316.242-.394.398-.168.16-.407.402-.563.559-.078.078-.156.16-.238.238-.078.078-.078.078-.16.156-.16.168-.317.407-.48.563-.157.156-.321.398-.4.562 0 .078-.077.078-.155.157-5.344 8.292-13 14.832-22.016 18.906-.082.078-.16.078-.238.156s-.157.078-.32.16c-10.524 5.262-18.266 14.68-21.938 26.559-3.903 12.761-2.469 26.636 3.996 38.125 2.547 4.625 7.176 7.183 11.96 7.183zm0 0"/></symbol><symbol viewBox="0 0 74 74" id="icon-captain" xmlns="http://www.w3.org/2000/svg"><path d="M39.5 12.83a1 1 0 01-1-1V5.5a1.5 1.5 0 10-3 0v6.33a1 1 0 01-2 0V5.5a3.477 3.477 0 011.023-2.477A3.5 3.5 0 0140.5 5.5v6.33a1 1 0 01-1 1zM39.5 30.43a1 1 0 01-1-1V18.95a1 1 0 012 0v10.48a1 1 0 01-1 1zM34.5 30.43a1 1 0 01-1-1V18.95a1 1 0 012 0v10.48a1 1 0 01-1 1zM37 72a3.5 3.5 0 01-3.5-3.5v-6.33a1 1 0 012 0v6.33a1.5 1.5 0 103 0v-6.33a1 1 0 012 0v6.33a3.477 3.477 0 01-1.023 2.477A3.521 3.521 0 0137 72zM34.5 56.05a1 1 0 01-1-1V44.57a1 1 0 112 0v10.48a1 1 0 01-1 1zM39.5 56.05a1 1 0 01-1-1V44.57a1 1 0 112 0v10.48a1 1 0 01-1 1zM11.83 40.5H5.5a3.525 3.525 0 01-2.478-1.023A3.5 3.5 0 015.5 33.5h6.33a1 1 0 010 2H5.5a1.5 1.5 0 100 3h6.33a1 1 0 010 2zM29.43 35.5H18.95a1 1 0 010-2h10.48a1 1 0 010 2zM29.43 40.5H18.95a1 1 0 010-2h10.48a1 1 0 110 2zM68.5 40.5h-6.33a1 1 0 010-2h6.33a1.5 1.5 0 100-3h-6.33a1 1 0 010-2h6.33a3.525 3.525 0 012.478 1.023A3.5 3.5 0 0168.5 40.5zM55.05 40.5H44.57a1 1 0 110-2h10.48a1 1 0 010 2zM55.05 35.5H44.57a1 1 0 110-2h10.48a1 1 0 010 2zM17.44 21.97a1 1 0 01-.707-.293l-4.48-4.48a3.473 3.473 0 01.008-4.951 3.444 3.444 0 012.463-1.021 3.46 3.46 0 012.476 1.031l4.476 4.477a1 1 0 01-1.414 1.414l-4.48-4.48a1.476 1.476 0 00-1.058-.442 1.52 1.52 0 00-1.5 1.5 1.5 1.5 0 00.447 1.063l4.48 4.48a1 1 0 01-.707 1.707z"/><path d="M33.41 30.88a1 1 0 01-.707-.293l-7.41-7.41a1 1 0 111.414-1.414l7.41 7.41a1 1 0 01-.707 1.707zM29.88 34.41a1 1 0 01-.707-.293l-7.41-7.41a1 1 0 111.414-1.414l7.41 7.41a1 1 0 01-.707 1.707zM59.275 62.775a3.46 3.46 0 01-2.475-1.031l-4.476-4.477a1 1 0 011.414-1.414l4.48 4.48a1.476 1.476 0 001.058.442 1.52 1.52 0 001.504-1.495 1.5 1.5 0 00-.447-1.063l-4.48-4.48a1 1 0 011.414-1.414l4.48 4.48a3.473 3.473 0 01-.008 4.951 3.444 3.444 0 01-2.463 1.021zM48 52.53a1 1 0 01-.707-.293l-7.41-7.41a1 1 0 011.417-1.414l7.41 7.41A1 1 0 0148 52.53zM51.53 49a1 1 0 01-.707-.293l-7.41-7.41a1 1 0 011.414-1.414l7.41 7.41A1 1 0 0151.53 49zM44.12 34.41a1 1 0 01-.707-1.707l7.41-7.41a1 1 0 011.414 1.414l-7.41 7.41a1 1 0 01-.707.293zM40.59 30.88a1 1 0 01-.707-1.707l7.41-7.41a1 1 0 111.414 1.414l-7.41 7.41a1 1 0 01-.707.293zM56.56 21.97a1 1 0 01-.707-1.707l4.48-4.48a1.5 1.5 0 00.447-1.063 1.456 1.456 0 00-.439-1.046 1.485 1.485 0 00-1.066-.449 1.47 1.47 0 00-1.054.439l-4.484 4.483a1 1 0 01-1.414-1.414l4.48-4.48a3.454 3.454 0 012.472-1.028 3.492 3.492 0 012.472 5.975l-4.48 4.48a1 1 0 01-.707.29zM26 52.53a1 1 0 01-.707-1.707l7.41-7.41a1 1 0 011.414 1.414l-7.41 7.41a1 1 0 01-.707.293zM22.47 49a1 1 0 01-.707-1.707l7.41-7.41a1 1 0 011.414 1.417l-7.41 7.41a1 1 0 01-.707.29zM14.725 62.775a3.492 3.492 0 01-2.472-5.975l4.48-4.48a1 1 0 011.414 1.414l-4.48 4.48a1.5 1.5 0 00-.447 1.063 1.456 1.456 0 00.439 1.046 1.485 1.485 0 001.066.449 1.47 1.47 0 001.054-.439l4.484-4.483a1 1 0 011.414 1.414l-4.48 4.48a3.454 3.454 0 01-2.472 1.031z"/><path d="M37 45.969A8.969 8.969 0 1145.969 37 8.98 8.98 0 0137 45.969zm0-15.938A6.969 6.969 0 1043.969 37 6.977 6.977 0 0037 30.031z"/><path d="M37 56.219A19.219 19.219 0 1156.219 37 19.241 19.241 0 0137 56.219zm0-36.438A17.219 17.219 0 1054.219 37 17.239 17.239 0 0037 19.781z"/><path d="M37 63.292A26.292 26.292 0 1163.292 37 26.322 26.322 0 0137 63.292zm0-50.584A24.292 24.292 0 1061.292 37 24.319 24.319 0 0037 12.708z"/></symbol><symbol id="icon-caron" viewBox="-248 258 11 6.5" xml:space="preserve" xmlns="http://www.w3.org/2000/svg"><style>.aest0{fill:#002a53}</style><path class="aest0" d="M-242.5 264.5c-.3 0-.5-.1-.7-.3l-4.5-4.5c-.4-.4-.4-1 0-1.4s1-.4 1.4 0l3.8 3.8 3.8-3.8c.4-.4 1-.4 1.4 0s.4 1 0 1.4l-4.5 4.5c-.1.2-.4.3-.7.3z"/></symbol><symbol id="icon-caron-menu" viewBox="-1044 78.5 11 6.5" xml:space="preserve" xmlns="http://www.w3.org/2000/svg"><style>.afst0{fill:#f5873e}</style><path class="afst0" d="M-1038.5 85c-.3 0-.5-.1-.7-.3l-4.5-4.5c-.4-.4-.4-1 0-1.4.4-.4 1-.4 1.4 0l3.8 3.8 3.8-3.8c.4-.4 1-.4 1.4 0 .4.4.4 1 0 1.4l-4.5 4.5c-.1.2-.4.3-.7.3z"/></symbol><symbol id="icon-checkmark" viewBox="-269 274 20 15" xml:space="preserve" xmlns="http://www.w3.org/2000/svg"><style>.agst0{fill:#da1b0c}</style><path class="agst0" d="M-269 282l2-2 5 5 11-11 2 2-13 13-7-7z"/></symbol><symbol viewBox="-1025 66 48 32" id="icon-email" xmlns="http://www.w3.org/2000/svg"><path d="M-981 98h-40c-2.2 0-4-1.8-4-4V70c0-2.2 1.8-4 4-4h40c2.2 0 4 1.8 4 4v24c0 2.2-1.8 4-4 4zm-40-30c-1.1 0-2 .9-2 2v24c0 1.1.9 2 2 2h40c1.1 0 2-.9 2-2V70c0-1.1-.9-2-2-2h-40z"/><path d="M-1001 87.2l-17.5-11.4c-.5-.3-.6-.9-.3-1.4.3-.5.9-.6 1.4-.3l16.5 10.6 16.5-10.6c.5-.3 1.1-.2 1.4.3.3.5.2 1.1-.3 1.4l-17.7 11.4zM-1019 92c-.3 0-.6-.2-.8-.4-.3-.5-.2-1.1.3-1.4l9-6c.5-.3 1.1-.2 1.4.3.3.5.2 1.1-.3 1.4l-9 6c-.2 0-.4.1-.6.1zM-983 92c-.2 0-.4-.1-.6-.2l-9-6c-.5-.3-.6-.9-.3-1.4.3-.5.9-.6 1.4-.3l9 6c.5.3.6.9.3 1.4-.2.3-.5.5-.8.5z"/></symbol><symbol viewBox="0 0 60 60" id="icon-fisherboat" xmlns="http://www.w3.org/2000/svg"><path d="M20.33 41c4.5 0 4.63 2 9.66 2a11.79 11.79 0 005.22-1.08 10.05 10.05 0 014.45-.92c4.51 0 4.63 2 9.67 2a11.79 11.79 0 005.22-1.08A10.05 10.05 0 0159 41a1 1 0 000-2 14.43 14.43 0 00-1.86.11L60 25.41A2 2 0 0058 23H48v-4a7 7 0 00-14 0v4h-4.4a26 26 0 00-16.34-13 1.033 1.033 0 00-.52 2H13c.1 0 .05-.48.05 11H2a2 2 0 00-2 2v1a17.9 17.9 0 002.06 8.31c.04.104.093.201.16.29a18.17 18.17 0 005.2 5.94C5.63 40 4.45 39 1 39a1 1 0 000 2c4.51 0 4.63 2 9.66 2a14 14 0 002.34-.18v4a11.4 11.4 0 01-2.34.22 10.08 10.08 0 01-4.45-.92A11.74 11.74 0 001 45a1 1 0 000 2c4.51 0 4.63 2 9.66 2a14 14 0 002.34-.18v4a11.4 11.4 0 01-2.34.22 10.08 10.08 0 01-4.45-.92A11.74 11.74 0 001 51a1 1 0 000 2c4.51 0 4.63 2 9.66 2a14 14 0 002.34-.18V59a1 1 0 002 0v-4.73A11.78 11.78 0 0120.33 53c4.5 0 4.63 2 9.66 2a11.79 11.79 0 005.22-1.08 10.05 10.05 0 014.45-.92c4.51 0 4.63 2 9.67 2a11.79 11.79 0 005.22-1.08A10.05 10.05 0 0159 53a1 1 0 000-2 11.79 11.79 0 00-5.22 1.08 11.22 11.22 0 01-8.9 0A11.83 11.83 0 0039.66 51c-5.06 0-5.12 2-9.67 2s-4.63-2-9.66-2A12 12 0 0015 52.12v-3.85A11.78 11.78 0 0120.33 47c4.5 0 4.63 2 9.66 2a11.79 11.79 0 005.22-1.08 10.05 10.05 0 014.45-.92c4.51 0 4.63 2 9.67 2a11.79 11.79 0 005.22-1.08A10.05 10.05 0 0159 47a1 1 0 000-2 11.79 11.79 0 00-5.22 1.08 11.22 11.22 0 01-8.9 0A11.83 11.83 0 0039.66 45c-5.06 0-5.12 2-9.67 2s-4.63-2-9.66-2A12 12 0 0015 46.12v-3.85A11.78 11.78 0 0120.33 41zm29 0a10 10 0 01-4.45-.92A11.83 11.83 0 0039.66 39c-5.06 0-5.12 2-9.67 2s-4.63-2-9.66-2A12 12 0 0015 40.12V35h40.94L55 39.61c-1.84.63-2.75 1.39-5.67 1.39zM58 25l-.62 3H48a1 1 0 000 2h9l-.62 3H15v-3h28a1 1 0 000-2H15v-3zM2.52 30H13v3H3.63a16.6 16.6 0 01-1.11-3zM36 19a5 5 0 0110 0v4H36zm-21-6.31A24 24 0 0127.32 23H15zM2 25h11v3H2.14A19.5 19.5 0 012 25zm2.8 10H13v5.78l-.78.13A16 16 0 014.8 35zM41 10a5 5 0 100-10 5 5 0 000 10zm0-8a3 3 0 110 6 3 3 0 010-6z"/></symbol><symbol viewBox="0 0 512 512" id="icon-fisherman" xmlns="http://www.w3.org/2000/svg"><path d="M431.979 229.597a7.5 7.5 0 100-15 7.5 7.5 0 000 15zM504.5 448.999c-22.27 0-33.524 4.891-44.409 9.622-9.915 4.309-19.28 8.378-38.431 8.378s-28.517-4.07-38.431-8.379c-10.883-4.729-22.136-9.621-44.399-9.621-22.27 0-33.524 4.891-44.409 9.622-9.915 4.309-19.28 8.378-38.431 8.378-19.157 0-28.521-4.072-38.435-8.382-1.486-.646-2.997-1.303-4.556-1.954v-24.101l18.478 8.57a24.903 24.903 0 0010.5 2.335c9.081 0 17.739-5.031 22.091-13.734a24.52 24.52 0 002.426-8.148c15.605-1.264 24.895-5.292 33.907-9.208 9.915-4.309 19.279-8.378 38.429-8.378 19.145 0 28.508 4.069 38.42 8.377 10.885 4.731 22.14 9.623 44.41 9.623s33.524-4.891 44.409-9.622c9.915-4.309 19.28-8.378 38.431-8.378 4.143 0 7.5-3.358 7.5-7.5s-3.357-7.5-7.5-7.5c-22.27 0-33.524 4.891-44.409 9.622-9.915 4.309-19.28 8.378-38.431 8.378s-28.517-4.07-38.431-8.379c-10.883-4.729-22.136-9.621-44.399-9.621-22.269 0-33.523 4.891-44.407 9.622-8.511 3.699-16.62 7.205-30.819 8.13a24.574 24.574 0 00-9.049-9.407l-6.017-3.572v-26.179c0-4.142-3.357-7.5-7.5-7.5s-7.5 3.358-7.5 7.5v27.786c0 4.275 2.283 8.287 5.96 10.471l7.398 4.392c4.387 2.605 6.036 8.221 3.755 12.785a9.734 9.734 0 01-12.864 4.499l-22.173-10.284a4.53 4.53 0 01-2.615-4.096V337.5c0-7.995-6.505-14.5-14.5-14.5H187.01v-29.792l35.291 12.443a16.859 16.859 0 0111.237 15.877v11.132c0 4.142 3.357 7.5 7.5 7.5s7.5-3.358 7.5-7.5v-11.132c0-13.477-8.539-25.543-21.249-30.024l-78.98-27.057 25.31-12.297c9.352-4.543 14.619-14.867 12.81-25.105a23.752 23.752 0 00-.959-3.664c18.899-37.661 43.34-71.671 72.717-101.111 38.215-38.281 83.545-67.853 134.938-88.062-9.271 26.074-10.443 49.725-3.446 70.54 4.119 12.267 10.644 20.418 16.953 28.301 6.586 8.228 12.806 15.999 16.356 28.629 2.077 7.396 2.95 15.224 2.651 23.327-16.552 5.207-28.34 29.388-28.34 60.301 0 15.477 3.071 29.918 8.693 41.073-6.606 5.997-10.969 13.313-12.675 21.308-2.615 12.254 1.484 22.376 5.384 28.708 1.837 2.984 4.944 5.038 8.526 5.634 3.601.599 7.383-.354 10.199-2.679l11.962-9.848 11.961 9.847c2.811 2.315 6.53 3.291 10.198 2.68 3.581-.596 6.689-2.649 8.527-5.633 3.9-6.333 8-16.455 5.385-28.709-1.363-6.383-4.326-12.219-8.821-17.385 6.927-11.433 10.857-27.617 10.857-44.995 0-29.989-11.096-53.639-26.87-59.781.353-9.647-.7-19.009-3.197-27.903-4.375-15.568-12.19-25.332-19.086-33.946-5.745-7.178-11.172-13.958-14.444-23.704-6.949-20.67-4.137-45.237 8.342-73.134 5.196-3.161 7.886-9.206 6.521-15.423-1.6-7.3-8.169-12.069-15.592-11.338-39.673 3.878-77.256 15.108-111.703 33.378A293.14 293.14 0 00250.2 59.982a7.5 7.5 0 109.143 11.892 278.219 278.219 0 0139.149-25.165c31.468-16.689 65.712-27.194 101.925-31.255C341.81 36.411 290.4 68.77 247.569 111.676c-28.99 29.053-53.352 62.378-72.538 99.162a23.275 23.275 0 00-14.221-2.973c10.622-28.855 32.239-73.814 73.084-113.862a7.5 7.5 0 00-10.502-10.71c-49.153 48.195-71.765 103.148-80.868 131.616-.018.057-.029.115-.046.173l-13.942 6.519-19.443-25.073V181.68a65.008 65.008 0 00-7.842-30.902l-.056-.104c8.94-5.855 14.862-15.957 14.862-27.421v-34.2h37.351c12.406 0 22.5-10.093 22.5-22.5 0-12.266-10.295-22.562-22.5-22.5h-35.9C107.344 27.99 89.433 17.297 69.062 17.297c-31.603 0-57.313 25.711-57.313 57.314 0 6.526 4.356 12.048 10.312 13.828v20.57c-.034 15.109 7.806 29.731 19.745 38.254l-3.367 4.621a57.45 57.45 0 00-10.774 39.259l9.351 99.059c1.219 12.939 6.957 24.362 15.573 32.796H17.5c-9.649 0-17.5 7.851-17.5 17.5v164c0 4.142 3.357 7.5 7.5 7.5s7.5-3.358 7.5-7.5v-164c0-1.378 1.121-2.5 2.5-2.5H198v166.5c0 4.142 3.357 7.5 7.5 7.5s7.5-3.358 7.5-7.5V472.99c10.46 4.531 21.683 9.008 42.99 9.008 22.27 0 33.524-4.891 44.409-9.622 9.915-4.309 19.28-8.378 38.431-8.378 19.145 0 28.508 4.069 38.42 8.377 10.885 4.731 22.14 9.623 44.41 9.623s33.524-4.891 44.409-9.622c9.915-4.309 19.28-8.378 38.431-8.378a7.5 7.5 0 100-14.999zm-52.003-203.695c0 15.509-3.681 30.095-9.847 39.017-3.123 4.519-2.567 10.44 1.351 14.4 3.561 3.6 5.846 7.669 6.79 12.095 1.275 5.974-.179 11.246-2.082 15.159l-11.245-9.258c-2.302-1.895-5.188-2.842-8.074-2.842s-5.772.947-8.074 2.842l-11.245 9.257c-1.903-3.913-3.357-9.185-2.082-15.159 1.179-5.525 4.417-10.453 9.623-14.646 4.428-3.565 5.635-9.665 2.872-14.501-5.201-9.11-8.184-22.365-8.184-36.364 0-26.532 10.611-46.357 20.099-46.357s20.098 19.825 20.098 46.357zM153.41 59.049c4.08-.022 7.5 3.422 7.5 7.5 0 4.136-3.364 7.5-7.5 7.5h-27.049a57.08 57.08 0 00-2.151-15zM26.752 74.047c.303-23.074 19.166-41.75 42.31-41.75s42.007 18.676 42.31 41.75zm10.308 15h14.611v7.563a3.54 3.54 0 01-1.878 3.129l-12.733 6.792zm2.786 32.998l17.006-9.071A18.51 18.51 0 0066.67 96.61v-7.563h34.389v34.202c0 9.793-7.963 17.76-17.75 17.76H69.06c-13.003 0-24.212-7.8-29.214-18.964zm11.248 157.706l-8.497-90.019a42.466 42.466 0 017.965-29.016l4.897-6.721a46.84 46.84 0 0013.601 2.014h14.25c1.22 0 2.423-.073 3.609-.203 3.554 6.144 6.273 13.84 6.916 21.039l-5.232-6.747a7.5 7.5 0 00-11.853 9.192l41.665 53.728c3.384 4.277 9.8 5.303 14.602 3.043l26.831-12.546a8.326 8.326 0 017.419.155 8.352 8.352 0 014.392 5.983c.649 3.671-1.239 7.374-4.593 9.002l-35.653 17.323a23.435 23.435 0 01-26.509-4.208l-36.165-48.809a7.501 7.501 0 00-12.053 8.93l35.806 48.324zm120.917 43.248H89.54c-17.323 0-31.954-11.496-36.385-27.634l53.087-25.053a38.503 38.503 0 0014.939 3.024c1.696 0 3.396-.126 5.089-.353l45.741 15.053z"/></symbol><symbol viewBox="-807.5 -155.4 472.9 472.9" id="icon-forbidden" xmlns="http://www.w3.org/2000/svg"><path d="M-571.1 317.5c130.4 0 236.4-106.1 236.4-236.4-.1-130.2-106.2-236.3-236.4-236.4-130.4 0-236.4 106.1-236.4 236.4s106.1 236.4 236.4 236.4zm158.3-370.2c73.9 87.1 63.2 218-23.9 291.9-37.4 31.7-85 49.2-134 49.2h-.4c-48.9 0-96.4-17.5-133.7-49.2l-2.1-1.8 1.9-1.9 290.3-290.3 1.9 2.1zM-705.4-77c37.4-31.7 85-49.2 134-49.2h.4c48.9 0 96.4 17.5 133.7 49.2l2.1 1.8-1.9 1.9L-727.4 217l-1.8-2.1c-74-87.1-63.3-218 23.8-291.9z"/></symbol><symbol viewBox="-737 -51.1 400 264.2" id="icon-groupchat" xmlns="http://www.w3.org/2000/svg"><path d="M-338.5 144.6l.1-.1c.1-.1.2-.3.3-.4 0-.1.1-.2.1-.2.1-.1.1-.3.2-.4.1-.1.1-.2.2-.3.1-.1.1-.3.1-.4 0-.1.1-.2.1-.3.2-.8.4-1.6.4-2.5v-26.5c0-27.8-18.7-51.4-44.2-58.7 10.7-9.7 17.6-23.6 17.6-38.7 0-28.4-24-52.3-52.3-52.3-28.4 0-52.3 24-52.3 52.3 0 15.2 6.8 29 17.5 38.7-11.6 3.4-22 10.1-29.9 19.6-5-2.3-10.3-4.1-15.8-5.3 16-12.4 26.5-31.7 26.5-52.9 0-36.4-30.7-67.1-67.1-67.1s-67.1 30.7-67.1 67.1c0 21.2 10.5 40.5 26.5 52.9-5.5 1.2-10.8 3-15.8 5.3-7.9-9.4-18.3-16.2-29.9-19.6 10.7-9.7 17.5-23.5 17.5-38.7 0-28.4-24-52.3-52.3-52.3s-52.3 24-52.3 52.3c0 15.2 6.9 29.1 17.6 38.7-25.5 7.4-44.2 30.9-44.2 58.7V140c0 .6 0 1.1.2 1.7 0 .1 0 .2.1.3 0 .2.1.3.1.5.1.2.1.4.2.6 0 0 0 .1.1.1l.3.6s0 .1.1.1c.1.2.2.4.3.5l.1.1c.1.2.2.3.3.5 0 .1.1.1.1.2.1.2.3.3.4.5l.1.1c.6.6 1.3 1.1 2 1.5 16.3 8.7 33.8 14.4 52 17 .4.1.8.1 1.2.1 3.9 0 7.3-2.9 7.9-6.9.6-4.4-2.4-8.4-6.8-9.1-14.9-2.1-29.2-6.6-42.6-13.2v-21.7c0-24.9 20.3-45.2 45.2-45.2h35.5c12.6 0 24.4 5.2 32.9 14.2-19.4 14.4-32 37.5-32 63.4v35.4c0 .8.1 1.7.4 2.4 0 .1.1.2.1.3 0 .1.1.3.1.4.1.1.1.3.2.4.1.1.1.2.2.3.1.1.1.2.2.3.1.1.1.2.2.4.1.1.1.2.2.2.1.1.2.3.3.4 0 .1.1.1.1.1l.4.4h.1c.5.5 1.1.9 1.7 1.3 0 0 .1 0 .1.1 30.8 16.4 64.5 24.6 98.3 24.6s67.5-8.2 98.3-24.6c2.8-1.5 4.3-4.4 4.2-7.4V146c0-26-12.6-49-32-63.4 8.4-9 20.3-14.2 32.9-14.2h35.5c24.9 0 45.2 20.3 45.2 45.2v21.7c-13.4 6.6-27.7 11-42.6 13.2-4.4.6-7.4 4.7-6.8 9.1.6 4 4 6.9 7.9 6.9.4 0 .8 0 1.2-.1 18.3-2.6 35.8-8.4 52.1-17.1.8-.8 1.7-1.7 2.3-2.7zM-658.1-20.3c19.7 0 36.3 16.6 36.3 36.3s-16.6 36.3-36.3 36.3-36.3-16.6-36.3-36.3 16.6-36.3 36.3-36.3zm70 36.3c0-27.7 23.4-51.1 51.1-51.1 27.7 0 51.1 23.4 51.1 51.1 0 27.7-23.4 51.1-51.1 51.1-27.7 0-51.1-23.4-51.1-51.1zm137.6 130v30.6c-54.5 27.4-118.5 27.4-173 0V146c0-34.7 28.2-62.9 62.9-62.9h47.3c34.6 0 62.8 28.2 62.8 62.9zm34.6-166.3c19.7 0 36.3 16.6 36.3 36.3s-16.6 36.3-36.3 36.3c-19.7 0-36.3-16.6-36.3-36.3s16.6-36.3 36.3-36.3z"/></symbol><symbol viewBox="0 0 438.891 438.891" id="icon-list" xmlns="http://www.w3.org/2000/svg"><path d="M347.968 57.503h-39.706V39.74c0-5.747-6.269-8.359-12.016-8.359h-30.824C258.108 10.483 239.822.034 218.924.034c-20.668-.777-39.467 11.896-46.498 31.347h-30.302c-5.747 0-11.494 2.612-11.494 8.359v17.763H90.923c-23.53.251-42.78 18.813-43.886 42.318v299.363c0 22.988 20.898 39.706 43.886 39.706h257.045c22.988 0 43.886-16.718 43.886-39.706V99.822c-1.106-23.506-20.356-42.068-43.886-42.319zm-196.441-5.224h28.735a11.496 11.496 0 009.927-9.404c3.094-13.474 14.915-23.146 28.735-23.51 13.692.415 25.335 10.117 28.212 23.51a11.494 11.494 0 0010.449 9.404h29.78v41.796H151.527V52.279zm219.429 346.906c0 11.494-11.494 18.808-22.988 18.808H90.923c-11.494 0-22.988-7.314-22.988-18.808V99.822c1.066-11.964 10.978-21.201 22.988-21.42h39.706v26.645c.552 5.854 5.622 10.233 11.494 9.927h154.122a11.493 11.493 0 0012.016-9.927V78.401h39.706c12.009.22 21.922 9.456 22.988 21.42v299.364z"/><path d="M179.217 233.569c-3.919-4.131-10.425-4.364-14.629-.522l-33.437 31.869-14.106-14.629c-3.919-4.131-10.425-4.363-14.629-.522a10.971 10.971 0 000 15.151l21.42 21.943a9.403 9.403 0 007.314 3.135 10.446 10.446 0 007.314-3.135l40.751-38.661c4.04-3.706 4.31-9.986.603-14.025a8.78 8.78 0 00-.601-.604zM329.16 256.034H208.997c-5.771 0-10.449 4.678-10.449 10.449s4.678 10.449 10.449 10.449H329.16c5.771 0 10.449-4.678 10.449-10.449s-4.678-10.449-10.449-10.449zM179.217 149.977c-3.919-4.131-10.425-4.364-14.629-.522l-33.437 31.869-14.106-14.629c-3.919-4.131-10.425-4.364-14.629-.522a10.971 10.971 0 000 15.151l21.42 21.943a9.403 9.403 0 007.314 3.135 10.446 10.446 0 007.314-3.135l40.751-38.661c4.04-3.706 4.31-9.986.603-14.025a8.78 8.78 0 00-.601-.604zM329.16 172.442H208.997c-5.771 0-10.449 4.678-10.449 10.449s4.678 10.449 10.449 10.449H329.16c5.771 0 10.449-4.678 10.449-10.449s-4.678-10.449-10.449-10.449zM179.217 317.16c-3.919-4.131-10.425-4.363-14.629-.522l-33.437 31.869-14.106-14.629c-3.919-4.131-10.425-4.363-14.629-.522a10.971 10.971 0 000 15.151l21.42 21.943a9.403 9.403 0 007.314 3.135 10.446 10.446 0 007.314-3.135l40.751-38.661c4.04-3.706 4.31-9.986.603-14.025a9.253 9.253 0 00-.601-.604zM329.16 339.626H208.997c-5.771 0-10.449 4.678-10.449 10.449s4.678 10.449 10.449 10.449H329.16c5.771 0 10.449-4.678 10.449-10.449s-4.678-10.449-10.449-10.449z"/></symbol><symbol viewBox="-1033 72 32 20" id="icon-mail" xmlns="http://www.w3.org/2000/svg"><path d="M-1002.1 72h-30l-.2.1c-.1 0-.1.1-.2.1s-.1.1-.2.1l-.1.1v.1c0 .1-.1.1-.1.2s-.1.2-.1.3v18c0 .6.5 1 1.1 1h29.7c.6 0 1.1-.4 1.1-1V73c.1-.6-.4-1-1-1zm-14.9 8.8l-11.2-6.8h23.9l-12.7 6.8zm-13.7 9.2V74.9l13.1 7.9c.1 0 .1.1.2.1h.1c.1 0 .2.1.4.1s.3 0 .5-.1h.1l13.2-7.1V90h-27.6z"/></symbol><symbol viewBox="-738.9 -127 402 402" id="icon-phone" xmlns="http://www.w3.org/2000/svg"><path d="M-444.3 275.1c-15.6-.1-31.2-2.1-46.4-5.9-52.4-12.6-106.4-44.7-152-90.4-45.6-45.6-77.7-99.6-90.4-152-13.3-55.1-3.8-102.2 26.7-132.8l8.7-8.7c16.5-16.4 43.1-16.4 59.6 0l50.1 50.1c16.5 16.5 16.5 43.2 0 59.6l-29.6 29.6c14.2 24.9 33.5 49.8 56.3 72.6s47.8 42.1 72.6 56.3l29.6-29.6c16.5-16.5 43.1-16.5 59.6 0l50.1 50.1c16.5 16.5 16.5 43.1 0 59.6l-8.7 8.7c-21.4 21.7-51.2 32.8-86.2 32.8zM-667.8-97c-3.2 0-6.3 1.3-8.6 3.6l-8.7 8.7c-22.9 22.9-29.5 60-18.8 104.5 11.4 47.1 40.6 96.1 82.4 137.9s90.7 71 137.9 82.4c44.5 10.7 81.6 4.1 104.5-18.8l8.7-8.7c4.7-4.7 4.7-12.4 0-17.2l-50.1-50.1c-4.7-4.7-12.4-4.7-17.2 0l-37.5 37.5c-4.6 4.6-11.7 5.7-17.5 2.7-30.8-15.9-61.8-39-89.6-67-27.9-27.9-51-58.9-66.9-89.6-3-5.8-1.9-12.9 2.7-17.5l37.5-37.5c4.7-4.7 4.7-12.4 0-17.2l-50.1-50.1c-2.4-2.3-5.5-3.6-8.7-3.6z"/><path d="M-428.3 94.7c-8.3 0-15-6.7-15-15-.1-54.8-44.5-99.2-99.2-99.3-8.3 0-15-6.7-15-15s6.7-15 15-15c71.3 0 129.2 58 129.2 129.3 0 8.3-6.7 15-15 15z"/><path d="M-364.9 94.7c-8.3 0-15-6.7-15-15 0-89.7-73-162.7-162.6-162.7-8.3 0-15-6.7-15-15s6.7-15 15-15c106.2 0 192.6 86.4 192.6 192.7 0 8.3-6.7 15-15 15z"/></symbol><symbol id="icon-quote" viewBox="-244 251 71 60" xml:space="preserve" xmlns="http://www.w3.org/2000/svg"><style>.apst0{fill:#202020}</style><path class="apst0" d="M-173.1 260.3c-10.6 5.2-15.9 11.3-15.9 18.4 4.5.5 8.2 2.4 11.2 5.5 3 3.2 4.4 6.8 4.4 11 0 4.4-1.4 8.2-4.3 11.2s-6.5 4.6-10.8 4.6c-4.9 0-9.1-2-12.6-5.9-3.6-3.9-5.3-8.7-5.3-14.4 0-16.9 9.5-30.2 28.4-39.7l4.9 9.3zm-37.3 0c-10.7 5.2-16 11.3-16 18.4 4.6.5 8.4 2.4 11.3 5.5 3 3.2 4.4 6.8 4.4 11 0 4.4-1.5 8.2-4.4 11.2s-6.5 4.6-10.9 4.6c-4.9 0-9-2-12.6-5.9s-5.3-8.7-5.3-14.4c0-16.9 9.4-30.2 28.2-39.7l5.3 9.3z"/></symbol><symbol viewBox="-719.6 -175 365.2 512" id="icon-sea-location" xmlns="http://www.w3.org/2000/svg"><path d="M-537-175c-100.7 0-182.6 81.9-182.6 182.6v.5c.1 22.7 5.1 45.1 15 66.5 18 38.8 41.3 76.8 61.7 108.9l93.3 146.7c2.7 4.3 7.4 6.9 12.5 6.9s9.8-2.6 12.5-6.9l71.1-111.8v-.1l18.3-28.7c.1-.1.2-.3.3-.4l3.6-5.7c2.2-3.4 4.4-6.9 6.6-10.5l.3-.4c18.6-29.6 38.8-63.5 54.8-98 9.9-21.4 15-43.7 15-66.5v-.5C-354.4-93.1-436.3-175-537-175zM-369.4 8c-.1 20.6-4.6 40.8-13.6 60.2-16 34.6-36.5 68.8-55.3 98.6l-31.7 49.9-67 105.3-93.3-146.6c-20.2-31.7-43.1-69.2-60.7-107.2-9-19.4-13.6-39.7-13.6-60.2v-.4c0-92.4 75.2-167.6 167.6-167.6S-369.4-84.9-369.4 7.6V8z"/><path d="M-537-130c-16.7 0-32.9 2.9-48.3 8.7-.2.1-.5.2-.7.3-1.8.7-3.6 1.4-5.4 2.2-.6.3-1.2.5-1.8.8-.1.1-.3.1-.4.2-.6.2-1.1.5-1.7.7-.2.1-.3.2-.5.2-12.5 6-22.5 13.2-28.8 18.3-.2.1-.4.3-.7.5-1 .9-2 1.7-3 2.6-2.5 2.2-3.8 3.5-3.8 3.5-27.1 25.9-42.5 61.6-42.5 99.4 0 75.8 61.7 137.5 137.5 137.5S-399.5 83.4-399.5 7.6-461.2-130-537-130zm0 260.2c-47.2 0-88.2-26.8-108.7-66 10.4.3 15.5 3.9 21.8 8.5 7.4 5.3 15.7 11.4 31.9 11.4s24.5-6 31.9-11.4c6.6-4.8 11.8-8.5 23.1-8.5s16.5 3.8 23.1 8.5c7.4 5.3 15.7 11.4 31.9 11.4s24.5-6 31.9-11.4c6.3-4.6 11.4-8.2 21.8-8.5-20.5 39.2-61.5 66-108.7 66zm115.2-80.7c-1.7-.1-3.4-.2-5.2-.2-16.2 0-24.5 6-31.9 11.4-6.6 4.8-11.8 8.5-23.1 8.5s-16.5-3.8-23.1-8.5c-7.4-5.3-15.7-11.4-31.9-11.4s-24.5 6-31.9 11.4c-6.6 4.8-11.8 8.5-23.1 8.5s-16.5-3.8-23.1-8.5c-7.4-5.3-15.7-11.4-31.9-11.4-1.8 0-3.5.1-5.2.2-3.3-9-5.6-18.6-6.6-28.4 2.9-1.1 6.7-1.9 11.8-1.9 11.3 0 16.6 3.8 23.1 8.5 7.4 5.3 15.7 11.4 31.9 11.4s24.5-6 31.9-11.4c6.6-4.8 11.8-8.5 23.1-8.5s16.6 3.8 23.1 8.5c7.4 5.3 15.7 11.4 31.9 11.4s24.5-6 31.9-11.4c6.6-4.8 11.8-8.5 23.1-8.5 5.1 0 8.9.8 11.8 1.9-1 9.8-3.3 19.4-6.6 28.4zm7.4-43.8c-3.9-1-8-1.5-12.5-1.5-16.2 0-24.5 6-31.9 11.4-6.6 4.8-11.8 8.5-23.1 8.5s-16.5-3.8-23.1-8.5c-7.4-5.3-15.7-11.4-31.9-11.4s-24.5 6-31.9 11.4c-6.6 4.8-11.8 8.5-23.1 8.5s-16.5-3.8-23.1-8.5c-7.4-5.3-15.7-11.4-31.9-11.4-4.5 0-8.6.5-12.5 1.5.2-10.5 1.6-20.8 4.4-30.7 2.5-.5 5.2-.8 8.1-.8 11.3 0 16.5 3.8 23.1 8.5 7.4 5.3 15.7 11.4 31.9 11.4s24.5-6 31.9-11.4c6.6-4.8 11.8-8.5 23.1-8.5s16.5 3.8 23.1 8.5c7.4 5.3 15.7 11.4 31.9 11.4s24.5-6 31.9-11.4c6.6-4.8 11.8-8.5 23.1-8.5 3 0 5.7.3 8.2.8 2.6 9.8 4.1 20.1 4.3 30.7zM-427-40.7c-16.2 0-24.5 6-31.9 11.4-6.6 4.8-11.8 8.5-23.1 8.5s-16.5-3.8-23.1-8.5c-7.4-5.3-15.7-11.4-31.9-11.4s-24.5 6-31.9 11.4c-6.6 4.8-11.8 8.5-23.1 8.5s-16.5-3.8-23.1-8.5c-7.4-5.3-15.7-11.4-31.9-11.4-.9 0-1.8 0-2.7.1 7-16.3 17.5-31 31-43.1 15-12.7 28.9-19.5 36.6-22.7 14.3-5.7 29.5-8.6 45.1-8.6 50.5 0 93.9 30.7 112.7 74.4-.9-.1-1.7-.1-2.7-.1z"/></symbol><symbol id="icon-search" viewBox="-246 250 22 22" xml:space="preserve" xmlns="http://www.w3.org/2000/svg"><style>.arst0{fill:#002a53}</style><path class="arst0" d="M-224.3 270.3l-4-4c1.4-1.7 2.3-3.9 2.3-6.3 0-5.5-4.5-10-10-10s-10 4.5-10 10 4.5 10 10 10c2.4 0 4.6-.8 6.3-2.3l4 4c.2.2.5.3.7.3s.5-.1.7-.3c.4-.4.4-1 0-1.4zM-236 268c-4.4 0-8-3.6-8-8s3.6-8 8-8 8 3.6 8 8-3.6 8-8 8z"/></symbol><symbol id="icon-socials-fb" viewBox="-301 390 8 14" xml:space="preserve" xmlns="http://www.w3.org/2000/svg"><style>.asst0{fill:#fff}</style><path class="asst0" d="M-293.7 397.8l.4-2.4h-2.4v-1.6c0-.7.3-1.3 1.4-1.3h1.1v-2.1s-1-.2-2-.2c-2 0-3.3 1.2-3.3 3.3v1.8h-2.2v2.4h2.2v5.9c.4.1.9.1 1.4.1s.9 0 1.4-.1v-5.9h2z"/></symbol><symbol id="icon-socials-ig" viewBox="0 0 16 16" xml:space="preserve" xmlns="http://www.w3.org/2000/svg"><style>.atst0{fill:#262930}</style><path class="atst0" d="M10.4 5.6c-.5-.5-1.2-.8-1.9-.9-.7-.1-1.4 0-2 .3s-1.1.9-1.4 1.5-.4 1.3-.3 2 .4 1.3.9 1.8 1.1.8 1.8.9c.7.1 1.4 0 2-.3.6-.3 1.1-.8 1.4-1.4.3-.6.4-1.3.3-2 0-.7-.3-1.4-.8-1.9zM10.1 9c-.2.4-.6.8-1 1s-.9.3-1.4.2c-.5-.1-.9-.3-1.3-.6-.3-.3-.6-.8-.6-1.3-.1-.5 0-1 .2-1.4.2-.4.6-.8 1-1 .4-.2.9-.3 1.4-.2.5.1.9.3 1.3.6.3.3.6.8.6 1.3.1.5 0 1-.2 1.4zM11.9 3.6c-.3 0-.5.2-.5.5s.2.5.5.5.5-.2.5-.5-.3-.5-.5-.5z"/><path class="atst0" d="M11.5.5h-7c-2.2 0-4 1.8-4 4v7c0 2.2 1.8 4 4 4h7c2.2 0 4-1.8 4-4v-7c0-2.2-1.8-4-4-4zm3 11c0 1.7-1.3 3-3 3h-7c-1.7 0-3-1.3-3-3v-7c0-1.7 1.3-3 3-3h7c1.7 0 3 1.3 3 3v7z"/></symbol><symbol id="icon-socials-in" viewBox="-298 390 14 13" xml:space="preserve" xmlns="http://www.w3.org/2000/svg"><style>.aust0{fill:#fff}</style><path class="aust0" d="M-294.3 391.4c0-.8-.6-1.4-1.5-1.4s-1.5.6-1.5 1.4c0 .8.6 1.4 1.5 1.4s1.5-.6 1.5-1.4zM-294.5 393.9h-2.7v8.2h2.7v-8.2zM-287.8 393.7c1.8 0 3.1 1.2 3.1 3.7v4.7h-2.7v-4.4c0-1.1-.4-1.8-1.4-1.8-.8 0-1.2.5-1.4 1-.1.2-.1.4-.1.7v4.6h-2.7V394h2.7v1.2c.4-.7 1-1.5 2.5-1.5z"/></symbol><symbol id="icon-socials-mail" viewBox="0 0 16 13.3" xml:space="preserve" xmlns="http://www.w3.org/2000/svg"><style>.avst0{fill:#002a53}</style><path class="avst0" d="M14 0H2C1.5 0 1 .2.6.6.2 1 0 1.5 0 2v9.3c0 .5.2 1 .6 1.4.4.4.9.6 1.4.6h12c.5 0 1-.2 1.4-.6.4-.4.6-.9.6-1.4V2c0-.5-.2-1-.6-1.4C15 .2 14.5 0 14 0zm-.2 3.2L8.5 7.9c-.2 0-.3.1-.5.1s-.3-.1-.5-.1L2.2 3.2c-.1-.1-.2-.3-.2-.5s0-.3.2-.5c0-.1.2-.1.4-.2.2 0 .3 0 .5.2L8 6.5l4.9-4.3c.1-.1.1-.1.2-.1h.3c.1 0 .2 0 .3.1.1 0 .1.1.2.2l.2.2c-.1-.1-.1 0-.1.1V3l-.2.2z"/></symbol><symbol id="icon-socials-msg" viewBox="-297 389 16 16" xml:space="preserve" xmlns="http://www.w3.org/2000/svg"><style>.awst0{fill:#fff}</style><path class="awst0" d="M-289 389c-4.4 0-7.9 3.3-7.9 7.4 0 2.3 1.1 4.4 2.9 5.8v2.8l2.7-1.5c.7.2 1.5.3 2.3.3 4.4 0 7.9-3.3 7.9-7.4 0-4.1-3.5-7.4-7.9-7.4zm.8 9.9l-2-2.1-3.9 2.2 4.3-4.6 2 2.1 3.9-2.2-4.3 4.6z"/></symbol><symbol id="icon-socials-tw" viewBox="-299 392 12 10" xml:space="preserve" xmlns="http://www.w3.org/2000/svg"><style>.axst0{fill:#fff}</style><path class="axst0" d="M-293.4 394.8v.4l-.4-.1c-1.5-.2-2.9-.9-4-2l-.6-.6-.1.4c-.3.9-.1 1.9.5 2.5.3.4.3.4-.3.2-.2-.1-.4-.1-.4-.1-.1.1.1.8.3 1.1.2.4.7.8 1.1 1.1l.4.2h-.5c-.5 0-.5 0-.4.2.2.6.8 1.1 1.6 1.4l.5.2-.5.3c-.7.4-1.5.6-2.2.6-.4 0-.7 0-.7.1s1 .6 1.6.7c1.8.6 3.9.3 5.5-.6 1.1-.7 2.3-2 2.8-3.3.3-.7.6-1.9.6-2.5 0-.4 0-.4.5-.9.3-.3.5-.6.6-.7.1-.2.1-.2-.4 0-.7.3-.8.2-.5-.2.3-.3.6-.8.6-.9 0 0-.1 0-.3.1-.2.1-.5.2-.7.3l-.5.1-.4-.3c-.2-.2-.5-.3-.7-.4-.4-.1-1.1-.1-1.5 0-.9.6-1.5 1.6-1.5 2.7z"/></symbol><symbol viewBox="0 0 368 368" id="icon-weather-cloud" xmlns="http://www.w3.org/2000/svg"><path d="M301.536 128.28C290.36 72.96 241.056 32 184 32c-57.064 0-106.36 40.96-117.528 96.28C29.352 131.12 0 162.168 0 200c0 39.696 32.296 72 72 72h16c4.424 0 8-3.584 8-8s-3.576-8-8-8H72c-30.872 0-56-25.12-56-56s25.128-56 55.616-56.064c.088.016.184.008.272.024.04.008.064.032.104.04.376.056.744.08 1.112.08h.024c4.168 0 8.456.544 12.752 1.624.312.136.64.248.976.336 14.088 3.848 26.352 13.312 33.656 25.96 2.208 3.824 7.112 5.136 10.928 2.928A7.99 7.99 0 00134.368 164c-9.2-15.936-24.52-27.936-42.168-33.08a7.024 7.024 0 00-1.152-.408c-2.8-.752-5.6-1.32-8.4-1.72C93.328 82.184 135.448 48 184 48c48.544 0 90.672 34.184 101.352 80.792-2.8.408-5.608.968-8.4 1.728-.392.104-.768.24-1.136.4-17.64 5.136-32.968 17.144-42.184 33.08a8.001 8.001 0 002.928 10.928c3.816 2.208 8.712.896 10.928-2.92 7.312-12.656 19.576-22.12 33.656-25.968.328-.096.656-.2.968-.336 4.296-1.08 8.584-1.624 12.768-1.624.512.008.608.024 1.12-.08 30.872 0 56 25.12 56 56s-25.128 56-56 56h-16c-4.424 0-8 3.584-8 8s3.576 8 8 8h16c39.704 0 72-32.304 72-72 0-37.832-29.344-68.872-66.464-71.72z"/><path d="M236.8 257.6c-3.528-2.656-8.544-1.928-11.192 1.6L192 304V184c0-4.416-3.576-8-8-8s-8 3.584-8 8v120l-33.6-44.8c-2.648-3.528-7.664-4.264-11.192-1.6a7.994 7.994 0 00-1.6 11.2l48 64c.104.136.264.184.376.312.528.624 1.152 1.104 1.848 1.544.288.176.512.408.824.552 1.016.48 2.136.792 3.344.792s2.328-.312 3.36-.792c.304-.144.536-.376.816-.552.696-.44 1.32-.92 1.848-1.544.104-.128.272-.176.376-.312l48-64a7.994 7.994 0 00-1.6-11.2z"/></symbol><symbol viewBox="0 0 368 368" id="icon-weather-cloud2" xmlns="http://www.w3.org/2000/svg"><path d="M301.536 128.28C290.36 72.96 241.056 32 184 32c-57.064 0-106.36 40.96-117.528 96.28C29.352 131.12 0 162.168 0 200c0 39.696 32.296 72 72 72h16c4.424 0 8-3.584 8-8s-3.576-8-8-8H72c-30.872 0-56-25.12-56-56s25.128-56 55.616-56.064c.088.016.184.008.272.024.04.008.064.032.104.04.376.056.744.08 1.112.08h.024c4.168 0 8.456.544 12.752 1.624.312.136.64.248.976.336 14.088 3.848 26.352 13.312 33.656 25.96a8.003 8.003 0 0010.928 2.928A7.99 7.99 0 00134.368 164c-9.2-15.936-24.52-27.936-42.168-33.08a7.024 7.024 0 00-1.152-.408c-2.8-.752-5.6-1.32-8.4-1.72C93.328 82.184 135.448 48 184 48c48.544 0 90.672 34.184 101.352 80.792-2.8.408-5.608.968-8.4 1.728-.392.104-.768.24-1.136.4-17.64 5.136-32.968 17.144-42.184 33.08a8.001 8.001 0 002.928 10.928c3.816 2.208 8.712.896 10.928-2.92 7.312-12.656 19.576-22.12 33.656-25.968.328-.096.656-.2.968-.336 4.296-1.08 8.584-1.624 12.768-1.624.512.008.616.024 1.12-.08 30.872 0 56 25.12 56 56s-25.128 56-56 56h-16c-4.424 0-8 3.584-8 8s3.576 8 8 8h16c39.704 0 72-32.304 72-72 0-37.832-29.344-68.872-66.464-71.72z"/><path d="M238.4 243.2l-48-64c-.096-.128-.256-.16-.352-.28-1.472-1.744-3.584-2.92-6.048-2.92s-4.576 1.176-6.048 2.92c-.104.12-.256.152-.352.28l-48 64a7.994 7.994 0 001.6 11.2c3.528 2.664 8.544 1.944 11.192-1.6L176 208v120c0 4.416 3.576 8 8 8s8-3.584 8-8V208l33.6 44.8a7.974 7.974 0 006.408 3.2c1.672 0 3.352-.52 4.792-1.6a7.994 7.994 0 001.6-11.2z"/></symbol><symbol viewBox="0 0 368 368" id="icon-weather-cloudy" xmlns="http://www.w3.org/2000/svg"><path d="M344.856 195.234c5.664-6.52 10.304-14.216 14.504-24.056a8.023 8.023 0 00-.528-7.304 8.005 8.005 0 00-6.248-3.816c-8.712-.64-15.608-3.224-23.328-6.936C304.192 141.298 288 115.746 288 88.034c0-8.32 2.392-17.72 7.304-28.744a7.988 7.988 0 00-.44-7.36 7.978 7.978 0 00-6.28-3.872c-1.672-.128-4.12-.096-6.312-.056l-2.272.032c-27.696 0-53.368 13.04-69.944 34.936-8.528-1.912-17.256-2.936-26.056-2.936-57.064 0-106.36 40.96-117.528 96.28C29.352 179.162 0 210.202 0 248.034c0 39.696 32.304 72 72 72h224c39.696 0 72-32.304 72-72 0-20.136-8.528-39.264-23.144-52.8zM219.96 96.37c12.672-19.2 33.512-31.056 56.288-32.232C273.4 72.706 272 80.594 272 88.034c0 33.872 19.792 65.096 50.368 79.528 5.296 2.544 11.04 5.016 17.728 6.664-3.56 6.36-7.552 11.376-12.384 15.68-13.104 11.696-30.048 18.128-47.712 18.128-10.856 0-21.184-2.32-30.744-6.912C224.192 189.298 208 163.746 208 136.034c0-14.184 4.128-27.896 11.96-39.664zM296 304.034H72c-30.88 0-56-25.12-56-56s25.12-56 55.6-56.072c.088.016.184.016.28.024.04.008.072.032.112.04.368.056.736.08 1.104.08h.032c4.168 0 8.456.544 12.752 1.624.312.136.64.248.976.336 14.08 3.84 26.352 13.312 33.664 25.968a7.992 7.992 0 0010.928 2.92 7.994 7.994 0 002.92-10.928C125.16 196.09 109.84 184.09 92.2 178.954a7.024 7.024 0 00-1.152-.408c-2.8-.752-5.6-1.32-8.4-1.72 10.688-46.608 52.808-80.792 101.36-80.792 5.696 0 11.36.52 16.944 1.456A87.218 87.218 0 00192 136.034c0 33.872 19.792 65.096 50.376 79.528 11.688 5.624 24.344 8.472 37.624 8.472a87.563 87.563 0 0053.064-17.88C345 216.722 352 231.97 352 248.034c0 30.88-25.12 56-56 56z"/></symbol><symbol viewBox="0 0 368 368" id="icon-weather-cloudy2" xmlns="http://www.w3.org/2000/svg"><path d="M301.536 160.28C290.36 104.96 241.056 64 184 64c-57.064 0-106.36 40.96-117.528 96.28C29.352 163.12 0 194.168 0 232c0 39.696 32.304 72 72 72h224c39.704 0 72-32.304 72-72 0-37.832-29.344-68.872-66.464-71.72zM296 288H72c-30.88 0-56-25.12-56-56s25.12-56 55.6-56.072c.088.016.184.016.28.024.04.008.072.032.112.04.064.008.12-.016.184-.008.32.04.632.096.952.096 4.168 0 8.456.544 12.752 1.624.312.136.64.248.976.336 14.08 3.84 26.352 13.312 33.664 25.968 2.2 3.816 7.088 5.136 10.928 2.92a7.994 7.994 0 002.92-10.928c-9.208-15.936-24.528-27.936-42.168-33.072a7.024 7.024 0 00-1.152-.408c-2.8-.752-5.6-1.32-8.4-1.72C93.328 114.184 135.448 80 184 80c48.544 0 90.672 34.184 101.36 80.792-2.8.408-5.6.968-8.4 1.72-.392.104-.768.24-1.136.4-17.64 5.136-32.968 17.144-42.184 33.08a8.001 8.001 0 002.928 10.928c3.808 2.216 8.712.896 10.928-2.92 7.312-12.656 19.576-22.12 33.656-25.968.328-.096.656-.2.968-.336 4.296-1.08 8.584-1.624 12.768-1.624.528 0 .616.024 1.12-.08 30.872 0 56 25.12 56 56S326.872 288 296 288z"/></symbol><symbol viewBox="0 0 368 368" id="icon-weather-cloudy3" xmlns="http://www.w3.org/2000/svg"><path d="M344.96 195.312A87.906 87.906 0 00368 136c0-48.52-39.48-88-88-88-27.696 0-53.352 13.032-69.944 34.936C201.528 81.024 192.792 80 184 80c-57.064 0-106.36 40.96-117.528 96.28C29.352 179.12 0 210.168 0 248c0 39.696 32.304 72 72 72h224c39.696 0 72-32.304 72-72 0-20.08-8.488-39.16-23.04-52.688zM280 64c39.696 0 72 32.304 72 72a71.93 71.93 0 01-19.944 49.696c-.848-.496-1.752-.872-2.624-1.336a70.464 70.464 0 00-10.72-4.624c-.36-.12-.704-.288-1.064-.4-3.128-.992-6.328-1.704-9.568-2.256-.896-.152-1.792-.24-2.696-.36-1.248-.168-2.488-.408-3.752-.504a119.804 119.804 0 00-75.096-88.408C240.08 72.744 259.392 64 280 64zm16 240H72c-30.88 0-56-25.12-56-56s25.12-56 55.6-56.072c.088.016.184.016.28.024.04.008.072.032.112.04.368.056.736.08 1.104.08h.032c4.168 0 8.456.544 12.752 1.624.312.136.64.248.976.336 14.08 3.84 26.352 13.312 33.664 25.968a7.992 7.992 0 0010.928 2.92 7.994 7.994 0 002.92-10.928c-9.208-15.936-24.528-27.936-42.168-33.072a7.024 7.024 0 00-1.152-.408c-2.8-.752-5.6-1.32-8.4-1.72C93.328 130.184 135.448 96 184 96c9.208 0 18.352 1.224 27.168 3.64h.016c.008 0 .008.008.016.008 37.336 10.088 65.664 39.896 74.176 77.144-2.8.408-5.608.968-8.408 1.728-.4.104-.784.24-1.152.408-14.248 4.168-26.984 12.744-36.024 24.208-.024.032-.064.04-.088.072-.024.032-.04.064-.064.096-.032.04-.064.064-.096.104-.032.04-.032.088-.064.128-2.2 2.68-4.2 5.544-5.896 8.568-2.16 3.856-.776 8.728 3.08 10.888a8.007 8.007 0 003.888 1.008 8.003 8.003 0 006.992-4.096 42.398 42.398 0 014.44-6.456c.032-.04.04-.088.064-.128.024-.032.072-.04.096-.08 7.184-9.216 17.496-16.032 29.016-19.208.328-.088.648-.2.952-.328 4.304-1.08 8.592-1.624 12.768-1.624.504 0 .624.016 1.12-.08 11.656 0 22.856 3.584 32.408 10.36C343.184 212.872 352 229.928 352 248c0 30.88-25.12 56-56 56z"/></symbol><symbol viewBox="0 0 368 368" id="icon-weather-daytime" xmlns="http://www.w3.org/2000/svg"><path d="M360 351.995h-56.408c-1.8-27.064-12.552-51.656-29.392-70.888l43.456-43.456a7.991 7.991 0 000-11.312 7.991 7.991 0 00-11.312 0l-43.456 43.456c-19.232-16.84-43.824-27.592-70.888-29.392v-56.408c0-4.416-3.576-8-8-8s-8 3.584-8 8v56.408c-27.064 1.8-51.656 12.552-70.888 29.392l-43.456-43.456c-3.128-3.128-8.184-3.128-11.312 0s-3.128 8.184 0 11.312L93.8 281.107c-16.84 19.232-27.592 43.824-29.392 70.888H8c-4.424 0-8 3.584-8 8s3.576 8 8 8H360c4.424 0 8-3.584 8-8s-3.576-8-8-8zm-279.592 0c4.112-53.616 48.952-96 103.592-96s99.48 42.384 103.592 96H80.408zM237.656 50.339L189.664 2.347a7.922 7.922 0 00-2.608-1.736 8.009 8.009 0 00-6.112 0 8.005 8.005 0 00-2.608 1.736l-47.992 47.992c-3.128 3.128-3.128 8.184 0 11.312s8.184 3.128 11.312 0L176 27.307v108.688c0 4.416 3.576 8 8 8s8-3.584 8-8V27.307l34.344 34.344A7.978 7.978 0 00232 63.995a7.978 7.978 0 005.656-2.344 7.991 7.991 0 000-11.312z"/></symbol><symbol viewBox="0 0 368 368" id="icon-weather-hazy" xmlns="http://www.w3.org/2000/svg"><path d="M360 96c-27.296 0-40.68-7.296-54.848-15.024C289.84 72.632 274.024 64 242.64 64s-47.2 8.632-62.504 16.976C165.96 88.704 152.576 96 125.28 96 98 96 84.632 88.704 70.472 80.976 55.176 72.632 39.36 64 8 64c-4.424 0-8 3.584-8 8s3.576 8 8 8c27.28 0 40.648 7.296 54.808 15.024C78.104 103.368 93.92 112 125.28 112c31.384 0 47.2-8.632 62.504-16.976C201.96 87.296 215.344 80 242.64 80s40.68 7.296 54.848 15.024C312.8 103.368 328.616 112 360 112c4.424 0 8-3.584 8-8s-3.576-8-8-8zM360 160c-27.296 0-40.68-7.296-54.848-15.024C289.84 136.632 274.024 128 242.64 128s-47.2 8.632-62.504 16.976C165.96 152.704 152.576 160 125.28 160c-27.28 0-40.648-7.296-54.808-15.024C55.176 136.632 39.36 128 8 128c-4.424 0-8 3.584-8 8s3.576 8 8 8c27.28 0 40.648 7.296 54.808 15.024C78.104 167.368 93.92 176 125.28 176c31.384 0 47.2-8.632 62.504-16.976C201.96 151.296 215.344 144 242.64 144s40.68 7.296 54.848 15.024C312.8 167.368 328.616 176 360 176c4.424 0 8-3.584 8-8s-3.576-8-8-8zM360 288c-27.296 0-40.68-7.296-54.848-15.024C289.84 264.632 274.024 256 242.64 256s-47.2 8.632-62.504 16.976C165.96 280.704 152.576 288 125.28 288c-27.28 0-40.648-7.296-54.808-15.024C55.176 264.632 39.36 256 8 256c-4.424 0-8 3.584-8 8s3.576 8 8 8c27.28 0 40.648 7.296 54.808 15.024C78.104 295.368 93.92 304 125.28 304c31.384 0 47.2-8.632 62.504-16.976C201.96 279.296 215.344 272 242.64 272s40.68 7.296 54.848 15.024C312.8 295.368 328.616 304 360 304c4.424 0 8-3.584 8-8s-3.576-8-8-8zM360 224c-27.296 0-40.68-7.296-54.848-15.024C289.84 200.632 274.024 192 242.64 192s-47.2 8.632-62.504 16.976C165.96 216.704 152.576 224 125.28 224c-27.28 0-40.648-7.296-54.808-15.024C55.176 200.632 39.36 192 8 192c-4.424 0-8 3.584-8 8s3.576 8 8 8c27.28 0 40.648 7.296 54.808 15.024C78.104 231.368 93.92 240 125.28 240c31.384 0 47.2-8.632 62.504-16.976C201.96 215.296 215.344 208 242.64 208s40.68 7.296 54.848 15.024C312.8 231.368 328.616 240 360 240c4.424 0 8-3.584 8-8s-3.576-8-8-8z"/></symbol><symbol viewBox="0 0 368 368" id="icon-weather-moon" xmlns="http://www.w3.org/2000/svg"><path d="M361.056 133.824v-.008a182.051 182.051 0 00-22.888-50.144v-.008s0-.008-.008-.008c-.008-.016-.016-.032-.024-.04s-.016-.016-.016-.024c-15.544-24.08-37.016-44.48-62.104-59-.008-.008-.024-.008-.032-.016C248.192 8.496 216.392 0 184 0 82.544 0 0 82.544 0 184s82.544 184 184 184c32.392 0 64.192-8.496 91.976-24.584.008-.008.024-.008.032-.016 25.088-14.52 46.56-34.92 62.104-59 .008-.008.016-.016.016-.024.008-.016.016-.032.024-.04 0 0 0-.008.008-.008v-.008a182.158 182.158 0 0022.888-50.144s0-.008.008-.008A184.27 184.27 0 00368 184c0-17-2.336-33.88-6.944-50.176zm-18.64-5.816H201.648V128c.088-.24.152-.488.24-.728 1.776-4.928 3.8-9.752 6.024-14.488.56-1.192 1.192-2.36 1.784-3.536a167.717 167.717 0 015.976-10.912c.464-.776.928-1.56 1.4-2.328h109.984a166.226 166.226 0 0115.36 32zM260.2 48.848c3.344-2.472 6.8-4.792 10.328-7.016.512-.32 1.024-.64 1.536-.952C288.896 51.272 303.816 64.584 315.92 80h-87.752c.312-.392.608-.792.92-1.176 2.712-3.384 5.52-6.704 8.496-9.88.176-.192.368-.36.544-.552 2.848-3.008 5.832-5.88 8.904-8.672.808-.736 1.616-1.464 2.432-2.176 3.288-2.88 6.648-5.672 10.16-8.288.192-.144.392-.264.576-.408zM184 352c-92.64 0-168-75.36-168-168S91.36 16 184 16c25.032 0 49.672 5.552 72.024 16.152-.488.336-.928.736-1.408 1.072-4.376 3.064-8.648 6.272-12.728 9.696-.12.104-.256.2-.376.304-4.12 3.472-8.032 7.176-11.824 10.984-.744.744-1.488 1.48-2.216 2.232a181.758 181.758 0 00-10.28 11.64c-.648.8-1.264 1.624-1.904 2.44-3.288 4.2-6.44 8.504-9.328 12.976-.024.04-.064.08-.088.12-.008.016-.016.032-.024.04 0 0 0 .008-.008.008v.008a181.412 181.412 0 00-13.336 24.168 181.95 181.95 0 00-9.552 25.984A184.069 184.069 0 00176 184c0 4.248.144 8.496.44 12.72a184.092 184.092 0 006.504 37.456s0 .008.008.008a182.16 182.16 0 0022.92 50.2c.008.008.016.016.016.024 2.92 4.52 6.112 8.864 9.432 13.112.608.776 1.2 1.56 1.824 2.336 3.28 4.056 6.736 7.96 10.352 11.728.704.728 1.424 1.44 2.136 2.152 3.808 3.832 7.736 7.552 11.88 11.048.112.096.224.176.336.264 4.096 3.44 8.384 6.648 12.768 9.72.48.336.92.736 1.408 1.072C233.672 346.448 209.032 352 184 352zm88.072-24.88c-.512-.32-1.032-.632-1.536-.952-3.52-2.224-6.984-4.536-10.32-7.008-.192-.144-.392-.272-.584-.408-3.504-2.616-6.856-5.4-10.144-8.272a162.607 162.607 0 01-2.472-2.216c-3.016-2.744-5.952-5.576-8.752-8.528-.224-.24-.472-.464-.696-.704-2.952-3.144-5.728-6.432-8.424-9.792-.328-.408-.64-.824-.96-1.232h87.736c-12.104 15.408-27.024 28.72-43.848 39.112zM327.056 272H217.072c-.472-.768-.936-1.544-1.4-2.32a161.792 161.792 0 01-6-10.96c-.584-1.168-1.2-2.312-1.76-3.488a163.67 163.67 0 01-6.024-14.496c-.088-.24-.152-.488-.24-.736h140.768a166.226 166.226 0 01-15.36 32zm20.144-48H196.912c-.16-.664-.336-1.328-.488-1.992a165.454 165.454 0 01-2.384-12.312c-.104-.656-.248-1.312-.344-1.976-.672-4.736-1.096-9.504-1.368-14.296-.024-.472-.024-.952-.048-1.424h159.536a168.403 168.403 0 01-4.616 32zm-154.928-48c.024-.472.024-.952.048-1.424.264-4.784.696-9.56 1.368-14.296.096-.656.24-1.296.336-1.944.64-4.152 1.448-8.272 2.392-12.36.152-.664.328-1.32.488-1.976h150.288a168.414 168.414 0 014.624 32H192.272z"/></symbol><symbol viewBox="0 0 368.008 368.008" id="icon-weather-rain" xmlns="http://www.w3.org/2000/svg"><path d="M301.528 112.284c-11.176-55.32-60.472-96.28-117.528-96.28-57.064 0-106.36 40.96-117.528 96.28C29.352 115.124 0 146.172 0 184.004c0 39.696 32.304 72 72 72h16c4.416 0 8-3.584 8-8s-3.584-8-8-8H72c-30.88 0-56-25.12-56-56s25.12-56 55.6-56.072c.088.016.184.016.28.024.04.008.072.032.112.04.064.008.12-.016.176-.008.32.04.632.096.952.096 4.168 0 8.456.544 12.752 1.624.312.136.64.248.976.336 14.08 3.84 26.352 13.312 33.664 25.968 2.2 3.824 7.096 5.136 10.928 2.92a7.994 7.994 0 002.92-10.928c-9.208-15.936-24.528-27.936-42.168-33.072a7.024 7.024 0 00-1.152-.408c-2.8-.752-5.6-1.32-8.4-1.72 10.688-46.616 52.808-80.8 101.36-80.8 48.544 0 90.664 34.184 101.36 80.792-2.8.408-5.608.968-8.4 1.72-.392.104-.776.24-1.136.4-17.648 5.136-32.976 17.144-42.184 33.08-2.208 3.832-.904 8.72 2.92 10.928a7.994 7.994 0 0010.928-2.92c7.312-12.656 19.584-22.12 33.664-25.968.336-.096.656-.2.968-.336 4.304-1.08 8.592-1.624 12.768-1.624.528.008.608.024 1.12-.08 30.88 0 56 25.12 56 56s-25.12 56-56 56h-16c-4.416 0-8 3.584-8 8s3.584 8 8 8h16c39.696 0 72-32.304 72-72-.008-37.824-29.36-68.872-66.48-71.712z"/><path d="M184 208.004c-4.416 0-8 3.584-8 8v32c0 4.416 3.584 8 8 8s8-3.584 8-8v-32c0-4.416-3.584-8-8-8zM184 288.004c-4.416 0-8 3.584-8 8v32c0 4.416 3.584 8 8 8s8-3.584 8-8v-32c0-4.416-3.584-8-8-8zM136 224.004c-4.416 0-8 3.584-8 8v32c0 4.416 3.584 8 8 8s8-3.584 8-8v-32c0-4.416-3.584-8-8-8zM232 224.004c-4.416 0-8 3.584-8 8v32c0 4.416 3.584 8 8 8s8-3.584 8-8v-32c0-4.416-3.584-8-8-8zM136 304.004c-4.416 0-8 3.584-8 8v32c0 4.416 3.584 8 8 8s8-3.584 8-8v-32c0-4.416-3.584-8-8-8zM232 304.004c-4.416 0-8 3.584-8 8v32c0 4.416 3.584 8 8 8s8-3.584 8-8v-32c0-4.416-3.584-8-8-8z"/></symbol><symbol viewBox="0 0 368.008 368.008" id="icon-weather-rain2" xmlns="http://www.w3.org/2000/svg"><path d="M301.528 112.284c-11.176-55.32-60.472-96.28-117.528-96.28-57.064 0-106.36 40.96-117.528 96.28C29.352 115.124 0 146.172 0 184.004c0 39.696 32.304 72 72 72h16c4.416 0 8-3.584 8-8s-3.584-8-8-8H72c-30.88 0-56-25.12-56-56s25.12-56 55.6-56.072c.088.016.184.016.28.024.04.008.072.032.112.04.064.008.12-.016.176-.008.32.04.632.096.952.096 4.168 0 8.456.544 12.752 1.624.312.136.64.248.976.336 14.08 3.84 26.352 13.312 33.664 25.968a7.992 7.992 0 0010.928 2.92 7.994 7.994 0 002.92-10.928c-9.208-15.936-24.528-27.936-42.168-33.072a7.024 7.024 0 00-1.152-.408c-2.8-.752-5.6-1.32-8.4-1.72 10.688-46.616 52.808-80.8 101.36-80.8 48.544 0 90.664 34.184 101.36 80.792-2.8.408-5.608.968-8.4 1.72-.392.104-.776.24-1.136.4-17.648 5.136-32.976 17.144-42.184 33.08-2.208 3.832-.904 8.72 2.92 10.928 3.816 2.216 8.72.904 10.928-2.92 7.312-12.656 19.584-22.12 33.664-25.968.336-.096.656-.2.968-.336 4.304-1.08 8.592-1.624 12.768-1.624.52.008.608.024 1.12-.08 30.88 0 56 25.12 56 56s-25.12 56-56 56h-16c-4.416 0-8 3.584-8 8s3.584 8 8 8h16c39.696 0 72-32.304 72-72-.008-37.824-29.36-68.872-66.48-71.712z"/><path d="M202.816 208.508c-4.128-1.52-8.744.544-10.304 4.68l-48 128a8.014 8.014 0 004.68 10.312 8.015 8.015 0 0010.304-4.688l48-128c1.552-4.136-.544-8.744-4.68-10.304zM250.536 208.412c-4.208-1.416-8.728.872-10.12 5.056l-32 96a7.997 7.997 0 005.056 10.12c.84.288 1.696.416 2.528.416a8.008 8.008 0 007.592-5.472l32-96a7.997 7.997 0 00-5.056-10.12zM155.08 208.62c-4.088-1.72-8.768.232-10.464 4.304l-40 96a8.004 8.004 0 007.384 11.08 7.99 7.99 0 007.384-4.928l40-96a7.997 7.997 0 00-4.304-10.456z"/></symbol><symbol viewBox="0 0 368 368" id="icon-weather-sleet" xmlns="http://www.w3.org/2000/svg"><path d="M301.536 112.28C290.36 56.96 241.056 16 184 16c-57.056 0-106.36 40.96-117.536 96.28C29.344 115.128 0 146.168 0 184c0 39.696 32.296 72 72 72h16c4.424 0 8-3.584 8-8s-3.576-8-8-8H72c-30.872 0-56-25.12-56-56s25.128-56 55.576-56.072c.096.016.2.016.304.032.04.008.064.032.104.04.064.008.12-.016.184-.008.32.04.632.088.952.088 4.168 0 8.464.544 12.76 1.624.312.136.64.248.976.336 14.08 3.84 26.352 13.312 33.672 25.968 2.192 3.824 7.08 5.136 10.928 2.92 3.824-2.216 5.136-7.104 2.912-10.928-9.352-16.176-24.296-27.888-42.168-33.08a7.83 7.83 0 00-1.152-.4c-2.8-.752-5.6-1.32-8.4-1.728C93.328 66.184 135.456 32 184 32s90.672 34.184 101.352 80.792c-2.8.408-5.608.968-8.4 1.728-.392.104-.768.24-1.136.4-17.64 5.136-32.968 17.144-42.184 33.08a8.001 8.001 0 002.928 10.928c3.816 2.216 8.712.904 10.928-2.92 7.312-12.656 19.576-22.12 33.656-25.968.328-.096.656-.2.968-.336 4.296-1.08 8.584-1.624 12.768-1.624.512.008.608.024 1.12-.08 30.872 0 56 25.12 56 56s-25.128 56-56 56h-16c-4.424 0-8 3.584-8 8s3.576 8 8 8h16c39.704 0 72-32.304 72-72 0-37.832-29.344-68.872-66.464-71.72z"/><path d="M184 176c-4.424 0-8 3.584-8 8v48c0 4.416 3.576 8 8 8s8-3.584 8-8v-48c0-4.416-3.576-8-8-8zM136 224c-4.424 0-8 3.584-8 8v48c0 4.416 3.576 8 8 8s8-3.584 8-8v-48c0-4.416-3.576-8-8-8zM232 224c-4.424 0-8 3.584-8 8v48c0 4.416 3.576 8 8 8s8-3.584 8-8v-48c0-4.416-3.576-8-8-8z"/><circle cx="136" cy="336" r="16"/><circle cx="232" cy="336" r="16"/><circle cx="184" cy="288" r="16"/></symbol><symbol viewBox="0 0 368.004 368.004" id="icon-weather-snows" xmlns="http://www.w3.org/2000/svg"><path d="M331.314 192.002h28.688c4.416 0 8-3.584 8-8s-3.584-8-8-8h-28.68l34.336-34.336a8 8 0 000-11.32 7.991 7.991 0 00-11.312 0l-45.656 45.656H203.322l72-72h68.68c4.416 0 8-3.584 8-8s-3.584-8-8-8h-52.688l26.344-26.344c3.128-3.128 3.128-8.184 0-11.312s-8.184-3.128-11.312 0L280.002 76.69V24.002c0-4.416-3.584-8-8-8s-8 3.584-8 8V92.69l-72 72V59.322l45.664-45.664c3.128-3.128 3.128-8.184 0-11.312s-8.184-3.128-11.312 0L192.002 36.69V8.002c0-4.416-3.584-8-8-8s-8 3.584-8 8v28.68L141.666 2.346c-3.128-3.128-8.184-3.128-11.312 0s-3.128 8.184 0 11.312l45.648 45.656V164.69l-72-72V24.002c0-4.416-3.584-8-8-8s-8 3.584-8 8V76.69L61.658 50.346c-3.128-3.128-8.184-3.128-11.312 0s-3.128 8.184 0 11.312L76.69 88.002H24.002c-4.416 0-8 3.584-8 8s3.584 8 8 8H92.69l72 72H59.314l-45.656-45.656c-3.128-3.128-8.184-3.128-11.312 0s-3.128 8.184 0 11.312l34.336 34.344H8.002c-4.416 0-8 3.584-8 8s3.584 8 8 8H36.69L2.346 226.346a7.991 7.991 0 000 11.312c1.56 1.56 3.608 2.344 5.656 2.344s4.096-.784 5.656-2.344l45.664-45.656h105.376l-72 72H24.002c-4.416 0-8 3.584-8 8s3.584 8 8 8H76.69l-26.344 26.344a7.991 7.991 0 000 11.312 7.978 7.978 0 005.656 2.344 7.978 7.978 0 005.656-2.344l26.344-26.344v52.688c0 4.416 3.584 8 8 8s8-3.584 8-8v-68.688l72-72V308.69l-45.656 45.656a7.991 7.991 0 000 11.312 7.991 7.991 0 0011.312 0l34.344-34.336v28.68c0 4.416 3.584 8 8 8s8-3.584 8-8v-28.688l34.344 34.344a7.978 7.978 0 005.656 2.344 7.978 7.978 0 005.656-2.344 7.991 7.991 0 000-11.312l-45.656-45.664V203.314l72 72v68.688c0 4.416 3.584 8 8 8s8-3.584 8-8v-52.688l26.344 26.344a7.978 7.978 0 005.656 2.344 7.978 7.978 0 005.656-2.344 7.991 7.991 0 000-11.312l-26.344-26.344h52.688c4.416 0 8-3.584 8-8s-3.584-8-8-8h-68.688l-72-72H308.69l45.664 45.664a7.971 7.971 0 005.648 2.336 7.978 7.978 0 005.656-2.344 7.991 7.991 0 000-11.312l-34.344-34.344z"/></symbol><symbol viewBox="0 0 368 368" id="icon-weather-snowy" xmlns="http://www.w3.org/2000/svg"><path d="M301.536 96.28C290.36 40.96 241.056 0 184 0 126.936 0 77.64 40.96 66.472 96.28 29.352 99.12 0 130.168 0 168c0 39.696 32.304 72 72 72h16c4.416 0 8-3.584 8-8s-3.584-8-8-8H72c-30.88 0-56-25.12-56-56s25.12-56 55.6-56.072c.088.016.184.016.28.024.04.008.072.032.112.04.064.008.12-.016.184-.008.32.04.632.096.952.096 4.168 0 8.456.544 12.752 1.624.312.136.64.248.976.336 14.08 3.84 26.352 13.312 33.664 25.968 2.2 3.816 7.088 5.136 10.928 2.92a7.994 7.994 0 002.92-10.928c-9.208-15.936-24.528-27.936-42.168-33.072a7.024 7.024 0 00-1.152-.408c-2.8-.752-5.6-1.32-8.4-1.72C93.328 50.184 135.448 16 184 16c48.544 0 90.672 34.184 101.352 80.792-2.8.408-5.608.968-8.4 1.728-.392.104-.768.24-1.136.4-17.64 5.136-32.968 17.144-42.184 33.08a8.001 8.001 0 002.928 10.928c3.808 2.216 8.712.896 10.928-2.92 7.312-12.656 19.576-22.12 33.656-25.968.328-.096.656-.2.968-.336 4.296-1.08 8.584-1.624 12.768-1.624.528 0 .616.024 1.12-.08 30.872 0 56 25.12 56 56s-25.128 56-56 56h-16c-4.424 0-8 3.584-8 8s3.576 8 8 8h16c39.704 0 72-32.304 72-72 0-37.832-29.344-68.872-66.464-71.72z"/><circle cx="144" cy="224" r="16"/><circle cx="184" cy="288" r="16"/><circle cx="104" cy="288" r="16"/><circle cx="264" cy="288" r="16"/><circle cx="224" cy="224" r="16"/><circle cx="144" cy="352" r="16"/><circle cx="224" cy="352" r="16"/></symbol><symbol viewBox="0 0 368 368" id="icon-weather-storm" xmlns="http://www.w3.org/2000/svg"><path d="M344.856 163.234c5.664-6.52 10.304-14.224 14.504-24.056a8.023 8.023 0 00-.528-7.304 8.005 8.005 0 00-6.248-3.816c-8.712-.64-15.608-3.224-23.328-6.936C304.192 109.29 288 83.746 288 56.034c0-8.32 2.392-17.72 7.304-28.744a7.988 7.988 0 00-.44-7.36 7.978 7.978 0 00-6.28-3.872c-1.672-.128-4.128-.096-6.312-.056l-2.272.032c-27.696 0-53.368 13.04-69.944 34.936-8.528-1.912-17.264-2.936-26.056-2.936-57.064 0-106.36 40.96-117.528 96.28C29.352 147.154 0 178.202 0 216.034c0 39.696 32.304 72 72 72h32c4.416 0 8-3.584 8-8s-3.584-8-8-8H72c-30.88 0-56-25.12-56-56s25.12-56 55.6-56.072c.088.016.184.016.28.024.04.008.072.032.112.04.368.056.736.08 1.104.08h.032c4.168 0 8.456.544 12.752 1.624.312.136.64.248.976.336 14.08 3.84 26.352 13.312 33.664 25.968 2.2 3.816 7.096 5.128 10.928 2.92a7.994 7.994 0 002.92-10.928C125.16 164.09 109.84 152.09 92.2 146.954a7.024 7.024 0 00-1.152-.408c-2.8-.752-5.6-1.32-8.4-1.72 10.68-46.608 52.8-80.792 101.352-80.792 5.696 0 11.36.52 16.944 1.456A87.32 87.32 0 00192 104.034c0 33.872 19.792 65.096 50.376 79.528 11.688 5.624 24.344 8.472 37.624 8.472a87.563 87.563 0 0053.064-17.88C345 184.722 352 199.962 352 216.034c0 30.88-25.12 56-56 56h-32c-4.416 0-8 3.584-8 8s3.584 8 8 8h32c39.696 0 72-32.304 72-72 0-20.136-8.528-39.264-23.144-52.8zm-17.144-5.328c-13.104 11.688-30.048 18.128-47.712 18.128-10.856 0-21.184-2.32-30.744-6.912C224.192 157.29 208 131.746 208 104.034c0-14.184 4.128-27.896 11.96-39.664 12.672-19.192 33.512-31.056 56.296-32.232C273.4 40.698 272 48.594 272 56.034c0 33.872 19.792 65.096 50.368 79.528 5.296 2.544 11.04 5.016 17.728 6.664-3.56 6.36-7.552 11.376-12.384 15.68z"/><path d="M216 272.034h-44.688l50.344-50.344c3.128-3.128 3.128-8.184 0-11.312s-8.184-3.128-11.312 0l-64 64a8 8 0 00-1.736 8.72 8.013 8.013 0 007.392 4.936h44.688l-50.344 50.344a7.991 7.991 0 000 11.312 7.978 7.978 0 005.656 2.344 7.978 7.978 0 005.656-2.344l64-64a8 8 0 001.736-8.72 8.013 8.013 0 00-7.392-4.936z"/></symbol><symbol viewBox="0 0 368 368" id="icon-weather-storm2" xmlns="http://www.w3.org/2000/svg"><path d="M301.536 112.284c-11.176-55.32-60.48-96.28-117.536-96.28-57.064 0-106.36 40.96-117.528 96.28C29.352 115.124 0 146.172 0 184.004c0 39.696 32.296 72 72 72h32c4.424 0 8-3.584 8-8s-3.576-8-8-8H72c-30.872 0-56-25.12-56-56s25.128-56 55.616-56.064c.088.016.184.008.272.024.04.008.064.032.104.04.376.056.744.08 1.112.08h.024c4.168 0 8.456.544 12.752 1.624.312.136.64.248.976.336 14.088 3.848 26.352 13.312 33.656 25.96 2.208 3.832 7.104 5.128 10.928 2.928a7.99 7.99 0 002.928-10.928c-9.2-15.936-24.52-27.936-42.168-33.08a7.024 7.024 0 00-1.152-.408c-2.8-.752-5.6-1.32-8.4-1.72 10.68-46.608 52.8-80.792 101.352-80.792 48.544 0 90.672 34.184 101.352 80.792-2.8.408-5.608.968-8.4 1.728-.392.104-.768.24-1.136.4-17.64 5.136-32.968 17.144-42.184 33.08a8.001 8.001 0 002.928 10.928c3.816 2.216 8.712.904 10.928-2.92 7.312-12.656 19.576-22.12 33.656-25.968.328-.096.656-.2.968-.336 4.296-1.08 8.584-1.624 12.768-1.624.512.008.616.024 1.12-.08 30.872 0 56 25.12 56 56s-25.128 56-56 56h-32c-4.424 0-8 3.584-8 8s3.576 8 8 8h32c39.704 0 72-32.304 72-72 0-37.832-29.344-68.872-66.464-71.72z"/><path d="M216 264.004h-46.184l52.168-58.68a8.017 8.017 0 00-.672-11.304c-3.296-2.936-8.36-2.64-11.288.664l-64 72a7.999 7.999 0 00-1.32 8.592 8 8 0 007.296 4.728h47.64l-45.952 59.088a7.99 7.99 0 006.304 12.904 7.994 7.994 0 006.32-3.088l56-72a8 8 0 00.872-8.424 8.008 8.008 0 00-7.184-4.48z"/></symbol><symbol viewBox="0 0 368 368" id="icon-weather-storm3" xmlns="http://www.w3.org/2000/svg"><path d="M312 32H8c-4.424 0-8 3.584-8 8s3.576 8 8 8h304c4.424 0 8-3.584 8-8s-3.576-8-8-8zM360 80H88c-4.424 0-8 3.584-8 8s3.576 8 8 8h272c4.424 0 8-3.584 8-8s-3.576-8-8-8zM312 176H120c-4.424 0-8 3.584-8 8s3.576 8 8 8h192c4.424 0 8-3.584 8-8s-3.576-8-8-8zM280 224H152c-4.424 0-8 3.584-8 8s3.576 8 8 8h128c4.424 0 8-3.584 8-8s-3.576-8-8-8zM248 272h-96c-4.424 0-8 3.584-8 8s3.576 8 8 8h96c4.424 0 8-3.584 8-8s-3.576-8-8-8zM216 320h-64c-4.424 0-8 3.584-8 8s3.576 8 8 8h64c4.424 0 8-3.584 8-8s-3.576-8-8-8zM248 128H8c-4.424 0-8 3.584-8 8s3.576 8 8 8h240c4.424 0 8-3.584 8-8s-3.576-8-8-8z"/></symbol><symbol viewBox="0 0 368 368" id="icon-weather-sunny" xmlns="http://www.w3.org/2000/svg"><path d="M344.96 195.312A87.906 87.906 0 00368 136c0-48.52-39.48-88-88-88-27.696 0-53.368 13.04-69.944 34.936C201.528 81.024 192.792 80 184 80c-57.064 0-106.36 40.96-117.528 96.28C29.352 179.12 0 210.168 0 248c0 39.696 32.304 72 72 72h224c39.696 0 72-32.304 72-72 0-20.08-8.488-39.16-23.04-52.688zm-125-98.976C233.328 76.088 255.776 64 280 64c39.696 0 72 32.304 72 72a71.916 71.916 0 01-24.288 53.872C314.608 201.56 297.664 208 280 208c-10.856 0-21.184-2.32-30.696-6.888l-.048-.024C224.192 189.256 208 163.712 208 136c0-14.184 4.128-27.896 11.96-39.664zM296 304H72c-30.88 0-56-25.12-56-56s25.12-56 55.6-56.072c.088.016.184.016.28.024.04.008.072.032.112.04.368.056.736.08 1.104.08h.032c4.168 0 8.456.544 12.752 1.624.312.136.64.248.976.336 14.08 3.84 26.352 13.312 33.664 25.968 2.2 3.824 7.096 5.136 10.928 2.92a7.994 7.994 0 002.92-10.928c-9.208-15.936-24.528-27.936-42.168-33.072a7.024 7.024 0 00-1.152-.408c-2.8-.752-5.6-1.32-8.4-1.72C93.328 130.184 135.448 96 184 96c5.696 0 11.36.52 16.944 1.456A87.32 87.32 0 00192 136c0 33.856 19.784 65.08 50.4 79.544C254.08 221.152 266.736 224 280 224a87.528 87.528 0 0053.064-17.88C345 216.688 352 231.928 352 248c0 30.88-25.12 56-56 56z"/></symbol><symbol viewBox="0 0 368 368" id="icon-weather-sunny2" xmlns="http://www.w3.org/2000/svg"><path d="M184 0c-4.416 0-8 3.584-8 8v48c0 4.416 3.576 8 8 8 4.416 0 8-3.584 8-8V8c0-4.416-3.584-8-8-8zM184 304c-4.416 0-8 3.584-8 8v48c0 4.416 3.584 8 8 8s8-3.584 8-8v-48c0-4.416-3.584-8-8-8zM360 176h-48c-4.424 0-8 3.584-8 8s3.584 8 8 8h48c4.416 0 8-3.584 8-8s-3.584-8-8-8zM56 176H8c-4.416 0-8 3.584-8 8s3.576 8 8 8h48c4.416 0 8-3.584 8-8s-3.584-8-8-8zM317.656 306.344l-40-40c-3.128-3.128-8.184-3.128-11.312 0s-3.128 8.184 0 11.312l40 40A7.978 7.978 0 00312 320a7.978 7.978 0 005.656-2.344 7.991 7.991 0 000-11.312zM101.656 90.344l-40-40c-3.128-3.128-8.184-3.128-11.312 0s-3.128 8.184 0 11.312l40 40A7.978 7.978 0 0096 104a7.978 7.978 0 005.656-2.344 7.991 7.991 0 000-11.312zM101.656 266.344a7.991 7.991 0 00-11.312 0l-40 40a7.991 7.991 0 000 11.312A7.978 7.978 0 0056 320a7.978 7.978 0 005.656-2.344l40-40a7.991 7.991 0 000-11.312zM317.656 50.344a7.991 7.991 0 00-11.312 0l-40 40a7.991 7.991 0 000 11.312A7.978 7.978 0 00272 104a7.978 7.978 0 005.656-2.344l40-40a7.991 7.991 0 000-11.312zM184 96c-48.52 0-88 39.48-88 88s39.48 88 88 88 88-39.48 88-88-39.48-88-88-88zm0 160c-39.696 0-72-32.304-72-72s32.304-72 72-72 72 32.304 72 72-32.304 72-72 72z"/></symbol><symbol viewBox="0 0 368 368" id="icon-weather-sunset" xmlns="http://www.w3.org/2000/svg"><path d="M360 208h-33c.592-5.256 1-10.584 1-16 0-79.4-64.6-144-144-144S40 112.6 40 192c0 5.416.408 10.744 1 16H8c-4.416 0-8 3.584-8 8s3.584 8 8 8h352c4.416 0 8-3.584 8-8s-3.584-8-8-8zm-49 0H57c-.664-5.216-1-10.576-1-16 0-70.576 57.424-128 128-128s128 57.424 128 128c0 5.424-.336 10.784-1 16zM328 256H40c-4.416 0-8 3.584-8 8s3.584 8 8 8h288c4.416 0 8-3.584 8-8s-3.584-8-8-8zM296 304H72c-4.416 0-8 3.584-8 8s3.584 8 8 8h224c4.416 0 8-3.584 8-8s-3.584-8-8-8z"/></symbol><symbol viewBox="0 0 368 368" id="icon-weather-sunset2" xmlns="http://www.w3.org/2000/svg"><path d="M360 176h-56.408c-1.8-27.064-12.552-51.656-29.392-70.888l43.456-43.456c3.128-3.128 3.128-8.184 0-11.312s-8.184-3.128-11.312 0L262.888 93.8C243.656 76.96 219.064 66.208 192 64.408V8c0-4.416-3.576-8-8-8s-8 3.584-8 8v56.408c-27.064 1.8-51.656 12.552-70.888 29.392L61.656 50.344c-3.128-3.128-8.184-3.128-11.312 0s-3.128 8.184 0 11.312L93.8 105.112C76.96 124.344 66.208 148.936 64.408 176H8c-4.424 0-8 3.584-8 8s3.576 8 8 8H360c4.424 0 8-3.584 8-8s-3.576-8-8-8zm-279.592 0C84.52 122.384 129.36 80 184 80s99.48 42.384 103.592 96H80.408zM237.656 306.344a7.991 7.991 0 00-11.312 0L192 340.688V232c0-4.416-3.576-8-8-8s-8 3.584-8 8v108.688l-34.344-34.344c-3.128-3.128-8.184-3.128-11.312 0s-3.128 8.184 0 11.312l47.992 47.992a7.922 7.922 0 002.608 1.736c.976.4 2.016.616 3.056.616s2.08-.216 3.056-.616a8.005 8.005 0 002.608-1.736l47.992-47.992a7.991 7.991 0 000-11.312z"/></symbol><symbol viewBox="0 0 368 368" id="icon-weather-temperature" xmlns="http://www.w3.org/2000/svg"><path d="M128 201.656V40c0-22.056-17.944-40-40-40S48 17.944 48 40v161.656C18.672 216.608 0 246.8 0 280c0 48.52 39.48 88 88 88s88-39.48 88-88c0-33.2-18.672-63.392-48-78.344zM64 40c0-13.232 10.768-24 24-24s24 10.768 24 24v72H64V40zm24 312c-39.704 0-72-32.304-72-72 0-28.616 16.952-54.504 43.192-65.952A7.986 7.986 0 0064 206.72V128h48v78.72a8.006 8.006 0 004.808 7.336C143.048 225.504 160 251.384 160 280c0 39.696-32.296 72-72 72z"/><path d="M88 240c-22.056 0-40 17.944-40 40s17.944 40 40 40 40-17.944 40-40-17.944-40-40-40zm0 64c-13.232 0-24-10.768-24-24s10.768-24 24-24 24 10.768 24 24-10.768 24-24 24zM280 96c-48.52 0-88 39.48-88 88s39.48 88 88 88 88-39.48 88-88-39.48-88-88-88zm0 160c-39.704 0-72-32.304-72-72s32.296-72 72-72 72 32.304 72 72-32.296 72-72 72z"/><path d="M312 176h-64c-4.424 0-8 3.584-8 8s3.576 8 8 8h64c4.424 0 8-3.584 8-8s-3.576-8-8-8z"/></symbol><symbol viewBox="0 0 368 368" id="icon-weather-temperature2" xmlns="http://www.w3.org/2000/svg"><path d="M128 201.656V40c0-22.056-17.944-40-40-40S48 17.944 48 40v161.656C18.672 216.608 0 246.8 0 280c0 48.52 39.48 88 88 88s88-39.48 88-88c0-33.2-18.672-63.392-48-78.344zM64 40c0-13.232 10.768-24 24-24s24 10.768 24 24v24H64V40zm24 312c-39.704 0-72-32.304-72-72 0-28.616 16.952-54.504 43.192-65.952A7.986 7.986 0 0064 206.72V80h48v126.72a8.006 8.006 0 004.808 7.336C143.048 225.504 160 251.384 160 280c0 39.696-32.296 72-72 72z"/><path d="M88 240c-22.056 0-40 17.944-40 40s17.944 40 40 40 40-17.944 40-40-17.944-40-40-40zm0 64c-13.232 0-24-10.768-24-24s10.768-24 24-24 24 10.768 24 24-10.768 24-24 24zM280 96c-48.52 0-88 39.48-88 88s39.48 88 88 88 88-39.48 88-88-39.48-88-88-88zm0 160c-39.704 0-72-32.304-72-72s32.296-72 72-72 72 32.304 72 72-32.296 72-72 72z"/><path d="M312 176h-24v-24c0-4.416-3.576-8-8-8s-8 3.584-8 8v24h-24c-4.424 0-8 3.584-8 8s3.576 8 8 8h24v24c0 4.416 3.576 8 8 8s8-3.584 8-8v-24h24c4.424 0 8-3.584 8-8s-3.576-8-8-8z"/></symbol><symbol viewBox="0 0 368 368" id="icon-weather-umbrella" xmlns="http://www.w3.org/2000/svg"><path d="M192.008 32.2L192 8c0-4.416-3.584-8-8-8s-8 3.584-8 8v24.2C78.24 36.408 0 117.224 0 216c0 4.416 3.584 8 8 8 18.176 0 27.632-10.312 35.216-18.6 6.864-7.48 12.28-13.4 23.416-13.4 11.144 0 16.56 5.912 23.424 13.4 6.216 6.784 13.76 14.824 26.224 17.56 1.128.608 2.36 1.04 3.72 1.04.488 0 .904-.192 1.368-.272 1.288.112 2.528.272 3.92.272 18.184 0 27.64-10.312 35.232-18.592 4.984-5.44 9.232-10.008 15.44-12.128V328c0 .312.016.624.056.928C176.504 350.552 194.256 368 216 368c22.056 0 40-17.944 40-40 0-4.416-3.576-8-8-8s-8 3.584-8 8c0 13.232-10.768 24-24 24s-24-10.768-24-24c0-.28-.008-.56-.04-.832V193.28c6.2 2.12 10.448 6.688 15.424 12.12 7.592 8.288 17.04 18.6 35.224 18.6 1.416 0 2.688-.168 4-.288.464.096.896.288 1.392.288 1.392 0 2.632-.448 3.776-1.072 12.376-2.768 19.888-10.768 26.08-17.512C284.72 197.92 290.152 192 301.312 192s16.576 5.92 23.448 13.408C332.36 213.696 341.816 224 360 224c4.424 0 8-3.584 8-8 0-98.768-78.232-179.584-175.992-183.8zm-79.864 172.008c-3.68-2.416-6.8-5.8-10.288-9.608-7.592-8.288-17.04-18.6-35.224-18.6-18.184 0-27.624 10.312-35.216 18.592-4.92 5.368-9.096 9.928-15.168 12.08C20.656 126.448 81.664 61.24 159.88 49.92c-19.328 21.384-45.568 66.4-47.736 154.288zm107.032-9.608c-7.592-8.288-17.032-18.6-35.216-18.6s-27.64 10.312-35.24 18.592c-6.224 6.8-11.32 12.248-20.528 13.208C130.208 97.744 171.44 58.776 184 49.52c12.616 9.304 53.8 48.296 55.808 158.288-9.272-.928-14.384-6.392-20.632-13.208zm117.376 0c-7.6-8.288-17.048-18.6-35.24-18.6-18.2 0-27.656 10.312-35.256 18.592-3.456 3.776-6.56 7.144-10.2 9.56-2.176-87.848-28.408-132.848-47.736-154.232 78.208 11.32 139.216 76.536 143.624 156.752-6.08-2.144-10.264-6.704-15.192-12.072z"/></symbol><symbol viewBox="-865 -103 368 368" id="icon-weather-wind" xmlns="http://www.w3.org/2000/svg"><path d="M-569-55c-39.7 0-72 32.3-72 72 0 4.4 3.6 8 8 8s8-3.6 8-8c0-30.9 25.1-56 56-56s56 25.1 56 56-25.1 56-56 56h-288c-4.4 0-8 3.6-8 8s3.6 8 8 8h288c39.7 0 72-32.3 72-72s-32.3-72-72-72z"/><path d="M-857 41h136c30.9 0 56-25.1 56-56s-25.1-56-56-56-56 25.1-56 56c0 4.4 3.6 8 8 8s8-3.6 8-8c0-22.1 17.9-40 40-40s40 17.9 40 40-17.9 40-40 40h-136c-4.4 0-8 3.6-8 8s3.6 8 8 8zM-585 121h-272c-4.4 0-8 3.6-8 8s3.6 8 8 8h272c22.1 0 40 17.9 40 40s-17.9 40-40 40-40-17.9-40-40c0-4.4-3.6-8-8-8s-8 3.6-8 8c0 30.9 25.1 56 56 56s56-25.1 56-56-25.1-56-56-56z"/></symbol><symbol viewBox="0 0 368 368" id="icon-weather-wind2" xmlns="http://www.w3.org/2000/svg"><path d="M301.64 112.216C290.464 56.904 241.048 16 184 16c-57.056 0-106.464 40.904-117.64 96.216C29.288 115.104 0 146.192 0 184c0 39.696 32.304 72 72 72h176c4.424 0 8-3.584 8-8s-3.576-8-8-8H72c-30.88 0-56-25.12-56-56s25.12-56 55.6-56.072c2.144.432 4.376-.064 6.168-1.336a8.011 8.011 0 003.28-5.384C88.304 70.352 132.568 32 184 32s95.696 38.352 102.96 89.208c.312 2.168 1.288 4.16 3.08 5.424 1.784 1.272 3.808 1.8 5.96 1.368 30.872 0 56 25.12 56 56 0 4.416 3.576 8 8 8s8-3.584 8-8c0-37.8-29.28-68.888-66.36-71.784z"/><path d="M312 192H120c-4.416 0-8 3.584-8 8s3.584 8 8 8h192c4.424 0 8-3.584 8-8s-3.576-8-8-8zM360 240h-64c-4.424 0-8 3.584-8 8s3.576 8 8 8h64c4.424 0 8-3.584 8-8s-3.576-8-8-8zM360 288H120c-4.416 0-8 3.584-8 8s3.584 8 8 8h240c4.424 0 8-3.584 8-8s-3.576-8-8-8zM312 336H24c-4.416 0-8 3.584-8 8s3.584 8 8 8h288c4.424 0 8-3.584 8-8s-3.576-8-8-8zM72 288H8c-4.416 0-8 3.584-8 8s3.584 8 8 8h64c4.416 0 8-3.584 8-8s-3.584-8-8-8z"/></symbol></svg>