<svg xmlns="http://www.w3.org/2000/svg" viewBox="0 0 368 368" width="48" height="48"><path d="M344.96 195.312A87.906 87.906 0 00368 136c0-48.52-39.48-88-88-88-27.696 0-53.352 13.032-69.944 34.936C201.528 81.024 192.792 80 184 80c-57.064 0-106.36 40.96-117.528 96.28C29.352 179.12 0 210.168 0 248c0 39.696 32.304 72 72 72h224c39.696 0 72-32.304 72-72 0-20.08-8.488-39.16-23.04-52.688zM280 64c39.696 0 72 32.304 72 72a71.93 71.93 0 01-19.944 49.696c-.848-.496-1.752-.872-2.624-1.336a70.464 70.464 0 00-10.72-4.624c-.36-.12-.704-.288-1.064-.4-3.128-.992-6.328-1.704-9.568-2.256-.896-.152-1.792-.24-2.696-.36-1.248-.168-2.488-.408-3.752-.504a119.804 119.804 0 00-75.096-88.408C240.08 72.744 259.392 64 280 64zm16 240H72c-30.88 0-56-25.12-56-56s25.12-56 55.6-56.072c.088.016.184.016.28.024.04.008.072.032.112.04.368.056.736.08 1.104.08h.032c4.168 0 8.456.544 12.752 1.624.312.136.64.248.976.336 14.08 3.84 26.352 13.312 33.664 25.968a7.992 7.992 0 0010.928 2.92 7.994 7.994 0 002.92-10.928c-9.208-15.936-24.528-27.936-42.168-33.072a7.024 7.024 0 00-1.152-.408c-2.8-.752-5.6-1.32-8.4-1.72C93.328 130.184 135.448 96 184 96c9.208 0 18.352 1.224 27.168 3.64h.016c.008 0 .008.008.016.008 37.336 10.088 65.664 39.896 74.176 77.144-2.8.408-5.608.968-8.408 1.728-.4.104-.784.24-1.152.408-14.248 4.168-26.984 12.744-36.024 24.208-.024.032-.064.04-.088.072-.024.032-.04.064-.064.096-.032.04-.064.064-.096.104-.032.04-.032.088-.064.128-2.2 2.68-4.2 5.544-5.896 8.568-2.16 3.856-.776 8.728 3.08 10.888a8.007 8.007 0 003.888 1.008 8.003 8.003 0 006.992-4.096 42.398 42.398 0 014.44-6.456c.032-.04.04-.088.064-.128.024-.032.072-.04.096-.08 7.184-9.216 17.496-16.032 29.016-19.208.328-.088.648-.2.952-.328 4.304-1.08 8.592-1.624 12.768-1.624.504 0 .624.016 1.12-.08 11.656 0 22.856 3.584 32.408 10.36C343.184 212.872 352 229.928 352 248c0 30.88-25.12 56-56 56z"/></svg>