<svg xmlns="http://www.w3.org/2000/svg" viewBox="0 0 368 368" width="48" height="48"><path d="M301.536 128.28C290.36 72.96 241.056 32 184 32c-57.064 0-106.36 40.96-117.528 96.28C29.352 131.12 0 162.168 0 200c0 39.696 32.296 72 72 72h16c4.424 0 8-3.584 8-8s-3.576-8-8-8H72c-30.872 0-56-25.12-56-56s25.128-56 55.616-56.064c.088.016.184.008.272.024.04.008.064.032.104.04.376.056.744.08 1.112.08h.024c4.168 0 8.456.544 12.752 1.624.312.136.64.248.976.336 14.088 3.848 26.352 13.312 33.656 25.96a8.003 8.003 0 0010.928 2.928A7.99 7.99 0 00134.368 164c-9.2-15.936-24.52-27.936-42.168-33.08a7.024 7.024 0 00-1.152-.408c-2.8-.752-5.6-1.32-8.4-1.72C93.328 82.184 135.448 48 184 48c48.544 0 90.672 34.184 101.352 80.792-2.8.408-5.608.968-8.4 1.728-.392.104-.768.24-1.136.4-17.64 5.136-32.968 17.144-42.184 33.08a8.001 8.001 0 002.928 10.928c3.816 2.208 8.712.896 10.928-2.92 7.312-12.656 19.576-22.12 33.656-25.968.328-.096.656-.2.968-.336 4.296-1.08 8.584-1.624 12.768-1.624.512.008.616.024 1.12-.08 30.872 0 56 25.12 56 56s-25.128 56-56 56h-16c-4.424 0-8 3.584-8 8s3.576 8 8 8h16c39.704 0 72-32.304 72-72 0-37.832-29.344-68.872-66.464-71.72z"/><path d="M238.4 243.2l-48-64c-.096-.128-.256-.16-.352-.28-1.472-1.744-3.584-2.92-6.048-2.92s-4.576 1.176-6.048 2.92c-.104.12-.256.152-.352.28l-48 64a7.994 7.994 0 001.6 11.2c3.528 2.664 8.544 1.944 11.192-1.6L176 208v120c0 4.416 3.576 8 8 8s8-3.584 8-8V208l33.6 44.8a7.974 7.974 0 006.408 3.2c1.672 0 3.352-.52 4.792-1.6a7.994 7.994 0 001.6-11.2z"/></svg>