<svg xmlns="http://www.w3.org/2000/svg" viewBox="-807.5 -155.4 472.9 472.9" width="48" height="48"><path d="M-571.1 317.5c130.4 0 236.4-106.1 236.4-236.4-.1-130.2-106.2-236.3-236.4-236.4-130.4 0-236.4 106.1-236.4 236.4s106.1 236.4 236.4 236.4zm158.3-370.2c73.9 87.1 63.2 218-23.9 291.9-37.4 31.7-85 49.2-134 49.2h-.4c-48.9 0-96.4-17.5-133.7-49.2l-2.1-1.8 1.9-1.9 290.3-290.3 1.9 2.1zM-705.4-77c37.4-31.7 85-49.2 134-49.2h.4c48.9 0 96.4 17.5 133.7 49.2l2.1 1.8-1.9 1.9L-727.4 217l-1.8-2.1c-74-87.1-63.3-218 23.8-291.9z"/></svg>