<svg xmlns="http://www.w3.org/2000/svg" viewBox="0 0 368.004 368.004" width="48" height="48"><path d="M331.314 192.002h28.688c4.416 0 8-3.584 8-8s-3.584-8-8-8h-28.68l34.336-34.336a8 8 0 000-11.32 7.991 7.991 0 00-11.312 0l-45.656 45.656H203.322l72-72h68.68c4.416 0 8-3.584 8-8s-3.584-8-8-8h-52.688l26.344-26.344c3.128-3.128 3.128-8.184 0-11.312s-8.184-3.128-11.312 0L280.002 76.69V24.002c0-4.416-3.584-8-8-8s-8 3.584-8 8V92.69l-72 72V59.322l45.664-45.664c3.128-3.128 3.128-8.184 0-11.312s-8.184-3.128-11.312 0L192.002 36.69V8.002c0-4.416-3.584-8-8-8s-8 3.584-8 8v28.68L141.666 2.346c-3.128-3.128-8.184-3.128-11.312 0s-3.128 8.184 0 11.312l45.648 45.656V164.69l-72-72V24.002c0-4.416-3.584-8-8-8s-8 3.584-8 8V76.69L61.658 50.346c-3.128-3.128-8.184-3.128-11.312 0s-3.128 8.184 0 11.312L76.69 88.002H24.002c-4.416 0-8 3.584-8 8s3.584 8 8 8H92.69l72 72H59.314l-45.656-45.656c-3.128-3.128-8.184-3.128-11.312 0s-3.128 8.184 0 11.312l34.336 34.344H8.002c-4.416 0-8 3.584-8 8s3.584 8 8 8H36.69L2.346 226.346a7.991 7.991 0 000 11.312c1.56 1.56 3.608 2.344 5.656 2.344s4.096-.784 5.656-2.344l45.664-45.656h105.376l-72 72H24.002c-4.416 0-8 3.584-8 8s3.584 8 8 8H76.69l-26.344 26.344a7.991 7.991 0 000 11.312 7.978 7.978 0 005.656 2.344 7.978 7.978 0 005.656-2.344l26.344-26.344v52.688c0 4.416 3.584 8 8 8s8-3.584 8-8v-68.688l72-72V308.69l-45.656 45.656a7.991 7.991 0 000 11.312 7.991 7.991 0 0011.312 0l34.344-34.336v28.68c0 4.416 3.584 8 8 8s8-3.584 8-8v-28.688l34.344 34.344a7.978 7.978 0 005.656 2.344 7.978 7.978 0 005.656-2.344 7.991 7.991 0 000-11.312l-45.656-45.664V203.314l72 72v68.688c0 4.416 3.584 8 8 8s8-3.584 8-8v-52.688l26.344 26.344a7.978 7.978 0 005.656 2.344 7.978 7.978 0 005.656-2.344 7.991 7.991 0 000-11.312l-26.344-26.344h52.688c4.416 0 8-3.584 8-8s-3.584-8-8-8h-68.688l-72-72H308.69l45.664 45.664a7.971 7.971 0 005.648 2.336 7.978 7.978 0 005.656-2.344 7.991 7.991 0 000-11.312l-34.344-34.344z"/></svg>