<svg xmlns="http://www.w3.org/2000/svg" viewBox="-1025 66 48 32" width="48" height="32"><path d="M-981 98h-40c-2.2 0-4-1.8-4-4V70c0-2.2 1.8-4 4-4h40c2.2 0 4 1.8 4 4v24c0 2.2-1.8 4-4 4zm-40-30c-1.1 0-2 .9-2 2v24c0 1.1.9 2 2 2h40c1.1 0 2-.9 2-2V70c0-1.1-.9-2-2-2h-40z"/><path d="M-1001 87.2l-17.5-11.4c-.5-.3-.6-.9-.3-1.4.3-.5.9-.6 1.4-.3l16.5 10.6 16.5-10.6c.5-.3 1.1-.2 1.4.3.3.5.2 1.1-.3 1.4l-17.7 11.4zM-1019 92c-.3 0-.6-.2-.8-.4-.3-.5-.2-1.1.3-1.4l9-6c.5-.3 1.1-.2 1.4.3.3.5.2 1.1-.3 1.4l-9 6c-.2 0-.4.1-.6.1zM-983 92c-.2 0-.4-.1-.6-.2l-9-6c-.5-.3-.6-.9-.3-1.4.3-.5.9-.6 1.4-.3l9 6c.5.3.6.9.3 1.4-.2.3-.5.5-.8.5z"/></svg>