<svg xmlns="http://www.w3.org/2000/svg" viewBox="0 0 368 368" width="48" height="48"><path d="M360 208h-33c.592-5.256 1-10.584 1-16 0-79.4-64.6-144-144-144S40 112.6 40 192c0 5.416.408 10.744 1 16H8c-4.416 0-8 3.584-8 8s3.584 8 8 8h352c4.416 0 8-3.584 8-8s-3.584-8-8-8zm-49 0H57c-.664-5.216-1-10.576-1-16 0-70.576 57.424-128 128-128s128 57.424 128 128c0 5.424-.336 10.784-1 16zM328 256H40c-4.416 0-8 3.584-8 8s3.584 8 8 8h288c4.416 0 8-3.584 8-8s-3.584-8-8-8zM296 304H72c-4.416 0-8 3.584-8 8s3.584 8 8 8h224c4.416 0 8-3.584 8-8s-3.584-8-8-8z"/></svg>