<svg height="48" viewBox="-41 -19 606 606.249" width="48" xmlns="http://www.w3.org/2000/svg"><path d="M522.262 516.543c0-14.356-11.559-26-25.758-26h-.797v-180.41c0-27.766-22.578-50.41-50.41-50.41H297.98V142.797c0-7.418-3.988-14.36-10.445-18.027l-34.457-19.856c-6.535-3.754-14.598-3.832-20.976-.082-6.301 3.668-10.204 10.605-10.204 18.184V259.8H74.336c-27.754 0-50.406 22.566-50.406 50.41v36.527c-.078.551-.078 1.114-.078 1.676 0 .559.078 1.11.078 1.672v140.613h-.633c-14.203 0-25.762 11.645-25.762 26v24.406c0 14.356 11.559 26.004 25.762 26.004h473.121c14.2 0 25.766-11.648 25.766-26.004v-24.562zM24.734 539.828v-22.172h470.489v22.172zm246.13-370.07l-21.93-12.684v-23.293l21.93 12.598zm-21.852 5.742l21.93 12.68v31.898l-21.93-12.683zm0 50.398l21.93 12.684v21.219h-21.93zm-174.676 61.02h370.96c12.84 0 23.29 10.445 23.29 23.293v26.633c-9.727 2.797-18.508 8.46-25.207 16.515l-14.113 17.149c-4.551 5.496-11.25 8.527-18.426 8.37-7.016-.155-13.238-3.183-17.547-8.538-.078-.156-.234-.313-.324-.473l-15.946-20.894c-9.496-12.364-23.687-19.625-39.082-19.942-15.39-.32-29.914 6.38-39.875 18.426l-18.91 23.05c-4.547 5.497-11.246 8.528-18.418 8.372-7.183-.156-13.8-3.43-18.11-9.012l-15.632-20.816v-.078-.082c-9.328-12.204-24.008-19.621-39.312-19.938-15.239-.32-29.672 6.379-39.649 18.426l-20.02 24.324c-4.386 5.336-11.003 8.379-18.023 8.379h-.078c-6.937 0-13.484-3.121-17.945-8.617l-15.242-18.508c-6.7-8.137-15.551-13.797-25.442-16.586v-26.48c-.234-12.528 10.215-22.973 23.05-22.973zm-23.285 79.36c1.676 1.199 3.187 2.55 4.543 4.152l15.234 18.496c9.652 11.726 23.77 18.426 38.848 18.426h.078c15.152 0 29.27-6.622 38.84-18.18l20.02-24.41c4.624-5.586 11.323-8.77 18.265-8.617 7.098.167 13.957 3.593 18.266 9.257l15.628 20.817v.156c9.336 12.203 23.614 19.383 39.086 19.7h1.036c15.156 0 29.27-6.614 38.843-18.184l18.903-23.051c4.55-5.496 11.484-8.77 18.421-8.617 7.106.168 13.641 3.515 18.106 9.257l15.39 20.176c.169.242.325.563.563.801 9.332 12.203 23.45 19.3 38.84 19.617H411c15.156 0 29.273-6.613 38.844-18.183l14.117-17.145c1.277-1.598 2.793-2.953 4.309-4.066V490.7H51.05zm0 0M262.172 95.902a13.26 13.26 0 006.621-1.761c6.539-3.672 8.848-11.961 5.187-18.426-2.796-4.942-3.433-11.242-1.683-16.903 1.437-4.714 4.308-8.296 8.062-10.214 8.055-3.668 15.395-8.618 21.688-14.676a35.233 35.233 0 013.273 20.66c-1.68 11.965-9.25 22.172-20.257 27.2-6.786 3.113-9.813 11.167-6.7 17.945 2.317 4.941 7.176 7.894 12.364 7.894 1.914 0 3.824-.394 5.664-1.273 19.46-8.934 32.859-26.887 35.812-48.098 2.95-21.297-4.871-42.273-21.144-56.148l-.157-.164a2.402 2.402 0 00-.558-.395 2.48 2.48 0 00-.555-.402c-.078 0-.078-.078-.164-.157-.078-.082-.238-.16-.316-.16-.235-.156-.48-.242-.72-.398a4.366 4.366 0 00-.562-.242c-.234-.079-.472-.23-.715-.317-.234-.082-.394-.16-.64-.238-.235-.082-.395-.16-.629-.238-.242-.078-.484-.157-.723-.157-.16-.082-.398-.082-.554-.168-.239-.078-.485-.078-.723-.16-.156 0-.402-.078-.559-.078-.238 0-.476 0-.797-.078H301.414c-.164 0-.402 0-.559.078-.242 0-.476.078-.714.078-.246 0-.403.082-.641.082-.246.078-.398.078-.64.164-.239.082-.4.082-.637.16-.243.079-.399.157-.563.157-.234.078-.394.16-.64.238-.157.078-.395.16-.551.246a2.063 2.063 0 00-.637.317c-.156.078-.402.234-.562.312-.157.086-.395.242-.563.32-.156.16-.395.239-.55.403-.165.16-.321.238-.485.398-.23.156-.399.317-.555.477-.16.164-.316.242-.394.398-.168.16-.407.402-.563.559-.078.078-.156.16-.238.238-.078.078-.078.078-.16.156-.16.168-.317.407-.48.563-.157.156-.321.398-.4.562 0 .078-.077.078-.155.157-5.344 8.292-13 14.832-22.016 18.906-.082.078-.16.078-.238.156s-.157.078-.32.16c-10.524 5.262-18.266 14.68-21.938 26.559-3.903 12.761-2.469 26.636 3.996 38.125 2.547 4.625 7.176 7.183 11.96 7.183zm0 0"/></svg>