<svg xmlns="http://www.w3.org/2000/svg" viewBox="0 0 368 368" width="48" height="48"><path d="M192.008 32.2L192 8c0-4.416-3.584-8-8-8s-8 3.584-8 8v24.2C78.24 36.408 0 117.224 0 216c0 4.416 3.584 8 8 8 18.176 0 27.632-10.312 35.216-18.6 6.864-7.48 12.28-13.4 23.416-13.4 11.144 0 16.56 5.912 23.424 13.4 6.216 6.784 13.76 14.824 26.224 17.56 1.128.608 2.36 1.04 3.72 1.04.488 0 .904-.192 1.368-.272 1.288.112 2.528.272 3.92.272 18.184 0 27.64-10.312 35.232-18.592 4.984-5.44 9.232-10.008 15.44-12.128V328c0 .312.016.624.056.928C176.504 350.552 194.256 368 216 368c22.056 0 40-17.944 40-40 0-4.416-3.576-8-8-8s-8 3.584-8 8c0 13.232-10.768 24-24 24s-24-10.768-24-24c0-.28-.008-.56-.04-.832V193.28c6.2 2.12 10.448 6.688 15.424 12.12 7.592 8.288 17.04 18.6 35.224 18.6 1.416 0 2.688-.168 4-.288.464.096.896.288 1.392.288 1.392 0 2.632-.448 3.776-1.072 12.376-2.768 19.888-10.768 26.08-17.512C284.72 197.92 290.152 192 301.312 192s16.576 5.92 23.448 13.408C332.36 213.696 341.816 224 360 224c4.424 0 8-3.584 8-8 0-98.768-78.232-179.584-175.992-183.8zm-79.864 172.008c-3.68-2.416-6.8-5.8-10.288-9.608-7.592-8.288-17.04-18.6-35.224-18.6-18.184 0-27.624 10.312-35.216 18.592-4.92 5.368-9.096 9.928-15.168 12.08C20.656 126.448 81.664 61.24 159.88 49.92c-19.328 21.384-45.568 66.4-47.736 154.288zm107.032-9.608c-7.592-8.288-17.032-18.6-35.216-18.6s-27.64 10.312-35.24 18.592c-6.224 6.8-11.32 12.248-20.528 13.208C130.208 97.744 171.44 58.776 184 49.52c12.616 9.304 53.8 48.296 55.808 158.288-9.272-.928-14.384-6.392-20.632-13.208zm117.376 0c-7.6-8.288-17.048-18.6-35.24-18.6-18.2 0-27.656 10.312-35.256 18.592-3.456 3.776-6.56 7.144-10.2 9.56-2.176-87.848-28.408-132.848-47.736-154.232 78.208 11.32 139.216 76.536 143.624 156.752-6.08-2.144-10.264-6.704-15.192-12.072z"/></svg>