<svg xmlns="http://www.w3.org/2000/svg" viewBox="-738.9 -127 402 402" width="48" height="48"><path d="M-444.3 275.1c-15.6-.1-31.2-2.1-46.4-5.9-52.4-12.6-106.4-44.7-152-90.4-45.6-45.6-77.7-99.6-90.4-152-13.3-55.1-3.8-102.2 26.7-132.8l8.7-8.7c16.5-16.4 43.1-16.4 59.6 0l50.1 50.1c16.5 16.5 16.5 43.2 0 59.6l-29.6 29.6c14.2 24.9 33.5 49.8 56.3 72.6s47.8 42.1 72.6 56.3l29.6-29.6c16.5-16.5 43.1-16.5 59.6 0l50.1 50.1c16.5 16.5 16.5 43.1 0 59.6l-8.7 8.7c-21.4 21.7-51.2 32.8-86.2 32.8zM-667.8-97c-3.2 0-6.3 1.3-8.6 3.6l-8.7 8.7c-22.9 22.9-29.5 60-18.8 104.5 11.4 47.1 40.6 96.1 82.4 137.9s90.7 71 137.9 82.4c44.5 10.7 81.6 4.1 104.5-18.8l8.7-8.7c4.7-4.7 4.7-12.4 0-17.2l-50.1-50.1c-4.7-4.7-12.4-4.7-17.2 0l-37.5 37.5c-4.6 4.6-11.7 5.7-17.5 2.7-30.8-15.9-61.8-39-89.6-67-27.9-27.9-51-58.9-66.9-89.6-3-5.8-1.9-12.9 2.7-17.5l37.5-37.5c4.7-4.7 4.7-12.4 0-17.2l-50.1-50.1c-2.4-2.3-5.5-3.6-8.7-3.6z"/><path d="M-428.3 94.7c-8.3 0-15-6.7-15-15-.1-54.8-44.5-99.2-99.2-99.3-8.3 0-15-6.7-15-15s6.7-15 15-15c71.3 0 129.2 58 129.2 129.3 0 8.3-6.7 15-15 15z"/><path d="M-364.9 94.7c-8.3 0-15-6.7-15-15 0-89.7-73-162.7-162.6-162.7-8.3 0-15-6.7-15-15s6.7-15 15-15c106.2 0 192.6 86.4 192.6 192.7 0 8.3-6.7 15-15 15z"/></svg>