<svg xmlns="http://www.w3.org/2000/svg" viewBox="0 0 368 368" width="48" height="48"><path d="M301.64 112.216C290.464 56.904 241.048 16 184 16c-57.056 0-106.464 40.904-117.64 96.216C29.288 115.104 0 146.192 0 184c0 39.696 32.304 72 72 72h176c4.424 0 8-3.584 8-8s-3.576-8-8-8H72c-30.88 0-56-25.12-56-56s25.12-56 55.6-56.072c2.144.432 4.376-.064 6.168-1.336a8.011 8.011 0 003.28-5.384C88.304 70.352 132.568 32 184 32s95.696 38.352 102.96 89.208c.312 2.168 1.288 4.16 3.08 5.424 1.784 1.272 3.808 1.8 5.96 1.368 30.872 0 56 25.12 56 56 0 4.416 3.576 8 8 8s8-3.584 8-8c0-37.8-29.28-68.888-66.36-71.784z"/><path d="M312 192H120c-4.416 0-8 3.584-8 8s3.584 8 8 8h192c4.424 0 8-3.584 8-8s-3.576-8-8-8zM360 240h-64c-4.424 0-8 3.584-8 8s3.576 8 8 8h64c4.424 0 8-3.584 8-8s-3.576-8-8-8zM360 288H120c-4.416 0-8 3.584-8 8s3.584 8 8 8h240c4.424 0 8-3.584 8-8s-3.576-8-8-8zM312 336H24c-4.416 0-8 3.584-8 8s3.584 8 8 8h288c4.424 0 8-3.584 8-8s-3.576-8-8-8zM72 288H8c-4.416 0-8 3.584-8 8s3.584 8 8 8h64c4.416 0 8-3.584 8-8s-3.584-8-8-8z"/></svg>