<svg xmlns="http://www.w3.org/2000/svg" viewBox="0 0 368.008 368.008" width="48" height="48"><path d="M301.528 112.284c-11.176-55.32-60.472-96.28-117.528-96.28-57.064 0-106.36 40.96-117.528 96.28C29.352 115.124 0 146.172 0 184.004c0 39.696 32.304 72 72 72h16c4.416 0 8-3.584 8-8s-3.584-8-8-8H72c-30.88 0-56-25.12-56-56s25.12-56 55.6-56.072c.088.016.184.016.28.024.04.008.072.032.112.04.064.008.12-.016.176-.008.32.04.632.096.952.096 4.168 0 8.456.544 12.752 1.624.312.136.64.248.976.336 14.08 3.84 26.352 13.312 33.664 25.968 2.2 3.824 7.096 5.136 10.928 2.92a7.994 7.994 0 002.92-10.928c-9.208-15.936-24.528-27.936-42.168-33.072a7.024 7.024 0 00-1.152-.408c-2.8-.752-5.6-1.32-8.4-1.72 10.688-46.616 52.808-80.8 101.36-80.8 48.544 0 90.664 34.184 101.36 80.792-2.8.408-5.608.968-8.4 1.72-.392.104-.776.24-1.136.4-17.648 5.136-32.976 17.144-42.184 33.08-2.208 3.832-.904 8.72 2.92 10.928a7.994 7.994 0 0010.928-2.92c7.312-12.656 19.584-22.12 33.664-25.968.336-.096.656-.2.968-.336 4.304-1.08 8.592-1.624 12.768-1.624.528.008.608.024 1.12-.08 30.88 0 56 25.12 56 56s-25.12 56-56 56h-16c-4.416 0-8 3.584-8 8s3.584 8 8 8h16c39.696 0 72-32.304 72-72-.008-37.824-29.36-68.872-66.48-71.712z"/><path d="M184 208.004c-4.416 0-8 3.584-8 8v32c0 4.416 3.584 8 8 8s8-3.584 8-8v-32c0-4.416-3.584-8-8-8zM184 288.004c-4.416 0-8 3.584-8 8v32c0 4.416 3.584 8 8 8s8-3.584 8-8v-32c0-4.416-3.584-8-8-8zM136 224.004c-4.416 0-8 3.584-8 8v32c0 4.416 3.584 8 8 8s8-3.584 8-8v-32c0-4.416-3.584-8-8-8zM232 224.004c-4.416 0-8 3.584-8 8v32c0 4.416 3.584 8 8 8s8-3.584 8-8v-32c0-4.416-3.584-8-8-8zM136 304.004c-4.416 0-8 3.584-8 8v32c0 4.416 3.584 8 8 8s8-3.584 8-8v-32c0-4.416-3.584-8-8-8zM232 304.004c-4.416 0-8 3.584-8 8v32c0 4.416 3.584 8 8 8s8-3.584 8-8v-32c0-4.416-3.584-8-8-8z"/></svg>