<svg xmlns="http://www.w3.org/2000/svg" viewBox="0 0 368 368" width="48" height="48"><path d="M360 351.995h-56.408c-1.8-27.064-12.552-51.656-29.392-70.888l43.456-43.456a7.991 7.991 0 000-11.312 7.991 7.991 0 00-11.312 0l-43.456 43.456c-19.232-16.84-43.824-27.592-70.888-29.392v-56.408c0-4.416-3.576-8-8-8s-8 3.584-8 8v56.408c-27.064 1.8-51.656 12.552-70.888 29.392l-43.456-43.456c-3.128-3.128-8.184-3.128-11.312 0s-3.128 8.184 0 11.312L93.8 281.107c-16.84 19.232-27.592 43.824-29.392 70.888H8c-4.424 0-8 3.584-8 8s3.576 8 8 8H360c4.424 0 8-3.584 8-8s-3.576-8-8-8zm-279.592 0c4.112-53.616 48.952-96 103.592-96s99.48 42.384 103.592 96H80.408zM237.656 50.339L189.664 2.347a7.922 7.922 0 00-2.608-1.736 8.009 8.009 0 00-6.112 0 8.005 8.005 0 00-2.608 1.736l-47.992 47.992c-3.128 3.128-3.128 8.184 0 11.312s8.184 3.128 11.312 0L176 27.307v108.688c0 4.416 3.576 8 8 8s8-3.584 8-8V27.307l34.344 34.344A7.978 7.978 0 00232 63.995a7.978 7.978 0 005.656-2.344 7.991 7.991 0 000-11.312z"/></svg>