<svg xmlns="http://www.w3.org/2000/svg" viewBox="0 0 368 368" width="48" height="48"><path d="M344.96 195.312A87.906 87.906 0 00368 136c0-48.52-39.48-88-88-88-27.696 0-53.368 13.04-69.944 34.936C201.528 81.024 192.792 80 184 80c-57.064 0-106.36 40.96-117.528 96.28C29.352 179.12 0 210.168 0 248c0 39.696 32.304 72 72 72h224c39.696 0 72-32.304 72-72 0-20.08-8.488-39.16-23.04-52.688zm-125-98.976C233.328 76.088 255.776 64 280 64c39.696 0 72 32.304 72 72a71.916 71.916 0 01-24.288 53.872C314.608 201.56 297.664 208 280 208c-10.856 0-21.184-2.32-30.696-6.888l-.048-.024C224.192 189.256 208 163.712 208 136c0-14.184 4.128-27.896 11.96-39.664zM296 304H72c-30.88 0-56-25.12-56-56s25.12-56 55.6-56.072c.088.016.184.016.28.024.04.008.072.032.112.04.368.056.736.08 1.104.08h.032c4.168 0 8.456.544 12.752 1.624.312.136.64.248.976.336 14.08 3.84 26.352 13.312 33.664 25.968 2.2 3.824 7.096 5.136 10.928 2.92a7.994 7.994 0 002.92-10.928c-9.208-15.936-24.528-27.936-42.168-33.072a7.024 7.024 0 00-1.152-.408c-2.8-.752-5.6-1.32-8.4-1.72C93.328 130.184 135.448 96 184 96c5.696 0 11.36.52 16.944 1.456A87.32 87.32 0 00192 136c0 33.856 19.784 65.08 50.4 79.544C254.08 221.152 266.736 224 280 224a87.528 87.528 0 0053.064-17.88C345 216.688 352 231.928 352 248c0 30.88-25.12 56-56 56z"/></svg>