<svg version="1.1" id="atLayer_1" xmlns="http://www.w3.org/2000/svg" x="0" y="0" viewBox="0 0 16 16" xml:space="preserve" width="16" height="16"><style>.atst0{fill:#262930}</style><path class="atst0" d="M10.4 5.6c-.5-.5-1.2-.8-1.9-.9-.7-.1-1.4 0-2 .3s-1.1.9-1.4 1.5-.4 1.3-.3 2 .4 1.3.9 1.8 1.1.8 1.8.9c.7.1 1.4 0 2-.3.6-.3 1.1-.8 1.4-1.4.3-.6.4-1.3.3-2 0-.7-.3-1.4-.8-1.9zM10.1 9c-.2.4-.6.8-1 1s-.9.3-1.4.2c-.5-.1-.9-.3-1.3-.6-.3-.3-.6-.8-.6-1.3-.1-.5 0-1 .2-1.4.2-.4.6-.8 1-1 .4-.2.9-.3 1.4-.2.5.1.9.3 1.3.6.3.3.6.8.6 1.3.1.5 0 1-.2 1.4zM11.9 3.6c-.3 0-.5.2-.5.5s.2.5.5.5.5-.2.5-.5-.3-.5-.5-.5z"/><path class="atst0" d="M11.5.5h-7c-2.2 0-4 1.8-4 4v7c0 2.2 1.8 4 4 4h7c2.2 0 4-1.8 4-4v-7c0-2.2-1.8-4-4-4zm3 11c0 1.7-1.3 3-3 3h-7c-1.7 0-3-1.3-3-3v-7c0-1.7 1.3-3 3-3h7c1.7 0 3 1.3 3 3v7z"/></svg>