<svg xmlns="http://www.w3.org/2000/svg" viewBox="-719.6 -175 365.2 512" width="34.24" height="48"><path d="M-537-175c-100.7 0-182.6 81.9-182.6 182.6v.5c.1 22.7 5.1 45.1 15 66.5 18 38.8 41.3 76.8 61.7 108.9l93.3 146.7c2.7 4.3 7.4 6.9 12.5 6.9s9.8-2.6 12.5-6.9l71.1-111.8v-.1l18.3-28.7c.1-.1.2-.3.3-.4l3.6-5.7c2.2-3.4 4.4-6.9 6.6-10.5l.3-.4c18.6-29.6 38.8-63.5 54.8-98 9.9-21.4 15-43.7 15-66.5v-.5C-354.4-93.1-436.3-175-537-175zM-369.4 8c-.1 20.6-4.6 40.8-13.6 60.2-16 34.6-36.5 68.8-55.3 98.6l-31.7 49.9-67 105.3-93.3-146.6c-20.2-31.7-43.1-69.2-60.7-107.2-9-19.4-13.6-39.7-13.6-60.2v-.4c0-92.4 75.2-167.6 167.6-167.6S-369.4-84.9-369.4 7.6V8z"/><path d="M-537-130c-16.7 0-32.9 2.9-48.3 8.7-.2.1-.5.2-.7.3-1.8.7-3.6 1.4-5.4 2.2-.6.3-1.2.5-1.8.8-.1.1-.3.1-.4.2-.6.2-1.1.5-1.7.7-.2.1-.3.2-.5.2-12.5 6-22.5 13.2-28.8 18.3-.2.1-.4.3-.7.5-1 .9-2 1.7-3 2.6-2.5 2.2-3.8 3.5-3.8 3.5-27.1 25.9-42.5 61.6-42.5 99.4 0 75.8 61.7 137.5 137.5 137.5S-399.5 83.4-399.5 7.6-461.2-130-537-130zm0 260.2c-47.2 0-88.2-26.8-108.7-66 10.4.3 15.5 3.9 21.8 8.5 7.4 5.3 15.7 11.4 31.9 11.4s24.5-6 31.9-11.4c6.6-4.8 11.8-8.5 23.1-8.5s16.5 3.8 23.1 8.5c7.4 5.3 15.7 11.4 31.9 11.4s24.5-6 31.9-11.4c6.3-4.6 11.4-8.2 21.8-8.5-20.5 39.2-61.5 66-108.7 66zm115.2-80.7c-1.7-.1-3.4-.2-5.2-.2-16.2 0-24.5 6-31.9 11.4-6.6 4.8-11.8 8.5-23.1 8.5s-16.5-3.8-23.1-8.5c-7.4-5.3-15.7-11.4-31.9-11.4s-24.5 6-31.9 11.4c-6.6 4.8-11.8 8.5-23.1 8.5s-16.5-3.8-23.1-8.5c-7.4-5.3-15.7-11.4-31.9-11.4-1.8 0-3.5.1-5.2.2-3.3-9-5.6-18.6-6.6-28.4 2.9-1.1 6.7-1.9 11.8-1.9 11.3 0 16.6 3.8 23.1 8.5 7.4 5.3 15.7 11.4 31.9 11.4s24.5-6 31.9-11.4c6.6-4.8 11.8-8.5 23.1-8.5s16.6 3.8 23.1 8.5c7.4 5.3 15.7 11.4 31.9 11.4s24.5-6 31.9-11.4c6.6-4.8 11.8-8.5 23.1-8.5 5.1 0 8.9.8 11.8 1.9-1 9.8-3.3 19.4-6.6 28.4zm7.4-43.8c-3.9-1-8-1.5-12.5-1.5-16.2 0-24.5 6-31.9 11.4-6.6 4.8-11.8 8.5-23.1 8.5s-16.5-3.8-23.1-8.5c-7.4-5.3-15.7-11.4-31.9-11.4s-24.5 6-31.9 11.4c-6.6 4.8-11.8 8.5-23.1 8.5s-16.5-3.8-23.1-8.5c-7.4-5.3-15.7-11.4-31.9-11.4-4.5 0-8.6.5-12.5 1.5.2-10.5 1.6-20.8 4.4-30.7 2.5-.5 5.2-.8 8.1-.8 11.3 0 16.5 3.8 23.1 8.5 7.4 5.3 15.7 11.4 31.9 11.4s24.5-6 31.9-11.4c6.6-4.8 11.8-8.5 23.1-8.5s16.5 3.8 23.1 8.5c7.4 5.3 15.7 11.4 31.9 11.4s24.5-6 31.9-11.4c6.6-4.8 11.8-8.5 23.1-8.5 3 0 5.7.3 8.2.8 2.6 9.8 4.1 20.1 4.3 30.7zM-427-40.7c-16.2 0-24.5 6-31.9 11.4-6.6 4.8-11.8 8.5-23.1 8.5s-16.5-3.8-23.1-8.5c-7.4-5.3-15.7-11.4-31.9-11.4s-24.5 6-31.9 11.4c-6.6 4.8-11.8 8.5-23.1 8.5s-16.5-3.8-23.1-8.5c-7.4-5.3-15.7-11.4-31.9-11.4-.9 0-1.8 0-2.7.1 7-16.3 17.5-31 31-43.1 15-12.7 28.9-19.5 36.6-22.7 14.3-5.7 29.5-8.6 45.1-8.6 50.5 0 93.9 30.7 112.7 74.4-.9-.1-1.7-.1-2.7-.1z"/></svg>