<svg height="48" viewBox="0 0 60 60" width="48" xmlns="http://www.w3.org/2000/svg"><path d="M20.33 41c4.5 0 4.63 2 9.66 2a11.79 11.79 0 005.22-1.08 10.05 10.05 0 014.45-.92c4.51 0 4.63 2 9.67 2a11.79 11.79 0 005.22-1.08A10.05 10.05 0 0159 41a1 1 0 000-2 14.43 14.43 0 00-1.86.11L60 25.41A2 2 0 0058 23H48v-4a7 7 0 00-14 0v4h-4.4a26 26 0 00-16.34-13 1.033 1.033 0 00-.52 2H13c.1 0 .05-.48.05 11H2a2 2 0 00-2 2v1a17.9 17.9 0 002.06 8.31c.04.104.093.201.16.29a18.17 18.17 0 005.2 5.94C5.63 40 4.45 39 1 39a1 1 0 000 2c4.51 0 4.63 2 9.66 2a14 14 0 002.34-.18v4a11.4 11.4 0 01-2.34.22 10.08 10.08 0 01-4.45-.92A11.74 11.74 0 001 45a1 1 0 000 2c4.51 0 4.63 2 9.66 2a14 14 0 002.34-.18v4a11.4 11.4 0 01-2.34.22 10.08 10.08 0 01-4.45-.92A11.74 11.74 0 001 51a1 1 0 000 2c4.51 0 4.63 2 9.66 2a14 14 0 002.34-.18V59a1 1 0 002 0v-4.73A11.78 11.78 0 0120.33 53c4.5 0 4.63 2 9.66 2a11.79 11.79 0 005.22-1.08 10.05 10.05 0 014.45-.92c4.51 0 4.63 2 9.67 2a11.79 11.79 0 005.22-1.08A10.05 10.05 0 0159 53a1 1 0 000-2 11.79 11.79 0 00-5.22 1.08 11.22 11.22 0 01-8.9 0A11.83 11.83 0 0039.66 51c-5.06 0-5.12 2-9.67 2s-4.63-2-9.66-2A12 12 0 0015 52.12v-3.85A11.78 11.78 0 0120.33 47c4.5 0 4.63 2 9.66 2a11.79 11.79 0 005.22-1.08 10.05 10.05 0 014.45-.92c4.51 0 4.63 2 9.67 2a11.79 11.79 0 005.22-1.08A10.05 10.05 0 0159 47a1 1 0 000-2 11.79 11.79 0 00-5.22 1.08 11.22 11.22 0 01-8.9 0A11.83 11.83 0 0039.66 45c-5.06 0-5.12 2-9.67 2s-4.63-2-9.66-2A12 12 0 0015 46.12v-3.85A11.78 11.78 0 0120.33 41zm29 0a10 10 0 01-4.45-.92A11.83 11.83 0 0039.66 39c-5.06 0-5.12 2-9.67 2s-4.63-2-9.66-2A12 12 0 0015 40.12V35h40.94L55 39.61c-1.84.63-2.75 1.39-5.67 1.39zM58 25l-.62 3H48a1 1 0 000 2h9l-.62 3H15v-3h28a1 1 0 000-2H15v-3zM2.52 30H13v3H3.63a16.6 16.6 0 01-1.11-3zM36 19a5 5 0 0110 0v4H36zm-21-6.31A24 24 0 0127.32 23H15zM2 25h11v3H2.14A19.5 19.5 0 012 25zm2.8 10H13v5.78l-.78.13A16 16 0 014.8 35zM41 10a5 5 0 100-10 5 5 0 000 10zm0-8a3 3 0 110 6 3 3 0 010-6z"/></svg>