<svg xmlns="http://www.w3.org/2000/svg" viewBox="0 0 368 368" width="48" height="48"><path d="M128 201.656V40c0-22.056-17.944-40-40-40S48 17.944 48 40v161.656C18.672 216.608 0 246.8 0 280c0 48.52 39.48 88 88 88s88-39.48 88-88c0-33.2-18.672-63.392-48-78.344zM64 40c0-13.232 10.768-24 24-24s24 10.768 24 24v72H64V40zm24 312c-39.704 0-72-32.304-72-72 0-28.616 16.952-54.504 43.192-65.952A7.986 7.986 0 0064 206.72V128h48v78.72a8.006 8.006 0 004.808 7.336C143.048 225.504 160 251.384 160 280c0 39.696-32.296 72-72 72z"/><path d="M88 240c-22.056 0-40 17.944-40 40s17.944 40 40 40 40-17.944 40-40-17.944-40-40-40zm0 64c-13.232 0-24-10.768-24-24s10.768-24 24-24 24 10.768 24 24-10.768 24-24 24zM280 96c-48.52 0-88 39.48-88 88s39.48 88 88 88 88-39.48 88-88-39.48-88-88-88zm0 160c-39.704 0-72-32.304-72-72s32.296-72 72-72 72 32.304 72 72-32.296 72-72 72z"/><path d="M312 176h-64c-4.424 0-8 3.584-8 8s3.576 8 8 8h64c4.424 0 8-3.584 8-8s-3.576-8-8-8z"/></svg>