<svg version="1.1" id="axLayer_1" xmlns="http://www.w3.org/2000/svg" x="0" y="0" viewBox="-299 392 12 10" xml:space="preserve" width="12" height="10"><style>.axst0{fill:#fff}</style><path class="axst0" d="M-293.4 394.8v.4l-.4-.1c-1.5-.2-2.9-.9-4-2l-.6-.6-.1.4c-.3.9-.1 1.9.5 2.5.3.4.3.4-.3.2-.2-.1-.4-.1-.4-.1-.1.1.1.8.3 1.1.2.4.7.8 1.1 1.1l.4.2h-.5c-.5 0-.5 0-.4.2.2.6.8 1.1 1.6 1.4l.5.2-.5.3c-.7.4-1.5.6-2.2.6-.4 0-.7 0-.7.1s1 .6 1.6.7c1.8.6 3.9.3 5.5-.6 1.1-.7 2.3-2 2.8-3.3.3-.7.6-1.9.6-2.5 0-.4 0-.4.5-.9.3-.3.5-.6.6-.7.1-.2.1-.2-.4 0-.7.3-.8.2-.5-.2.3-.3.6-.8.6-.9 0 0-.1 0-.3.1-.2.1-.5.2-.7.3l-.5.1-.4-.3c-.2-.2-.5-.3-.7-.4-.4-.1-1.1-.1-1.5 0-.9.6-1.5 1.6-1.5 2.7z"/></svg>