<svg xmlns="http://www.w3.org/2000/svg" viewBox="0 0 368 368" width="48" height="48"><path d="M301.536 112.28C290.36 56.96 241.056 16 184 16c-57.056 0-106.36 40.96-117.536 96.28C29.344 115.128 0 146.168 0 184c0 39.696 32.296 72 72 72h16c4.424 0 8-3.584 8-8s-3.576-8-8-8H72c-30.872 0-56-25.12-56-56s25.128-56 55.576-56.072c.096.016.2.016.304.032.04.008.064.032.104.04.064.008.12-.016.184-.008.32.04.632.088.952.088 4.168 0 8.464.544 12.76 1.624.312.136.64.248.976.336 14.08 3.84 26.352 13.312 33.672 25.968 2.192 3.824 7.08 5.136 10.928 2.92 3.824-2.216 5.136-7.104 2.912-10.928-9.352-16.176-24.296-27.888-42.168-33.08a7.83 7.83 0 00-1.152-.4c-2.8-.752-5.6-1.32-8.4-1.728C93.328 66.184 135.456 32 184 32s90.672 34.184 101.352 80.792c-2.8.408-5.608.968-8.4 1.728-.392.104-.768.24-1.136.4-17.64 5.136-32.968 17.144-42.184 33.08a8.001 8.001 0 002.928 10.928c3.816 2.216 8.712.904 10.928-2.92 7.312-12.656 19.576-22.12 33.656-25.968.328-.096.656-.2.968-.336 4.296-1.08 8.584-1.624 12.768-1.624.512.008.608.024 1.12-.08 30.872 0 56 25.12 56 56s-25.128 56-56 56h-16c-4.424 0-8 3.584-8 8s3.576 8 8 8h16c39.704 0 72-32.304 72-72 0-37.832-29.344-68.872-66.464-71.72z"/><path d="M184 176c-4.424 0-8 3.584-8 8v48c0 4.416 3.576 8 8 8s8-3.584 8-8v-48c0-4.416-3.576-8-8-8zM136 224c-4.424 0-8 3.584-8 8v48c0 4.416 3.576 8 8 8s8-3.584 8-8v-48c0-4.416-3.576-8-8-8zM232 224c-4.424 0-8 3.584-8 8v48c0 4.416 3.576 8 8 8s8-3.584 8-8v-48c0-4.416-3.576-8-8-8z"/><circle cx="136" cy="336" r="16"/><circle cx="232" cy="336" r="16"/><circle cx="184" cy="288" r="16"/></svg>