<svg xmlns="http://www.w3.org/2000/svg" viewBox="0 0 368.008 368.008" width="48" height="48"><path d="M301.528 112.284c-11.176-55.32-60.472-96.28-117.528-96.28-57.064 0-106.36 40.96-117.528 96.28C29.352 115.124 0 146.172 0 184.004c0 39.696 32.304 72 72 72h16c4.416 0 8-3.584 8-8s-3.584-8-8-8H72c-30.88 0-56-25.12-56-56s25.12-56 55.6-56.072c.088.016.184.016.28.024.04.008.072.032.112.04.064.008.12-.016.176-.008.32.04.632.096.952.096 4.168 0 8.456.544 12.752 1.624.312.136.64.248.976.336 14.08 3.84 26.352 13.312 33.664 25.968a7.992 7.992 0 0010.928 2.92 7.994 7.994 0 002.92-10.928c-9.208-15.936-24.528-27.936-42.168-33.072a7.024 7.024 0 00-1.152-.408c-2.8-.752-5.6-1.32-8.4-1.72 10.688-46.616 52.808-80.8 101.36-80.8 48.544 0 90.664 34.184 101.36 80.792-2.8.408-5.608.968-8.4 1.72-.392.104-.776.24-1.136.4-17.648 5.136-32.976 17.144-42.184 33.08-2.208 3.832-.904 8.72 2.92 10.928 3.816 2.216 8.72.904 10.928-2.92 7.312-12.656 19.584-22.12 33.664-25.968.336-.096.656-.2.968-.336 4.304-1.08 8.592-1.624 12.768-1.624.52.008.608.024 1.12-.08 30.88 0 56 25.12 56 56s-25.12 56-56 56h-16c-4.416 0-8 3.584-8 8s3.584 8 8 8h16c39.696 0 72-32.304 72-72-.008-37.824-29.36-68.872-66.48-71.712z"/><path d="M202.816 208.508c-4.128-1.52-8.744.544-10.304 4.68l-48 128a8.014 8.014 0 004.68 10.312 8.015 8.015 0 0010.304-4.688l48-128c1.552-4.136-.544-8.744-4.68-10.304zM250.536 208.412c-4.208-1.416-8.728.872-10.12 5.056l-32 96a7.997 7.997 0 005.056 10.12c.84.288 1.696.416 2.528.416a8.008 8.008 0 007.592-5.472l32-96a7.997 7.997 0 00-5.056-10.12zM155.08 208.62c-4.088-1.72-8.768.232-10.464 4.304l-40 96a8.004 8.004 0 007.384 11.08 7.99 7.99 0 007.384-4.928l40-96a7.997 7.997 0 00-4.304-10.456z"/></svg>