<svg xmlns="http://www.w3.org/2000/svg" viewBox="0 0 368 368" width="48" height="48"><path d="M301.536 112.284c-11.176-55.32-60.48-96.28-117.536-96.28-57.064 0-106.36 40.96-117.528 96.28C29.352 115.124 0 146.172 0 184.004c0 39.696 32.296 72 72 72h32c4.424 0 8-3.584 8-8s-3.576-8-8-8H72c-30.872 0-56-25.12-56-56s25.128-56 55.616-56.064c.088.016.184.008.272.024.04.008.064.032.104.04.376.056.744.08 1.112.08h.024c4.168 0 8.456.544 12.752 1.624.312.136.64.248.976.336 14.088 3.848 26.352 13.312 33.656 25.96 2.208 3.832 7.104 5.128 10.928 2.928a7.99 7.99 0 002.928-10.928c-9.2-15.936-24.52-27.936-42.168-33.08a7.024 7.024 0 00-1.152-.408c-2.8-.752-5.6-1.32-8.4-1.72 10.68-46.608 52.8-80.792 101.352-80.792 48.544 0 90.672 34.184 101.352 80.792-2.8.408-5.608.968-8.4 1.728-.392.104-.768.24-1.136.4-17.64 5.136-32.968 17.144-42.184 33.08a8.001 8.001 0 002.928 10.928c3.816 2.216 8.712.904 10.928-2.92 7.312-12.656 19.576-22.12 33.656-25.968.328-.096.656-.2.968-.336 4.296-1.08 8.584-1.624 12.768-1.624.512.008.616.024 1.12-.08 30.872 0 56 25.12 56 56s-25.128 56-56 56h-32c-4.424 0-8 3.584-8 8s3.576 8 8 8h32c39.704 0 72-32.304 72-72 0-37.832-29.344-68.872-66.464-71.72z"/><path d="M216 264.004h-46.184l52.168-58.68a8.017 8.017 0 00-.672-11.304c-3.296-2.936-8.36-2.64-11.288.664l-64 72a7.999 7.999 0 00-1.32 8.592 8 8 0 007.296 4.728h47.64l-45.952 59.088a7.99 7.99 0 006.304 12.904 7.994 7.994 0 006.32-3.088l56-72a8 8 0 00.872-8.424 8.008 8.008 0 00-7.184-4.48z"/></svg>