<svg xmlns="http://www.w3.org/2000/svg" viewBox="-737 -51.1 400 264.2" width="48" height="31.7"><path d="M-338.5 144.6l.1-.1c.1-.1.2-.3.3-.4 0-.1.1-.2.1-.2.1-.1.1-.3.2-.4.1-.1.1-.2.2-.3.1-.1.1-.3.1-.4 0-.1.1-.2.1-.3.2-.8.4-1.6.4-2.5v-26.5c0-27.8-18.7-51.4-44.2-58.7 10.7-9.7 17.6-23.6 17.6-38.7 0-28.4-24-52.3-52.3-52.3-28.4 0-52.3 24-52.3 52.3 0 15.2 6.8 29 17.5 38.7-11.6 3.4-22 10.1-29.9 19.6-5-2.3-10.3-4.1-15.8-5.3 16-12.4 26.5-31.7 26.5-52.9 0-36.4-30.7-67.1-67.1-67.1s-67.1 30.7-67.1 67.1c0 21.2 10.5 40.5 26.5 52.9-5.5 1.2-10.8 3-15.8 5.3-7.9-9.4-18.3-16.2-29.9-19.6 10.7-9.7 17.5-23.5 17.5-38.7 0-28.4-24-52.3-52.3-52.3s-52.3 24-52.3 52.3c0 15.2 6.9 29.1 17.6 38.7-25.5 7.4-44.2 30.9-44.2 58.7V140c0 .6 0 1.1.2 1.7 0 .1 0 .2.1.3 0 .2.1.3.1.5.1.2.1.4.2.6 0 0 0 .1.1.1l.3.6s0 .1.1.1c.1.2.2.4.3.5l.1.1c.1.2.2.3.3.5 0 .1.1.1.1.2.1.2.3.3.4.5l.1.1c.6.6 1.3 1.1 2 1.5 16.3 8.7 33.8 14.4 52 17 .4.1.8.1 1.2.1 3.9 0 7.3-2.9 7.9-6.9.6-4.4-2.4-8.4-6.8-9.1-14.9-2.1-29.2-6.6-42.6-13.2v-21.7c0-24.9 20.3-45.2 45.2-45.2h35.5c12.6 0 24.4 5.2 32.9 14.2-19.4 14.4-32 37.5-32 63.4v35.4c0 .8.1 1.7.4 2.4 0 .1.1.2.1.3 0 .1.1.3.1.4.1.1.1.3.2.4.1.1.1.2.2.3.1.1.1.2.2.3.1.1.1.2.2.4.1.1.1.2.2.2.1.1.2.3.3.4 0 .1.1.1.1.1l.4.4h.1c.5.5 1.1.9 1.7 1.3 0 0 .1 0 .1.1 30.8 16.4 64.5 24.6 98.3 24.6s67.5-8.2 98.3-24.6c2.8-1.5 4.3-4.4 4.2-7.4V146c0-26-12.6-49-32-63.4 8.4-9 20.3-14.2 32.9-14.2h35.5c24.9 0 45.2 20.3 45.2 45.2v21.7c-13.4 6.6-27.7 11-42.6 13.2-4.4.6-7.4 4.7-6.8 9.1.6 4 4 6.9 7.9 6.9.4 0 .8 0 1.2-.1 18.3-2.6 35.8-8.4 52.1-17.1.8-.8 1.7-1.7 2.3-2.7zM-658.1-20.3c19.7 0 36.3 16.6 36.3 36.3s-16.6 36.3-36.3 36.3-36.3-16.6-36.3-36.3 16.6-36.3 36.3-36.3zm70 36.3c0-27.7 23.4-51.1 51.1-51.1 27.7 0 51.1 23.4 51.1 51.1 0 27.7-23.4 51.1-51.1 51.1-27.7 0-51.1-23.4-51.1-51.1zm137.6 130v30.6c-54.5 27.4-118.5 27.4-173 0V146c0-34.7 28.2-62.9 62.9-62.9h47.3c34.6 0 62.8 28.2 62.8 62.9zm34.6-166.3c19.7 0 36.3 16.6 36.3 36.3s-16.6 36.3-36.3 36.3c-19.7 0-36.3-16.6-36.3-36.3s16.6-36.3 36.3-36.3z"/></svg>