<svg version="1.1" id="avLayer_1" xmlns="http://www.w3.org/2000/svg" x="0" y="0" viewBox="0 0 16 13.3" xml:space="preserve" width="16" height="13.3"><style>.avst0{fill:#002a53}</style><path class="avst0" d="M14 0H2C1.5 0 1 .2.6.6.2 1 0 1.5 0 2v9.3c0 .5.2 1 .6 1.4.4.4.9.6 1.4.6h12c.5 0 1-.2 1.4-.6.4-.4.6-.9.6-1.4V2c0-.5-.2-1-.6-1.4C15 .2 14.5 0 14 0zm-.2 3.2L8.5 7.9c-.2 0-.3.1-.5.1s-.3-.1-.5-.1L2.2 3.2c-.1-.1-.2-.3-.2-.5s0-.3.2-.5c0-.1.2-.1.4-.2.2 0 .3 0 .5.2L8 6.5l4.9-4.3c.1-.1.1-.1.2-.1h.3c.1 0 .2 0 .3.1.1 0 .1.1.2.2l.2.2c-.1-.1-.1 0-.1.1V3l-.2.2z"/></svg>