<svg xmlns="http://www.w3.org/2000/svg" viewBox="0 0 368 368" width="48" height="48"><path d="M184 0c-4.416 0-8 3.584-8 8v48c0 4.416 3.576 8 8 8 4.416 0 8-3.584 8-8V8c0-4.416-3.584-8-8-8zM184 304c-4.416 0-8 3.584-8 8v48c0 4.416 3.584 8 8 8s8-3.584 8-8v-48c0-4.416-3.584-8-8-8zM360 176h-48c-4.424 0-8 3.584-8 8s3.584 8 8 8h48c4.416 0 8-3.584 8-8s-3.584-8-8-8zM56 176H8c-4.416 0-8 3.584-8 8s3.576 8 8 8h48c4.416 0 8-3.584 8-8s-3.584-8-8-8zM317.656 306.344l-40-40c-3.128-3.128-8.184-3.128-11.312 0s-3.128 8.184 0 11.312l40 40A7.978 7.978 0 00312 320a7.978 7.978 0 005.656-2.344 7.991 7.991 0 000-11.312zM101.656 90.344l-40-40c-3.128-3.128-8.184-3.128-11.312 0s-3.128 8.184 0 11.312l40 40A7.978 7.978 0 0096 104a7.978 7.978 0 005.656-2.344 7.991 7.991 0 000-11.312zM101.656 266.344a7.991 7.991 0 00-11.312 0l-40 40a7.991 7.991 0 000 11.312A7.978 7.978 0 0056 320a7.978 7.978 0 005.656-2.344l40-40a7.991 7.991 0 000-11.312zM317.656 50.344a7.991 7.991 0 00-11.312 0l-40 40a7.991 7.991 0 000 11.312A7.978 7.978 0 00272 104a7.978 7.978 0 005.656-2.344l40-40a7.991 7.991 0 000-11.312zM184 96c-48.52 0-88 39.48-88 88s39.48 88 88 88 88-39.48 88-88-39.48-88-88-88zm0 160c-39.696 0-72-32.304-72-72s32.304-72 72-72 72 32.304 72 72-32.304 72-72 72z"/></svg>