<svg height="48" width="48" xmlns="http://www.w3.org/2000/svg" viewBox="0 0 512 512"><path d="M431.979 229.597a7.5 7.5 0 100-15 7.5 7.5 0 000 15zM504.5 448.999c-22.27 0-33.524 4.891-44.409 9.622-9.915 4.309-19.28 8.378-38.431 8.378s-28.517-4.07-38.431-8.379c-10.883-4.729-22.136-9.621-44.399-9.621-22.27 0-33.524 4.891-44.409 9.622-9.915 4.309-19.28 8.378-38.431 8.378-19.157 0-28.521-4.072-38.435-8.382-1.486-.646-2.997-1.303-4.556-1.954v-24.101l18.478 8.57a24.903 24.903 0 0010.5 2.335c9.081 0 17.739-5.031 22.091-13.734a24.52 24.52 0 002.426-8.148c15.605-1.264 24.895-5.292 33.907-9.208 9.915-4.309 19.279-8.378 38.429-8.378 19.145 0 28.508 4.069 38.42 8.377 10.885 4.731 22.14 9.623 44.41 9.623s33.524-4.891 44.409-9.622c9.915-4.309 19.28-8.378 38.431-8.378 4.143 0 7.5-3.358 7.5-7.5s-3.357-7.5-7.5-7.5c-22.27 0-33.524 4.891-44.409 9.622-9.915 4.309-19.28 8.378-38.431 8.378s-28.517-4.07-38.431-8.379c-10.883-4.729-22.136-9.621-44.399-9.621-22.269 0-33.523 4.891-44.407 9.622-8.511 3.699-16.62 7.205-30.819 8.13a24.574 24.574 0 00-9.049-9.407l-6.017-3.572v-26.179c0-4.142-3.357-7.5-7.5-7.5s-7.5 3.358-7.5 7.5v27.786c0 4.275 2.283 8.287 5.96 10.471l7.398 4.392c4.387 2.605 6.036 8.221 3.755 12.785a9.734 9.734 0 01-12.864 4.499l-22.173-10.284a4.53 4.53 0 01-2.615-4.096V337.5c0-7.995-6.505-14.5-14.5-14.5H187.01v-29.792l35.291 12.443a16.859 16.859 0 0111.237 15.877v11.132c0 4.142 3.357 7.5 7.5 7.5s7.5-3.358 7.5-7.5v-11.132c0-13.477-8.539-25.543-21.249-30.024l-78.98-27.057 25.31-12.297c9.352-4.543 14.619-14.867 12.81-25.105a23.752 23.752 0 00-.959-3.664c18.899-37.661 43.34-71.671 72.717-101.111 38.215-38.281 83.545-67.853 134.938-88.062-9.271 26.074-10.443 49.725-3.446 70.54 4.119 12.267 10.644 20.418 16.953 28.301 6.586 8.228 12.806 15.999 16.356 28.629 2.077 7.396 2.95 15.224 2.651 23.327-16.552 5.207-28.34 29.388-28.34 60.301 0 15.477 3.071 29.918 8.693 41.073-6.606 5.997-10.969 13.313-12.675 21.308-2.615 12.254 1.484 22.376 5.384 28.708 1.837 2.984 4.944 5.038 8.526 5.634 3.601.599 7.383-.354 10.199-2.679l11.962-9.848 11.961 9.847c2.811 2.315 6.53 3.291 10.198 2.68 3.581-.596 6.689-2.649 8.527-5.633 3.9-6.333 8-16.455 5.385-28.709-1.363-6.383-4.326-12.219-8.821-17.385 6.927-11.433 10.857-27.617 10.857-44.995 0-29.989-11.096-53.639-26.87-59.781.353-9.647-.7-19.009-3.197-27.903-4.375-15.568-12.19-25.332-19.086-33.946-5.745-7.178-11.172-13.958-14.444-23.704-6.949-20.67-4.137-45.237 8.342-73.134 5.196-3.161 7.886-9.206 6.521-15.423-1.6-7.3-8.169-12.069-15.592-11.338-39.673 3.878-77.256 15.108-111.703 33.378A293.14 293.14 0 00250.2 59.982a7.5 7.5 0 109.143 11.892 278.219 278.219 0 0139.149-25.165c31.468-16.689 65.712-27.194 101.925-31.255C341.81 36.411 290.4 68.77 247.569 111.676c-28.99 29.053-53.352 62.378-72.538 99.162a23.275 23.275 0 00-14.221-2.973c10.622-28.855 32.239-73.814 73.084-113.862a7.5 7.5 0 00-10.502-10.71c-49.153 48.195-71.765 103.148-80.868 131.616-.018.057-.029.115-.046.173l-13.942 6.519-19.443-25.073V181.68a65.008 65.008 0 00-7.842-30.902l-.056-.104c8.94-5.855 14.862-15.957 14.862-27.421v-34.2h37.351c12.406 0 22.5-10.093 22.5-22.5 0-12.266-10.295-22.562-22.5-22.5h-35.9C107.344 27.99 89.433 17.297 69.062 17.297c-31.603 0-57.313 25.711-57.313 57.314 0 6.526 4.356 12.048 10.312 13.828v20.57c-.034 15.109 7.806 29.731 19.745 38.254l-3.367 4.621a57.45 57.45 0 00-10.774 39.259l9.351 99.059c1.219 12.939 6.957 24.362 15.573 32.796H17.5c-9.649 0-17.5 7.851-17.5 17.5v164c0 4.142 3.357 7.5 7.5 7.5s7.5-3.358 7.5-7.5v-164c0-1.378 1.121-2.5 2.5-2.5H198v166.5c0 4.142 3.357 7.5 7.5 7.5s7.5-3.358 7.5-7.5V472.99c10.46 4.531 21.683 9.008 42.99 9.008 22.27 0 33.524-4.891 44.409-9.622 9.915-4.309 19.28-8.378 38.431-8.378 19.145 0 28.508 4.069 38.42 8.377 10.885 4.731 22.14 9.623 44.41 9.623s33.524-4.891 44.409-9.622c9.915-4.309 19.28-8.378 38.431-8.378a7.5 7.5 0 100-14.999zm-52.003-203.695c0 15.509-3.681 30.095-9.847 39.017-3.123 4.519-2.567 10.44 1.351 14.4 3.561 3.6 5.846 7.669 6.79 12.095 1.275 5.974-.179 11.246-2.082 15.159l-11.245-9.258c-2.302-1.895-5.188-2.842-8.074-2.842s-5.772.947-8.074 2.842l-11.245 9.257c-1.903-3.913-3.357-9.185-2.082-15.159 1.179-5.525 4.417-10.453 9.623-14.646 4.428-3.565 5.635-9.665 2.872-14.501-5.201-9.11-8.184-22.365-8.184-36.364 0-26.532 10.611-46.357 20.099-46.357s20.098 19.825 20.098 46.357zM153.41 59.049c4.08-.022 7.5 3.422 7.5 7.5 0 4.136-3.364 7.5-7.5 7.5h-27.049a57.08 57.08 0 00-2.151-15zM26.752 74.047c.303-23.074 19.166-41.75 42.31-41.75s42.007 18.676 42.31 41.75zm10.308 15h14.611v7.563a3.54 3.54 0 01-1.878 3.129l-12.733 6.792zm2.786 32.998l17.006-9.071A18.51 18.51 0 0066.67 96.61v-7.563h34.389v34.202c0 9.793-7.963 17.76-17.75 17.76H69.06c-13.003 0-24.212-7.8-29.214-18.964zm11.248 157.706l-8.497-90.019a42.466 42.466 0 017.965-29.016l4.897-6.721a46.84 46.84 0 0013.601 2.014h14.25c1.22 0 2.423-.073 3.609-.203 3.554 6.144 6.273 13.84 6.916 21.039l-5.232-6.747a7.5 7.5 0 00-11.853 9.192l41.665 53.728c3.384 4.277 9.8 5.303 14.602 3.043l26.831-12.546a8.326 8.326 0 017.419.155 8.352 8.352 0 014.392 5.983c.649 3.671-1.239 7.374-4.593 9.002l-35.653 17.323a23.435 23.435 0 01-26.509-4.208l-36.165-48.809a7.501 7.501 0 00-12.053 8.93l35.806 48.324zm120.917 43.248H89.54c-17.323 0-31.954-11.496-36.385-27.634l53.087-25.053a38.503 38.503 0 0014.939 3.024c1.696 0 3.396-.126 5.089-.353l45.741 15.053z"/></svg>