<svg xmlns="http://www.w3.org/2000/svg" viewBox="0 0 368 368" width="48" height="48"><path d="M344.856 195.234c5.664-6.52 10.304-14.216 14.504-24.056a8.023 8.023 0 00-.528-7.304 8.005 8.005 0 00-6.248-3.816c-8.712-.64-15.608-3.224-23.328-6.936C304.192 141.298 288 115.746 288 88.034c0-8.32 2.392-17.72 7.304-28.744a7.988 7.988 0 00-.44-7.36 7.978 7.978 0 00-6.28-3.872c-1.672-.128-4.12-.096-6.312-.056l-2.272.032c-27.696 0-53.368 13.04-69.944 34.936-8.528-1.912-17.256-2.936-26.056-2.936-57.064 0-106.36 40.96-117.528 96.28C29.352 179.162 0 210.202 0 248.034c0 39.696 32.304 72 72 72h224c39.696 0 72-32.304 72-72 0-20.136-8.528-39.264-23.144-52.8zM219.96 96.37c12.672-19.2 33.512-31.056 56.288-32.232C273.4 72.706 272 80.594 272 88.034c0 33.872 19.792 65.096 50.368 79.528 5.296 2.544 11.04 5.016 17.728 6.664-3.56 6.36-7.552 11.376-12.384 15.68-13.104 11.696-30.048 18.128-47.712 18.128-10.856 0-21.184-2.32-30.744-6.912C224.192 189.298 208 163.746 208 136.034c0-14.184 4.128-27.896 11.96-39.664zM296 304.034H72c-30.88 0-56-25.12-56-56s25.12-56 55.6-56.072c.088.016.184.016.28.024.04.008.072.032.112.04.368.056.736.08 1.104.08h.032c4.168 0 8.456.544 12.752 1.624.312.136.64.248.976.336 14.08 3.84 26.352 13.312 33.664 25.968a7.992 7.992 0 0010.928 2.92 7.994 7.994 0 002.92-10.928C125.16 196.09 109.84 184.09 92.2 178.954a7.024 7.024 0 00-1.152-.408c-2.8-.752-5.6-1.32-8.4-1.72 10.688-46.608 52.808-80.792 101.36-80.792 5.696 0 11.36.52 16.944 1.456A87.218 87.218 0 00192 136.034c0 33.872 19.792 65.096 50.376 79.528 11.688 5.624 24.344 8.472 37.624 8.472a87.563 87.563 0 0053.064-17.88C345 216.722 352 231.97 352 248.034c0 30.88-25.12 56-56 56z"/></svg>