<svg xmlns="http://www.w3.org/2000/svg" viewBox="0 0 368 368" width="48" height="48"><path d="M301.536 160.28C290.36 104.96 241.056 64 184 64c-57.064 0-106.36 40.96-117.528 96.28C29.352 163.12 0 194.168 0 232c0 39.696 32.304 72 72 72h224c39.704 0 72-32.304 72-72 0-37.832-29.344-68.872-66.464-71.72zM296 288H72c-30.88 0-56-25.12-56-56s25.12-56 55.6-56.072c.088.016.184.016.28.024.04.008.072.032.112.04.064.008.12-.016.184-.008.32.04.632.096.952.096 4.168 0 8.456.544 12.752 1.624.312.136.64.248.976.336 14.08 3.84 26.352 13.312 33.664 25.968 2.2 3.816 7.088 5.136 10.928 2.92a7.994 7.994 0 002.92-10.928c-9.208-15.936-24.528-27.936-42.168-33.072a7.024 7.024 0 00-1.152-.408c-2.8-.752-5.6-1.32-8.4-1.72C93.328 114.184 135.448 80 184 80c48.544 0 90.672 34.184 101.36 80.792-2.8.408-5.6.968-8.4 1.72-.392.104-.768.24-1.136.4-17.64 5.136-32.968 17.144-42.184 33.08a8.001 8.001 0 002.928 10.928c3.808 2.216 8.712.896 10.928-2.92 7.312-12.656 19.576-22.12 33.656-25.968.328-.096.656-.2.968-.336 4.296-1.08 8.584-1.624 12.768-1.624.528 0 .616.024 1.12-.08 30.872 0 56 25.12 56 56S326.872 288 296 288z"/></svg>