<svg version="1.1" id="apLayer_1" xmlns="http://www.w3.org/2000/svg" x="0" y="0" viewBox="-244 251 71 60" xml:space="preserve" width="48" height="40.56"><style>.apst0{fill:#202020}</style><path class="apst0" d="M-173.1 260.3c-10.6 5.2-15.9 11.3-15.9 18.4 4.5.5 8.2 2.4 11.2 5.5 3 3.2 4.4 6.8 4.4 11 0 4.4-1.4 8.2-4.3 11.2s-6.5 4.6-10.8 4.6c-4.9 0-9.1-2-12.6-5.9-3.6-3.9-5.3-8.7-5.3-14.4 0-16.9 9.5-30.2 28.4-39.7l4.9 9.3zm-37.3 0c-10.7 5.2-16 11.3-16 18.4 4.6.5 8.4 2.4 11.3 5.5 3 3.2 4.4 6.8 4.4 11 0 4.4-1.5 8.2-4.4 11.2s-6.5 4.6-10.9 4.6c-4.9 0-9-2-12.6-5.9s-5.3-8.7-5.3-14.4c0-16.9 9.4-30.2 28.2-39.7l5.3 9.3z"/></svg>