<svg xmlns="http://www.w3.org/2000/svg" viewBox="0 0 368 368" width="48" height="48"><path d="M344.856 163.234c5.664-6.52 10.304-14.224 14.504-24.056a8.023 8.023 0 00-.528-7.304 8.005 8.005 0 00-6.248-3.816c-8.712-.64-15.608-3.224-23.328-6.936C304.192 109.29 288 83.746 288 56.034c0-8.32 2.392-17.72 7.304-28.744a7.988 7.988 0 00-.44-7.36 7.978 7.978 0 00-6.28-3.872c-1.672-.128-4.128-.096-6.312-.056l-2.272.032c-27.696 0-53.368 13.04-69.944 34.936-8.528-1.912-17.264-2.936-26.056-2.936-57.064 0-106.36 40.96-117.528 96.28C29.352 147.154 0 178.202 0 216.034c0 39.696 32.304 72 72 72h32c4.416 0 8-3.584 8-8s-3.584-8-8-8H72c-30.88 0-56-25.12-56-56s25.12-56 55.6-56.072c.088.016.184.016.28.024.04.008.072.032.112.04.368.056.736.08 1.104.08h.032c4.168 0 8.456.544 12.752 1.624.312.136.64.248.976.336 14.08 3.84 26.352 13.312 33.664 25.968 2.2 3.816 7.096 5.128 10.928 2.92a7.994 7.994 0 002.92-10.928C125.16 164.09 109.84 152.09 92.2 146.954a7.024 7.024 0 00-1.152-.408c-2.8-.752-5.6-1.32-8.4-1.72 10.68-46.608 52.8-80.792 101.352-80.792 5.696 0 11.36.52 16.944 1.456A87.32 87.32 0 00192 104.034c0 33.872 19.792 65.096 50.376 79.528 11.688 5.624 24.344 8.472 37.624 8.472a87.563 87.563 0 0053.064-17.88C345 184.722 352 199.962 352 216.034c0 30.88-25.12 56-56 56h-32c-4.416 0-8 3.584-8 8s3.584 8 8 8h32c39.696 0 72-32.304 72-72 0-20.136-8.528-39.264-23.144-52.8zm-17.144-5.328c-13.104 11.688-30.048 18.128-47.712 18.128-10.856 0-21.184-2.32-30.744-6.912C224.192 157.29 208 131.746 208 104.034c0-14.184 4.128-27.896 11.96-39.664 12.672-19.192 33.512-31.056 56.296-32.232C273.4 40.698 272 48.594 272 56.034c0 33.872 19.792 65.096 50.368 79.528 5.296 2.544 11.04 5.016 17.728 6.664-3.56 6.36-7.552 11.376-12.384 15.68z"/><path d="M216 272.034h-44.688l50.344-50.344c3.128-3.128 3.128-8.184 0-11.312s-8.184-3.128-11.312 0l-64 64a8 8 0 00-1.736 8.72 8.013 8.013 0 007.392 4.936h44.688l-50.344 50.344a7.991 7.991 0 000 11.312 7.978 7.978 0 005.656 2.344 7.978 7.978 0 005.656-2.344l64-64a8 8 0 001.736-8.72 8.013 8.013 0 00-7.392-4.936z"/></svg>