<svg xmlns="http://www.w3.org/2000/svg" viewBox="0 0 368 368" width="48" height="48"><path d="M360 176h-56.408c-1.8-27.064-12.552-51.656-29.392-70.888l43.456-43.456c3.128-3.128 3.128-8.184 0-11.312s-8.184-3.128-11.312 0L262.888 93.8C243.656 76.96 219.064 66.208 192 64.408V8c0-4.416-3.576-8-8-8s-8 3.584-8 8v56.408c-27.064 1.8-51.656 12.552-70.888 29.392L61.656 50.344c-3.128-3.128-8.184-3.128-11.312 0s-3.128 8.184 0 11.312L93.8 105.112C76.96 124.344 66.208 148.936 64.408 176H8c-4.424 0-8 3.584-8 8s3.576 8 8 8H360c4.424 0 8-3.584 8-8s-3.576-8-8-8zm-279.592 0C84.52 122.384 129.36 80 184 80s99.48 42.384 103.592 96H80.408zM237.656 306.344a7.991 7.991 0 00-11.312 0L192 340.688V232c0-4.416-3.576-8-8-8s-8 3.584-8 8v108.688l-34.344-34.344c-3.128-3.128-8.184-3.128-11.312 0s-3.128 8.184 0 11.312l47.992 47.992a7.922 7.922 0 002.608 1.736c.976.4 2.016.616 3.056.616s2.08-.216 3.056-.616a8.005 8.005 0 002.608-1.736l47.992-47.992a7.991 7.991 0 000-11.312z"/></svg>