<svg xmlns="http://www.w3.org/2000/svg" viewBox="-865 -103 368 368" width="48" height="48"><path d="M-569-55c-39.7 0-72 32.3-72 72 0 4.4 3.6 8 8 8s8-3.6 8-8c0-30.9 25.1-56 56-56s56 25.1 56 56-25.1 56-56 56h-288c-4.4 0-8 3.6-8 8s3.6 8 8 8h288c39.7 0 72-32.3 72-72s-32.3-72-72-72z"/><path d="M-857 41h136c30.9 0 56-25.1 56-56s-25.1-56-56-56-56 25.1-56 56c0 4.4 3.6 8 8 8s8-3.6 8-8c0-22.1 17.9-40 40-40s40 17.9 40 40-17.9 40-40 40h-136c-4.4 0-8 3.6-8 8s3.6 8 8 8zM-585 121h-272c-4.4 0-8 3.6-8 8s3.6 8 8 8h272c22.1 0 40 17.9 40 40s-17.9 40-40 40-40-17.9-40-40c0-4.4-3.6-8-8-8s-8 3.6-8 8c0 30.9 25.1 56 56 56s56-25.1 56-56-25.1-56-56-56z"/></svg>