<svg xmlns="http://www.w3.org/2000/svg" viewBox="0 0 368 368" width="48" height="48"><path d="M361.056 133.824v-.008a182.051 182.051 0 00-22.888-50.144v-.008s0-.008-.008-.008c-.008-.016-.016-.032-.024-.04s-.016-.016-.016-.024c-15.544-24.08-37.016-44.48-62.104-59-.008-.008-.024-.008-.032-.016C248.192 8.496 216.392 0 184 0 82.544 0 0 82.544 0 184s82.544 184 184 184c32.392 0 64.192-8.496 91.976-24.584.008-.008.024-.008.032-.016 25.088-14.52 46.56-34.92 62.104-59 .008-.008.016-.016.016-.024.008-.016.016-.032.024-.04 0 0 0-.008.008-.008v-.008a182.158 182.158 0 0022.888-50.144s0-.008.008-.008A184.27 184.27 0 00368 184c0-17-2.336-33.88-6.944-50.176zm-18.64-5.816H201.648V128c.088-.24.152-.488.24-.728 1.776-4.928 3.8-9.752 6.024-14.488.56-1.192 1.192-2.36 1.784-3.536a167.717 167.717 0 015.976-10.912c.464-.776.928-1.56 1.4-2.328h109.984a166.226 166.226 0 0115.36 32zM260.2 48.848c3.344-2.472 6.8-4.792 10.328-7.016.512-.32 1.024-.64 1.536-.952C288.896 51.272 303.816 64.584 315.92 80h-87.752c.312-.392.608-.792.92-1.176 2.712-3.384 5.52-6.704 8.496-9.88.176-.192.368-.36.544-.552 2.848-3.008 5.832-5.88 8.904-8.672.808-.736 1.616-1.464 2.432-2.176 3.288-2.88 6.648-5.672 10.16-8.288.192-.144.392-.264.576-.408zM184 352c-92.64 0-168-75.36-168-168S91.36 16 184 16c25.032 0 49.672 5.552 72.024 16.152-.488.336-.928.736-1.408 1.072-4.376 3.064-8.648 6.272-12.728 9.696-.12.104-.256.2-.376.304-4.12 3.472-8.032 7.176-11.824 10.984-.744.744-1.488 1.48-2.216 2.232a181.758 181.758 0 00-10.28 11.64c-.648.8-1.264 1.624-1.904 2.44-3.288 4.2-6.44 8.504-9.328 12.976-.024.04-.064.08-.088.12-.008.016-.016.032-.024.04 0 0 0 .008-.008.008v.008a181.412 181.412 0 00-13.336 24.168 181.95 181.95 0 00-9.552 25.984A184.069 184.069 0 00176 184c0 4.248.144 8.496.44 12.72a184.092 184.092 0 006.504 37.456s0 .008.008.008a182.16 182.16 0 0022.92 50.2c.008.008.016.016.016.024 2.92 4.52 6.112 8.864 9.432 13.112.608.776 1.2 1.56 1.824 2.336 3.28 4.056 6.736 7.96 10.352 11.728.704.728 1.424 1.44 2.136 2.152 3.808 3.832 7.736 7.552 11.88 11.048.112.096.224.176.336.264 4.096 3.44 8.384 6.648 12.768 9.72.48.336.92.736 1.408 1.072C233.672 346.448 209.032 352 184 352zm88.072-24.88c-.512-.32-1.032-.632-1.536-.952-3.52-2.224-6.984-4.536-10.32-7.008-.192-.144-.392-.272-.584-.408-3.504-2.616-6.856-5.4-10.144-8.272a162.607 162.607 0 01-2.472-2.216c-3.016-2.744-5.952-5.576-8.752-8.528-.224-.24-.472-.464-.696-.704-2.952-3.144-5.728-6.432-8.424-9.792-.328-.408-.64-.824-.96-1.232h87.736c-12.104 15.408-27.024 28.72-43.848 39.112zM327.056 272H217.072c-.472-.768-.936-1.544-1.4-2.32a161.792 161.792 0 01-6-10.96c-.584-1.168-1.2-2.312-1.76-3.488a163.67 163.67 0 01-6.024-14.496c-.088-.24-.152-.488-.24-.736h140.768a166.226 166.226 0 01-15.36 32zm20.144-48H196.912c-.16-.664-.336-1.328-.488-1.992a165.454 165.454 0 01-2.384-12.312c-.104-.656-.248-1.312-.344-1.976-.672-4.736-1.096-9.504-1.368-14.296-.024-.472-.024-.952-.048-1.424h159.536a168.403 168.403 0 01-4.616 32zm-154.928-48c.024-.472.024-.952.048-1.424.264-4.784.696-9.56 1.368-14.296.096-.656.24-1.296.336-1.944.64-4.152 1.448-8.272 2.392-12.36.152-.664.328-1.32.488-1.976h150.288a168.414 168.414 0 014.624 32H192.272z"/></svg>