<svg xmlns="http://www.w3.org/2000/svg" viewBox="0 0 368 368" width="48" height="48"><path d="M301.536 96.28C290.36 40.96 241.056 0 184 0 126.936 0 77.64 40.96 66.472 96.28 29.352 99.12 0 130.168 0 168c0 39.696 32.304 72 72 72h16c4.416 0 8-3.584 8-8s-3.584-8-8-8H72c-30.88 0-56-25.12-56-56s25.12-56 55.6-56.072c.088.016.184.016.28.024.04.008.072.032.112.04.064.008.12-.016.184-.008.32.04.632.096.952.096 4.168 0 8.456.544 12.752 1.624.312.136.64.248.976.336 14.08 3.84 26.352 13.312 33.664 25.968 2.2 3.816 7.088 5.136 10.928 2.92a7.994 7.994 0 002.92-10.928c-9.208-15.936-24.528-27.936-42.168-33.072a7.024 7.024 0 00-1.152-.408c-2.8-.752-5.6-1.32-8.4-1.72C93.328 50.184 135.448 16 184 16c48.544 0 90.672 34.184 101.352 80.792-2.8.408-5.608.968-8.4 1.728-.392.104-.768.24-1.136.4-17.64 5.136-32.968 17.144-42.184 33.08a8.001 8.001 0 002.928 10.928c3.808 2.216 8.712.896 10.928-2.92 7.312-12.656 19.576-22.12 33.656-25.968.328-.096.656-.2.968-.336 4.296-1.08 8.584-1.624 12.768-1.624.528 0 .616.024 1.12-.08 30.872 0 56 25.12 56 56s-25.128 56-56 56h-16c-4.424 0-8 3.584-8 8s3.576 8 8 8h16c39.704 0 72-32.304 72-72 0-37.832-29.344-68.872-66.464-71.72z"/><circle cx="144" cy="224" r="16"/><circle cx="184" cy="288" r="16"/><circle cx="104" cy="288" r="16"/><circle cx="264" cy="288" r="16"/><circle cx="224" cy="224" r="16"/><circle cx="144" cy="352" r="16"/><circle cx="224" cy="352" r="16"/></svg>