<svg xmlns="http://www.w3.org/2000/svg" viewBox="0 0 74 74" width="48" height="48"><path d="M39.5 12.83a1 1 0 01-1-1V5.5a1.5 1.5 0 10-3 0v6.33a1 1 0 01-2 0V5.5a3.477 3.477 0 011.023-2.477A3.5 3.5 0 0140.5 5.5v6.33a1 1 0 01-1 1zM39.5 30.43a1 1 0 01-1-1V18.95a1 1 0 012 0v10.48a1 1 0 01-1 1zM34.5 30.43a1 1 0 01-1-1V18.95a1 1 0 012 0v10.48a1 1 0 01-1 1zM37 72a3.5 3.5 0 01-3.5-3.5v-6.33a1 1 0 012 0v6.33a1.5 1.5 0 103 0v-6.33a1 1 0 012 0v6.33a3.477 3.477 0 01-1.023 2.477A3.521 3.521 0 0137 72zM34.5 56.05a1 1 0 01-1-1V44.57a1 1 0 112 0v10.48a1 1 0 01-1 1zM39.5 56.05a1 1 0 01-1-1V44.57a1 1 0 112 0v10.48a1 1 0 01-1 1zM11.83 40.5H5.5a3.525 3.525 0 01-2.478-1.023A3.5 3.5 0 015.5 33.5h6.33a1 1 0 010 2H5.5a1.5 1.5 0 100 3h6.33a1 1 0 010 2zM29.43 35.5H18.95a1 1 0 010-2h10.48a1 1 0 010 2zM29.43 40.5H18.95a1 1 0 010-2h10.48a1 1 0 110 2zM68.5 40.5h-6.33a1 1 0 010-2h6.33a1.5 1.5 0 100-3h-6.33a1 1 0 010-2h6.33a3.525 3.525 0 012.478 1.023A3.5 3.5 0 0168.5 40.5zM55.05 40.5H44.57a1 1 0 110-2h10.48a1 1 0 010 2zM55.05 35.5H44.57a1 1 0 110-2h10.48a1 1 0 010 2zM17.44 21.97a1 1 0 01-.707-.293l-4.48-4.48a3.473 3.473 0 01.008-4.951 3.444 3.444 0 012.463-1.021 3.46 3.46 0 012.476 1.031l4.476 4.477a1 1 0 01-1.414 1.414l-4.48-4.48a1.476 1.476 0 00-1.058-.442 1.52 1.52 0 00-1.5 1.5 1.5 1.5 0 00.447 1.063l4.48 4.48a1 1 0 01-.707 1.707z"/><path d="M33.41 30.88a1 1 0 01-.707-.293l-7.41-7.41a1 1 0 111.414-1.414l7.41 7.41a1 1 0 01-.707 1.707zM29.88 34.41a1 1 0 01-.707-.293l-7.41-7.41a1 1 0 111.414-1.414l7.41 7.41a1 1 0 01-.707 1.707zM59.275 62.775a3.46 3.46 0 01-2.475-1.031l-4.476-4.477a1 1 0 011.414-1.414l4.48 4.48a1.476 1.476 0 001.058.442 1.52 1.52 0 001.504-1.495 1.5 1.5 0 00-.447-1.063l-4.48-4.48a1 1 0 011.414-1.414l4.48 4.48a3.473 3.473 0 01-.008 4.951 3.444 3.444 0 01-2.463 1.021zM48 52.53a1 1 0 01-.707-.293l-7.41-7.41a1 1 0 011.417-1.414l7.41 7.41A1 1 0 0148 52.53zM51.53 49a1 1 0 01-.707-.293l-7.41-7.41a1 1 0 011.414-1.414l7.41 7.41A1 1 0 0151.53 49zM44.12 34.41a1 1 0 01-.707-1.707l7.41-7.41a1 1 0 011.414 1.414l-7.41 7.41a1 1 0 01-.707.293zM40.59 30.88a1 1 0 01-.707-1.707l7.41-7.41a1 1 0 111.414 1.414l-7.41 7.41a1 1 0 01-.707.293zM56.56 21.97a1 1 0 01-.707-1.707l4.48-4.48a1.5 1.5 0 00.447-1.063 1.456 1.456 0 00-.439-1.046 1.485 1.485 0 00-1.066-.449 1.47 1.47 0 00-1.054.439l-4.484 4.483a1 1 0 01-1.414-1.414l4.48-4.48a3.454 3.454 0 012.472-1.028 3.492 3.492 0 012.472 5.975l-4.48 4.48a1 1 0 01-.707.29zM26 52.53a1 1 0 01-.707-1.707l7.41-7.41a1 1 0 011.414 1.414l-7.41 7.41a1 1 0 01-.707.293zM22.47 49a1 1 0 01-.707-1.707l7.41-7.41a1 1 0 011.414 1.417l-7.41 7.41a1 1 0 01-.707.29zM14.725 62.775a3.492 3.492 0 01-2.472-5.975l4.48-4.48a1 1 0 011.414 1.414l-4.48 4.48a1.5 1.5 0 00-.447 1.063 1.456 1.456 0 00.439 1.046 1.485 1.485 0 001.066.449 1.47 1.47 0 001.054-.439l4.484-4.483a1 1 0 011.414 1.414l-4.48 4.48a3.454 3.454 0 01-2.472 1.031z"/><path d="M37 45.969A8.969 8.969 0 1145.969 37 8.98 8.98 0 0137 45.969zm0-15.938A6.969 6.969 0 1043.969 37 6.977 6.977 0 0037 30.031z"/><path d="M37 56.219A19.219 19.219 0 1156.219 37 19.241 19.241 0 0137 56.219zm0-36.438A17.219 17.219 0 1054.219 37 17.239 17.239 0 0037 19.781z"/><path d="M37 63.292A26.292 26.292 0 1163.292 37 26.322 26.322 0 0137 63.292zm0-50.584A24.292 24.292 0 1061.292 37 24.319 24.319 0 0037 12.708z"/></svg>