<svg xmlns="http://www.w3.org/2000/svg" viewBox="0 0 368 368" width="48" height="48"><path d="M312 32H8c-4.424 0-8 3.584-8 8s3.576 8 8 8h304c4.424 0 8-3.584 8-8s-3.576-8-8-8zM360 80H88c-4.424 0-8 3.584-8 8s3.576 8 8 8h272c4.424 0 8-3.584 8-8s-3.576-8-8-8zM312 176H120c-4.424 0-8 3.584-8 8s3.576 8 8 8h192c4.424 0 8-3.584 8-8s-3.576-8-8-8zM280 224H152c-4.424 0-8 3.584-8 8s3.576 8 8 8h128c4.424 0 8-3.584 8-8s-3.576-8-8-8zM248 272h-96c-4.424 0-8 3.584-8 8s3.576 8 8 8h96c4.424 0 8-3.584 8-8s-3.576-8-8-8zM216 320h-64c-4.424 0-8 3.584-8 8s3.576 8 8 8h64c4.424 0 8-3.584 8-8s-3.576-8-8-8zM248 128H8c-4.424 0-8 3.584-8 8s3.576 8 8 8h240c4.424 0 8-3.584 8-8s-3.576-8-8-8z"/></svg>