<?xml version="1.0" standalone="no"?>
<!DOCTYPE svg PUBLIC "-//W3C//DTD SVG 20010904//EN"
 "http://www.w3.org/TR/2001/REC-SVG-20010904/DTD/svg10.dtd">
<svg version="1.0" xmlns="http://www.w3.org/2000/svg"
 width="700.000000pt" height="700.000000pt" viewBox="0 0 700.000000 700.000000"
 preserveAspectRatio="xMidYMid meet">
<metadata>
Created by potrace 1.14, written by Peter Selinger 2001-2017
</metadata>
<g transform="translate(0.000000,700.000000) scale(0.100000,-0.100000)"
fill="#000000" stroke="none">
<path d="M5715 5254 c-196 -162 -383 -338 -565 -533 -45 -47 -48 -46 93 -49
73 -1 157 -4 187 -6 81 -6 199 -16 248 -21 23 -3 63 -7 90 -10 26 -3 74 -9
107 -15 220 -35 318 -52 375 -65 36 -8 77 -17 91 -19 97 -16 463 -122 588
-171 34 -13 61 -22 61 -21 0 1 -30 27 -67 57 -38 30 -84 68 -103 85 -19 17
-132 116 -250 219 -118 103 -231 202 -250 219 -19 17 -64 56 -100 86 -36 30
-67 57 -70 60 -32 36 -332 250 -349 250 -4 0 -43 -30 -86 -66z"/>
<path d="M2287 4714 c-1 -1 -83 -5 -182 -8 -99 -4 -202 -9 -230 -11 -27 -2
-86 -6 -130 -9 -44 -4 -89 -8 -100 -10 -11 -2 -48 -7 -81 -11 l-62 -7 -88 -95
c-49 -53 -106 -114 -128 -137 -138 -148 -377 -463 -481 -634 -5 -9 -22 -35
-36 -57 -42 -66 -44 -72 -19 -50 14 11 31 27 40 36 29 31 135 117 225 183 50
36 95 70 102 76 23 19 157 104 183 116 8 4 17 10 20 13 11 13 232 127 320 165
36 16 85 37 109 48 96 43 415 143 521 164 14 3 39 9 55 14 48 14 274 58 342
66 20 2 79 11 123 19 17 3 92 12 240 30 19 2 64 7 100 10 36 3 81 8 100 10 19
2 67 6 105 10 39 3 90 8 115 10 25 2 72 7 105 10 68 7 85 15 34 16 -19 0 -59
2 -89 4 -283 20 -520 27 -888 29 -178 1 -324 1 -325 0z"/>
<path d="M4107 4644 c-1 -1 -74 -5 -162 -9 -88 -3 -176 -8 -195 -10 -19 -2
-82 -6 -138 -10 -57 -4 -111 -8 -120 -10 -10 -1 -44 -6 -77 -9 -109 -12 -149
-17 -215 -27 -36 -6 -83 -12 -105 -15 -22 -3 -62 -9 -90 -14 -27 -5 -65 -12
-84 -15 -84 -14 -336 -69 -441 -96 -628 -163 -1135 -401 -1550 -730 -145 -114
-378 -351 -482 -489 -186 -249 -309 -479 -409 -764 -44 -125 -44 -125 36 -161
159 -73 348 -123 640 -170 37 -6 190 -24 250 -30 33 -3 78 -7 100 -10 273 -27
920 -28 1200 -1 17 2 65 6 107 10 43 4 92 9 110 12 18 2 56 7 83 10 105 13
142 18 280 44 55 10 114 21 130 24 52 9 236 56 325 82 335 100 556 228 781
453 80 80 170 182 222 251 78 104 144 194 252 343 289 404 481 602 758 782 94
61 265 149 357 185 30 11 64 24 75 29 89 39 340 108 495 136 19 4 42 8 50 10
8 2 24 4 34 4 29 1 15 10 -28 17 -21 3 -48 8 -60 10 -33 7 -232 41 -286 49
-42 6 -173 24 -215 29 -22 3 -76 10 -120 15 -44 6 -104 13 -133 16 -28 2 -74
7 -101 10 -26 3 -72 7 -102 10 -30 2 -83 7 -119 10 -215 18 -445 27 -763 29
-158 1 -289 1 -290 0z"/>
<path d="M5015 3738 c-137 -150 -242 -302 -432 -628 -148 -255 -213 -349 -302
-439 -322 -324 -701 -493 -1359 -606 l-137 -24 285 5 c157 3 305 7 330 9 25 2
99 7 165 10 66 4 129 9 140 11 10 2 49 6 85 9 107 10 301 34 390 50 8 1 40 6
70 10 47 6 61 13 92 47 44 48 138 234 208 413 28 72 55 139 59 150 5 11 48
126 96 255 154 414 260 642 352 758 52 64 32 50 -42 -30z"/>
</g>
</svg>
