<?xml version="1.0" encoding="utf-8"?>
<!-- Generator: Adobe Illustrator 19.0.0, SVG Export Plug-In . SVG Version: 6.00 Build 0)  -->
<svg version="1.1" id="Layer_1" xmlns="http://www.w3.org/2000/svg" xmlns:xlink="http://www.w3.org/1999/xlink" x="0px" y="0px"
	 viewBox="-902 41.7 208.3 80.3" style="enable-background:new -902 41.7 208.3 80.3;" xml:space="preserve">
<style type="text/css">
	.st0{fill:#231F20;}
	.st1{fill:#034EA1;}
	.st2{fill:#FFD559;}
	.st3{fill:#0071BB;}
</style>
<g>
	<g>
		<polygon class="st0" points="-784.7,117.3 -784.7,118.4 -783.4,118.4 -783.4,118.9 -784.7,118.9 -784.7,120.4 -782.9,120.4 
			-782.9,120.8 -785.2,120.8 -785.2,116.8 -782.8,116.8 -782.8,117.3 		"/>
		<path class="st0" d="M-781.8,117.9v1.9c0,0.5,0.2,0.7,0.6,0.7c0.2,0,0.3,0,0.5-0.1c0.1-0.1,0.2-0.2,0.3-0.3v-2.1h0.5v2.9h-0.5
			v-0.4c-0.1,0.1-0.2,0.2-0.4,0.3c-0.2,0.1-0.3,0.1-0.5,0.1c-0.3,0-0.6-0.1-0.7-0.3c-0.2-0.2-0.3-0.4-0.3-0.8v-1.9H-781.8z"/>
		<path class="st0" d="M-777.6,118.4c-0.1-0.1-0.2-0.1-0.3-0.1c-0.2,0-0.3,0.1-0.5,0.3c-0.1,0.2-0.2,0.4-0.2,0.6v1.7h-0.5v-2.9h0.5
			v0.5c0.2-0.3,0.5-0.5,0.8-0.5c0.1,0,0.2,0,0.4,0L-777.6,118.4z"/>
		<path class="st0" d="M-776.6,119.4c0,0.7,0.3,1.1,0.8,1.1c0.2,0,0.4-0.1,0.6-0.3c0.1-0.2,0.2-0.5,0.2-0.8c0-0.7-0.3-1.1-0.8-1.1
			c-0.2,0-0.4,0.1-0.6,0.3C-776.5,118.8-776.6,119-776.6,119.4 M-777.1,119.4c0-0.5,0.1-0.8,0.4-1.1c0.2-0.3,0.6-0.4,1-0.4
			c0.4,0,0.7,0.1,1,0.4c0.2,0.3,0.3,0.6,0.3,1.1c0,0.5-0.1,0.8-0.4,1.1c-0.2,0.3-0.6,0.4-1,0.4c-0.4,0-0.7-0.1-1-0.4
			C-777,120.2-777.1,119.8-777.1,119.4"/>
		<path class="st0" d="M-773.5,119.4c0,0.7,0.3,1.1,0.8,1.1c0.2,0,0.4-0.1,0.6-0.3c0.1-0.2,0.2-0.5,0.2-0.8c0-0.7-0.3-1.1-0.8-1.1
			c-0.2,0-0.4,0.1-0.6,0.3C-773.5,118.8-773.5,119-773.5,119.4 M-774.1,119.4c0-0.5,0.1-0.8,0.4-1.1c0.2-0.3,0.6-0.4,1-0.4
			c0.4,0,0.7,0.1,1,0.4c0.2,0.3,0.3,0.6,0.3,1.1c0,0.5-0.1,0.8-0.4,1.1c-0.2,0.3-0.6,0.4-1,0.4c-0.4,0-0.7-0.1-1-0.4
			C-774,120.2-774.1,119.8-774.1,119.4"/>
		<path class="st0" d="M-770.3,118.5v1.7c0,0,0.1,0.1,0.2,0.1c0.1,0,0.2,0.1,0.3,0.1c0.6,0,1-0.4,1-1.1c0-0.4-0.1-0.6-0.2-0.8
			c-0.2-0.2-0.4-0.3-0.7-0.3c-0.1,0-0.2,0-0.3,0.1C-770.2,118.4-770.3,118.5-770.3,118.5 M-770.3,120.7v1.3h-0.5v-4.1h0.5v0.2
			c0.2-0.2,0.4-0.3,0.7-0.3c0.4,0,0.7,0.1,1,0.4c0.2,0.3,0.3,0.6,0.3,1.1c0,0.4-0.1,0.8-0.4,1.1c-0.2,0.3-0.6,0.4-1,0.4
			c-0.1,0-0.3,0-0.4-0.1C-770.2,120.8-770.3,120.7-770.3,120.7"/>
		<path class="st0" d="M-766.1,119.4c-0.2,0-0.3-0.1-0.3-0.1c-0.3,0-0.5,0.1-0.6,0.2c-0.2,0.1-0.2,0.3-0.2,0.5
			c0,0.3,0.2,0.5,0.5,0.5c0.3,0,0.5-0.1,0.7-0.4V119.4z M-766,120.5c-0.2,0.3-0.5,0.4-1,0.4c-0.2,0-0.4-0.1-0.6-0.3
			c-0.2-0.2-0.3-0.4-0.3-0.6c0-0.3,0.1-0.5,0.4-0.8s0.6-0.3,1-0.3c0.1,0,0.2,0,0.4,0.1c0-0.5-0.2-0.7-0.6-0.7
			c-0.3,0-0.6,0.1-0.8,0.3l-0.2-0.4c0.1-0.1,0.2-0.1,0.4-0.2c0.2-0.1,0.3-0.1,0.5-0.1c0.4,0,0.7,0.1,0.9,0.3
			c0.2,0.2,0.3,0.5,0.3,0.9v1.1c0,0.3,0.1,0.4,0.2,0.5v0.3c-0.2,0-0.4,0-0.5-0.1C-765.9,120.8-766,120.7-766,120.5"/>
		<polygon class="st0" points="-759.9,120.8 -760.4,118.3 -761.3,120.9 -761.4,120.9 -762.3,118.3 -762.8,120.8 -763.3,120.8 
			-762.6,116.8 -762.3,116.8 -761.4,119.8 -760.5,116.8 -760.2,116.8 -759.4,120.8 		"/>
		<path class="st0" d="M-757.8,118.3c-0.2,0-0.4,0.1-0.6,0.2c-0.1,0.1-0.2,0.3-0.3,0.5h1.6c0-0.2-0.1-0.4-0.2-0.5
			C-757.3,118.4-757.5,118.3-757.8,118.3 M-756.5,119.4h-2.1c0,0.3,0.1,0.6,0.3,0.8c0.2,0.2,0.4,0.2,0.6,0.2c0.3,0,0.5-0.1,0.7-0.3
			l0.2,0.4c-0.1,0.1-0.2,0.1-0.4,0.2c-0.2,0.1-0.4,0.1-0.7,0.1c-0.4,0-0.7-0.1-0.9-0.4c-0.3-0.3-0.4-0.6-0.4-1.1
			c0-0.5,0.1-0.9,0.4-1.2c0.3-0.3,0.6-0.4,0.9-0.4c0.4,0,0.7,0.1,1,0.4c0.2,0.2,0.3,0.5,0.3,0.9
			C-756.5,119.2-756.5,119.3-756.5,119.4"/>
		<path class="st0" d="M-754.3,118.4c-0.1-0.1-0.2-0.1-0.3-0.1c-0.2,0-0.3,0.1-0.5,0.3c-0.1,0.2-0.2,0.4-0.2,0.6v1.7h-0.5v-2.9h0.5
			v0.5c0.2-0.3,0.5-0.5,0.8-0.5c0.1,0,0.2,0,0.4,0L-754.3,118.4z"/>
		<path class="st0" d="M-752.5,118.3c-0.2,0-0.4,0.1-0.6,0.2c-0.1,0.1-0.2,0.3-0.3,0.5h1.6c0-0.2-0.1-0.4-0.2-0.5
			C-752.1,118.4-752.2,118.3-752.5,118.3 M-751.2,119.4h-2.1c0,0.3,0.1,0.6,0.3,0.8c0.2,0.2,0.4,0.2,0.6,0.2c0.3,0,0.5-0.1,0.7-0.3
			l0.2,0.4c-0.1,0.1-0.2,0.1-0.4,0.2c-0.2,0.1-0.4,0.1-0.7,0.1c-0.4,0-0.7-0.1-0.9-0.4c-0.3-0.3-0.4-0.6-0.4-1.1
			c0-0.5,0.1-0.9,0.4-1.2c0.3-0.3,0.6-0.4,0.9-0.4c0.4,0,0.7,0.1,1,0.4c0.2,0.2,0.3,0.5,0.3,0.9
			C-751.2,119.2-751.2,119.3-751.2,119.4"/>
		<path class="st0" d="M-748.8,120.8v-1.7c0-0.3,0-0.5-0.1-0.7c-0.1-0.1-0.3-0.2-0.5-0.2c-0.1,0-0.2,0-0.4,0.1
			c-0.1,0.1-0.2,0.2-0.3,0.3v2.2h-0.5v-2.9h0.4l0.2,0.4c0.2-0.3,0.5-0.4,0.8-0.4c0.6,0,1,0.4,1,1.2v1.8H-748.8z"/>
		<path class="st0" d="M-745.7,118.6c-0.1-0.2-0.3-0.3-0.5-0.3c-0.3,0-0.5,0.1-0.7,0.3c-0.2,0.2-0.3,0.5-0.3,0.8
			c0,0.7,0.3,1.1,1,1.1c0.1,0,0.2,0,0.3-0.1c0.1-0.1,0.2-0.1,0.2-0.2V118.6z M-745.7,120.8v-0.2c-0.2,0.2-0.4,0.3-0.8,0.3
			c-0.4,0-0.7-0.1-0.9-0.4c-0.2-0.3-0.3-0.6-0.3-1.1c0-0.4,0.1-0.8,0.4-1.1c0.3-0.3,0.6-0.5,0.9-0.5c0.3,0,0.5,0.1,0.7,0.2v-1.4h0.5
			v4.1H-745.7z"/>
		<path class="st0" d="M-743.9,117.9v1.9c0,0.5,0.2,0.7,0.6,0.7c0.2,0,0.3,0,0.5-0.1c0.1-0.1,0.2-0.2,0.3-0.3v-2.1h0.5v2.9h-0.5
			v-0.4c-0.1,0.1-0.2,0.2-0.4,0.3c-0.2,0.1-0.3,0.1-0.5,0.1c-0.3,0-0.6-0.1-0.7-0.3c-0.2-0.2-0.3-0.4-0.3-0.8v-1.9H-743.9z"/>
		<path class="st0" d="M-741.5,120.7l0.2-0.5c0.3,0.2,0.5,0.3,0.7,0.3c0.3,0,0.5-0.1,0.5-0.4c0-0.2-0.2-0.4-0.5-0.5
			c-0.2-0.1-0.4-0.2-0.5-0.2c-0.1-0.1-0.2-0.1-0.2-0.2c-0.1-0.1-0.1-0.1-0.1-0.2c0-0.1,0-0.2,0-0.3c0-0.2,0.1-0.4,0.3-0.6
			c0.2-0.1,0.4-0.2,0.7-0.2c0.2,0,0.5,0.1,0.8,0.2l-0.1,0.5c-0.2-0.2-0.4-0.2-0.6-0.2c-0.1,0-0.2,0-0.3,0.1
			c-0.1,0.1-0.1,0.1-0.1,0.2c0,0.2,0.1,0.3,0.3,0.4l0.4,0.2c0.2,0.1,0.4,0.2,0.5,0.4c0.1,0.1,0.2,0.3,0.2,0.5c0,0.3-0.1,0.5-0.3,0.6
			c-0.2,0.1-0.4,0.2-0.8,0.2C-740.9,120.9-741.2,120.8-741.5,120.7"/>
		<rect x="-738.9" y="119" class="st0" width="1.2" height="0.5"/>
		<path class="st0" d="M-734.4,116.8c0.1,0,0.2,0,0.2,0.1c0.1,0.1,0.1,0.1,0.1,0.2c0,0.1,0,0.2-0.1,0.2c-0.1,0.1-0.1,0.1-0.2,0.1
			c-0.1,0-0.2,0-0.2-0.1c-0.1-0.1-0.1-0.1-0.1-0.2c0-0.1,0-0.2,0.1-0.2C-734.5,116.8-734.5,116.8-734.4,116.8 M-735.5,122v-0.5
			c0.4,0,0.6-0.1,0.7-0.2c0.1-0.1,0.2-0.3,0.2-0.5v-2.5h-0.6v-0.4h1.1v2.9c0,0.4-0.1,0.7-0.4,0.9C-734.6,121.9-735,122-735.5,122"/>
		<path class="st0" d="M-731.5,119.4c-0.2,0-0.3-0.1-0.3-0.1c-0.3,0-0.5,0.1-0.6,0.2c-0.2,0.1-0.2,0.3-0.2,0.5
			c0,0.3,0.2,0.5,0.5,0.5c0.3,0,0.5-0.1,0.7-0.4V119.4z M-731.4,120.5c-0.2,0.3-0.5,0.4-1,0.4c-0.2,0-0.4-0.1-0.6-0.3
			c-0.2-0.2-0.3-0.4-0.3-0.6c0-0.3,0.1-0.5,0.4-0.8c0.3-0.2,0.6-0.3,1-0.3c0.1,0,0.2,0,0.4,0.1c0-0.5-0.2-0.7-0.6-0.7
			c-0.3,0-0.6,0.1-0.8,0.3l-0.2-0.4c0.1-0.1,0.2-0.1,0.4-0.2c0.2-0.1,0.3-0.1,0.5-0.1c0.4,0,0.7,0.1,0.9,0.3
			c0.2,0.2,0.3,0.5,0.3,0.9v1.1c0,0.3,0.1,0.4,0.2,0.5v0.3c-0.2,0-0.4,0-0.5-0.1C-731.3,120.8-731.4,120.7-731.4,120.5"/>
		<polygon class="st0" points="-726.1,120.8 -727.3,119 -727.8,119.8 -727.8,120.8 -728.3,120.8 -728.3,116.8 -727.8,116.8 
			-727.8,119 -726.3,116.8 -725.7,116.8 -726.9,118.6 -725.5,120.8 		"/>
		<path class="st0" d="M-723.5,119.4c-0.2,0-0.3-0.1-0.3-0.1c-0.3,0-0.5,0.1-0.6,0.2c-0.2,0.1-0.2,0.3-0.2,0.5
			c0,0.3,0.2,0.5,0.5,0.5c0.3,0,0.5-0.1,0.7-0.4V119.4z M-723.5,120.5c-0.2,0.3-0.5,0.4-1,0.4c-0.2,0-0.4-0.1-0.6-0.3
			c-0.2-0.2-0.3-0.4-0.3-0.6c0-0.3,0.1-0.5,0.4-0.8c0.3-0.2,0.6-0.3,1-0.3c0.1,0,0.2,0,0.4,0.1c0-0.5-0.2-0.7-0.6-0.7
			c-0.3,0-0.6,0.1-0.8,0.3l-0.2-0.4c0.1-0.1,0.2-0.1,0.4-0.2c0.2-0.1,0.3-0.1,0.5-0.1c0.4,0,0.7,0.1,0.9,0.3
			c0.2,0.2,0.3,0.5,0.3,0.9v1.1c0,0.3,0.1,0.4,0.2,0.5v0.3c-0.2,0-0.4,0-0.5-0.1C-723.4,120.8-723.4,120.7-723.5,120.5"/>
		<path class="st0" d="M-722.1,120v-3.3h0.5v3.2c0,0.2,0,0.3,0.1,0.4c0.1,0.1,0.2,0.1,0.4,0.1v0.5
			C-721.8,120.9-722.1,120.6-722.1,120"/>
		<path class="st0" d="M-718.9,119.4c-0.2,0-0.3-0.1-0.3-0.1c-0.3,0-0.5,0.1-0.6,0.2c-0.2,0.1-0.2,0.3-0.2,0.5
			c0,0.3,0.2,0.5,0.5,0.5c0.3,0,0.5-0.1,0.7-0.4V119.4z M-718.8,120.5c-0.2,0.3-0.5,0.4-1,0.4c-0.2,0-0.4-0.1-0.6-0.3
			c-0.2-0.2-0.3-0.4-0.3-0.6c0-0.3,0.1-0.5,0.4-0.8c0.3-0.2,0.6-0.3,1-0.3c0.1,0,0.2,0,0.4,0.1c0-0.5-0.2-0.7-0.6-0.7
			c-0.3,0-0.6,0.1-0.8,0.3l-0.2-0.4c0.1-0.1,0.2-0.1,0.4-0.2c0.2-0.1,0.3-0.1,0.5-0.1c0.4,0,0.7,0.1,0.9,0.3
			c0.2,0.2,0.3,0.5,0.3,0.9v1.1c0,0.3,0.1,0.4,0.2,0.5v0.3c-0.2,0-0.4,0-0.5-0.1C-718.7,120.8-718.8,120.7-718.8,120.5"/>
		<path class="st0" d="M-715.7,120.8v-1.7c0-0.3,0-0.5-0.1-0.7c-0.1-0.1-0.3-0.2-0.5-0.2c-0.1,0-0.2,0-0.4,0.1
			c-0.1,0.1-0.2,0.2-0.3,0.3v2.2h-0.5v-2.9h0.4l0.2,0.4c0.2-0.3,0.5-0.4,0.8-0.4c0.6,0,1,0.4,1,1.2v1.8H-715.7z"/>
		<path class="st0" d="M-712.5,118.6c-0.1-0.2-0.3-0.3-0.5-0.3c-0.3,0-0.5,0.1-0.7,0.3c-0.2,0.2-0.3,0.5-0.3,0.8
			c0,0.7,0.3,1.1,1,1.1c0.1,0,0.2,0,0.3-0.1c0.1-0.1,0.2-0.1,0.2-0.2V118.6z M-712.5,120.8v-0.2c-0.2,0.2-0.4,0.3-0.8,0.3
			c-0.4,0-0.7-0.1-0.9-0.4c-0.2-0.3-0.3-0.6-0.3-1.1c0-0.4,0.1-0.8,0.4-1.1c0.3-0.3,0.6-0.5,0.9-0.5c0.3,0,0.5,0.1,0.7,0.2v-1.4h0.5
			v4.1H-712.5z"/>
		<path class="st0" d="M-710.8,117.9v1.9c0,0.5,0.2,0.7,0.6,0.7c0.2,0,0.3,0,0.5-0.1c0.1-0.1,0.2-0.2,0.3-0.3v-2.1h0.5v2.9h-0.5
			v-0.4c-0.1,0.1-0.2,0.2-0.4,0.3c-0.2,0.1-0.3,0.1-0.5,0.1c-0.3,0-0.6-0.1-0.7-0.3c-0.2-0.2-0.3-0.4-0.3-0.8v-1.9H-710.8z"/>
		<path class="st0" d="M-708.3,120.7l0.2-0.5c0.3,0.2,0.5,0.3,0.7,0.3c0.3,0,0.5-0.1,0.5-0.4c0-0.2-0.2-0.4-0.5-0.5
			c-0.2-0.1-0.4-0.2-0.5-0.2c-0.1-0.1-0.2-0.1-0.2-0.2c-0.1-0.1-0.1-0.1-0.1-0.2c0-0.1,0-0.2,0-0.3c0-0.2,0.1-0.4,0.3-0.6
			c0.2-0.1,0.4-0.2,0.7-0.2c0.2,0,0.5,0.1,0.8,0.2l-0.1,0.5c-0.2-0.2-0.4-0.2-0.6-0.2c-0.1,0-0.2,0-0.3,0.1
			c-0.1,0.1-0.1,0.1-0.1,0.2c0,0.2,0.1,0.3,0.3,0.4l0.4,0.2c0.2,0.1,0.4,0.2,0.5,0.4c0.1,0.1,0.2,0.3,0.2,0.5c0,0.3-0.1,0.5-0.3,0.6
			c-0.2,0.1-0.4,0.2-0.8,0.2C-707.8,120.9-708.1,120.8-708.3,120.7"/>
		<path class="st0" d="M-704.3,117.2c-0.1,0-0.2-0.1-0.3-0.1c-0.2,0-0.3,0.1-0.4,0.2c-0.1,0.1-0.2,0.3-0.2,0.5c0,0,0,0.1,0,0.2h0.6
			v0.4h-0.6v2.5h-0.5v-2.5h-0.4v-0.4h0.4c0-0.4,0.1-0.7,0.3-0.9c0.2-0.2,0.4-0.3,0.7-0.3c0.2,0,0.3,0,0.5,0.1L-704.3,117.2z"/>
		<path class="st0" d="M-703.4,119.4c0,0.7,0.3,1.1,0.8,1.1c0.2,0,0.4-0.1,0.6-0.3c0.1-0.2,0.2-0.5,0.2-0.8c0-0.7-0.3-1.1-0.8-1.1
			c-0.2,0-0.4,0.1-0.6,0.3C-703.3,118.8-703.4,119-703.4,119.4 M-703.9,119.4c0-0.5,0.1-0.8,0.4-1.1c0.2-0.3,0.6-0.4,1-0.4
			c0.4,0,0.7,0.1,1,0.4c0.2,0.3,0.3,0.6,0.3,1.1c0,0.5-0.1,0.8-0.4,1.1c-0.2,0.3-0.6,0.4-1,0.4c-0.4,0-0.7-0.1-1-0.4
			C-703.8,120.2-703.9,119.8-703.9,119.4"/>
		<path class="st0" d="M-698.9,120.8v-1.7c0-0.3,0-0.5-0.1-0.7c-0.1-0.1-0.3-0.2-0.5-0.2c-0.1,0-0.2,0-0.4,0.1
			c-0.1,0.1-0.2,0.2-0.3,0.3v2.2h-0.5v-2.9h0.4l0.2,0.4c0.2-0.3,0.5-0.4,0.8-0.4c0.6,0,1,0.4,1,1.2v1.8H-698.9z"/>
		<path class="st0" d="M-695.8,118.6c-0.1-0.2-0.3-0.3-0.5-0.3c-0.3,0-0.5,0.1-0.7,0.3c-0.2,0.2-0.3,0.5-0.3,0.8
			c0,0.7,0.3,1.1,1,1.1c0.1,0,0.2,0,0.3-0.1c0.1-0.1,0.2-0.1,0.2-0.2V118.6z M-695.8,120.8v-0.2c-0.2,0.2-0.4,0.3-0.8,0.3
			c-0.4,0-0.7-0.1-0.9-0.4c-0.2-0.3-0.3-0.6-0.3-1.1c0-0.4,0.1-0.8,0.4-1.1c0.3-0.3,0.6-0.5,0.9-0.5c0.3,0,0.5,0.1,0.7,0.2v-1.4h0.5
			v4.1H-695.8z"/>
		<polygon class="st0" points="-756.2,108.1 -756.2,109.3 -754.7,109.3 -754.7,109.8 -756.2,109.8 -756.2,111.4 -754.2,111.4 
			-754.2,112 -756.8,112 -756.8,107.5 -754.1,107.5 -754.1,108.1 		"/>
		<path class="st0" d="M-752.9,108.7v2.1c0,0.5,0.2,0.8,0.7,0.8c0.2,0,0.4-0.1,0.5-0.2c0.2-0.1,0.3-0.2,0.3-0.4v-2.3h0.6v3.3h-0.6
			v-0.4c-0.1,0.1-0.2,0.2-0.4,0.4c-0.2,0.1-0.4,0.2-0.6,0.2c-0.4,0-0.6-0.1-0.8-0.3c-0.2-0.2-0.3-0.5-0.3-0.9v-2.1H-752.9z"/>
		<path class="st0" d="M-748.3,109.3c-0.1-0.1-0.3-0.1-0.4-0.1c-0.2,0-0.4,0.1-0.5,0.3c-0.2,0.2-0.2,0.4-0.2,0.7v1.9h-0.6v-3.3h0.6
			v0.5c0.2-0.4,0.5-0.6,0.9-0.6c0.1,0,0.3,0,0.4,0.1L-748.3,109.3z"/>
		<path class="st0" d="M-747.2,110.4c0,0.8,0.3,1.2,0.9,1.2c0.3,0,0.5-0.1,0.6-0.3c0.2-0.2,0.2-0.5,0.2-0.9c0-0.8-0.3-1.2-0.9-1.2
			c-0.3,0-0.5,0.1-0.6,0.3C-747.1,109.7-747.2,110-747.2,110.4 M-747.8,110.4c0-0.5,0.1-0.9,0.4-1.2c0.3-0.3,0.6-0.5,1.1-0.5
			c0.5,0,0.8,0.1,1.1,0.4c0.3,0.3,0.4,0.7,0.4,1.2c0,0.5-0.1,0.9-0.4,1.2c-0.3,0.3-0.6,0.5-1.1,0.5c-0.5,0-0.8-0.2-1.1-0.5
			C-747.7,111.3-747.8,110.9-747.8,110.4"/>
		<path class="st0" d="M-743.8,110.4c0,0.8,0.3,1.2,0.9,1.2c0.3,0,0.5-0.1,0.6-0.3c0.2-0.2,0.2-0.5,0.2-0.9c0-0.8-0.3-1.2-0.9-1.2
			c-0.3,0-0.5,0.1-0.6,0.3C-743.7,109.7-743.8,110-743.8,110.4 M-744.4,110.4c0-0.5,0.1-0.9,0.4-1.2c0.3-0.3,0.6-0.5,1.1-0.5
			c0.5,0,0.8,0.1,1.1,0.4c0.3,0.3,0.4,0.7,0.4,1.2c0,0.5-0.1,0.9-0.4,1.2c-0.3,0.3-0.6,0.5-1.1,0.5c-0.5,0-0.8-0.2-1.1-0.5
			C-744.3,111.3-744.4,110.9-744.4,110.4"/>
		<path class="st0" d="M-740.3,109.4v1.9c0,0.1,0.1,0.1,0.2,0.2c0.1,0,0.2,0.1,0.3,0.1c0.7,0,1.1-0.4,1.1-1.2c0-0.4-0.1-0.7-0.3-0.9
			c-0.2-0.2-0.4-0.3-0.8-0.3c-0.1,0-0.2,0-0.3,0.1C-740.1,109.3-740.2,109.4-740.3,109.4 M-740.3,111.8v1.5h-0.6v-4.5h0.6v0.3
			c0.2-0.2,0.5-0.3,0.8-0.3c0.5,0,0.8,0.1,1.1,0.4c0.3,0.3,0.4,0.7,0.4,1.3c0,0.5-0.1,0.9-0.4,1.2c-0.3,0.3-0.6,0.5-1.1,0.5
			c-0.1,0-0.3,0-0.4-0.1C-740.1,111.9-740.2,111.9-740.3,111.8"/>
		<path class="st0" d="M-735.5,110.4c-0.2,0-0.3-0.1-0.4-0.1c-0.3,0-0.5,0.1-0.7,0.2c-0.2,0.2-0.3,0.3-0.3,0.5
			c0,0.3,0.2,0.5,0.6,0.5c0.3,0,0.6-0.1,0.8-0.4V110.4z M-735.5,111.6c-0.2,0.3-0.6,0.4-1.1,0.4c-0.3,0-0.5-0.1-0.7-0.3
			c-0.2-0.2-0.3-0.4-0.3-0.7c0-0.3,0.1-0.6,0.4-0.8c0.3-0.2,0.7-0.3,1.1-0.3c0.1,0,0.3,0,0.4,0.1c0-0.5-0.2-0.8-0.7-0.8
			c-0.4,0-0.6,0.1-0.8,0.3l-0.2-0.5c0.1-0.1,0.3-0.2,0.5-0.2c0.2-0.1,0.4-0.1,0.6-0.1c0.5,0,0.8,0.1,1,0.3c0.2,0.2,0.3,0.6,0.3,1
			v1.2c0,0.3,0.1,0.5,0.3,0.6v0.3c-0.2,0-0.4,0-0.5-0.1S-735.4,111.8-735.5,111.6"/>
		<polygon class="st0" points="-732.1,112 -732.1,107.5 -731.5,107.5 -731.5,111.4 -729.4,111.4 -729.4,112 		"/>
		<path class="st0" d="M-728.3,107.5c0.1,0,0.2,0,0.3,0.1c0.1,0.1,0.1,0.2,0.1,0.3c0,0.1,0,0.2-0.1,0.3c-0.1,0.1-0.2,0.1-0.3,0.1
			c-0.1,0-0.2,0-0.3-0.1c-0.1-0.1-0.1-0.2-0.1-0.3c0-0.1,0-0.2,0.1-0.3C-728.5,107.5-728.4,107.5-728.3,107.5 M-728.6,112v-2.8h-0.4
			v-0.5h1v3.3H-728.6z"/>
		<path class="st0" d="M-726.5,107.5c0.1,0,0.2,0,0.3,0.1c0.1,0.1,0.1,0.2,0.1,0.3c0,0.1,0,0.2-0.1,0.3c-0.1,0.1-0.2,0.1-0.3,0.1
			c-0.1,0-0.2,0-0.3-0.1c-0.1-0.1-0.1-0.2-0.1-0.3c0-0.1,0-0.2,0.1-0.3C-726.7,107.5-726.6,107.5-726.5,107.5 M-726.8,112v-2.8h-0.4
			v-0.5h1v3.3H-726.8z"/>
		<path class="st0" d="M-725.1,109.2h-0.4v-0.5h0.4v-0.7l0.6-0.2v0.9h0.9v0.5h-0.9v1.6c0,0.3,0,0.5,0.1,0.6c0.1,0.1,0.2,0.2,0.4,0.2
			c0.1,0,0.3,0,0.5-0.1l0.1,0.5c-0.2,0.1-0.5,0.1-0.8,0.1c-0.3,0-0.5-0.1-0.7-0.3c-0.2-0.2-0.3-0.4-0.3-0.7V109.2z"/>
		<rect x="-786.8" y="41.7" class="st1" width="93.1" height="62.1"/>
		<polygon class="st2" points="-742.2,55.2 -740.3,53.8 -738.3,55.2 -739.1,52.9 -737.1,51.5 -739.5,51.5 -740.3,49.1 -741,51.5 
			-743.5,51.5 -741.5,52.9 		"/>
		<polygon class="st2" points="-752.4,57.9 -750.4,56.5 -748.5,57.9 -749.2,55.6 -747.2,54.2 -749.7,54.2 -750.4,51.8 -751.2,54.2 
			-753.6,54.2 -751.7,55.6 		"/>
		<polygon class="st2" points="-757.9,59.3 -758.6,61.7 -761.1,61.7 -759.1,63.1 -759.8,65.4 -757.9,64 -755.9,65.4 -756.7,63.1 
			-754.7,61.7 -757.1,61.7 		"/>
		<polygon class="st2" points="-760.6,74.1 -758.6,75.6 -759.4,73.2 -757.4,71.8 -759.8,71.8 -760.6,69.5 -761.4,71.8 -763.8,71.8 
			-761.8,73.2 -762.6,75.6 		"/>
		<polygon class="st2" points="-757.1,82 -757.9,79.6 -758.6,82 -761.1,82 -759.1,83.4 -759.8,85.7 -757.9,84.3 -755.9,85.7 
			-756.7,83.4 -754.7,82 		"/>
		<polygon class="st2" points="-749.7,89.4 -750.4,87.1 -751.2,89.4 -753.6,89.4 -751.6,90.9 -752.4,93.2 -750.4,91.8 -748.5,93.2 
			-749.2,90.9 -747.2,89.4 		"/>
		<polygon class="st2" points="-739.5,92.1 -740.3,89.8 -741,92.1 -743.5,92.1 -741.5,93.6 -742.2,95.9 -740.3,94.5 -738.3,95.9 
			-739.1,93.6 -737.1,92.1 		"/>
		<polygon class="st2" points="-729.4,89.4 -730.1,87.1 -730.9,89.4 -733.3,89.4 -731.3,90.9 -732.1,93.2 -730.1,91.8 -728.2,93.2 
			-728.9,90.9 -726.9,89.4 		"/>
		<polygon class="st2" points="-721.9,82 -722.7,79.6 -723.4,82 -725.9,82 -723.9,83.4 -724.6,85.7 -722.7,84.3 -720.7,85.7 
			-721.5,83.4 -719.5,82 		"/>
		<polygon class="st2" points="-716.8,71.8 -719.2,71.8 -720,69.4 -720.7,71.8 -723.2,71.8 -721.2,73.2 -721.9,75.5 -720,74.1 
			-718,75.5 -718.8,73.2 		"/>
		<polygon class="st2" points="-724.6,65.4 -722.7,63.9 -720.7,65.4 -721.5,63.1 -719.5,61.6 -721.9,61.6 -722.7,59.3 -723.4,61.6 
			-725.9,61.6 -723.9,63.1 		"/>
		<polygon class="st2" points="-730.1,51.9 -730.8,54.2 -733.3,54.2 -731.3,55.6 -732.1,58 -730.1,56.5 -728.1,58 -728.9,55.6 
			-726.9,54.2 -729.3,54.2 		"/>
	</g>
	<g>
		<path class="st3" d="M-892.2,62.6c2.3-7.9,14.1-17.4,27.4-17.4c8.7,0,16.8,2.5,24.7,9.8c-0.7,0.5-1.4,1-2,1.6
			c-4.7-4-9.2-5.5-13.2-5.5c-7.6,0-13.3,5.4-14,8.9c0.7,3.5,6.4,8.9,14,8.9c4,0,8.6-1.5,13.2-5.5c3.9,3.4,8,4.6,8,4.6
			s-1.3-4.5-1.3-7.9c0-2.9,0.9-6.4,1.2-7.6c5.9-3.9,11-5.3,11-5.3s-2.5,8.7-2.5,15.5c0,6.8,2.5,15.5,2.5,15.5s-8.1-2.3-15.7-8.9
			c-6.6,7.5-16.3,10.8-25.5,10.8C-877.2,80-889.7,71.5-892.2,62.6"/>
		<polygon class="st3" points="-872.6,96.1 -872.6,88.5 -868.6,88.5 -868.6,89.4 -871.6,89.4 -871.6,91.8 -869.1,91.8 -869.1,92.7 
			-871.6,92.7 -871.6,95.2 -868.1,95.2 -868.1,96.1 		"/>
		<g>
			<path class="st3" d="M-859.3,96.1l-0.3-3.7c0-0.6-0.1-1.3-0.1-1.8h0c-0.2,0.6-0.6,1.3-0.9,1.9l-1.8,3.7h-0.4l-1.8-3.7
				c-0.3-0.5-0.6-1.3-0.9-1.9h0c0,0.6-0.1,1.3-0.1,1.8l-0.3,3.7h-0.9l0.6-7.6h0.6l2,4.1c0.3,0.6,0.7,1.4,1,2h0
				c0.3-0.6,0.6-1.4,0.9-2l2-4.1h0.6l0.6,7.6H-859.3z"/>
		</g>
		<polygon class="st3" points="-852.4,96.1 -855.5,92.5 -855.5,92.5 -855.5,96.1 -856.5,96.1 -856.5,88.5 -855.5,88.5 -855.5,92.1 
			-855.5,92.1 -852.3,88.5 -851.2,88.5 -854.5,92.2 -851.1,96.1 		"/>
		<polygon class="st3" points="-848.6,89.4 -848.6,91.8 -845.9,91.8 -845.9,92.7 -848.6,92.7 -848.6,96.1 -849.6,96.1 -849.6,88.5 
			-845.5,88.5 -845.5,89.4 		"/>
		<path class="st3" d="M-900,101.8h-1.1v2.5h1.1c0.7,0,1.4-0.4,1.4-1.3C-898.6,102.3-899.2,101.8-900,101.8 M-897.6,108.5l-2.4-3.4
			h-1v3.4h-1V101h2.2c1.1,0,2.3,0.7,2.3,2.1c0,1-0.6,1.7-1.4,1.9l2.6,3.5H-897.6z"/>
		<path class="st3" d="M-892.1,103.6c-0.1-0.3-0.2-0.7-0.4-1h0c-0.1,0.4-0.2,0.7-0.4,1l-0.8,2.1h2.4L-892.1,103.6z M-890.1,108.5
			l-0.8-2h-3.1l-0.8,2h-1l3.2-7.7h0.4l3.2,7.7H-890.1z"/>
		<polygon class="st3" points="-883.4,108.5 -886.5,104.9 -886.5,104.9 -886.5,108.5 -887.5,108.5 -887.5,101 -886.5,101 
			-886.5,104.6 -886.5,104.6 -883.4,101 -882.3,101 -885.5,104.7 -882.2,108.5 		"/>
		<polygon class="st3" points="-880.6,108.5 -880.6,101 -876.6,101 -876.6,101.8 -879.6,101.8 -879.6,104.3 -877.1,104.3 
			-877.1,105.2 -879.6,105.2 -879.6,107.7 -876.2,107.7 -876.2,108.5 		"/>
		<path class="st3" d="M-868.3,108.7l-3.6-4c-0.6-0.7-1.3-1.5-1.8-2.1l0,0c0,0.7,0,1.4,0,2v4h-1V101h0.7l3.4,3.8
			c0.5,0.5,1.2,1.3,1.6,1.9l0,0c0-0.6,0-1.3,0-1.9V101h1v7.7H-868.3z"/>
		<path class="st3" d="M-863.9,101.8h-1v5.9h1c1.8,0,3.3-1,3.3-2.9C-860.6,102.8-862,101.8-863.9,101.8 M-863.7,108.5h-2.2V101h2.2
			c2.2,0,4.1,1.4,4.1,3.8C-859.6,107.2-861.5,108.5-863.7,108.5"/>
		<path class="st3" d="M-854.7,108.7c-1.8,0-3-1-3-2.8V101h1v4.8c0,1.2,0.7,2,2,2c1.3,0,2.1-0.8,2.1-2V101h0.9v4.9
			C-851.7,107.6-852.9,108.7-854.7,108.7"/>
		<path class="st3" d="M-847.7,108.6c-0.8,0-1.6-0.3-2-0.5l-0.1-1c0.5,0.4,1.3,0.7,2.1,0.7c0.9,0,1.5-0.5,1.5-1.3s-0.4-1.2-1.4-1.5
			c-1.3-0.4-2-1.1-2-2.2c0-1,0.7-1.9,2.3-1.9c0.7,0,1.3,0.2,1.6,0.4l-0.2,0.8c-0.3-0.2-0.9-0.4-1.4-0.4c-0.9,0-1.4,0.5-1.4,1.1
			c0,0.6,0.4,1,1.3,1.3c1.3,0.5,2.2,1.1,2.2,2.4C-845.2,107.7-846.1,108.6-847.7,108.6"/>
		<polygon class="st3" points="-839.3,108.5 -842.4,104.9 -842.4,104.9 -842.4,108.5 -843.3,108.5 -843.3,101 -842.4,101 
			-842.4,104.6 -842.4,104.6 -839.2,101 -838.1,101 -841.4,104.7 -838,108.5 		"/>
		<path class="st3" d="M-833.3,103.6c-0.1-0.3-0.2-0.7-0.4-1h0c-0.1,0.4-0.2,0.7-0.4,1l-0.8,2.1h2.4L-833.3,103.6z M-831.3,108.5
			l-0.8-2h-3.1l-0.8,2h-1l3.2-7.7h0.4l3.2,7.7H-831.3z"/>
		<path class="st3" d="M-826.4,108.7h-0.3l-3-7.7h1l1.5,3.8c0.2,0.6,0.5,1.3,0.7,1.9h0c0.2-0.6,0.5-1.3,0.7-1.9l1.5-3.8h0.9
			L-826.4,108.7z"/>
		<path class="st3" d="M-819.2,103.6c-0.1-0.3-0.2-0.7-0.4-1h0c-0.1,0.4-0.2,0.7-0.4,1l-0.8,2.1h2.4L-819.2,103.6z M-817.2,108.5
			l-0.8-2h-3.1l-0.8,2h-1l3.2-7.7h0.4l3.2,7.7H-817.2z"/>
		<path class="st3" d="M-885.3,121v-0.5c0.4-0.4,0.8-0.8,1.1-1.2c0.4-0.4,0.7-0.8,0.9-1.2c0.3-0.4,0.5-0.8,0.7-1.2
			c0.2-0.4,0.2-0.7,0.2-1c0-0.4-0.1-0.7-0.3-0.9c-0.2-0.2-0.5-0.3-0.8-0.3c-0.3,0-0.5,0-0.8,0.1c-0.2,0.1-0.5,0.2-0.7,0.3l-0.1-1.5
			c0.2-0.1,0.5-0.3,0.8-0.3c0.3-0.1,0.6-0.1,1-0.1c0.4,0,0.7,0.1,1.1,0.2c0.3,0.1,0.6,0.3,0.9,0.5c0.2,0.2,0.4,0.5,0.6,0.8
			c0.1,0.3,0.2,0.7,0.2,1.1c0,0.3-0.1,0.6-0.2,1c-0.1,0.3-0.3,0.7-0.5,1c-0.2,0.3-0.4,0.7-0.6,1c-0.2,0.3-0.4,0.6-0.7,0.8h2.3v1.4
			H-885.3z"/>
		<path class="st3" d="M-875.1,117.2c0-0.8-0.1-1.4-0.4-1.8c-0.2-0.4-0.5-0.6-0.8-0.6c-0.3,0-0.6,0.2-0.8,0.6
			c-0.2,0.4-0.4,1-0.4,1.8c0,0.4,0,0.8,0.1,1.1c0.1,0.3,0.1,0.6,0.3,0.8c0.1,0.2,0.2,0.4,0.4,0.5c0.1,0.1,0.3,0.1,0.4,0.1
			c0.3,0,0.6-0.2,0.8-0.6C-875.2,118.7-875.1,118.1-875.1,117.2 M-873.4,117.2c0,0.7-0.1,1.3-0.2,1.8c-0.2,0.5-0.4,0.9-0.6,1.2
			c-0.3,0.3-0.6,0.6-0.9,0.7c-0.4,0.2-0.7,0.2-1.1,0.2c-0.4,0-0.8-0.1-1.1-0.2c-0.3-0.2-0.7-0.4-0.9-0.7c-0.3-0.3-0.5-0.7-0.6-1.2
			c-0.2-0.5-0.2-1.1-0.2-1.8c0-0.7,0.1-1.3,0.2-1.8c0.2-0.5,0.4-0.9,0.6-1.2c0.3-0.3,0.6-0.6,0.9-0.7c0.3-0.2,0.7-0.2,1.1-0.2
			c0.4,0,0.7,0.1,1.1,0.2c0.4,0.2,0.7,0.4,0.9,0.7c0.3,0.3,0.5,0.7,0.6,1.2C-873.5,115.9-873.4,116.5-873.4,117.2"/>
		<polygon class="st3" points="-871,121 -871,114.9 -872.4,115.1 -872.2,113.6 -869.3,113.3 -869.3,121 		"/>
		<g>
			<path class="st3" d="M-864.4,115.5c-0.2,0.3-0.3,0.5-0.5,0.8l-1.1,1.5h1.7v-1.5C-864.4,116.1-864.4,115.8-864.4,115.5
				L-864.4,115.5z M-862.8,119.2v1.8h-1.6v-1.8h-3l-0.2-1.4l3.3-4.4h1.6v4.4h0.8v1.3H-862.8z"/>
		</g>
		<rect x="-860" y="117.1" class="st3" width="3.1" height="1.3"/>
		<path class="st3" d="M-855.6,121v-0.5c0.4-0.4,0.8-0.8,1.1-1.2c0.4-0.4,0.7-0.8,0.9-1.2c0.3-0.4,0.5-0.8,0.7-1.2
			c0.2-0.4,0.2-0.7,0.2-1c0-0.4-0.1-0.7-0.3-0.9c-0.2-0.2-0.5-0.3-0.8-0.3c-0.3,0-0.5,0-0.8,0.1c-0.2,0.1-0.5,0.2-0.7,0.3l-0.1-1.5
			c0.2-0.1,0.5-0.3,0.8-0.3c0.3-0.1,0.6-0.1,1-0.1c0.4,0,0.7,0.1,1.1,0.2c0.3,0.1,0.6,0.3,0.9,0.5c0.2,0.2,0.4,0.5,0.6,0.8
			c0.1,0.3,0.2,0.7,0.2,1.1c0,0.3-0.1,0.6-0.2,1c-0.1,0.3-0.3,0.7-0.5,1c-0.2,0.3-0.4,0.7-0.6,1c-0.2,0.3-0.4,0.6-0.7,0.8h2.3v1.4
			H-855.6z"/>
		<path class="st3" d="M-845.1,117.2c0-0.8-0.1-1.4-0.4-1.8c-0.2-0.4-0.5-0.6-0.8-0.6c-0.3,0-0.6,0.2-0.8,0.6
			c-0.2,0.4-0.4,1-0.4,1.8c0,0.4,0,0.8,0.1,1.1c0.1,0.3,0.1,0.6,0.3,0.8c0.1,0.2,0.2,0.4,0.4,0.5c0.1,0.1,0.3,0.1,0.4,0.1
			c0.3,0,0.6-0.2,0.8-0.6C-845.2,118.7-845.1,118.1-845.1,117.2 M-843.4,117.2c0,0.7-0.1,1.3-0.2,1.8c-0.2,0.5-0.4,0.9-0.6,1.2
			c-0.3,0.3-0.6,0.6-0.9,0.7c-0.4,0.2-0.7,0.2-1.1,0.2c-0.4,0-0.8-0.1-1.1-0.2c-0.3-0.2-0.7-0.4-0.9-0.7c-0.3-0.3-0.5-0.7-0.6-1.2
			c-0.2-0.5-0.2-1.1-0.2-1.8c0-0.7,0.1-1.3,0.2-1.8c0.2-0.5,0.4-0.9,0.6-1.2c0.3-0.3,0.6-0.6,0.9-0.7c0.3-0.2,0.7-0.2,1.1-0.2
			c0.4,0,0.7,0.1,1.1,0.2c0.4,0.2,0.7,0.4,0.9,0.7c0.3,0.3,0.5,0.7,0.6,1.2C-843.4,115.9-843.4,116.5-843.4,117.2"/>
		<path class="st3" d="M-842.4,121v-0.5c0.4-0.4,0.8-0.8,1.1-1.2c0.4-0.4,0.7-0.8,0.9-1.2c0.3-0.4,0.5-0.8,0.7-1.2
			c0.2-0.4,0.2-0.7,0.2-1c0-0.4-0.1-0.7-0.3-0.9c-0.2-0.2-0.5-0.3-0.8-0.3c-0.3,0-0.5,0-0.8,0.1c-0.2,0.1-0.5,0.2-0.7,0.3l-0.1-1.5
			c0.2-0.1,0.5-0.3,0.8-0.3c0.3-0.1,0.6-0.1,1-0.1c0.4,0,0.7,0.1,1.1,0.2c0.3,0.1,0.6,0.3,0.9,0.5c0.2,0.2,0.4,0.5,0.6,0.8
			c0.1,0.3,0.2,0.7,0.2,1.1c0,0.3-0.1,0.6-0.2,1c-0.1,0.3-0.3,0.7-0.5,1c-0.2,0.3-0.4,0.7-0.6,1c-0.2,0.3-0.4,0.6-0.7,0.8h2.3v1.4
			H-842.4z"/>
		<path class="st3" d="M-832,117.2c0-0.8-0.1-1.4-0.4-1.8c-0.2-0.4-0.5-0.6-0.8-0.6c-0.3,0-0.6,0.2-0.8,0.6c-0.2,0.4-0.4,1-0.4,1.8
			c0,0.4,0,0.8,0.1,1.1c0.1,0.3,0.1,0.6,0.3,0.8c0.1,0.2,0.2,0.4,0.4,0.5c0.1,0.1,0.3,0.1,0.4,0.1c0.3,0,0.6-0.2,0.8-0.6
			C-832.1,118.7-832,118.1-832,117.2 M-830.3,117.2c0,0.7-0.1,1.3-0.2,1.8c-0.2,0.5-0.4,0.9-0.6,1.2c-0.3,0.3-0.6,0.6-0.9,0.7
			c-0.4,0.2-0.7,0.2-1.1,0.2c-0.4,0-0.8-0.1-1.1-0.2c-0.3-0.2-0.7-0.4-0.9-0.7c-0.3-0.3-0.5-0.7-0.6-1.2c-0.2-0.5-0.2-1.1-0.2-1.8
			c0-0.7,0.1-1.3,0.2-1.8c0.2-0.5,0.4-0.9,0.6-1.2c0.3-0.3,0.6-0.6,0.9-0.7c0.3-0.2,0.7-0.2,1.1-0.2c0.4,0,0.7,0.1,1.1,0.2
			c0.4,0.2,0.7,0.4,0.9,0.7c0.3,0.3,0.5,0.7,0.6,1.2C-830.4,115.9-830.3,116.5-830.3,117.2"/>
	</g>
</g>
</svg>
