<?xml version="1.0" encoding="utf-8"?>
<!-- Generator: Adobe Illustrator 19.0.0, SVG Export Plug-In . SVG Version: 6.00 Build 0)  -->
<svg version="1.1" id="Layer_1" xmlns="http://www.w3.org/2000/svg" xmlns:xlink="http://www.w3.org/1999/xlink" x="0px" y="0px"
	 viewBox="-1009 -17.5 79.1 140.6" style="enable-background:new -1009 -17.5 79.1 140.6;" xml:space="preserve">
<style type="text/css">
	.st0{fill:#0071BB;}
	.st1{fill:#034EA1;}
	.st2{fill:#FFD559;}
	.st3{fill:#231F20;}
</style>
<g>
	<g>
		<path class="st0" d="M-995.6-3.7c1.8-6.3,11.2-13.8,21.8-13.8c6.9,0,13.3,2,19.6,7.8c-0.5,0.4-1.1,0.8-1.6,1.3
			c-3.7-3.2-7.3-4.4-10.5-4.4c-6,0-10.6,4.3-11.1,7.1c0.6,2.8,5.1,7,11.1,7.1c3.2,0,6.8-1.2,10.5-4.4c3.1,2.7,6.4,3.6,6.4,3.6
			s-1-3.5-1-6.3c0-2.3,0.7-5.1,0.9-6c4.7-3.1,8.7-4.2,8.7-4.2s-2,6.9-2,12.3c0,5.4,2,12.3,2,12.3s-6.5-1.8-12.5-7.1
			c-5.3,6-12.9,8.6-20.3,8.6C-983.6,10.1-993.6,3.4-995.6-3.7"/>
		<polygon class="st0" points="-1009,17.1 -1009,22.9 -1005.6,22.9 -1005.6,22.3 -1008.2,22.3 -1008.2,20.3 -1006.3,20.3 
			-1006.3,19.6 -1008.2,19.6 -1008.2,17.7 -1005.9,17.7 -1005.9,17.1 		"/>
		<g>
			<path class="st0" d="M-999,22.9l-0.2-2.8c0-0.4-0.1-1-0.1-1.4h0c-0.2,0.4-0.5,1-0.7,1.5l-1.4,2.8h-0.3l-1.4-2.8
				c-0.2-0.4-0.5-1-0.7-1.4h0c0,0.5-0.1,1-0.1,1.4l-0.2,2.8h-0.7l0.5-5.8h0.5l1.6,3.1c0.2,0.5,0.5,1.1,0.8,1.6h0
				c0.2-0.5,0.5-1.1,0.7-1.6l1.6-3.1h0.5l0.5,5.8H-999z"/>
		</g>
		<polygon class="st0" points="-996.2,17.7 -996.2,19.6 -994.2,19.6 -994.2,20.3 -996.2,20.3 -996.2,22.9 -997,22.9 -997,17.1 
			-993.8,17.1 -993.8,17.7 		"/>
		<polygon class="st0" points="-992.2,17.7 -992.2,19.6 -990.1,19.6 -990.1,20.3 -992.2,20.3 -992.2,22.9 -992.9,22.9 -992.9,17.1 
			-989.7,17.1 -989.7,17.7 		"/>
		<g>
			<path class="st0" d="M-983.7,17.6c-1.2,0-2.3,0.9-2.3,2.4c0,1.5,1.1,2.4,2.3,2.4c1.2,0,2.3-0.9,2.3-2.4
				C-981.4,18.5-982.5,17.6-983.7,17.6 M-983.7,23c-1.6,0-3.1-1.2-3.1-3c0-1.8,1.5-3,3.1-3c1.6,0,3.1,1.2,3.1,3
				C-980.6,21.8-982.1,23-983.7,23"/>
			<path class="st0" d="M-977.8,17.7h-0.9v2h0.9c0.6,0,1.1-0.3,1.1-1C-976.7,18.1-977.2,17.7-977.8,17.7 M-977.6,20.3h-1v2.6h-0.7
				v-5.8h1.8c0.9,0,1.7,0.6,1.7,1.6C-975.9,19.7-976.8,20.3-977.6,20.3"/>
		</g>
		<polygon class="st0" points="-974.7,22.9 -974.7,17.1 -971.6,17.1 -971.6,17.7 -974,17.7 -974,19.6 -972,19.6 -972,20.3 
			-974,20.3 -974,22.3 -971.3,22.3 -971.3,22.9 		"/>
		<path class="st0" d="M-968.8,17.7h-0.8v2h0.8c0.6,0,1.1-0.3,1.1-1C-967.7,18.1-968.2,17.7-968.8,17.7 M-967,22.9l-1.9-2.6h-0.8
			v2.6h-0.7v-5.8h1.7c0.9,0,1.7,0.6,1.7,1.6c0,0.8-0.5,1.3-1.1,1.5l2,2.7H-967z"/>
		<path class="st0" d="M-963,19.1c-0.1-0.2-0.2-0.5-0.3-0.8h0c-0.1,0.3-0.2,0.6-0.3,0.8l-0.6,1.6h1.9L-963,19.1z M-961.4,22.9
			l-0.7-1.6h-2.4l-0.6,1.6h-0.7l2.4-5.9h0.3l2.4,5.9H-961.4z"/>
		<polygon class="st0" points="-958.1,17.7 -958.1,22.9 -958.9,22.9 -958.9,17.7 -960.8,17.7 -960.8,17.1 -956.2,17.1 -956.2,17.7 
					"/>
		<rect x="-955.2" y="17.1" class="st0" width="0.8" height="5.8"/>
		<g>
			<path class="st0" d="M-950.1,17.6c-1.2,0-2.3,0.9-2.3,2.4c0,1.5,1.1,2.4,2.3,2.4c1.2,0,2.3-0.9,2.3-2.4
				C-947.7,18.5-948.9,17.6-950.1,17.6 M-950.1,23c-1.6,0-3.1-1.2-3.1-3c0-1.8,1.5-3,3.1-3c1.6,0,3.1,1.2,3.1,3
				C-947,21.8-948.5,23-950.1,23"/>
			<path class="st0" d="M-940.8,23l-2.8-3.1c-0.5-0.5-1-1.1-1.4-1.6l0,0c0,0.5,0,1.1,0,1.5v3.1h-0.8v-5.8h0.5l2.6,2.9
				c0.4,0.4,0.9,1,1.3,1.5l0,0c0-0.5,0-1,0-1.5v-2.9h0.8v6H-940.8z"/>
			<path class="st0" d="M-936.7,19.1c-0.1-0.2-0.2-0.5-0.3-0.8h0c-0.1,0.3-0.2,0.6-0.3,0.8l-0.6,1.6h1.9L-936.7,19.1z M-935.1,22.9
				l-0.7-1.6h-2.4l-0.6,1.6h-0.7l2.4-5.9h0.3l2.4,5.9H-935.1z"/>
		</g>
		<polygon class="st0" points="-933.3,22.9 -933.3,17.1 -932.6,17.1 -932.6,22.3 -929.9,22.3 -929.9,22.9 		"/>
		<g>
			<path class="st0" d="M-995.2,27.6h-0.9v2h0.9c0.6,0,1.1-0.3,1.1-1C-994.1,28-994.6,27.6-995.2,27.6 M-995.1,30.2h-1v2.6h-0.7V27
				h1.8c0.9,0,1.7,0.6,1.7,1.6S-994.2,30.2-995.1,30.2"/>
			<path class="st0" d="M-990.6,27.6h-0.8v2h0.8c0.6,0,1.1-0.3,1.1-1C-989.5,28-990,27.6-990.6,27.6 M-988.8,32.8l-1.9-2.6h-0.8v2.6
				h-0.7V27h1.7c0.9,0,1.7,0.6,1.7,1.6c0,0.8-0.5,1.3-1.1,1.5l2,2.7H-988.8z"/>
			<path class="st0" d="M-984.6,27.5c-1.2,0-2.3,0.9-2.3,2.4c0,1.5,1.1,2.4,2.3,2.4c1.2,0,2.3-0.9,2.3-2.4
				C-982.3,28.4-983.5,27.5-984.6,27.5 M-984.6,32.9c-1.6,0-3.1-1.2-3.1-3c0-1.8,1.5-3,3.1-3c1.6,0,3.1,1.2,3.1,3
				C-981.6,31.8-983,32.9-984.6,32.9"/>
			<path class="st0" d="M-977.4,32.9c-1.6,0-3.2-1.1-3.2-3c0-2,1.6-3,3.1-3c0.8,0,1.4,0.2,1.9,0.5l-0.1,0.7c-0.4-0.3-1-0.5-1.6-0.5
				c-1.2,0-2.4,0.8-2.4,2.4c0,1.5,1.2,2.4,2.5,2.4c0.6,0,1.1-0.1,1.4-0.3v-1.4h-1.4v-0.6h2.2v2.4C-975.8,32.7-976.5,32.9-977.4,32.9
				"/>
			<path class="st0" d="M-972.3,27.6h-0.8v2h0.8c0.6,0,1.1-0.3,1.1-1C-971.2,28-971.7,27.6-972.3,27.6 M-970.5,32.8l-1.9-2.6h-0.8
				v2.6h-0.7V27h1.7c0.9,0,1.7,0.6,1.7,1.6c0,0.8-0.5,1.3-1.1,1.5l2,2.7H-970.5z"/>
			<path class="st0" d="M-966.5,29c-0.1-0.2-0.2-0.5-0.3-0.8h0c-0.1,0.3-0.2,0.6-0.3,0.8l-0.6,1.6h1.9L-966.5,29z M-964.9,32.8
				l-0.7-1.6h-2.4l-0.6,1.6h-0.7l2.4-5.9h0.3l2.4,5.9H-964.9z"/>
			<path class="st0" d="M-957.4,32.8l-0.2-2.8c0-0.4-0.1-1-0.1-1.4h0c-0.2,0.4-0.5,1-0.7,1.5l-1.4,2.8h-0.3l-1.4-2.8
				c-0.2-0.4-0.5-1-0.7-1.4h0c0,0.5-0.1,1-0.1,1.4l-0.2,2.8h-0.7l0.5-5.8h0.5l1.6,3.1c0.2,0.5,0.5,1.1,0.8,1.6h0
				c0.2-0.5,0.5-1.1,0.7-1.6l1.6-3.1h0.5l0.5,5.8H-957.4z"/>
			<path class="st0" d="M-949.8,32.8L-950,30c0-0.4-0.1-1-0.1-1.4h0c-0.2,0.4-0.5,1-0.7,1.5l-1.4,2.8h-0.3l-1.4-2.8
				c-0.2-0.4-0.5-1-0.7-1.4h0c0,0.5-0.1,1-0.1,1.4l-0.2,2.8h-0.7l0.5-5.8h0.5l1.6,3.1c0.2,0.5,0.5,1.1,0.8,1.6h0
				c0.2-0.5,0.5-1.1,0.7-1.6l1.6-3.1h0.5l0.5,5.8H-949.8z"/>
		</g>
		<polygon class="st0" points="-947.8,32.8 -947.8,27 -944.7,27 -944.7,27.6 -947,27.6 -947,29.6 -945.1,29.6 -945.1,30.2 
			-947,30.2 -947,32.2 -944.3,32.2 -944.3,32.8 		"/>
		<g>
			<path class="st0" d="M-991.2,42.7v-0.4c0.3-0.3,0.6-0.6,0.9-1c0.3-0.3,0.5-0.7,0.7-1c0.2-0.3,0.4-0.6,0.5-0.9
				c0.1-0.3,0.2-0.5,0.2-0.7c0-0.3-0.1-0.5-0.2-0.7c-0.2-0.2-0.4-0.2-0.6-0.2c-0.2,0-0.4,0-0.6,0.1c-0.2,0.1-0.4,0.2-0.6,0.3
				l-0.1-1.2c0.2-0.1,0.4-0.2,0.6-0.3c0.2-0.1,0.5-0.1,0.8-0.1c0.3,0,0.6,0,0.8,0.1c0.3,0.1,0.5,0.2,0.7,0.4
				c0.2,0.2,0.3,0.4,0.4,0.6c0.1,0.2,0.2,0.5,0.2,0.9c0,0.2,0,0.5-0.1,0.8c-0.1,0.3-0.2,0.5-0.4,0.8c-0.1,0.3-0.3,0.5-0.5,0.7
				c-0.2,0.2-0.3,0.4-0.5,0.6h1.8v1.1H-991.2z"/>
			<path class="st0" d="M-983.1,39.8c0-0.6-0.1-1.1-0.3-1.4c-0.2-0.3-0.4-0.5-0.6-0.5c-0.2,0-0.5,0.2-0.6,0.5
				c-0.2,0.3-0.3,0.8-0.3,1.4c0,0.3,0,0.6,0.1,0.8c0,0.2,0.1,0.4,0.2,0.6c0.1,0.2,0.2,0.3,0.3,0.3c0.1,0.1,0.2,0.1,0.3,0.1
				c0.2,0,0.5-0.2,0.6-0.5C-983.2,40.9-983.1,40.5-983.1,39.8 M-981.7,39.8c0,0.5-0.1,1-0.2,1.4c-0.1,0.4-0.3,0.7-0.5,1
				c-0.2,0.2-0.4,0.4-0.7,0.6c-0.3,0.1-0.6,0.2-0.8,0.2c-0.3,0-0.6-0.1-0.9-0.2c-0.3-0.1-0.5-0.3-0.7-0.6c-0.2-0.2-0.4-0.6-0.5-1
				c-0.1-0.4-0.2-0.9-0.2-1.4c0-0.5,0.1-1,0.2-1.4c0.1-0.4,0.3-0.7,0.5-0.9c0.2-0.2,0.4-0.4,0.7-0.6c0.3-0.1,0.6-0.2,0.9-0.2
				c0.3,0,0.6,0.1,0.8,0.2c0.3,0.1,0.5,0.3,0.7,0.6c0.2,0.2,0.4,0.6,0.5,0.9C-981.8,38.8-981.7,39.3-981.7,39.8"/>
		</g>
		<polygon class="st0" points="-979.8,42.7 -979.8,38 -980.8,38.1 -980.7,37 -978.5,36.8 -978.5,42.7 		"/>
		<g>
			<path class="st0" d="M-974.8,38.5c-0.1,0.2-0.3,0.4-0.4,0.6l-0.9,1.2h1.3v-1.2C-974.8,38.9-974.8,38.7-974.8,38.5L-974.8,38.5z
				 M-973.5,41.3v1.4h-1.2v-1.4h-2.3l-0.2-1.1l2.5-3.4h1.2v3.4h0.6v1H-973.5z"/>
		</g>
		<rect x="-971.3" y="39.7" class="st0" width="2.4" height="1"/>
		<path class="st0" d="M-967.9,42.7v-0.4c0.3-0.3,0.6-0.6,0.9-1c0.3-0.3,0.5-0.7,0.7-1c0.2-0.3,0.4-0.6,0.5-0.9
			c0.1-0.3,0.2-0.5,0.2-0.7c0-0.3-0.1-0.5-0.2-0.7c-0.2-0.2-0.4-0.2-0.6-0.2c-0.2,0-0.4,0-0.6,0.1c-0.2,0.1-0.4,0.2-0.6,0.3
			l-0.1-1.2c0.2-0.1,0.4-0.2,0.6-0.3c0.2-0.1,0.5-0.1,0.8-0.1c0.3,0,0.6,0,0.8,0.1c0.3,0.1,0.5,0.2,0.7,0.4c0.2,0.2,0.3,0.4,0.4,0.6
			c0.1,0.2,0.2,0.5,0.2,0.9c0,0.2,0,0.5-0.1,0.8c-0.1,0.3-0.2,0.5-0.4,0.8c-0.1,0.3-0.3,0.5-0.5,0.7c-0.2,0.2-0.3,0.4-0.5,0.6h1.8
			v1.1H-967.9z"/>
		<path class="st0" d="M-959.8,39.8c0-0.6-0.1-1.1-0.3-1.4c-0.2-0.3-0.4-0.5-0.6-0.5c-0.2,0-0.5,0.2-0.6,0.5
			c-0.2,0.3-0.3,0.8-0.3,1.4c0,0.3,0,0.6,0.1,0.8c0,0.2,0.1,0.4,0.2,0.6c0.1,0.2,0.2,0.3,0.3,0.3c0.1,0.1,0.2,0.1,0.3,0.1
			c0.2,0,0.5-0.2,0.6-0.5C-959.9,40.9-959.8,40.5-959.8,39.8 M-958.5,39.8c0,0.5-0.1,1-0.2,1.4c-0.1,0.4-0.3,0.7-0.5,1
			c-0.2,0.2-0.4,0.4-0.7,0.6c-0.3,0.1-0.6,0.2-0.8,0.2c-0.3,0-0.6-0.1-0.9-0.2c-0.3-0.1-0.5-0.3-0.7-0.6c-0.2-0.2-0.4-0.6-0.5-1
			c-0.1-0.4-0.2-0.9-0.2-1.4c0-0.5,0.1-1,0.2-1.4c0.1-0.4,0.3-0.7,0.5-0.9c0.2-0.2,0.4-0.4,0.7-0.6c0.3-0.1,0.6-0.2,0.9-0.2
			c0.3,0,0.6,0.1,0.8,0.2c0.3,0.1,0.5,0.3,0.7,0.6c0.2,0.2,0.4,0.6,0.5,0.9C-958.5,38.8-958.5,39.3-958.5,39.8"/>
		<path class="st0" d="M-957.7,42.7v-0.4c0.3-0.3,0.6-0.6,0.9-1c0.3-0.3,0.5-0.7,0.7-1c0.2-0.3,0.4-0.6,0.5-0.9
			c0.1-0.3,0.2-0.5,0.2-0.7c0-0.3-0.1-0.5-0.2-0.7c-0.2-0.2-0.4-0.2-0.6-0.2c-0.2,0-0.4,0-0.6,0.1c-0.2,0.1-0.4,0.2-0.6,0.3
			l-0.1-1.2c0.2-0.1,0.4-0.2,0.6-0.3c0.2-0.1,0.5-0.1,0.8-0.1c0.3,0,0.6,0,0.8,0.1c0.3,0.1,0.5,0.2,0.7,0.4c0.2,0.2,0.3,0.4,0.4,0.6
			c0.1,0.2,0.2,0.5,0.2,0.9c0,0.2,0,0.5-0.1,0.8c-0.1,0.3-0.2,0.5-0.4,0.8c-0.1,0.3-0.3,0.5-0.5,0.7c-0.2,0.2-0.3,0.4-0.5,0.6h1.8
			v1.1H-957.7z"/>
		<path class="st0" d="M-949.7,39.8c0-0.6-0.1-1.1-0.3-1.4c-0.2-0.3-0.4-0.5-0.6-0.5c-0.2,0-0.5,0.2-0.6,0.5
			c-0.2,0.3-0.3,0.8-0.3,1.4c0,0.3,0,0.6,0.1,0.8c0,0.2,0.1,0.4,0.2,0.6c0.1,0.2,0.2,0.3,0.3,0.3c0.1,0.1,0.2,0.1,0.3,0.1
			c0.2,0,0.5-0.2,0.6-0.5C-949.8,40.9-949.7,40.5-949.7,39.8 M-948.3,39.8c0,0.5-0.1,1-0.2,1.4c-0.1,0.4-0.3,0.7-0.5,1
			c-0.2,0.2-0.4,0.4-0.7,0.6c-0.3,0.1-0.6,0.2-0.8,0.2c-0.3,0-0.6-0.1-0.9-0.2c-0.3-0.1-0.5-0.3-0.7-0.6c-0.2-0.2-0.4-0.6-0.5-1
			c-0.1-0.4-0.2-0.9-0.2-1.4c0-0.5,0.1-1,0.2-1.4c0.1-0.4,0.3-0.7,0.5-0.9c0.2-0.2,0.4-0.4,0.7-0.6c0.3-0.1,0.6-0.2,0.9-0.2
			c0.3,0,0.6,0.1,0.8,0.2c0.3,0.1,0.5,0.3,0.7,0.6c0.2,0.2,0.4,0.6,0.5,0.9C-948.4,38.8-948.3,39.3-948.3,39.8"/>
	</g>
	<g>
		<rect x="-1008.5" y="55.5" class="st1" width="78.4" height="52.2"/>
		<polygon class="st2" points="-970.9,66.8 -969.3,65.6 -967.6,66.8 -968.3,64.9 -966.6,63.7 -968.7,63.7 -969.3,61.7 -969.9,63.7 
			-972,63.7 -970.3,64.9 		"/>
		<polygon class="st2" points="-979.5,69.1 -977.9,67.9 -976.2,69.1 -976.8,67.2 -975.2,66 -977.2,66 -977.9,64 -978.5,66 
			-980.6,66 -978.9,67.2 		"/>
		<polygon class="st2" points="-984.1,70.3 -984.7,72.3 -986.8,72.3 -985.1,73.5 -985.8,75.4 -984.1,74.2 -982.5,75.4 -983.1,73.5 
			-981.4,72.3 -983.5,72.3 		"/>
		<polygon class="st2" points="-986.4,82.8 -984.8,84 -985.4,82 -983.7,80.8 -985.8,80.8 -986.4,78.8 -987,80.8 -989.1,80.8 
			-987.4,82 -988.1,84 		"/>
		<polygon class="st2" points="-983.5,89.4 -984.1,87.4 -984.7,89.4 -986.8,89.4 -985.1,90.6 -985.8,92.5 -984.1,91.3 -982.5,92.5 
			-983.1,90.6 -981.4,89.4 		"/>
		<polygon class="st2" points="-977.2,95.6 -977.8,93.7 -978.5,95.7 -980.5,95.6 -978.9,96.9 -979.5,98.8 -977.8,97.6 -976.2,98.8 
			-976.8,96.9 -975.1,95.6 		"/>
		<polygon class="st2" points="-968.7,97.9 -969.3,95.9 -969.9,97.9 -972,97.9 -970.3,99.1 -970.9,101.1 -969.3,99.9 -967.6,101.1 
			-968.3,99.1 -966.6,97.9 		"/>
		<polygon class="st2" points="-960.1,95.6 -960.7,93.7 -961.4,95.7 -963.4,95.6 -961.8,96.9 -962.4,98.8 -960.7,97.6 -959.1,98.8 
			-959.7,96.9 -958,95.6 		"/>
		<polygon class="st2" points="-953.8,89.4 -954.5,87.4 -955.1,89.4 -957.2,89.4 -955.5,90.6 -956.1,92.5 -954.5,91.3 -952.8,92.5 
			-953.4,90.6 -951.8,89.4 		"/>
		<polygon class="st2" points="-949.5,80.8 -951.6,80.8 -952.2,78.8 -952.8,80.8 -954.9,80.8 -953.2,82 -953.9,83.9 -952.2,82.7 
			-950.5,83.9 -951.2,82 		"/>
		<polygon class="st2" points="-956.1,75.4 -954.5,74.2 -952.8,75.4 -953.4,73.4 -951.8,72.2 -953.8,72.2 -954.5,70.3 -955.1,72.2 
			-957.2,72.2 -955.5,73.4 		"/>
		<polygon class="st2" points="-960.7,64 -961.4,66 -963.4,66 -961.7,67.2 -962.4,69.1 -960.7,67.9 -959.1,69.1 -959.7,67.2 
			-958,66 -960.1,66 		"/>
		<polygon class="st3" points="-987.1,111.4 -987.1,112.4 -985.8,112.4 -985.8,112.8 -987.1,112.8 -987.1,114.2 -985.4,114.2 
			-985.4,114.7 -987.6,114.7 -987.6,110.9 -985.3,110.9 -985.3,111.4 		"/>
		<path class="st3" d="M-984.3,111.9v1.8c0,0.4,0.2,0.6,0.6,0.6c0.2,0,0.3,0,0.4-0.1c0.1-0.1,0.2-0.2,0.3-0.3v-1.9h0.5v2.7h-0.5
			v-0.4c-0.1,0.1-0.2,0.2-0.3,0.3c-0.2,0.1-0.3,0.1-0.5,0.1c-0.3,0-0.5-0.1-0.7-0.3c-0.2-0.2-0.2-0.4-0.2-0.7v-1.8H-984.3z"/>
		<path class="st3" d="M-980.4,112.4c-0.1-0.1-0.2-0.1-0.3-0.1c-0.2,0-0.3,0.1-0.5,0.2c-0.1,0.2-0.2,0.3-0.2,0.6v1.6h-0.5v-2.7h0.5
			v0.4c0.2-0.3,0.4-0.5,0.8-0.5c0.1,0,0.2,0,0.4,0L-980.4,112.4z"/>
		<path class="st3" d="M-979.5,113.3c0,0.7,0.2,1,0.7,1c0.2,0,0.4-0.1,0.5-0.3c0.1-0.2,0.2-0.4,0.2-0.8c0-0.7-0.2-1-0.7-1
			c-0.2,0-0.4,0.1-0.5,0.3C-979.4,112.7-979.5,113-979.5,113.3 M-980,113.3c0-0.4,0.1-0.8,0.3-1c0.2-0.3,0.5-0.4,0.9-0.4
			c0.4,0,0.7,0.1,0.9,0.4c0.2,0.2,0.3,0.6,0.3,1c0,0.4-0.1,0.8-0.3,1c-0.2,0.3-0.5,0.4-0.9,0.4c-0.4,0-0.7-0.1-0.9-0.4
			C-979.9,114.1-980,113.7-980,113.3"/>
		<path class="st3" d="M-976.5,112.5v1.6c0,0,0.1,0.1,0.2,0.1c0.1,0,0.2,0.1,0.3,0.1c0.6,0,0.9-0.3,0.9-1c0-0.3-0.1-0.6-0.2-0.8
			c-0.1-0.2-0.4-0.2-0.7-0.2c-0.1,0-0.2,0-0.3,0.1C-976.4,112.4-976.4,112.4-976.5,112.5 M-976.5,114.5v1.2h-0.5v-3.8h0.5v0.2
			c0.2-0.2,0.4-0.3,0.7-0.3c0.4,0,0.7,0.1,0.9,0.4c0.2,0.2,0.3,0.6,0.3,1.1c0,0.4-0.1,0.8-0.3,1c-0.2,0.3-0.5,0.4-0.9,0.4
			c-0.1,0-0.2,0-0.4-0.1C-976.4,114.6-976.5,114.6-976.5,114.5"/>
		<path class="st3" d="M-972.9,112.3c-0.2,0-0.4,0.1-0.5,0.2c-0.1,0.1-0.2,0.3-0.2,0.5h1.5c0-0.2-0.1-0.4-0.2-0.5
			C-972.5,112.3-972.7,112.3-972.9,112.3 M-971.7,113.3h-2c0,0.3,0.1,0.6,0.3,0.7c0.2,0.2,0.4,0.2,0.6,0.2c0.3,0,0.5-0.1,0.7-0.2
			l0.2,0.4c-0.1,0.1-0.2,0.1-0.3,0.2c-0.2,0.1-0.4,0.1-0.7,0.1c-0.3,0-0.6-0.1-0.9-0.4c-0.3-0.3-0.4-0.6-0.4-1
			c0-0.5,0.1-0.8,0.4-1.1c0.2-0.2,0.5-0.4,0.9-0.4c0.4,0,0.7,0.1,0.9,0.3c0.2,0.2,0.3,0.5,0.3,0.8
			C-971.7,113.1-971.7,113.2-971.7,113.3"/>
		<path class="st3" d="M-969.6,113.3c-0.2,0-0.3-0.1-0.3-0.1c-0.2,0-0.4,0.1-0.6,0.2c-0.2,0.1-0.2,0.3-0.2,0.4
			c0,0.3,0.2,0.4,0.5,0.4c0.2,0,0.5-0.1,0.7-0.4V113.3z M-969.6,114.3c-0.2,0.2-0.5,0.4-0.9,0.4c-0.2,0-0.4-0.1-0.6-0.2
			c-0.2-0.2-0.2-0.4-0.2-0.6c0-0.3,0.1-0.5,0.4-0.7c0.2-0.2,0.6-0.3,0.9-0.3c0.1,0,0.2,0,0.3,0.1c0-0.4-0.2-0.7-0.6-0.7
			c-0.3,0-0.5,0.1-0.7,0.2l-0.2-0.4c0.1-0.1,0.2-0.1,0.4-0.2c0.2-0.1,0.3-0.1,0.5-0.1c0.4,0,0.7,0.1,0.9,0.3
			c0.2,0.2,0.3,0.5,0.3,0.9v1c0,0.2,0.1,0.4,0.2,0.5v0.2c-0.2,0-0.3,0-0.4-0.1C-969.5,114.6-969.5,114.5-969.6,114.3"/>
		<path class="st3" d="M-966.7,114.7v-1.6c0-0.3,0-0.5-0.1-0.6c-0.1-0.1-0.2-0.2-0.4-0.2c-0.1,0-0.2,0-0.3,0.1
			c-0.1,0.1-0.2,0.1-0.3,0.2v2h-0.5v-2.7h0.3l0.2,0.4c0.2-0.3,0.4-0.4,0.8-0.4c0.6,0,0.9,0.4,0.9,1.1v1.7H-966.7z"/>
		<path class="st3" d="M-963.8,110.9h0.5v2.6c0,0.2,0.1,0.4,0.2,0.6c0.1,0.1,0.3,0.2,0.6,0.2c0.3,0,0.5-0.1,0.6-0.2
			c0.1-0.1,0.2-0.3,0.2-0.6v-2.6h0.5v2.6c0,0.4-0.1,0.7-0.4,0.9c-0.2,0.2-0.6,0.3-1,0.3c-0.4,0-0.7-0.1-1-0.3
			c-0.2-0.2-0.3-0.5-0.3-0.9V110.9z"/>
		<path class="st3" d="M-958.7,114.7v-1.6c0-0.3,0-0.5-0.1-0.6c-0.1-0.1-0.2-0.2-0.4-0.2c-0.1,0-0.2,0-0.3,0.1
			c-0.1,0.1-0.2,0.1-0.3,0.2v2h-0.5v-2.7h0.3l0.2,0.4c0.2-0.3,0.4-0.4,0.8-0.4c0.6,0,0.9,0.4,0.9,1.1v1.7H-958.7z"/>
		<path class="st3" d="M-957,110.9c0.1,0,0.2,0,0.2,0.1c0.1,0.1,0.1,0.1,0.1,0.2c0,0.1,0,0.2-0.1,0.2c-0.1,0.1-0.1,0.1-0.2,0.1
			c-0.1,0-0.2,0-0.2-0.1c-0.1-0.1-0.1-0.1-0.1-0.2c0-0.1,0-0.2,0.1-0.2C-957.2,110.9-957.1,110.9-957,110.9 M-957.3,114.7v-2.3h-0.4
			v-0.4h0.9v2.7H-957.3z"/>
		<path class="st3" d="M-955.7,113.3c0,0.7,0.2,1,0.7,1c0.2,0,0.4-0.1,0.5-0.3c0.1-0.2,0.2-0.4,0.2-0.8c0-0.7-0.2-1-0.7-1
			c-0.2,0-0.4,0.1-0.5,0.3C-955.6,112.7-955.7,113-955.7,113.3 M-956.2,113.3c0-0.4,0.1-0.8,0.3-1c0.2-0.3,0.5-0.4,0.9-0.4
			c0.4,0,0.7,0.1,0.9,0.4c0.2,0.2,0.3,0.6,0.3,1c0,0.4-0.1,0.8-0.3,1c-0.2,0.3-0.5,0.4-0.9,0.4c-0.4,0-0.7-0.1-0.9-0.4
			C-956.1,114.1-956.2,113.7-956.2,113.3"/>
		<path class="st3" d="M-951.5,114.7v-1.6c0-0.3,0-0.5-0.1-0.6c-0.1-0.1-0.2-0.2-0.4-0.2c-0.1,0-0.2,0-0.3,0.1
			c-0.1,0.1-0.2,0.1-0.3,0.2v2h-0.5v-2.7h0.3l0.2,0.4c0.2-0.3,0.4-0.4,0.8-0.4c0.6,0,0.9,0.4,0.9,1.1v1.7H-951.5z"/>
		<polygon class="st3" points="-1008,119.1 -1008,120.1 -1006.9,120.1 -1006.9,120.5 -1008,120.5 -1008,121.7 -1006.5,121.7 
			-1006.5,122.1 -1008.5,122.1 -1008.5,118.7 -1006.5,118.7 -1006.5,119.1 		"/>
		<path class="st3" d="M-1005.6,119.6v1.6c0,0.4,0.2,0.6,0.5,0.6c0.1,0,0.3,0,0.4-0.1c0.1-0.1,0.2-0.2,0.2-0.3v-1.7h0.4v2.5h-0.4
			v-0.3c-0.1,0.1-0.1,0.2-0.3,0.3c-0.1,0.1-0.3,0.1-0.4,0.1c-0.3,0-0.5-0.1-0.6-0.2c-0.1-0.2-0.2-0.4-0.2-0.7v-1.6H-1005.6z"/>
		<path class="st3" d="M-1002.2,120.1c-0.1-0.1-0.2-0.1-0.3-0.1c-0.2,0-0.3,0.1-0.4,0.2c-0.1,0.1-0.2,0.3-0.2,0.5v1.4h-0.4v-2.5h0.4
			v0.4c0.2-0.3,0.4-0.4,0.7-0.4c0.1,0,0.2,0,0.3,0L-1002.2,120.1z"/>
		<path class="st3" d="M-1001.4,120.9c0,0.6,0.2,0.9,0.7,0.9c0.2,0,0.4-0.1,0.5-0.2c0.1-0.2,0.2-0.4,0.2-0.7c0-0.6-0.2-0.9-0.7-0.9
			c-0.2,0-0.4,0.1-0.5,0.2C-1001.4,120.3-1001.4,120.6-1001.4,120.9 M-1001.9,120.9c0-0.4,0.1-0.7,0.3-0.9c0.2-0.2,0.5-0.4,0.8-0.4
			c0.4,0,0.6,0.1,0.8,0.3c0.2,0.2,0.3,0.5,0.3,0.9c0,0.4-0.1,0.7-0.3,0.9c-0.2,0.2-0.5,0.3-0.8,0.3c-0.4,0-0.6-0.1-0.8-0.3
			C-1001.8,121.6-1001.9,121.3-1001.9,120.9"/>
		<path class="st3" d="M-998.8,120.2v1.4c0,0,0.1,0.1,0.2,0.1c0.1,0,0.2,0.1,0.3,0.1c0.5,0,0.8-0.3,0.8-0.9c0-0.3-0.1-0.5-0.2-0.7
			c-0.1-0.1-0.3-0.2-0.6-0.2c-0.1,0-0.1,0-0.2,0.1C-998.7,120.1-998.8,120.1-998.8,120.2 M-998.8,122v1.1h-0.4v-3.4h0.4v0.2
			c0.2-0.2,0.4-0.2,0.6-0.2c0.4,0,0.6,0.1,0.8,0.3c0.2,0.2,0.3,0.5,0.3,1c0,0.4-0.1,0.7-0.3,0.9c-0.2,0.2-0.5,0.4-0.9,0.4
			c-0.1,0-0.2,0-0.3-0.1C-998.7,122.1-998.8,122-998.8,122"/>
		<path class="st3" d="M-995.6,120c-0.2,0-0.4,0.1-0.5,0.2c-0.1,0.1-0.2,0.3-0.2,0.4h1.4c0-0.2-0.1-0.3-0.2-0.4
			C-995.3,120-995.4,120-995.6,120 M-994.6,120.9h-1.8c0,0.3,0.1,0.5,0.2,0.7c0.1,0.1,0.3,0.2,0.5,0.2c0.3,0,0.5-0.1,0.6-0.2
			l0.2,0.3c-0.1,0.1-0.2,0.1-0.3,0.2c-0.2,0.1-0.4,0.1-0.6,0.1c-0.3,0-0.6-0.1-0.8-0.3c-0.2-0.2-0.4-0.5-0.4-0.9
			c0-0.4,0.1-0.7,0.4-1c0.2-0.2,0.5-0.3,0.8-0.3c0.4,0,0.6,0.1,0.8,0.3c0.2,0.2,0.3,0.4,0.3,0.8
			C-994.5,120.7-994.6,120.8-994.6,120.9"/>
		<path class="st3" d="M-992.8,120.9c-0.1,0-0.2,0-0.3,0c-0.2,0-0.4,0.1-0.5,0.2c-0.1,0.1-0.2,0.2-0.2,0.4c0,0.3,0.2,0.4,0.5,0.4
			c0.2,0,0.4-0.1,0.6-0.3V120.9z M-992.7,121.8c-0.2,0.2-0.4,0.3-0.8,0.3c-0.2,0-0.4-0.1-0.5-0.2c-0.1-0.1-0.2-0.3-0.2-0.5
			c0-0.3,0.1-0.5,0.3-0.6c0.2-0.2,0.5-0.3,0.8-0.3c0.1,0,0.2,0,0.3,0.1c0-0.4-0.2-0.6-0.5-0.6c-0.3,0-0.5,0.1-0.6,0.2l-0.2-0.4
			c0.1-0.1,0.2-0.1,0.3-0.2c0.1,0,0.3-0.1,0.4-0.1c0.4,0,0.6,0.1,0.8,0.2c0.2,0.2,0.2,0.4,0.2,0.8v0.9c0,0.2,0.1,0.4,0.2,0.4v0.2
			c-0.2,0-0.3,0-0.4-0.1C-992.6,122-992.7,121.9-992.7,121.8"/>
		<path class="st3" d="M-990.2,122.1v-1.4c0-0.3,0-0.4-0.1-0.6c-0.1-0.1-0.2-0.2-0.4-0.2c-0.1,0-0.2,0-0.3,0.1
			c-0.1,0.1-0.2,0.1-0.3,0.2v1.8h-0.4v-2.5h0.3l0.1,0.3c0.1-0.2,0.4-0.4,0.7-0.4c0.5,0,0.8,0.3,0.8,1v1.5H-990.2z"/>
		<polygon class="st3" points="-985.2,122.1 -985.6,119.9 -986.3,122.1 -986.5,122.1 -987.2,119.9 -987.6,122.1 -988.1,122.1 
			-987.4,118.7 -987.2,118.7 -986.4,121.2 -985.7,118.7 -985.5,118.7 -984.8,122.1 		"/>
		<g>
			<path class="st3" d="M-983.1,120.9c-0.1,0-0.2,0-0.3,0c-0.2,0-0.4,0.1-0.5,0.2c-0.1,0.1-0.2,0.2-0.2,0.4c0,0.3,0.2,0.4,0.5,0.4
				c0.2,0,0.4-0.1,0.6-0.3V120.9z M-983.1,121.8c-0.2,0.2-0.4,0.3-0.8,0.3c-0.2,0-0.4-0.1-0.5-0.2c-0.1-0.1-0.2-0.3-0.2-0.5
				c0-0.3,0.1-0.5,0.3-0.6c0.2-0.2,0.5-0.3,0.8-0.3c0.1,0,0.2,0,0.3,0.1c0-0.4-0.2-0.6-0.5-0.6c-0.3,0-0.5,0.1-0.6,0.2l-0.2-0.4
				c0.1-0.1,0.2-0.1,0.3-0.2c0.1,0,0.3-0.1,0.4-0.1c0.4,0,0.6,0.1,0.8,0.2c0.2,0.2,0.2,0.4,0.2,0.8v0.9c0,0.2,0.1,0.4,0.2,0.4v0.2
				c-0.2,0-0.3,0-0.4-0.1C-983,122-983.1,121.9-983.1,121.8"/>
			<path class="st3" d="M-980.7,120.1c-0.1-0.1-0.2-0.1-0.3-0.1c-0.2,0-0.3,0.1-0.4,0.2c-0.1,0.1-0.2,0.3-0.2,0.5v1.4h-0.4v-2.5h0.4
				v0.4c0.2-0.3,0.4-0.4,0.7-0.4c0.1,0,0.2,0,0.3,0L-980.7,120.1z"/>
			<path class="st3" d="M-979.8,118.7c0.1,0,0.1,0,0.2,0.1c0.1,0.1,0.1,0.1,0.1,0.2c0,0.1,0,0.1-0.1,0.2c-0.1,0.1-0.1,0.1-0.2,0.1
				c-0.1,0-0.1,0-0.2-0.1c-0.1-0.1-0.1-0.1-0.1-0.2c0-0.1,0-0.1,0.1-0.2C-979.9,118.7-979.9,118.7-979.8,118.7 M-980,122.1V120h-0.3
				v-0.4h0.8v2.5H-980z"/>
			<path class="st3" d="M-978.8,120h-0.3v-0.3h0.3v-0.5l0.4-0.2v0.7h0.7v0.3h-0.7v1.2c0,0.2,0,0.4,0.1,0.4c0.1,0.1,0.2,0.1,0.3,0.1
				c0.1,0,0.2,0,0.3-0.1l0.1,0.4c-0.2,0-0.4,0.1-0.6,0.1c-0.2,0-0.4-0.1-0.5-0.2c-0.1-0.1-0.2-0.3-0.2-0.5V120z"/>
			<path class="st3" d="M-976.7,118.7c0.1,0,0.1,0,0.2,0.1c0.1,0.1,0.1,0.1,0.1,0.2c0,0.1,0,0.1-0.1,0.2c-0.1,0.1-0.1,0.1-0.2,0.1
				c-0.1,0-0.1,0-0.2-0.1c-0.1-0.1-0.1-0.1-0.1-0.2c0-0.1,0-0.1,0.1-0.2C-976.8,118.7-976.8,118.7-976.7,118.7 M-976.9,122.1V120
				h-0.3v-0.4h0.8v2.5H-976.9z"/>
			<path class="st3" d="M-973,122.1v-1.6c0-0.4-0.2-0.6-0.5-0.6c-0.1,0-0.2,0-0.3,0.1c-0.1,0.1-0.2,0.1-0.2,0.2v1.8h-0.4v-1.8
				c0-0.1,0-0.2-0.1-0.3c-0.1-0.1-0.2-0.1-0.4-0.1c-0.1,0-0.2,0-0.3,0.1c-0.1,0.1-0.2,0.1-0.2,0.2v1.8h-0.4v-2.5h0.3l0.1,0.3
				c0.2-0.2,0.4-0.3,0.6-0.3c0.4,0,0.6,0.1,0.7,0.3c0-0.1,0.1-0.2,0.3-0.2c0.1-0.1,0.3-0.1,0.4-0.1c0.3,0,0.5,0.1,0.6,0.2
				c0.1,0.2,0.2,0.4,0.2,0.6v1.7H-973z"/>
			<path class="st3" d="M-970.9,120c-0.2,0-0.4,0.1-0.5,0.2c-0.1,0.1-0.2,0.3-0.2,0.4h1.4c0-0.2-0.1-0.3-0.2-0.4
				C-970.6,120-970.7,120-970.9,120 M-969.9,120.9h-1.8c0,0.3,0.1,0.5,0.2,0.7c0.1,0.1,0.3,0.2,0.5,0.2c0.3,0,0.5-0.1,0.6-0.2
				l0.2,0.3c-0.1,0.1-0.2,0.1-0.3,0.2c-0.2,0.1-0.4,0.1-0.6,0.1c-0.3,0-0.6-0.1-0.8-0.3c-0.2-0.2-0.4-0.5-0.4-0.9
				c0-0.4,0.1-0.7,0.4-1c0.2-0.2,0.5-0.3,0.8-0.3c0.4,0,0.6,0.1,0.8,0.3c0.2,0.2,0.3,0.4,0.3,0.8
				C-969.8,120.7-969.9,120.8-969.9,120.9"/>
			<path class="st3" d="M-966.7,120.9c-0.1,0-0.2,0-0.3,0c-0.2,0-0.4,0.1-0.5,0.2c-0.1,0.1-0.2,0.2-0.2,0.4c0,0.3,0.2,0.4,0.5,0.4
				c0.2,0,0.4-0.1,0.6-0.3V120.9z M-966.7,121.8c-0.2,0.2-0.4,0.3-0.8,0.3c-0.2,0-0.4-0.1-0.5-0.2c-0.1-0.1-0.2-0.3-0.2-0.5
				c0-0.3,0.1-0.5,0.3-0.6c0.2-0.2,0.5-0.3,0.8-0.3c0.1,0,0.2,0,0.3,0.1c0-0.4-0.2-0.6-0.5-0.6c-0.3,0-0.5,0.1-0.6,0.2l-0.2-0.4
				c0.1-0.1,0.2-0.1,0.3-0.2c0.1,0,0.3-0.1,0.4-0.1c0.4,0,0.6,0.1,0.8,0.2c0.2,0.2,0.2,0.4,0.2,0.8v0.9c0,0.2,0.1,0.4,0.2,0.4v0.2
				c-0.2,0-0.3,0-0.4-0.1C-966.6,122-966.6,121.9-966.7,121.8"/>
			<path class="st3" d="M-964.1,122.1v-1.4c0-0.3,0-0.4-0.1-0.6c-0.1-0.1-0.2-0.2-0.4-0.2c-0.1,0-0.2,0-0.3,0.1
				c-0.1,0.1-0.2,0.1-0.3,0.2v1.8h-0.4v-2.5h0.3l0.1,0.3c0.1-0.2,0.4-0.4,0.7-0.4c0.5,0,0.8,0.3,0.8,1v1.5H-964.1z"/>
			<path class="st3" d="M-961.5,120.2c-0.1-0.2-0.3-0.2-0.5-0.2c-0.2,0-0.4,0.1-0.6,0.3c-0.1,0.2-0.2,0.4-0.2,0.7
				c0,0.6,0.3,0.9,0.8,0.9c0.1,0,0.2,0,0.2-0.1c0.1,0,0.2-0.1,0.2-0.1V120.2z M-961.5,122.1v-0.2c-0.2,0.2-0.4,0.2-0.7,0.2
				c-0.3,0-0.6-0.1-0.8-0.3c-0.2-0.2-0.3-0.5-0.3-0.9c0-0.4,0.1-0.7,0.3-0.9c0.2-0.3,0.5-0.4,0.8-0.4c0.3,0,0.4,0.1,0.6,0.2v-1.1
				h0.4v3.5H-961.5z"/>
		</g>
		<polygon class="st3" points="-958.6,119.1 -958.6,120.1 -957.4,120.1 -957.4,120.5 -958.6,120.5 -958.6,122.1 -959.1,122.1 
			-959.1,118.7 -957,118.7 -957,119.1 		"/>
		<g>
			<path class="st3" d="M-956.2,118.7c0.1,0,0.1,0,0.2,0.1c0.1,0.1,0.1,0.1,0.1,0.2c0,0.1,0,0.1-0.1,0.2c-0.1,0.1-0.1,0.1-0.2,0.1
				c-0.1,0-0.1,0-0.2-0.1c-0.1-0.1-0.1-0.1-0.1-0.2c0-0.1,0-0.1,0.1-0.2C-956.4,118.7-956.3,118.7-956.2,118.7 M-956.5,122.1V120
				h-0.3v-0.4h0.8v2.5H-956.5z"/>
			<path class="st3" d="M-955.6,122l0.2-0.4c0.2,0.2,0.4,0.2,0.6,0.2c0.3,0,0.4-0.1,0.4-0.3c0-0.2-0.1-0.3-0.4-0.4
				c-0.2-0.1-0.3-0.2-0.4-0.2c-0.1,0-0.1-0.1-0.2-0.2c-0.1-0.1-0.1-0.1-0.1-0.2c0-0.1,0-0.1,0-0.2c0-0.2,0.1-0.4,0.2-0.5
				c0.1-0.1,0.3-0.2,0.6-0.2c0.2,0,0.4,0.1,0.7,0.2l-0.1,0.4c-0.2-0.1-0.3-0.2-0.5-0.2c-0.1,0-0.2,0-0.3,0.1c-0.1,0-0.1,0.1-0.1,0.2
				c0,0.2,0.1,0.3,0.3,0.4l0.3,0.1c0.2,0.1,0.3,0.2,0.4,0.3c0.1,0.1,0.1,0.3,0.1,0.4c0,0.2-0.1,0.4-0.2,0.5
				c-0.2,0.1-0.4,0.2-0.6,0.2C-955.1,122.1-955.3,122.1-955.6,122"/>
			<path class="st3" d="M-952,122.1v-1.6c0-0.2,0-0.3-0.1-0.4c-0.1-0.1-0.2-0.2-0.4-0.2c-0.1,0-0.2,0-0.3,0.1
				c-0.1,0.1-0.2,0.1-0.2,0.2v1.8h-0.4v-3.5h0.4v1.3c0.1-0.1,0.2-0.2,0.3-0.2c0.1-0.1,0.3-0.1,0.4-0.1c0.3,0,0.5,0.1,0.6,0.3
				c0.1,0.2,0.2,0.4,0.2,0.7v1.6H-952z"/>
			<path class="st3" d="M-950,120c-0.2,0-0.4,0.1-0.5,0.2c-0.1,0.1-0.2,0.3-0.2,0.4h1.4c0-0.2-0.1-0.3-0.2-0.4
				C-949.6,120-949.8,120-950,120 M-948.9,120.9h-1.8c0,0.3,0.1,0.5,0.2,0.7c0.1,0.1,0.3,0.2,0.5,0.2c0.3,0,0.5-0.1,0.6-0.2l0.2,0.3
				c-0.1,0.1-0.2,0.1-0.3,0.2c-0.2,0.1-0.4,0.1-0.6,0.1c-0.3,0-0.6-0.1-0.8-0.3c-0.2-0.2-0.4-0.5-0.4-0.9c0-0.4,0.1-0.7,0.4-1
				c0.2-0.2,0.5-0.3,0.8-0.3c0.4,0,0.6,0.1,0.8,0.3c0.2,0.2,0.3,0.4,0.3,0.8C-948.9,120.7-948.9,120.8-948.9,120.9"/>
			<path class="st3" d="M-947.1,120.1c-0.1-0.1-0.2-0.1-0.3-0.1c-0.2,0-0.3,0.1-0.4,0.2c-0.1,0.1-0.2,0.3-0.2,0.5v1.4h-0.4v-2.5h0.4
				v0.4c0.2-0.3,0.4-0.4,0.7-0.4c0.1,0,0.2,0,0.3,0L-947.1,120.1z"/>
			<path class="st3" d="M-946.2,118.7c0.1,0,0.1,0,0.2,0.1c0.1,0.1,0.1,0.1,0.1,0.2c0,0.1,0,0.1-0.1,0.2c-0.1,0.1-0.1,0.1-0.2,0.1
				c-0.1,0-0.1,0-0.2-0.1c-0.1-0.1-0.1-0.1-0.1-0.2c0-0.1,0-0.1,0.1-0.2C-946.4,118.7-946.3,118.7-946.2,118.7 M-946.5,122.1V120
				h-0.3v-0.4h0.8v2.5H-946.5z"/>
			<path class="st3" d="M-944.4,120c-0.2,0-0.4,0.1-0.5,0.2c-0.1,0.1-0.2,0.3-0.2,0.4h1.4c0-0.2-0.1-0.3-0.2-0.4
				C-944,120-944.1,120-944.4,120 M-943.3,120.9h-1.8c0,0.3,0.1,0.5,0.2,0.7c0.1,0.1,0.3,0.2,0.5,0.2c0.3,0,0.5-0.1,0.6-0.2l0.2,0.3
				c-0.1,0.1-0.2,0.1-0.3,0.2c-0.2,0.1-0.4,0.1-0.6,0.1c-0.3,0-0.6-0.1-0.8-0.3c-0.2-0.2-0.4-0.5-0.4-0.9c0-0.4,0.1-0.7,0.4-1
				c0.2-0.2,0.5-0.3,0.8-0.3c0.4,0,0.6,0.1,0.8,0.3c0.2,0.2,0.3,0.4,0.3,0.8C-943.3,120.7-943.3,120.8-943.3,120.9"/>
			<path class="st3" d="M-943,122l0.2-0.4c0.2,0.2,0.4,0.2,0.6,0.2c0.3,0,0.4-0.1,0.4-0.3c0-0.2-0.1-0.3-0.4-0.4
				c-0.2-0.1-0.3-0.2-0.4-0.2c-0.1,0-0.1-0.1-0.2-0.2c-0.1-0.1-0.1-0.1-0.1-0.2c0-0.1,0-0.1,0-0.2c0-0.2,0.1-0.4,0.2-0.5
				c0.1-0.1,0.3-0.2,0.6-0.2c0.2,0,0.4,0.1,0.7,0.2l-0.1,0.4c-0.2-0.1-0.3-0.2-0.5-0.2c-0.1,0-0.2,0-0.3,0.1c-0.1,0-0.1,0.1-0.1,0.2
				c0,0.2,0.1,0.3,0.3,0.4l0.3,0.1c0.2,0.1,0.3,0.2,0.4,0.3c0.1,0.1,0.1,0.3,0.1,0.4c0,0.2-0.1,0.4-0.2,0.5
				c-0.2,0.1-0.4,0.2-0.6,0.2C-942.5,122.1-942.8,122.1-943,122"/>
		</g>
		<polygon class="st3" points="-939.1,119.1 -939.1,120.1 -937.9,120.1 -937.9,120.5 -939.1,120.5 -939.1,122.1 -939.6,122.1 
			-939.6,118.7 -937.5,118.7 -937.5,119.1 		"/>
		<path class="st3" d="M-936.8,119.6v1.6c0,0.4,0.2,0.6,0.5,0.6c0.1,0,0.3,0,0.4-0.1c0.1-0.1,0.2-0.2,0.2-0.3v-1.7h0.4v2.5h-0.4
			v-0.3c0,0.1-0.1,0.2-0.3,0.3c-0.1,0.1-0.3,0.1-0.4,0.1c-0.3,0-0.5-0.1-0.6-0.2c-0.1-0.2-0.2-0.4-0.2-0.7v-1.6H-936.8z"/>
		<path class="st3" d="M-933.1,122.1v-1.4c0-0.3,0-0.4-0.1-0.6c-0.1-0.1-0.2-0.2-0.4-0.2c-0.1,0-0.2,0-0.3,0.1
			c-0.1,0.1-0.2,0.1-0.3,0.2v1.8h-0.4v-2.5h0.3l0.1,0.3c0.1-0.2,0.4-0.4,0.7-0.4c0.5,0,0.8,0.3,0.8,1v1.5H-933.1z"/>
		<path class="st3" d="M-930.5,120.2c-0.1-0.2-0.3-0.2-0.5-0.2c-0.2,0-0.4,0.1-0.6,0.3c-0.1,0.2-0.2,0.4-0.2,0.7
			c0,0.6,0.3,0.9,0.8,0.9c0.1,0,0.2,0,0.2-0.1c0.1,0,0.2-0.1,0.2-0.1V120.2z M-930.5,122.1v-0.2c-0.2,0.2-0.4,0.2-0.7,0.2
			c-0.3,0-0.6-0.1-0.8-0.3c-0.2-0.2-0.3-0.5-0.3-0.9c0-0.4,0.1-0.7,0.3-0.9c0.2-0.3,0.5-0.4,0.8-0.4c0.3,0,0.4,0.1,0.6,0.2v-1.1h0.4
			v3.5H-930.5z"/>
	</g>
</g>
</svg>
