<?xml version="1.0" encoding="utf-8"?>
<!-- Generator: Adobe Illustrator 19.0.0, SVG Export Plug-In . SVG Version: 6.00 Build 0)  -->
<svg version="1.1" id="Layer_1" xmlns="http://www.w3.org/2000/svg" xmlns:xlink="http://www.w3.org/1999/xlink" x="0px" y="0px"
	 viewBox="-1009 -17.5 79.4 142.4" style="enable-background:new -1009 -17.5 79.4 142.4;" xml:space="preserve">
<style type="text/css">
	.st0{fill:#231F20;}
	.st1{fill:#034EA1;}
	.st2{fill:#FFD559;}
	.st3{fill:#0071BB;}
</style>
<g>
	<g>
		<polygon class="st0" points="-1007.2,120.9 -1007.2,121.9 -1006.1,121.9 -1006.1,122.2 -1007.2,122.2 -1007.2,123.5 
			-1005.7,123.5 -1005.7,123.9 -1007.7,123.9 -1007.7,120.5 -1005.6,120.5 -1005.6,120.9 		"/>
		<path class="st0" d="M-1004.7,121.4v1.6c0,0.4,0.2,0.6,0.5,0.6c0.1,0,0.3,0,0.4-0.1c0.1-0.1,0.2-0.2,0.2-0.3v-1.8h0.4v2.5h-0.4
			v-0.3c-0.1,0.1-0.1,0.2-0.3,0.3c-0.2,0.1-0.3,0.1-0.4,0.1c-0.3,0-0.5-0.1-0.6-0.2c-0.1-0.2-0.2-0.4-0.2-0.7v-1.6H-1004.7z"/>
		<path class="st0" d="M-1001.1,121.8c-0.1-0.1-0.2-0.1-0.3-0.1c-0.2,0-0.3,0.1-0.4,0.2c-0.1,0.1-0.2,0.3-0.2,0.5v1.4h-0.4v-2.5h0.4
			v0.4c0.2-0.3,0.4-0.4,0.7-0.4c0.1,0,0.2,0,0.3,0L-1001.1,121.8z"/>
		<path class="st0" d="M-1000.3,122.6c0,0.6,0.2,0.9,0.7,0.9c0.2,0,0.4-0.1,0.5-0.3c0.1-0.2,0.2-0.4,0.2-0.7c0-0.6-0.2-0.9-0.7-0.9
			c-0.2,0-0.4,0.1-0.5,0.2C-1000.2,122.1-1000.3,122.4-1000.3,122.6 M-1000.8,122.6c0-0.4,0.1-0.7,0.3-0.9c0.2-0.2,0.5-0.4,0.8-0.4
			c0.4,0,0.6,0.1,0.8,0.3c0.2,0.2,0.3,0.5,0.3,0.9c0,0.4-0.1,0.7-0.3,1c-0.2,0.2-0.5,0.3-0.8,0.3c-0.4,0-0.6-0.1-0.8-0.4
			C-1000.7,123.4-1000.8,123-1000.8,122.6"/>
		<path class="st0" d="M-997.7,122.6c0,0.6,0.2,0.9,0.7,0.9c0.2,0,0.4-0.1,0.5-0.3c0.1-0.2,0.2-0.4,0.2-0.7c0-0.6-0.2-0.9-0.7-0.9
			c-0.2,0-0.4,0.1-0.5,0.2C-997.6,122.1-997.7,122.4-997.7,122.6 M-998.2,122.6c0-0.4,0.1-0.7,0.3-0.9c0.2-0.2,0.5-0.4,0.8-0.4
			c0.4,0,0.6,0.1,0.8,0.3c0.2,0.2,0.3,0.5,0.3,0.9c0,0.4-0.1,0.7-0.3,1c-0.2,0.2-0.5,0.3-0.8,0.3c-0.4,0-0.6-0.1-0.8-0.4
			C-998.1,123.4-998.2,123-998.2,122.6"/>
		<path class="st0" d="M-995,121.9v1.5c0,0,0.1,0.1,0.2,0.1c0.1,0,0.2,0.1,0.3,0.1c0.6,0,0.8-0.3,0.8-0.9c0-0.3-0.1-0.5-0.2-0.7
			c-0.1-0.1-0.3-0.2-0.6-0.2c-0.1,0-0.1,0-0.2,0.1C-994.8,121.8-994.9,121.9-995,121.9 M-995,123.8v1.1h-0.4v-3.5h0.4v0.2
			c0.2-0.2,0.4-0.3,0.6-0.3c0.4,0,0.6,0.1,0.8,0.3c0.2,0.2,0.3,0.5,0.3,1c0,0.4-0.1,0.7-0.3,0.9c-0.2,0.2-0.5,0.4-0.9,0.4
			c-0.1,0-0.2,0-0.3-0.1C-994.9,123.9-994.9,123.8-995,123.8"/>
		<path class="st0" d="M-991.3,122.7c-0.1,0-0.2,0-0.3,0c-0.2,0-0.4,0.1-0.5,0.2c-0.1,0.1-0.2,0.3-0.2,0.4c0,0.3,0.2,0.4,0.5,0.4
			c0.2,0,0.4-0.1,0.6-0.3V122.7z M-991.3,123.6c-0.2,0.2-0.4,0.3-0.8,0.3c-0.2,0-0.4-0.1-0.5-0.2c-0.1-0.1-0.2-0.3-0.2-0.5
			c0-0.3,0.1-0.5,0.3-0.6c0.2-0.2,0.5-0.3,0.8-0.3c0.1,0,0.2,0,0.3,0.1c0-0.4-0.2-0.6-0.5-0.6c-0.3,0-0.5,0.1-0.6,0.2l-0.2-0.4
			c0.1-0.1,0.2-0.1,0.3-0.2c0.1,0,0.3-0.1,0.4-0.1c0.4,0,0.6,0.1,0.8,0.2c0.2,0.2,0.2,0.4,0.2,0.8v0.9c0,0.2,0.1,0.4,0.2,0.4v0.2
			c-0.2,0-0.3,0-0.4-0.1C-991.2,123.8-991.3,123.7-991.3,123.6"/>
		<polygon class="st0" points="-986.1,123.9 -986.5,121.7 -987.3,124 -987.4,124 -988.1,121.7 -988.5,123.9 -989,123.9 
			-988.3,120.5 -988.1,120.5 -987.3,123 -986.6,120.5 -986.4,120.5 -985.7,123.9 		"/>
		<path class="st0" d="M-984.3,121.7c-0.2,0-0.4,0.1-0.5,0.2c-0.1,0.1-0.2,0.3-0.2,0.5h1.4c0-0.2-0.1-0.3-0.2-0.4
			C-983.9,121.8-984.1,121.7-984.3,121.7 M-983.2,122.7h-1.8c0,0.3,0.1,0.5,0.2,0.7c0.1,0.1,0.3,0.2,0.5,0.2c0.3,0,0.5-0.1,0.6-0.2
			l0.2,0.3c-0.1,0.1-0.2,0.1-0.3,0.2c-0.2,0.1-0.4,0.1-0.6,0.1c-0.3,0-0.6-0.1-0.8-0.3c-0.2-0.2-0.4-0.6-0.4-0.9
			c0-0.4,0.1-0.7,0.4-1c0.2-0.2,0.5-0.3,0.8-0.3c0.4,0,0.6,0.1,0.8,0.3c0.2,0.2,0.3,0.4,0.3,0.8
			C-983.2,122.5-983.2,122.6-983.2,122.7"/>
		<path class="st0" d="M-981.3,121.8c-0.1-0.1-0.2-0.1-0.3-0.1c-0.2,0-0.3,0.1-0.4,0.2c-0.1,0.1-0.2,0.3-0.2,0.5v1.4h-0.4v-2.5h0.4
			v0.4c0.2-0.3,0.4-0.4,0.7-0.4c0.1,0,0.2,0,0.3,0L-981.3,121.8z"/>
		<path class="st0" d="M-979.7,121.7c-0.2,0-0.4,0.1-0.5,0.2c-0.1,0.1-0.2,0.3-0.2,0.5h1.4c0-0.2-0.1-0.3-0.2-0.4
			C-979.4,121.8-979.5,121.7-979.7,121.7 M-978.7,122.7h-1.8c0,0.3,0.1,0.5,0.2,0.7c0.1,0.1,0.3,0.2,0.5,0.2c0.3,0,0.5-0.1,0.6-0.2
			l0.2,0.3c-0.1,0.1-0.2,0.1-0.3,0.2c-0.2,0.1-0.4,0.1-0.6,0.1c-0.3,0-0.6-0.1-0.8-0.3c-0.2-0.2-0.4-0.6-0.4-0.9
			c0-0.4,0.1-0.7,0.4-1c0.2-0.2,0.5-0.3,0.8-0.3c0.4,0,0.6,0.1,0.8,0.3c0.2,0.2,0.3,0.4,0.3,0.8
			C-978.6,122.5-978.6,122.6-978.7,122.7"/>
		<path class="st0" d="M-976.6,123.9v-1.5c0-0.3,0-0.5-0.1-0.6c-0.1-0.1-0.2-0.2-0.4-0.2c-0.1,0-0.2,0-0.3,0.1
			c-0.1,0.1-0.2,0.1-0.3,0.2v1.9h-0.4v-2.5h0.3l0.1,0.3c0.1-0.2,0.4-0.4,0.7-0.4c0.5,0,0.8,0.3,0.8,1v1.5H-976.6z"/>
		<path class="st0" d="M-973.9,122c-0.1-0.2-0.3-0.3-0.5-0.3c-0.2,0-0.4,0.1-0.6,0.3c-0.1,0.2-0.2,0.4-0.2,0.7
			c0,0.6,0.3,0.9,0.8,0.9c0.1,0,0.2,0,0.3-0.1s0.2-0.1,0.2-0.1V122z M-973.9,123.9v-0.2c-0.2,0.2-0.4,0.2-0.7,0.2
			c-0.3,0-0.6-0.1-0.8-0.3c-0.2-0.2-0.3-0.5-0.3-0.9c0-0.4,0.1-0.7,0.3-1c0.2-0.3,0.5-0.4,0.8-0.4c0.3,0,0.5,0.1,0.6,0.2v-1.2h0.4
			v3.5H-973.9z"/>
		<path class="st0" d="M-972.4,121.4v1.6c0,0.4,0.2,0.6,0.5,0.6c0.1,0,0.3,0,0.4-0.1c0.1-0.1,0.2-0.2,0.2-0.3v-1.8h0.4v2.5h-0.4
			v-0.3c0,0.1-0.1,0.2-0.3,0.3c-0.1,0.1-0.3,0.1-0.4,0.1c-0.3,0-0.5-0.1-0.6-0.2c-0.1-0.2-0.2-0.4-0.2-0.7v-1.6H-972.4z"/>
		<path class="st0" d="M-970.3,123.8l0.2-0.4c0.2,0.2,0.4,0.2,0.6,0.2c0.3,0,0.4-0.1,0.4-0.3c0-0.2-0.1-0.3-0.4-0.4
			c-0.2-0.1-0.3-0.2-0.4-0.2c-0.1,0-0.1-0.1-0.2-0.2c-0.1-0.1-0.1-0.1-0.1-0.2c0-0.1,0-0.1,0-0.2c0-0.2,0.1-0.4,0.2-0.5
			c0.1-0.1,0.3-0.2,0.6-0.2c0.2,0,0.4,0.1,0.7,0.2l-0.1,0.4c-0.2-0.1-0.4-0.2-0.5-0.2c-0.1,0-0.2,0-0.3,0.1c-0.1,0-0.1,0.1-0.1,0.2
			c0,0.2,0.1,0.3,0.3,0.4l0.3,0.1c0.2,0.1,0.3,0.2,0.4,0.3c0.1,0.1,0.1,0.3,0.1,0.4c0,0.2-0.1,0.4-0.2,0.5c-0.2,0.1-0.4,0.2-0.7,0.2
			C-969.9,124-970.1,123.9-970.3,123.8"/>
		<rect x="-968.2" y="122.3" class="st0" width="1" height="0.4"/>
		<g>
			<path class="st0" d="M-964.3,120.5c0.1,0,0.1,0,0.2,0.1c0.1,0.1,0.1,0.1,0.1,0.2c0,0.1,0,0.1-0.1,0.2c-0.1,0.1-0.1,0.1-0.2,0.1
				c-0.1,0-0.1,0-0.2-0.1c-0.1-0.1-0.1-0.1-0.1-0.2c0-0.1,0-0.1,0.1-0.2C-964.4,120.5-964.4,120.5-964.3,120.5 M-965.2,124.9v-0.4
				c0.3,0,0.5,0,0.6-0.1c0.1-0.1,0.2-0.2,0.2-0.5v-2.1h-0.5v-0.4h0.9v2.5c0,0.3-0.1,0.6-0.3,0.8
				C-964.5,124.8-964.8,124.9-965.2,124.9"/>
			<path class="st0" d="M-961.8,122.7c-0.1,0-0.2,0-0.3,0c-0.2,0-0.4,0.1-0.5,0.2c-0.1,0.1-0.2,0.3-0.2,0.4c0,0.3,0.2,0.4,0.5,0.4
				c0.2,0,0.4-0.1,0.6-0.3V122.7z M-961.8,123.6c-0.2,0.2-0.4,0.3-0.8,0.3c-0.2,0-0.4-0.1-0.5-0.2c-0.1-0.1-0.2-0.3-0.2-0.5
				c0-0.3,0.1-0.5,0.3-0.6c0.2-0.2,0.5-0.3,0.8-0.3c0.1,0,0.2,0,0.3,0.1c0-0.4-0.2-0.6-0.5-0.6c-0.3,0-0.5,0.1-0.6,0.2l-0.2-0.4
				c0.1-0.1,0.2-0.1,0.3-0.2c0.1,0,0.3-0.1,0.4-0.1c0.4,0,0.6,0.1,0.8,0.2c0.2,0.2,0.2,0.4,0.2,0.8v0.9c0,0.2,0.1,0.4,0.2,0.4v0.2
				c-0.2,0-0.3,0-0.4-0.1C-961.7,123.8-961.7,123.7-961.8,123.6"/>
		</g>
		<polygon class="st0" points="-957.3,123.9 -958.2,122.3 -958.7,123 -958.7,123.9 -959.1,123.9 -959.1,120.5 -958.7,120.5 
			-958.7,122.3 -957.4,120.5 -956.9,120.5 -957.9,122 -956.7,123.9 		"/>
		<path class="st0" d="M-955,122.7c-0.1,0-0.2,0-0.3,0c-0.2,0-0.4,0.1-0.5,0.2c-0.1,0.1-0.2,0.3-0.2,0.4c0,0.3,0.2,0.4,0.5,0.4
			c0.2,0,0.4-0.1,0.6-0.3V122.7z M-955,123.6c-0.2,0.2-0.4,0.3-0.8,0.3c-0.2,0-0.4-0.1-0.5-0.2c-0.1-0.1-0.2-0.3-0.2-0.5
			c0-0.3,0.1-0.5,0.3-0.6c0.2-0.2,0.5-0.3,0.8-0.3c0.1,0,0.2,0,0.3,0.1c0-0.4-0.2-0.6-0.5-0.6c-0.3,0-0.5,0.1-0.6,0.2l-0.2-0.4
			c0.1-0.1,0.2-0.1,0.3-0.2c0.1,0,0.3-0.1,0.4-0.1c0.4,0,0.6,0.1,0.8,0.2c0.2,0.2,0.2,0.4,0.2,0.8v0.9c0,0.2,0.1,0.4,0.2,0.4v0.2
			c-0.2,0-0.3,0-0.4-0.1C-954.9,123.8-955,123.7-955,123.6"/>
		<path class="st0" d="M-953.8,123.2v-2.8h0.4v2.7c0,0.1,0,0.2,0.1,0.3c0.1,0.1,0.2,0.1,0.3,0.1v0.4
			C-953.5,124-953.8,123.7-953.8,123.2"/>
		<path class="st0" d="M-951.1,122.7c-0.1,0-0.2,0-0.3,0c-0.2,0-0.4,0.1-0.5,0.2c-0.1,0.1-0.2,0.3-0.2,0.4c0,0.3,0.2,0.4,0.5,0.4
			c0.2,0,0.4-0.1,0.6-0.3V122.7z M-951,123.6c-0.2,0.2-0.4,0.3-0.8,0.3c-0.2,0-0.4-0.1-0.5-0.2c-0.1-0.1-0.2-0.3-0.2-0.5
			c0-0.3,0.1-0.5,0.3-0.6c0.2-0.2,0.5-0.3,0.8-0.3c0.1,0,0.2,0,0.3,0.1c0-0.4-0.2-0.6-0.5-0.6c-0.3,0-0.5,0.1-0.6,0.2l-0.2-0.4
			c0.1-0.1,0.2-0.1,0.3-0.2c0.1,0,0.3-0.1,0.4-0.1c0.4,0,0.6,0.1,0.8,0.2c0.2,0.2,0.2,0.4,0.2,0.8v0.9c0,0.2,0.1,0.4,0.2,0.4v0.2
			c-0.2,0-0.3,0-0.4-0.1C-950.9,123.8-951,123.7-951,123.6"/>
		<path class="st0" d="M-948.4,123.9v-1.5c0-0.3,0-0.5-0.1-0.6c-0.1-0.1-0.2-0.2-0.4-0.2c-0.1,0-0.2,0-0.3,0.1
			c-0.1,0.1-0.2,0.1-0.3,0.2v1.9h-0.4v-2.5h0.3l0.1,0.3c0.1-0.2,0.4-0.4,0.7-0.4c0.5,0,0.8,0.3,0.8,1v1.5H-948.4z"/>
		<path class="st0" d="M-945.7,122c-0.1-0.2-0.3-0.3-0.5-0.3c-0.2,0-0.4,0.1-0.6,0.3c-0.1,0.2-0.2,0.4-0.2,0.7
			c0,0.6,0.3,0.9,0.8,0.9c0.1,0,0.2,0,0.3-0.1c0.1,0,0.2-0.1,0.2-0.1V122z M-945.7,123.9v-0.2c-0.2,0.2-0.4,0.2-0.7,0.2
			c-0.3,0-0.6-0.1-0.8-0.3c-0.2-0.2-0.3-0.5-0.3-0.9c0-0.4,0.1-0.7,0.3-1c0.2-0.3,0.5-0.4,0.8-0.4c0.3,0,0.5,0.1,0.6,0.2v-1.2h0.4
			v3.5H-945.7z"/>
		<path class="st0" d="M-944.1,121.4v1.6c0,0.4,0.2,0.6,0.5,0.6c0.1,0,0.3,0,0.4-0.1c0.1-0.1,0.2-0.2,0.2-0.3v-1.8h0.4v2.5h-0.4
			v-0.3c0,0.1-0.1,0.2-0.3,0.3c-0.2,0.1-0.3,0.1-0.4,0.1c-0.3,0-0.5-0.1-0.6-0.2c-0.1-0.2-0.2-0.4-0.2-0.7v-1.6H-944.1z"/>
		<path class="st0" d="M-942.1,123.8l0.2-0.4c0.2,0.2,0.4,0.2,0.6,0.2c0.3,0,0.4-0.1,0.4-0.3c0-0.2-0.1-0.3-0.4-0.4
			c-0.2-0.1-0.3-0.2-0.4-0.2c-0.1,0-0.1-0.1-0.2-0.2c-0.1-0.1-0.1-0.1-0.1-0.2c0-0.1,0-0.1,0-0.2c0-0.2,0.1-0.4,0.2-0.5
			c0.1-0.1,0.3-0.2,0.6-0.2c0.2,0,0.4,0.1,0.7,0.2l-0.1,0.4c-0.2-0.1-0.4-0.2-0.5-0.2c-0.1,0-0.2,0-0.3,0.1c-0.1,0-0.1,0.1-0.1,0.2
			c0,0.2,0.1,0.3,0.3,0.4l0.3,0.1c0.2,0.1,0.3,0.2,0.4,0.3c0.1,0.1,0.1,0.3,0.1,0.4c0,0.2-0.1,0.4-0.2,0.5c-0.2,0.1-0.4,0.2-0.7,0.2
			C-941.6,124-941.9,123.9-942.1,123.8"/>
		<path class="st0" d="M-938.6,120.8c-0.1,0-0.2,0-0.3,0c-0.1,0-0.2,0.1-0.3,0.2c-0.1,0.1-0.1,0.2-0.1,0.4c0,0,0,0.1,0,0.1h0.5v0.4
			h-0.5v2.1h-0.4v-2.1h-0.4v-0.4h0.4c0-0.3,0.1-0.6,0.2-0.8c0.2-0.2,0.4-0.3,0.6-0.3c0.1,0,0.3,0,0.4,0.1L-938.6,120.8z"/>
		<path class="st0" d="M-937.9,122.6c0,0.6,0.2,0.9,0.7,0.9c0.2,0,0.4-0.1,0.5-0.3c0.1-0.2,0.2-0.4,0.2-0.7c0-0.6-0.2-0.9-0.7-0.9
			c-0.2,0-0.4,0.1-0.5,0.2C-937.8,122.1-937.9,122.4-937.9,122.6 M-938.3,122.6c0-0.4,0.1-0.7,0.3-0.9c0.2-0.2,0.5-0.4,0.8-0.4
			c0.4,0,0.6,0.1,0.8,0.3c0.2,0.2,0.3,0.5,0.3,0.9c0,0.4-0.1,0.7-0.3,1c-0.2,0.2-0.5,0.3-0.8,0.3c-0.4,0-0.6-0.1-0.8-0.4
			C-938.2,123.4-938.3,123-938.3,122.6"/>
		<path class="st0" d="M-934,123.9v-1.5c0-0.3,0-0.5-0.1-0.6c-0.1-0.1-0.2-0.2-0.4-0.2c-0.1,0-0.2,0-0.3,0.1
			c-0.1,0.1-0.2,0.1-0.3,0.2v1.9h-0.4v-2.5h0.3l0.1,0.3c0.1-0.2,0.4-0.4,0.7-0.4c0.5,0,0.8,0.3,0.8,1v1.5H-934z"/>
		<path class="st0" d="M-931.4,122c-0.1-0.2-0.3-0.3-0.5-0.3c-0.2,0-0.4,0.1-0.6,0.3c-0.1,0.2-0.2,0.4-0.2,0.7
			c0,0.6,0.3,0.9,0.8,0.9c0.1,0,0.2,0,0.3-0.1c0.1,0,0.2-0.1,0.2-0.1V122z M-931.4,123.9v-0.2c-0.2,0.2-0.4,0.2-0.7,0.2
			c-0.3,0-0.6-0.1-0.8-0.3c-0.2-0.2-0.3-0.5-0.3-0.9c0-0.4,0.1-0.7,0.3-1c0.2-0.3,0.5-0.4,0.8-0.4c0.3,0,0.5,0.1,0.6,0.2v-1.2h0.4
			v3.5H-931.4z"/>
		<polygon class="st0" points="-982.9,113 -982.9,114.1 -981.6,114.1 -981.6,114.5 -982.9,114.5 -982.9,115.9 -981.2,115.9 
			-981.2,116.4 -983.4,116.4 -983.4,112.5 -981.2,112.5 -981.2,113 		"/>
		<path class="st0" d="M-980.1,113.6v1.8c0,0.4,0.2,0.6,0.6,0.6c0.2,0,0.3,0,0.4-0.1c0.1-0.1,0.2-0.2,0.3-0.3v-2h0.5v2.8h-0.5V116
			c-0.1,0.1-0.2,0.2-0.3,0.3c-0.2,0.1-0.3,0.1-0.5,0.1c-0.3,0-0.5-0.1-0.7-0.3c-0.2-0.2-0.2-0.4-0.2-0.7v-1.8H-980.1z"/>
		<path class="st0" d="M-976.1,114c-0.1-0.1-0.2-0.1-0.3-0.1c-0.2,0-0.3,0.1-0.5,0.2c-0.1,0.2-0.2,0.4-0.2,0.6v1.6h-0.5v-2.8h0.5
			v0.4c0.2-0.3,0.4-0.5,0.8-0.5c0.1,0,0.2,0,0.4,0L-976.1,114z"/>
		<path class="st0" d="M-975.2,115c0,0.7,0.2,1,0.7,1c0.2,0,0.4-0.1,0.5-0.3c0.1-0.2,0.2-0.4,0.2-0.8c0-0.7-0.2-1-0.7-1
			c-0.2,0-0.4,0.1-0.5,0.3C-975.2,114.4-975.2,114.6-975.2,115 M-975.7,115c0-0.4,0.1-0.8,0.3-1c0.2-0.3,0.5-0.4,0.9-0.4
			c0.4,0,0.7,0.1,0.9,0.4c0.2,0.3,0.3,0.6,0.3,1.1c0,0.4-0.1,0.8-0.3,1.1c-0.2,0.3-0.5,0.4-0.9,0.4c-0.4,0-0.7-0.1-0.9-0.4
			C-975.6,115.7-975.7,115.4-975.7,115"/>
		<path class="st0" d="M-972.3,115c0,0.7,0.2,1,0.7,1c0.2,0,0.4-0.1,0.5-0.3c0.1-0.2,0.2-0.4,0.2-0.8c0-0.7-0.2-1-0.7-1
			c-0.2,0-0.4,0.1-0.5,0.3C-972.3,114.4-972.3,114.6-972.3,115 M-972.9,115c0-0.4,0.1-0.8,0.3-1c0.2-0.3,0.5-0.4,0.9-0.4
			c0.4,0,0.7,0.1,0.9,0.4c0.2,0.3,0.3,0.6,0.3,1.1c0,0.4-0.1,0.8-0.3,1.1c-0.2,0.3-0.5,0.4-0.9,0.4c-0.4,0-0.7-0.1-0.9-0.4
			C-972.8,115.7-972.9,115.4-972.9,115"/>
		<path class="st0" d="M-969.3,114.2v1.6c0,0,0.1,0.1,0.2,0.1c0.1,0,0.2,0.1,0.3,0.1c0.6,0,0.9-0.3,0.9-1c0-0.4-0.1-0.6-0.2-0.8
			c-0.1-0.2-0.4-0.2-0.7-0.2c-0.1,0-0.2,0-0.3,0.1C-969.2,114.1-969.2,114.1-969.3,114.2 M-969.3,116.2v1.2h-0.5v-3.9h0.5v0.2
			c0.2-0.2,0.4-0.3,0.7-0.3c0.4,0,0.7,0.1,0.9,0.4c0.2,0.2,0.3,0.6,0.3,1.1c0,0.4-0.1,0.8-0.3,1c-0.2,0.3-0.5,0.4-1,0.4
			c-0.1,0-0.2,0-0.4-0.1C-969.2,116.3-969.3,116.3-969.3,116.2"/>
		<path class="st0" d="M-965.3,115c-0.2,0-0.3-0.1-0.3-0.1c-0.2,0-0.5,0.1-0.6,0.2c-0.2,0.1-0.2,0.3-0.2,0.5c0,0.3,0.2,0.4,0.5,0.4
			c0.3,0,0.5-0.1,0.7-0.4V115z M-965.2,116c-0.2,0.2-0.5,0.4-0.9,0.4c-0.2,0-0.4-0.1-0.6-0.2c-0.2-0.2-0.2-0.4-0.2-0.6
			c0-0.3,0.1-0.5,0.4-0.7c0.2-0.2,0.6-0.3,0.9-0.3c0.1,0,0.2,0,0.4,0.1c0-0.5-0.2-0.7-0.6-0.7c-0.3,0-0.5,0.1-0.7,0.2l-0.2-0.4
			c0.1-0.1,0.2-0.1,0.4-0.2c0.2-0.1,0.3-0.1,0.5-0.1c0.4,0,0.7,0.1,0.9,0.3c0.2,0.2,0.3,0.5,0.3,0.9v1c0,0.2,0.1,0.4,0.2,0.5v0.2
			c-0.2,0-0.4,0-0.5-0.1C-965.1,116.3-965.2,116.2-965.2,116"/>
		<polygon class="st0" points="-962.3,116.4 -962.3,112.5 -961.8,112.5 -961.8,115.9 -960.1,115.9 -960.1,116.4 		"/>
		<g>
			<path class="st0" d="M-959.1,112.5c0.1,0,0.2,0,0.2,0.1c0.1,0.1,0.1,0.1,0.1,0.2s0,0.2-0.1,0.2c-0.1,0.1-0.1,0.1-0.2,0.1
				c-0.1,0-0.2,0-0.2-0.1c-0.1-0.1-0.1-0.1-0.1-0.2c0-0.1,0-0.2,0.1-0.2C-959.3,112.5-959.2,112.5-959.1,112.5 M-959.4,116.4V114
				h-0.4v-0.4h0.9v2.8H-959.4z"/>
			<path class="st0" d="M-957.6,112.5c0.1,0,0.2,0,0.2,0.1c0.1,0.1,0.1,0.1,0.1,0.2s0,0.2-0.1,0.2c-0.1,0.1-0.1,0.1-0.2,0.1
				c-0.1,0-0.2,0-0.2-0.1c-0.1-0.1-0.1-0.1-0.1-0.2c0-0.1,0-0.2,0.1-0.2C-957.7,112.5-957.7,112.5-957.6,112.5 M-957.9,116.4V114
				h-0.4v-0.4h0.9v2.8H-957.9z"/>
			<path class="st0" d="M-956.4,114h-0.3v-0.4h0.3V113l0.5-0.2v0.8h0.8v0.4h-0.8v1.4c0,0.2,0,0.4,0.1,0.5c0.1,0.1,0.2,0.1,0.4,0.1
				c0.1,0,0.3,0,0.4-0.1l0.1,0.4c-0.2,0.1-0.4,0.1-0.7,0.1c-0.2,0-0.4-0.1-0.6-0.2c-0.2-0.2-0.2-0.4-0.2-0.6V114z"/>
		</g>
		<rect x="-1009" y="56.4" class="st1" width="79.4" height="52.9"/>
		<polygon class="st2" points="-971,67.9 -969.3,66.7 -967.6,67.9 -968.3,65.9 -966.6,64.7 -968.7,64.7 -969.3,62.7 -970,64.7 
			-972.1,64.7 -970.4,65.9 		"/>
		<polygon class="st2" points="-979.7,70.3 -978,69 -976.3,70.3 -977,68.3 -975.3,67.1 -977.3,67.1 -978,65.1 -978.6,67.1 
			-980.7,67.1 -979,68.3 		"/>
		<polygon class="st2" points="-984.3,71.4 -985,73.4 -987.1,73.4 -985.4,74.6 -986,76.6 -984.3,75.4 -982.7,76.6 -983.3,74.6 
			-981.6,73.4 -983.7,73.4 		"/>
		<polygon class="st2" points="-986.7,84 -985,85.3 -985.6,83.3 -983.9,82.1 -986,82.1 -986.7,80.1 -987.3,82.1 -989.4,82.1 
			-987.7,83.3 -988.3,85.3 		"/>
		<polygon class="st2" points="-983.7,90.8 -984.3,88.8 -985,90.8 -987.1,90.8 -985.4,92 -986,94 -984.3,92.7 -982.7,94 -983.3,92 
			-981.6,90.8 		"/>
		<polygon class="st2" points="-977.3,97.1 -978,95.1 -978.6,97.1 -980.7,97.1 -979,98.3 -979.7,100.3 -978,99.1 -976.3,100.3 
			-976.9,98.3 -975.2,97.1 		"/>
		<polygon class="st2" points="-968.7,99.4 -969.3,97.4 -970,99.4 -972.1,99.4 -970.4,100.6 -971,102.6 -969.3,101.4 -967.6,102.6 
			-968.3,100.6 -966.6,99.4 		"/>
		<polygon class="st2" points="-960,97.1 -960.7,95.1 -961.3,97.1 -963.4,97.1 -961.7,98.3 -962.3,100.3 -960.7,99.1 -959,100.3 
			-959.6,98.3 -957.9,97.1 		"/>
		<polygon class="st2" points="-953.7,90.8 -954.3,88.8 -954.9,90.8 -957,90.8 -955.3,92 -956,94 -954.3,92.7 -952.6,94 -953.3,92 
			-951.6,90.8 		"/>
		<polygon class="st2" points="-949.3,82 -951.4,82 -952,80 -952.6,82 -954.7,82 -953,83.3 -953.7,85.2 -952,84 -950.3,85.2 
			-951,83.3 		"/>
		<polygon class="st2" points="-956,76.6 -954.3,75.4 -952.6,76.6 -953.3,74.6 -951.6,73.4 -953.7,73.4 -954.3,71.4 -954.9,73.4 
			-957,73.4 -955.3,74.6 		"/>
		<polygon class="st2" points="-960.6,65.1 -961.3,67.1 -963.4,67.1 -961.7,68.3 -962.3,70.3 -960.6,69 -959,70.3 -959.6,68.3 
			-957.9,67.1 -960,67.1 		"/>
	</g>
	<g>
		<path class="st3" d="M-996-3.5c1.8-6.4,11.3-14,22.1-14c7,0,13.5,2,19.9,7.9c-0.5,0.4-1.1,0.8-1.6,1.3c-3.7-3.2-7.4-4.4-10.6-4.4
			c-6.1,0-10.7,4.3-11.3,7.1c0.6,2.8,5.1,7.1,11.3,7.1c3.2,0,6.9-1.2,10.6-4.4c3.1,2.7,6.5,3.7,6.5,3.7s-1-3.6-1-6.4
			c0-2.3,0.7-5.2,1-6.1c4.7-3.1,8.8-4.3,8.8-4.3s-2,7-2,12.5c0,5.5,2,12.5,2,12.5s-6.5-1.9-12.6-7.2c-5.3,6.1-13.1,8.7-20.6,8.7
			C-983.8,10.5-993.9,3.7-996-3.5"/>
		<polygon class="st3" points="-980.1,23.4 -980.1,17.3 -976.9,17.3 -976.9,18 -979.3,18 -979.3,20 -977.3,20 -977.3,20.7 
			-979.3,20.7 -979.3,22.8 -976.6,22.8 -976.6,23.4 		"/>
		<g>
			<path class="st3" d="M-969.5,23.4l-0.2-2.9c0-0.5-0.1-1-0.1-1.5h0c-0.2,0.5-0.5,1.1-0.7,1.5l-1.5,3h-0.3l-1.5-3
				c-0.2-0.4-0.5-1-0.7-1.5h0c0,0.5-0.1,1.1-0.1,1.5l-0.2,2.9h-0.7l0.5-6.1h0.5l1.6,3.3c0.2,0.5,0.6,1.1,0.8,1.6h0
				c0.2-0.5,0.5-1.1,0.8-1.6l1.6-3.3h0.5l0.5,6.1H-969.5z"/>
		</g>
		<polygon class="st3" points="-963.9,23.4 -966.4,20.5 -966.4,20.5 -966.4,23.4 -967.2,23.4 -967.2,17.3 -966.4,17.3 -966.4,20.2 
			-966.4,20.2 -963.8,17.3 -963,17.3 -965.6,20.3 -962.9,23.4 		"/>
		<polygon class="st3" points="-960.8,18 -960.8,20 -958.7,20 -958.7,20.7 -960.8,20.7 -960.8,23.4 -961.6,23.4 -961.6,17.3 
			-958.3,17.3 -958.3,18 		"/>
		<path class="st3" d="M-1002.2,28.1h-0.8v2h0.9c0.6,0,1.1-0.3,1.1-1C-1001.1,28.4-1001.6,28.1-1002.2,28.1 M-1000.3,33.5l-2-2.7
			h-0.8v2.7h-0.8v-6.1h1.8c0.9,0,1.8,0.6,1.8,1.7c0,0.8-0.5,1.3-1.1,1.6l2.1,2.9H-1000.3z"/>
		<path class="st3" d="M-995.9,29.5c-0.1-0.2-0.2-0.6-0.3-0.8h0c-0.1,0.3-0.2,0.6-0.3,0.8l-0.7,1.7h1.9L-995.9,29.5z M-994.3,33.5
			l-0.7-1.6h-2.5l-0.7,1.6h-0.8l2.5-6.2h0.3l2.5,6.2H-994.3z"/>
		<polygon class="st3" points="-988.9,33.5 -991.4,30.6 -991.4,30.6 -991.4,33.5 -992.2,33.5 -992.2,27.4 -991.4,27.4 -991.4,30.3 
			-991.4,30.3 -988.9,27.4 -988,27.4 -990.6,30.4 -987.9,33.5 		"/>
		<polygon class="st3" points="-986.6,33.5 -986.6,27.4 -983.4,27.4 -983.4,28.1 -985.8,28.1 -985.8,30.1 -983.8,30.1 -983.8,30.8 
			-985.8,30.8 -985.8,32.8 -983,32.8 -983,33.5 		"/>
		<path class="st3" d="M-976.7,33.6l-2.9-3.3c-0.5-0.5-1-1.2-1.4-1.7l0,0c0,0.6,0,1.1,0,1.6v3.2h-0.8v-6.1h0.5l2.7,3
			c0.4,0.4,0.9,1.1,1.3,1.5l0,0c0-0.5,0-1,0-1.5v-3.1h0.8v6.2H-976.7z"/>
		<path class="st3" d="M-973.1,28.1h-0.8v4.7h0.8c1.5,0,2.7-0.8,2.7-2.4C-970.5,28.9-971.7,28.1-973.1,28.1 M-973,33.5h-1.7v-6.1
			h1.7c1.8,0,3.3,1.1,3.3,3C-969.7,32.4-971.3,33.5-973,33.5"/>
		<path class="st3" d="M-965.7,33.6c-1.4,0-2.4-0.8-2.4-2.2v-4h0.8v3.9c0,1,0.6,1.6,1.7,1.6c1.1,0,1.7-0.6,1.7-1.6v-3.9h0.8v4
			C-963.3,32.7-964.3,33.6-965.7,33.6"/>
		<path class="st3" d="M-960.1,33.5c-0.7,0-1.2-0.2-1.6-0.4l-0.1-0.8c0.4,0.3,1,0.6,1.7,0.6c0.7,0,1.2-0.4,1.2-1
			c0-0.6-0.4-0.9-1.1-1.2c-1.1-0.4-1.6-0.9-1.6-1.7c0-0.8,0.6-1.6,1.8-1.6c0.6,0,1,0.2,1.3,0.3l-0.2,0.6c-0.2-0.2-0.7-0.4-1.2-0.4
			c-0.7,0-1.1,0.4-1.1,0.9c0,0.5,0.3,0.8,1,1c1.1,0.4,1.7,0.9,1.7,1.9C-958.1,32.8-958.9,33.5-960.1,33.5"/>
		<polygon class="st3" points="-953.3,33.5 -955.8,30.6 -955.8,30.6 -955.8,33.5 -956.6,33.5 -956.6,27.4 -955.8,27.4 -955.8,30.3 
			-955.8,30.3 -953.3,27.4 -952.4,27.4 -955,30.4 -952.3,33.5 		"/>
		<path class="st3" d="M-948.5,29.5c-0.1-0.2-0.2-0.6-0.3-0.8h0c-0.1,0.3-0.2,0.6-0.3,0.8l-0.7,1.7h1.9L-948.5,29.5z M-946.9,33.5
			l-0.7-1.6h-2.5l-0.7,1.6h-0.8l2.5-6.2h0.3l2.5,6.2H-946.9z"/>
		<path class="st3" d="M-943,33.6h-0.2l-2.4-6.2h0.8l1.2,3.1c0.2,0.5,0.4,1,0.6,1.6h0c0.2-0.5,0.4-1.1,0.6-1.6l1.2-3.1h0.7
			L-943,33.6z"/>
		<path class="st3" d="M-937.2,29.5c-0.1-0.2-0.2-0.6-0.3-0.8h0c-0.1,0.3-0.2,0.6-0.3,0.8l-0.7,1.7h1.9L-937.2,29.5z M-935.6,33.5
			l-0.7-1.6h-2.5l-0.7,1.6h-0.8l2.5-6.2h0.3l2.5,6.2H-935.6z"/>
		<path class="st3" d="M-990.5,43.5v-0.4c0.3-0.3,0.6-0.6,0.9-1c0.3-0.3,0.5-0.7,0.8-1c0.2-0.3,0.4-0.6,0.5-0.9
			c0.1-0.3,0.2-0.5,0.2-0.8c0-0.3-0.1-0.5-0.3-0.7c-0.2-0.2-0.4-0.2-0.7-0.2c-0.2,0-0.4,0-0.6,0.1c-0.2,0.1-0.4,0.2-0.6,0.3
			l-0.1-1.2c0.2-0.1,0.4-0.2,0.7-0.3c0.2-0.1,0.5-0.1,0.8-0.1c0.3,0,0.6,0,0.9,0.1c0.3,0.1,0.5,0.2,0.7,0.4c0.2,0.2,0.3,0.4,0.5,0.6
			c0.1,0.3,0.2,0.6,0.2,0.9c0,0.2-0.1,0.5-0.2,0.8c-0.1,0.3-0.2,0.6-0.4,0.8c-0.2,0.3-0.3,0.5-0.5,0.8c-0.2,0.2-0.4,0.5-0.5,0.6h1.9
			v1.2H-990.5z"/>
		<path class="st3" d="M-982.1,40.5c0-0.7-0.1-1.2-0.3-1.5c-0.2-0.3-0.4-0.5-0.7-0.5c-0.3,0-0.5,0.2-0.7,0.5
			c-0.2,0.3-0.3,0.8-0.3,1.5c0,0.3,0,0.6,0.1,0.9c0.1,0.3,0.1,0.5,0.2,0.6c0.1,0.2,0.2,0.3,0.3,0.4c0.1,0.1,0.2,0.1,0.4,0.1
			c0.3,0,0.5-0.2,0.7-0.5C-982.2,41.6-982.1,41.1-982.1,40.5 M-980.7,40.5c0,0.6-0.1,1-0.2,1.4c-0.1,0.4-0.3,0.7-0.5,1
			c-0.2,0.3-0.5,0.4-0.7,0.6c-0.3,0.1-0.6,0.2-0.9,0.2c-0.3,0-0.6-0.1-0.9-0.2c-0.3-0.1-0.5-0.3-0.7-0.6c-0.2-0.3-0.4-0.6-0.5-1
			c-0.1-0.4-0.2-0.9-0.2-1.4c0-0.6,0.1-1,0.2-1.4c0.1-0.4,0.3-0.7,0.5-1c0.2-0.3,0.5-0.4,0.7-0.6c0.3-0.1,0.6-0.2,0.9-0.2
			c0.3,0,0.6,0.1,0.9,0.2c0.3,0.1,0.5,0.3,0.7,0.6c0.2,0.3,0.4,0.6,0.5,1C-980.8,39.4-980.7,39.9-980.7,40.5"/>
		<polygon class="st3" points="-978.7,43.5 -978.7,38.6 -979.7,38.7 -979.6,37.5 -977.3,37.3 -977.3,43.5 		"/>
		<g>
			<path class="st3" d="M-973.4,39.1c-0.1,0.2-0.3,0.4-0.4,0.6l-0.9,1.2h1.3v-1.2C-973.4,39.5-973.4,39.3-973.4,39.1L-973.4,39.1z
				 M-972.2,42v1.5h-1.3V42h-2.4l-0.2-1.1l2.6-3.5h1.3V41h0.6V42H-972.2z"/>
		</g>
		<rect x="-969.9" y="40.3" class="st3" width="2.5" height="1.1"/>
		<path class="st3" d="M-966.3,43.5v-0.4c0.3-0.3,0.6-0.6,0.9-1c0.3-0.3,0.5-0.7,0.8-1c0.2-0.3,0.4-0.6,0.5-0.9
			c0.1-0.3,0.2-0.5,0.2-0.8c0-0.3-0.1-0.5-0.3-0.7c-0.2-0.2-0.4-0.2-0.7-0.2c-0.2,0-0.4,0-0.6,0.1c-0.2,0.1-0.4,0.2-0.6,0.3
			l-0.1-1.2c0.2-0.1,0.4-0.2,0.7-0.3c0.2-0.1,0.5-0.1,0.8-0.1c0.3,0,0.6,0,0.9,0.1s0.5,0.2,0.7,0.4c0.2,0.2,0.3,0.4,0.5,0.6
			c0.1,0.3,0.2,0.6,0.2,0.9c0,0.2-0.1,0.5-0.2,0.8c-0.1,0.3-0.2,0.6-0.4,0.8c-0.2,0.3-0.3,0.5-0.5,0.8c-0.2,0.2-0.4,0.5-0.5,0.6h1.9
			v1.2H-966.3z"/>
		<path class="st3" d="M-957.9,40.5c0-0.7-0.1-1.2-0.3-1.5c-0.2-0.3-0.4-0.5-0.7-0.5c-0.3,0-0.5,0.2-0.7,0.5
			c-0.2,0.3-0.3,0.8-0.3,1.5c0,0.3,0,0.6,0.1,0.9c0.1,0.3,0.1,0.5,0.2,0.6c0.1,0.2,0.2,0.3,0.3,0.4c0.1,0.1,0.2,0.1,0.4,0.1
			c0.3,0,0.5-0.2,0.7-0.5C-957.9,41.6-957.9,41.1-957.9,40.5 M-956.5,40.5c0,0.6-0.1,1-0.2,1.4c-0.1,0.4-0.3,0.7-0.5,1
			c-0.2,0.3-0.5,0.4-0.7,0.6c-0.3,0.1-0.6,0.2-0.9,0.2c-0.3,0-0.6-0.1-0.9-0.2c-0.3-0.1-0.5-0.3-0.7-0.6c-0.2-0.3-0.4-0.6-0.5-1
			c-0.1-0.4-0.2-0.9-0.2-1.4c0-0.6,0.1-1,0.2-1.4c0.1-0.4,0.3-0.7,0.5-1c0.2-0.3,0.5-0.4,0.7-0.6c0.3-0.1,0.6-0.2,0.9-0.2
			c0.3,0,0.6,0.1,0.9,0.2c0.3,0.1,0.5,0.3,0.7,0.6c0.2,0.3,0.4,0.6,0.5,1C-956.5,39.4-956.5,39.9-956.5,40.5"/>
		<path class="st3" d="M-955.7,43.5v-0.4c0.3-0.3,0.6-0.6,0.9-1c0.3-0.3,0.5-0.7,0.8-1c0.2-0.3,0.4-0.6,0.5-0.9
			c0.1-0.3,0.2-0.5,0.2-0.8c0-0.3-0.1-0.5-0.3-0.7c-0.2-0.2-0.4-0.2-0.7-0.2c-0.2,0-0.4,0-0.6,0.1c-0.2,0.1-0.4,0.2-0.6,0.3
			l-0.1-1.2c0.2-0.1,0.4-0.2,0.7-0.3c0.2-0.1,0.5-0.1,0.8-0.1c0.3,0,0.6,0,0.9,0.1c0.3,0.1,0.5,0.2,0.7,0.4c0.2,0.2,0.4,0.4,0.5,0.6
			c0.1,0.3,0.2,0.6,0.2,0.9c0,0.2-0.1,0.5-0.2,0.8c-0.1,0.3-0.2,0.6-0.4,0.8c-0.2,0.3-0.3,0.5-0.5,0.8c-0.2,0.2-0.4,0.5-0.5,0.6h1.9
			v1.2H-955.7z"/>
		<path class="st3" d="M-947.3,40.5c0-0.7-0.1-1.2-0.3-1.5c-0.2-0.3-0.4-0.5-0.7-0.5c-0.3,0-0.5,0.2-0.7,0.5
			c-0.2,0.3-0.3,0.8-0.3,1.5c0,0.3,0,0.6,0.1,0.9c0.1,0.3,0.1,0.5,0.2,0.6c0.1,0.2,0.2,0.3,0.3,0.4c0.1,0.1,0.2,0.1,0.4,0.1
			c0.3,0,0.5-0.2,0.7-0.5C-947.4,41.6-947.3,41.1-947.3,40.5 M-945.9,40.5c0,0.6-0.1,1-0.2,1.4c-0.1,0.4-0.3,0.7-0.5,1
			c-0.2,0.3-0.5,0.4-0.7,0.6c-0.3,0.1-0.6,0.2-0.9,0.2c-0.3,0-0.6-0.1-0.9-0.2c-0.3-0.1-0.5-0.3-0.7-0.6c-0.2-0.3-0.4-0.6-0.5-1
			c-0.1-0.4-0.2-0.9-0.2-1.4c0-0.6,0.1-1,0.2-1.4c0.1-0.4,0.3-0.7,0.5-1c0.2-0.3,0.5-0.4,0.7-0.6c0.3-0.1,0.6-0.2,0.9-0.2
			c0.3,0,0.6,0.1,0.9,0.2c0.3,0.1,0.5,0.3,0.7,0.6c0.2,0.3,0.4,0.6,0.5,1C-946,39.4-945.9,39.9-945.9,40.5"/>
	</g>
</g>
</svg>
