<?xml version="1.0" encoding="utf-8"?>
<!-- Generator: Adobe Illustrator 19.0.0, SVG Export Plug-In . SVG Version: 6.00 Build 0)  -->
<svg version="1.1" id="Layer_1" xmlns="http://www.w3.org/2000/svg" xmlns:xlink="http://www.w3.org/1999/xlink" x="0px" y="0px"
	 viewBox="-903 41.7 215.5 80.4" style="enable-background:new -903 41.7 215.5 80.4;" xml:space="preserve">
<style type="text/css">
	.st0{fill:#0071BB;}
	.st1{fill:#034EA1;}
	.st2{fill:#FFD559;}
	.st3{fill:#231F20;}
</style>
<g>
	<g>
		<g>
			<path class="st0" d="M-886.1,62.6c2.3-7.9,14.1-17.4,27.4-17.4c8.7,0,16.8,2.5,24.7,9.8c-0.7,0.5-1.4,1-2,1.6
				c-4.7-4-9.2-5.5-13.2-5.5c-7.6,0-13.3,5.4-14,8.9c0.7,3.5,6.4,8.9,14,8.9c4,0,8.6-1.5,13.2-5.5c3.9,3.4,8,4.6,8,4.6
				s-1.3-4.5-1.3-7.9c0-2.9,0.9-6.4,1.2-7.6c5.9-3.9,11-5.3,11-5.3s-2.5,8.7-2.5,15.5c0,6.8,2.5,15.5,2.5,15.5s-8.1-2.3-15.7-8.9
				c-6.6,7.5-16.3,10.8-25.6,10.8C-871.1,80-883.7,71.6-886.1,62.6"/>
		</g>
		<polygon class="st0" points="-903,88.7 -903,96.1 -898.7,96.1 -898.7,95.3 -902.1,95.3 -902.1,92.8 -899.6,92.8 -899.6,92 
			-902.1,92 -902.1,89.6 -899.1,89.6 -899.1,88.7 		"/>
		<g>
			<path class="st0" d="M-890.4,96.1l-0.3-3.6c0-0.6-0.1-1.2-0.1-1.8h0c-0.2,0.6-0.6,1.3-0.9,1.8l-1.8,3.6h-0.4l-1.8-3.6
				c-0.3-0.5-0.6-1.2-0.9-1.8h0c0,0.6-0.1,1.3-0.1,1.8l-0.3,3.6h-0.8l0.6-7.4h0.6l2,4c0.3,0.6,0.7,1.4,0.9,2h0
				c0.3-0.6,0.6-1.3,0.9-2l2-3.9h0.6l0.6,7.4H-890.4z"/>
		</g>
		<polygon class="st0" points="-886.9,89.6 -886.9,92 -884.3,92 -884.3,92.8 -886.9,92.8 -886.9,96.1 -887.9,96.1 -887.9,88.7 
			-883.9,88.7 -883.9,89.6 		"/>
		<polygon class="st0" points="-881.8,89.6 -881.8,92 -879.2,92 -879.2,92.8 -881.8,92.8 -881.8,96.1 -882.8,96.1 -882.8,88.7 
			-878.8,88.7 -878.8,89.6 		"/>
		<g>
			<path class="st0" d="M-871.2,89.4c-1.5,0-2.9,1.1-2.9,3c0,1.9,1.4,3,2.9,3c1.5,0,2.9-1.1,2.9-3
				C-868.2,90.6-869.7,89.4-871.2,89.4 M-871.2,96.2c-2,0-3.9-1.5-3.9-3.8c0-2.3,1.9-3.8,3.9-3.8c2,0,3.9,1.5,3.9,3.8
				C-867.3,94.8-869.2,96.2-871.2,96.2"/>
			<path class="st0" d="M-863.7,89.6h-1.1V92h1.2c0.7,0,1.4-0.4,1.4-1.2C-862.3,90-862.9,89.6-863.7,89.6 M-863.5,92.8h-1.3v3.3
				h-0.9v-7.4h2.2c1.1,0,2.2,0.7,2.2,2C-861.3,92.1-862.4,92.8-863.5,92.8"/>
		</g>
		<polygon class="st0" points="-859.8,96.1 -859.8,88.7 -855.9,88.7 -855.9,89.6 -858.9,89.6 -858.9,92 -856.4,92 -856.4,92.8 
			-858.9,92.8 -858.9,95.3 -855.5,95.3 -855.5,96.1 		"/>
		<g>
			<path class="st0" d="M-852.4,89.6h-1V92h1c0.7,0,1.4-0.4,1.4-1.2C-851,90-851.7,89.6-852.4,89.6 M-850.1,96.1l-2.4-3.3h-1v3.3
				h-0.9v-7.4h2.1c1.1,0,2.2,0.7,2.2,2c0,1-0.6,1.6-1.4,1.9l2.6,3.5H-850.1z"/>
			<path class="st0" d="M-845.1,91.3c-0.1-0.3-0.2-0.7-0.3-1h0c-0.1,0.3-0.2,0.7-0.4,1l-0.8,2h2.3L-845.1,91.3z M-843.1,96.1l-0.8-2
				h-3l-0.8,2h-0.9l3.1-7.5h0.3l3.1,7.5H-843.1z"/>
		</g>
		<polygon class="st0" points="-839,89.6 -839,96.1 -839.9,96.1 -839.9,89.6 -842.4,89.6 -842.4,88.7 -836.5,88.7 -836.5,89.6 		"/>
		<rect x="-835.3" y="88.7" class="st0" width="0.9" height="7.4"/>
		<g>
			<path class="st0" d="M-828.8,89.4c-1.5,0-2.9,1.1-2.9,3c0,1.9,1.4,3,2.9,3c1.5,0,2.9-1.1,2.9-3
				C-825.9,90.6-827.4,89.4-828.8,89.4 M-828.8,96.2c-2,0-3.9-1.5-3.9-3.8c0-2.3,1.9-3.8,3.9-3.8c2,0,3.9,1.5,3.9,3.8
				C-824.9,94.8-826.8,96.2-828.8,96.2"/>
			<path class="st0" d="M-817.2,96.2l-3.5-3.9c-0.6-0.6-1.2-1.4-1.7-2l0,0c0,0.7,0,1.3,0,1.9v3.9h-0.9v-7.4h0.7l3.3,3.7
				c0.5,0.5,1.1,1.3,1.6,1.9l0,0c0-0.6,0-1.3,0-1.8v-3.7h0.9v7.5H-817.2z"/>
			<path class="st0" d="M-812,91.3c-0.1-0.3-0.2-0.7-0.3-1h0c-0.1,0.3-0.2,0.7-0.4,1l-0.8,2h2.3L-812,91.3z M-810,96.1l-0.8-2h-3
				l-0.8,2h-0.9l3.1-7.5h0.3l3.1,7.5H-810z"/>
		</g>
		<polygon class="st0" points="-807.7,96.1 -807.7,88.7 -806.8,88.7 -806.8,95.3 -803.5,95.3 -803.5,96.1 		"/>
		<path class="st0" d="M-885.7,102h-1.1v2.5h1.2c0.7,0,1.4-0.4,1.4-1.2C-884.3,102.5-884.9,102-885.7,102 M-885.5,105.3h-1.3v3.3
			h-0.9v-7.4h2.2c1.1,0,2.2,0.7,2.2,2C-883.3,104.6-884.4,105.3-885.5,105.3"/>
		<path class="st0" d="M-879.9,102h-1v2.5h1c0.7,0,1.4-0.4,1.4-1.2C-878.5,102.5-879.1,102-879.9,102 M-877.5,108.6l-2.4-3.3h-1v3.3
			h-0.9v-7.4h2.1c1.1,0,2.2,0.7,2.2,2c0,1-0.6,1.6-1.4,1.9l2.5,3.4H-877.5z"/>
		<path class="st0" d="M-872.3,101.9c-1.5,0-2.9,1.1-2.9,3c0,1.9,1.4,3,2.9,3c1.5,0,2.9-1.1,2.9-3
			C-869.4,103.1-870.9,101.9-872.3,101.9 M-872.3,108.7c-2,0-3.9-1.5-3.9-3.8c0-2.3,1.9-3.8,3.9-3.8c2,0,3.9,1.5,3.9,3.8
			C-868.5,107.2-870.3,108.7-872.3,108.7"/>
		<path class="st0" d="M-863.2,108.7c-2,0-4-1.4-4-3.8c0-2.5,2-3.8,3.9-3.8c1,0,1.8,0.2,2.3,0.6l-0.2,0.8c-0.5-0.3-1.3-0.6-2.1-0.6
			c-1.6,0-3.1,1.1-3.1,3c0,1.9,1.5,3,3.1,3c0.8,0,1.4-0.2,1.7-0.4v-1.8h-1.8v-0.8h2.7v3C-861.2,108.5-862.1,108.7-863.2,108.7"/>
		<path class="st0" d="M-856.9,102h-1v2.5h1c0.7,0,1.4-0.4,1.4-1.2C-855.5,102.5-856.1,102-856.9,102 M-854.5,108.6l-2.4-3.3h-1v3.3
			h-0.9v-7.4h2.1c1.1,0,2.2,0.7,2.2,2c0,1-0.6,1.6-1.4,1.9l2.5,3.4H-854.5z"/>
		<path class="st0" d="M-849.5,103.8c-0.1-0.3-0.2-0.7-0.3-1h0c-0.1,0.3-0.2,0.7-0.4,1l-0.8,2h2.3L-849.5,103.8z M-847.6,108.6
			l-0.8-2h-3l-0.8,2h-0.9l3.1-7.5h0.3l3.1,7.5H-847.6z"/>
		<path class="st0" d="M-838.1,108.6l-0.3-3.6c0-0.6-0.1-1.2-0.1-1.8h0c-0.2,0.6-0.6,1.3-0.9,1.8l-1.8,3.6h-0.4l-1.8-3.6
			c-0.3-0.5-0.6-1.2-0.9-1.8h0c0,0.6-0.1,1.3-0.1,1.8l-0.3,3.6h-0.8l0.6-7.4h0.6l2,4c0.3,0.6,0.7,1.4,0.9,2h0c0.3-0.6,0.6-1.3,0.9-2
			l2-3.9h0.6l0.6,7.4H-838.1z"/>
		<path class="st0" d="M-828.4,108.6l-0.3-3.6c0-0.6-0.1-1.2-0.1-1.8h0c-0.2,0.6-0.6,1.3-0.9,1.8l-1.8,3.6h-0.4l-1.8-3.6
			c-0.3-0.5-0.6-1.2-0.9-1.8h0c0,0.6-0.1,1.3-0.1,1.8l-0.3,3.6h-0.8l0.6-7.4h0.6l2,4c0.3,0.6,0.7,1.4,0.9,2h0c0.3-0.6,0.6-1.3,0.9-2
			l2-3.9h0.6l0.6,7.4H-828.4z"/>
		<polygon class="st0" points="-825.9,108.6 -825.9,101.2 -822,101.2 -822,102 -825,102 -825,104.5 -822.5,104.5 -822.5,105.3 
			-825,105.3 -825,107.8 -821.6,107.8 -821.6,108.6 		"/>
		<g>
			<path class="st0" d="M-880.6,121.1v-0.4c0.4-0.4,0.7-0.8,1.1-1.2c0.3-0.4,0.7-0.8,0.9-1.2c0.3-0.4,0.5-0.8,0.6-1.1
				c0.2-0.4,0.2-0.7,0.2-0.9c0-0.4-0.1-0.6-0.3-0.8c-0.2-0.2-0.5-0.3-0.8-0.3c-0.3,0-0.5,0-0.8,0.1c-0.2,0.1-0.5,0.2-0.7,0.3
				l-0.1-1.5c0.2-0.1,0.5-0.2,0.8-0.3c0.3-0.1,0.6-0.1,1-0.1c0.4,0,0.7,0.1,1.1,0.2c0.3,0.1,0.6,0.3,0.8,0.5
				c0.2,0.2,0.4,0.5,0.6,0.8c0.1,0.3,0.2,0.7,0.2,1.1c0,0.3-0.1,0.6-0.2,1c-0.1,0.3-0.3,0.7-0.5,1c-0.2,0.3-0.4,0.6-0.6,0.9
				c-0.2,0.3-0.4,0.6-0.6,0.8h2.3v1.4H-880.6z"/>
			<path class="st0" d="M-870.4,117.4c0-0.8-0.1-1.4-0.3-1.8c-0.2-0.4-0.5-0.6-0.8-0.6c-0.3,0-0.6,0.2-0.8,0.6
				c-0.2,0.4-0.3,1-0.3,1.8c0,0.4,0,0.8,0.1,1.1c0.1,0.3,0.1,0.6,0.3,0.8c0.1,0.2,0.2,0.3,0.4,0.4c0.1,0.1,0.3,0.1,0.4,0.1
				c0.3,0,0.6-0.2,0.8-0.6C-870.5,118.8-870.4,118.2-870.4,117.4 M-868.7,117.4c0,0.7-0.1,1.3-0.2,1.7c-0.2,0.5-0.4,0.9-0.6,1.2
				c-0.3,0.3-0.6,0.5-0.9,0.7c-0.3,0.1-0.7,0.2-1.1,0.2c-0.4,0-0.7-0.1-1.1-0.2c-0.3-0.2-0.6-0.4-0.9-0.7c-0.3-0.3-0.5-0.7-0.6-1.2
				c-0.2-0.5-0.2-1.1-0.2-1.7c0-0.7,0.1-1.2,0.2-1.7c0.2-0.5,0.4-0.9,0.6-1.2c0.3-0.3,0.6-0.5,0.9-0.7c0.3-0.1,0.7-0.2,1.1-0.2
				c0.4,0,0.7,0.1,1.1,0.2c0.3,0.1,0.6,0.4,0.9,0.7c0.3,0.3,0.5,0.7,0.6,1.2C-868.8,116.1-868.7,116.7-868.7,117.4"/>
		</g>
		<polygon class="st0" points="-866.2,121.1 -866.2,115.2 -867.5,115.3 -867.4,113.8 -864.6,113.6 -864.6,121.1 		"/>
		<g>
			<path class="st0" d="M-859.9,115.7c-0.2,0.3-0.3,0.5-0.5,0.8l-1.1,1.5h1.6v-1.5C-859.9,116.3-859.9,116-859.9,115.7L-859.9,115.7
				z M-858.4,119.3v1.8h-1.6v-1.8h-2.9l-0.2-1.3l3.2-4.3h1.5v4.3h0.8v1.3H-858.4z"/>
		</g>
		<rect x="-855.6" y="117.2" class="st0" width="3" height="1.3"/>
		<g>
			<path class="st0" d="M-851.3,121.1v-0.4c0.4-0.4,0.7-0.8,1.1-1.2c0.3-0.4,0.7-0.8,0.9-1.2c0.3-0.4,0.5-0.8,0.6-1.1
				c0.2-0.4,0.2-0.7,0.2-0.9c0-0.4-0.1-0.6-0.3-0.8c-0.2-0.2-0.5-0.3-0.8-0.3c-0.3,0-0.5,0-0.8,0.1c-0.2,0.1-0.5,0.2-0.7,0.3
				l-0.1-1.5c0.2-0.1,0.5-0.2,0.8-0.3c0.3-0.1,0.6-0.1,1-0.1c0.4,0,0.7,0.1,1.1,0.2c0.3,0.1,0.6,0.3,0.8,0.5
				c0.2,0.2,0.4,0.5,0.6,0.8c0.1,0.3,0.2,0.7,0.2,1.1c0,0.3-0.1,0.6-0.2,1c-0.1,0.3-0.3,0.7-0.5,1c-0.2,0.3-0.4,0.6-0.6,0.9
				c-0.2,0.3-0.4,0.6-0.6,0.8h2.3v1.4H-851.3z"/>
			<path class="st0" d="M-841.1,117.4c0-0.8-0.1-1.4-0.3-1.8c-0.2-0.4-0.5-0.6-0.8-0.6c-0.3,0-0.6,0.2-0.8,0.6
				c-0.2,0.4-0.3,1-0.3,1.8c0,0.4,0,0.8,0.1,1.1c0.1,0.3,0.1,0.6,0.3,0.8c0.1,0.2,0.2,0.3,0.4,0.4c0.1,0.1,0.3,0.1,0.4,0.1
				c0.3,0,0.6-0.2,0.8-0.6C-841.2,118.8-841.1,118.2-841.1,117.4 M-839.4,117.4c0,0.7-0.1,1.3-0.2,1.7s-0.4,0.9-0.6,1.2
				c-0.3,0.3-0.6,0.5-0.9,0.7c-0.3,0.1-0.7,0.2-1.1,0.2c-0.4,0-0.7-0.1-1.1-0.2c-0.3-0.2-0.6-0.4-0.9-0.7c-0.3-0.3-0.5-0.7-0.6-1.2
				c-0.2-0.5-0.2-1.1-0.2-1.7c0-0.7,0.1-1.2,0.2-1.7c0.2-0.5,0.4-0.9,0.6-1.2c0.3-0.3,0.6-0.5,0.9-0.7c0.3-0.1,0.7-0.2,1.1-0.2
				c0.4,0,0.7,0.1,1.1,0.2c0.3,0.1,0.6,0.4,0.9,0.7c0.3,0.3,0.5,0.7,0.6,1.2C-839.5,116.1-839.4,116.7-839.4,117.4"/>
			<path class="st0" d="M-838.4,121.1v-0.4c0.4-0.4,0.7-0.8,1.1-1.2c0.3-0.4,0.7-0.8,0.9-1.2c0.3-0.4,0.5-0.8,0.6-1.1
				c0.2-0.4,0.2-0.7,0.2-0.9c0-0.4-0.1-0.6-0.3-0.8c-0.2-0.2-0.5-0.3-0.8-0.3c-0.3,0-0.5,0-0.8,0.1c-0.2,0.1-0.5,0.2-0.7,0.3
				l-0.1-1.5c0.2-0.1,0.5-0.2,0.8-0.3c0.3-0.1,0.6-0.1,1-0.1c0.4,0,0.7,0.1,1.1,0.2c0.3,0.1,0.6,0.3,0.8,0.5
				c0.2,0.2,0.4,0.5,0.6,0.8c0.1,0.3,0.2,0.7,0.2,1.1c0,0.3-0.1,0.6-0.2,1c-0.1,0.3-0.3,0.7-0.5,1c-0.2,0.3-0.4,0.6-0.6,0.9
				c-0.2,0.3-0.4,0.6-0.6,0.8h2.3v1.4H-838.4z"/>
			<path class="st0" d="M-828.3,117.4c0-0.8-0.1-1.4-0.3-1.8c-0.2-0.4-0.5-0.6-0.8-0.6c-0.3,0-0.6,0.2-0.8,0.6
				c-0.2,0.4-0.3,1-0.3,1.8c0,0.4,0,0.8,0.1,1.1c0.1,0.3,0.1,0.6,0.3,0.8c0.1,0.2,0.2,0.3,0.4,0.4c0.1,0.1,0.3,0.1,0.4,0.1
				c0.3,0,0.6-0.2,0.8-0.6C-828.4,118.8-828.3,118.2-828.3,117.4 M-826.6,117.4c0,0.7-0.1,1.3-0.2,1.7c-0.2,0.5-0.4,0.9-0.6,1.2
				c-0.3,0.3-0.6,0.5-0.9,0.7c-0.3,0.1-0.7,0.2-1.1,0.2c-0.4,0-0.7-0.1-1.1-0.2c-0.3-0.2-0.6-0.4-0.9-0.7c-0.3-0.3-0.5-0.7-0.6-1.2
				c-0.2-0.5-0.2-1.1-0.2-1.7c0-0.7,0.1-1.2,0.2-1.7c0.2-0.5,0.4-0.9,0.6-1.2c0.3-0.3,0.6-0.5,0.9-0.7c0.3-0.1,0.7-0.2,1.1-0.2
				c0.4,0,0.7,0.1,1.1,0.2c0.3,0.1,0.6,0.4,0.9,0.7c0.3,0.3,0.5,0.7,0.6,1.2C-826.7,116.1-826.6,116.7-826.6,117.4"/>
		</g>
	</g>
	<g>
		<rect x="-780.7" y="41.7" class="st1" width="93.1" height="62.1"/>
		<polygon class="st2" points="-736.1,55.2 -734.1,53.8 -732.2,55.2 -732.9,52.9 -730.9,51.5 -733.4,51.5 -734.1,49.1 -734.9,51.5 
			-737.3,51.5 -735.3,52.9 		"/>
		<polygon class="st2" points="-746.3,58 -744.3,56.5 -742.3,58 -743.1,55.6 -741.1,54.2 -743.5,54.2 -744.3,51.9 -745.1,54.2 
			-747.5,54.2 -745.5,55.6 		"/>
		<polygon class="st2" points="-751.7,59.3 -752.5,61.7 -755,61.7 -753,63.1 -753.7,65.4 -751.7,64 -749.8,65.4 -750.5,63.1 
			-748.5,61.7 -751,61.7 		"/>
		<polygon class="st2" points="-754.5,74.1 -752.5,75.6 -753.3,73.3 -751.3,71.8 -753.7,71.8 -754.5,69.5 -755.2,71.8 -757.7,71.8 
			-755.7,73.3 -756.4,75.6 		"/>
		<polygon class="st2" points="-751,82 -751.7,79.7 -752.5,82 -755,82 -753,83.4 -753.7,85.8 -751.7,84.3 -749.8,85.8 -750.5,83.4 
			-748.5,82 		"/>
		<polygon class="st2" points="-743.5,89.5 -744.3,87.1 -745,89.5 -747.5,89.5 -745.5,90.9 -746.2,93.2 -744.3,91.8 -742.3,93.2 
			-743.1,90.9 -741.1,89.5 		"/>
		<polygon class="st2" points="-733.4,92.2 -734.1,89.8 -734.9,92.2 -737.3,92.2 -735.3,93.6 -736.1,95.9 -734.1,94.5 -732.2,95.9 
			-732.9,93.6 -730.9,92.2 		"/>
		<polygon class="st2" points="-723.2,89.5 -724,87.1 -724.7,89.5 -727.2,89.5 -725.2,90.9 -725.9,93.2 -724,91.8 -722,93.2 
			-722.7,90.9 -720.8,89.5 		"/>
		<polygon class="st2" points="-715.8,82 -716.5,79.7 -717.3,82 -719.7,82 -717.7,83.4 -718.5,85.8 -716.5,84.3 -714.5,85.8 
			-715.3,83.4 -713.3,82 		"/>
		<polygon class="st2" points="-710.6,71.8 -713.1,71.8 -713.8,69.4 -714.6,71.8 -717,71.8 -715,73.2 -715.8,75.6 -713.8,74.1 
			-711.8,75.6 -712.6,73.2 		"/>
		<polygon class="st2" points="-718.5,65.4 -716.5,64 -714.5,65.4 -715.3,63.1 -713.3,61.6 -715.8,61.6 -716.5,59.3 -717.3,61.6 
			-719.7,61.6 -717.7,63.1 		"/>
		<polygon class="st2" points="-723.9,51.9 -724.7,54.2 -727.1,54.2 -725.2,55.6 -725.9,58 -723.9,56.5 -722,58 -722.7,55.6 
			-720.7,54.2 -723.2,54.2 		"/>
		<polygon class="st3" points="-755.2,108.1 -755.2,109.4 -753.8,109.4 -753.8,109.9 -755.2,109.9 -755.2,111.5 -753.2,111.5 
			-753.2,112.1 -755.9,112.1 -755.9,107.6 -753.2,107.6 -753.2,108.1 		"/>
		<g>
			<path class="st3" d="M-752,108.8v2.1c0,0.5,0.2,0.8,0.7,0.8c0.2,0,0.4-0.1,0.5-0.2c0.2-0.1,0.3-0.2,0.3-0.4v-2.3h0.6v3.3h-0.6
				v-0.5c-0.1,0.1-0.2,0.2-0.4,0.4c-0.2,0.1-0.4,0.2-0.6,0.2c-0.4,0-0.6-0.1-0.8-0.3c-0.2-0.2-0.3-0.5-0.3-0.9v-2.1H-752z"/>
			<path class="st3" d="M-747.3,109.4c-0.1-0.1-0.3-0.1-0.4-0.1c-0.2,0-0.4,0.1-0.5,0.3c-0.2,0.2-0.2,0.4-0.2,0.7v1.9h-0.6v-3.3h0.6
				v0.5c0.2-0.4,0.5-0.6,0.9-0.6c0.1,0,0.3,0,0.4,0.1L-747.3,109.4z"/>
			<path class="st3" d="M-746.2,110.4c0,0.8,0.3,1.2,0.9,1.2c0.3,0,0.5-0.1,0.6-0.3c0.2-0.2,0.2-0.5,0.2-0.9c0-0.8-0.3-1.2-0.9-1.2
				c-0.3,0-0.5,0.1-0.6,0.3C-746.2,109.7-746.2,110-746.2,110.4 M-746.8,110.4c0-0.5,0.1-0.9,0.4-1.2c0.3-0.3,0.6-0.5,1.1-0.5
				c0.5,0,0.8,0.1,1.1,0.4c0.3,0.3,0.4,0.7,0.4,1.2c0,0.5-0.1,0.9-0.4,1.2c-0.3,0.3-0.6,0.5-1.1,0.5c-0.5,0-0.8-0.2-1.1-0.5
				C-746.7,111.4-746.8,110.9-746.8,110.4"/>
			<path class="st3" d="M-742.7,109.5v1.9c0,0.1,0.1,0.1,0.2,0.2c0.1,0,0.2,0.1,0.3,0.1c0.7,0,1.1-0.4,1.1-1.2
				c0-0.4-0.1-0.7-0.3-0.9c-0.2-0.2-0.4-0.3-0.8-0.3c-0.1,0-0.2,0-0.3,0.1C-742.5,109.4-742.6,109.4-742.7,109.5 M-742.7,111.9v1.5
				h-0.6v-4.5h0.6v0.3c0.2-0.2,0.5-0.3,0.8-0.3c0.5,0,0.8,0.1,1.1,0.4c0.3,0.3,0.4,0.7,0.4,1.3c0,0.5-0.1,0.9-0.4,1.2
				c-0.3,0.3-0.6,0.5-1.1,0.5c-0.1,0-0.3,0-0.4-0.1C-742.5,112-742.6,111.9-742.7,111.9"/>
			<path class="st3" d="M-738.4,109.2c-0.3,0-0.5,0.1-0.6,0.2c-0.2,0.2-0.3,0.4-0.3,0.6h1.8c0-0.2-0.1-0.4-0.2-0.6
				C-737.9,109.3-738.1,109.2-738.4,109.2 M-737,110.5h-2.4c0,0.4,0.1,0.7,0.3,0.9c0.2,0.2,0.4,0.3,0.7,0.3c0.3,0,0.6-0.1,0.8-0.3
				l0.2,0.4c-0.1,0.1-0.2,0.2-0.4,0.2c-0.2,0.1-0.5,0.1-0.8,0.1c-0.4,0-0.8-0.1-1-0.4c-0.3-0.3-0.5-0.7-0.5-1.2c0-0.5,0.2-1,0.5-1.3
				c0.3-0.3,0.6-0.4,1-0.4c0.5,0,0.8,0.1,1.1,0.4c0.3,0.3,0.4,0.6,0.4,1C-737,110.3-737,110.4-737,110.5"/>
			<path class="st3" d="M-734.5,110.5c-0.2,0-0.3-0.1-0.4-0.1c-0.3,0-0.5,0.1-0.7,0.2c-0.2,0.2-0.3,0.3-0.3,0.5
				c0,0.3,0.2,0.5,0.6,0.5c0.3,0,0.6-0.1,0.8-0.4V110.5z M-734.5,111.7c-0.2,0.3-0.6,0.4-1.1,0.4c-0.3,0-0.5-0.1-0.7-0.3
				c-0.2-0.2-0.3-0.4-0.3-0.7c0-0.3,0.1-0.6,0.4-0.8c0.3-0.2,0.7-0.3,1.1-0.3c0.1,0,0.3,0,0.4,0.1c0-0.5-0.2-0.8-0.7-0.8
				c-0.4,0-0.6,0.1-0.8,0.3l-0.2-0.5c0.1-0.1,0.3-0.2,0.5-0.2c0.2-0.1,0.4-0.1,0.6-0.1c0.5,0,0.8,0.1,1,0.3c0.2,0.2,0.3,0.6,0.3,1
				v1.2c0,0.3,0.1,0.5,0.3,0.6v0.3c-0.2,0-0.4,0-0.5-0.1C-734.3,111.9-734.4,111.8-734.5,111.7"/>
			<path class="st3" d="M-731,112.1v-1.9c0-0.3-0.1-0.6-0.2-0.7c-0.1-0.1-0.3-0.2-0.5-0.2c-0.1,0-0.3,0-0.4,0.1
				c-0.1,0.1-0.3,0.2-0.3,0.3v2.4h-0.6v-3.3h0.4l0.2,0.4c0.2-0.3,0.5-0.5,0.9-0.5c0.7,0,1.1,0.4,1.1,1.3v2H-731z"/>
			<path class="st3" d="M-727.6,107.6h0.6v3.1c0,0.3,0.1,0.5,0.3,0.7c0.2,0.2,0.4,0.3,0.7,0.3c0.3,0,0.5-0.1,0.7-0.3
				c0.2-0.2,0.3-0.4,0.3-0.7v-3h0.6v3.1c0,0.5-0.1,0.8-0.4,1.1c-0.3,0.3-0.7,0.4-1.2,0.4c-0.5,0-0.9-0.1-1.2-0.4
				c-0.3-0.2-0.4-0.6-0.4-1.1V107.6z"/>
			<path class="st3" d="M-721.6,112.1v-1.9c0-0.3-0.1-0.6-0.2-0.7c-0.1-0.1-0.3-0.2-0.5-0.2c-0.1,0-0.3,0-0.4,0.1
				c-0.1,0.1-0.3,0.2-0.3,0.3v2.4h-0.6v-3.3h0.4l0.2,0.4c0.2-0.3,0.5-0.5,0.9-0.5c0.7,0,1.1,0.4,1.1,1.3v2H-721.6z"/>
			<path class="st3" d="M-719.5,107.6c0.1,0,0.2,0,0.3,0.1c0.1,0.1,0.1,0.2,0.1,0.3c0,0.1,0,0.2-0.1,0.3c-0.1,0.1-0.2,0.1-0.3,0.1
				c-0.1,0-0.2,0-0.3-0.1c-0.1-0.1-0.1-0.2-0.1-0.3c0-0.1,0-0.2,0.1-0.3C-719.7,107.6-719.6,107.6-719.5,107.6 M-719.9,112.1v-2.8
				h-0.4v-0.5h1v3.3H-719.9z"/>
			<path class="st3" d="M-717.9,110.4c0,0.8,0.3,1.2,0.9,1.2c0.3,0,0.5-0.1,0.6-0.3c0.2-0.2,0.2-0.5,0.2-0.9c0-0.8-0.3-1.2-0.9-1.2
				c-0.3,0-0.5,0.1-0.6,0.3C-717.8,109.7-717.9,110-717.9,110.4 M-718.5,110.4c0-0.5,0.1-0.9,0.4-1.2c0.3-0.3,0.6-0.5,1.1-0.5
				c0.5,0,0.8,0.1,1.1,0.4c0.3,0.3,0.4,0.7,0.4,1.2c0,0.5-0.1,0.9-0.4,1.2c-0.3,0.3-0.6,0.5-1.1,0.5c-0.5,0-0.8-0.2-1.1-0.5
				C-718.4,111.4-718.5,110.9-718.5,110.4"/>
			<path class="st3" d="M-712.9,112.1v-1.9c0-0.3-0.1-0.6-0.2-0.7c-0.1-0.1-0.3-0.2-0.5-0.2c-0.1,0-0.3,0-0.4,0.1
				c-0.1,0.1-0.3,0.2-0.3,0.3v2.4h-0.6v-3.3h0.4l0.2,0.4c0.2-0.3,0.5-0.5,0.9-0.5c0.7,0,1.1,0.4,1.1,1.3v2H-712.9z"/>
		</g>
		<polygon class="st3" points="-780.2,117.4 -780.2,118.5 -778.9,118.5 -778.9,119 -780.2,119 -780.2,120.4 -778.4,120.4 
			-778.4,120.9 -780.7,120.9 -780.7,116.9 -778.3,116.9 -778.3,117.4 		"/>
		<g>
			<path class="st3" d="M-777.3,118v1.9c0,0.5,0.2,0.7,0.6,0.7c0.2,0,0.3,0,0.5-0.1s0.2-0.2,0.3-0.3V118h0.5v2.9h-0.5v-0.4
				c-0.1,0.1-0.2,0.2-0.4,0.3c-0.2,0.1-0.3,0.1-0.5,0.1c-0.3,0-0.6-0.1-0.7-0.3c-0.2-0.2-0.3-0.4-0.3-0.8V118H-777.3z"/>
			<path class="st3" d="M-773.2,118.5c-0.1-0.1-0.2-0.1-0.3-0.1c-0.2,0-0.3,0.1-0.5,0.3c-0.1,0.2-0.2,0.4-0.2,0.6v1.7h-0.5V118h0.5
				v0.5c0.2-0.3,0.5-0.5,0.8-0.5c0.1,0,0.2,0,0.4,0L-773.2,118.5z"/>
			<path class="st3" d="M-772.3,119.4c0,0.7,0.3,1.1,0.8,1.1c0.2,0,0.4-0.1,0.6-0.3c0.1-0.2,0.2-0.5,0.2-0.8c0-0.7-0.3-1.1-0.8-1.1
				c-0.2,0-0.4,0.1-0.6,0.3C-772.3,118.8-772.3,119.1-772.3,119.4 M-772.9,119.4c0-0.5,0.1-0.8,0.4-1.1c0.2-0.3,0.6-0.4,1-0.4
				c0.4,0,0.7,0.1,1,0.4c0.2,0.3,0.3,0.6,0.3,1.1c0,0.5-0.1,0.8-0.4,1.1c-0.2,0.3-0.6,0.4-1,0.4c-0.4,0-0.7-0.1-1-0.4
				C-772.8,120.3-772.9,119.9-772.9,119.4"/>
			<path class="st3" d="M-769.2,118.6v1.7c0,0,0.1,0.1,0.2,0.1c0.1,0,0.2,0.1,0.3,0.1c0.6,0,1-0.4,1-1.1c0-0.4-0.1-0.6-0.2-0.8
				c-0.2-0.2-0.4-0.3-0.7-0.3c-0.1,0-0.2,0-0.3,0.1C-769.1,118.5-769.1,118.5-769.2,118.6 M-769.2,120.7v1.3h-0.5V118h0.5v0.2
				c0.2-0.2,0.4-0.3,0.7-0.3c0.4,0,0.7,0.1,1,0.4c0.2,0.3,0.3,0.6,0.3,1.1c0,0.4-0.1,0.8-0.4,1.1c-0.2,0.3-0.6,0.4-1,0.4
				c-0.1,0-0.3,0-0.4-0.1C-769.1,120.9-769.2,120.8-769.2,120.7"/>
			<path class="st3" d="M-765.4,118.4c-0.2,0-0.4,0.1-0.6,0.2c-0.1,0.1-0.2,0.3-0.3,0.5h1.6c0-0.2-0.1-0.4-0.2-0.5
				C-765,118.4-765.2,118.4-765.4,118.4 M-764.2,119.5h-2.1c0,0.3,0.1,0.6,0.3,0.8c0.2,0.2,0.4,0.2,0.6,0.2c0.3,0,0.5-0.1,0.7-0.3
				l0.2,0.4c-0.1,0.1-0.2,0.1-0.4,0.2c-0.2,0.1-0.4,0.1-0.7,0.1c-0.4,0-0.7-0.1-0.9-0.4c-0.3-0.3-0.4-0.6-0.4-1.1
				c0-0.5,0.1-0.9,0.4-1.2c0.3-0.3,0.6-0.4,0.9-0.4c0.4,0,0.7,0.1,1,0.4c0.2,0.2,0.3,0.5,0.3,0.9
				C-764.1,119.3-764.2,119.4-764.2,119.5"/>
			<path class="st3" d="M-762,119.5c-0.2,0-0.3-0.1-0.3-0.1c-0.3,0-0.5,0.1-0.6,0.2c-0.2,0.1-0.2,0.3-0.2,0.5c0,0.3,0.2,0.5,0.5,0.5
				c0.3,0,0.5-0.1,0.7-0.4V119.5z M-762,120.6c-0.2,0.3-0.5,0.4-1,0.4c-0.2,0-0.4-0.1-0.6-0.3c-0.2-0.2-0.3-0.4-0.3-0.6
				c0-0.3,0.1-0.5,0.4-0.8c0.3-0.2,0.6-0.3,1-0.3c0.1,0,0.2,0,0.4,0.1c0-0.5-0.2-0.7-0.6-0.7c-0.3,0-0.6,0.1-0.8,0.3l-0.2-0.4
				c0.1-0.1,0.2-0.1,0.4-0.2c0.2-0.1,0.3-0.1,0.5-0.1c0.4,0,0.7,0.1,0.9,0.3c0.2,0.2,0.3,0.5,0.3,0.9v1.1c0,0.3,0.1,0.4,0.2,0.5v0.3
				c-0.2,0-0.4,0-0.5-0.1C-761.9,120.8-761.9,120.7-762,120.6"/>
			<path class="st3" d="M-758.9,120.9v-1.7c0-0.3,0-0.5-0.1-0.7c-0.1-0.1-0.3-0.2-0.5-0.2c-0.1,0-0.2,0-0.4,0.1
				c-0.1,0.1-0.2,0.2-0.3,0.3v2.2h-0.5V118h0.4l0.2,0.4c0.2-0.3,0.5-0.4,0.8-0.4c0.6,0,1,0.4,1,1.2v1.8H-758.9z"/>
		</g>
		<polygon class="st3" points="-753,120.9 -753.5,118.3 -754.4,121 -754.5,121 -755.4,118.3 -755.9,120.9 -756.4,120.9 
			-755.7,116.9 -755.4,116.9 -754.5,119.8 -753.6,116.9 -753.3,116.9 -752.5,120.9 		"/>
		<path class="st3" d="M-750.6,119.5c-0.2,0-0.3-0.1-0.3-0.1c-0.3,0-0.5,0.1-0.6,0.2c-0.2,0.1-0.2,0.3-0.2,0.5
			c0,0.3,0.2,0.5,0.5,0.5c0.3,0,0.5-0.1,0.7-0.4V119.5z M-750.5,120.6c-0.2,0.3-0.5,0.4-1,0.4c-0.2,0-0.4-0.1-0.6-0.3
			c-0.2-0.2-0.3-0.4-0.3-0.6c0-0.3,0.1-0.5,0.4-0.8c0.3-0.2,0.6-0.3,1-0.3c0.1,0,0.2,0,0.4,0.1c0-0.5-0.2-0.7-0.6-0.7
			c-0.3,0-0.6,0.1-0.8,0.3l-0.2-0.4c0.1-0.1,0.2-0.1,0.4-0.2c0.2-0.1,0.3-0.1,0.5-0.1c0.4,0,0.7,0.1,0.9,0.3
			c0.2,0.2,0.3,0.5,0.3,0.9v1.1c0,0.3,0.1,0.4,0.2,0.5v0.3c-0.2,0-0.4,0-0.5-0.1C-750.4,120.8-750.5,120.7-750.5,120.6"/>
		<path class="st3" d="M-747.7,118.5c-0.1-0.1-0.2-0.1-0.3-0.1c-0.2,0-0.3,0.1-0.5,0.3c-0.1,0.2-0.2,0.4-0.2,0.6v1.7h-0.5V118h0.5
			v0.5c0.2-0.3,0.5-0.5,0.8-0.5c0.1,0,0.2,0,0.4,0L-747.7,118.5z"/>
		<path class="st3" d="M-746.6,116.9c0.1,0,0.2,0,0.2,0.1c0.1,0.1,0.1,0.1,0.1,0.2c0,0.1,0,0.2-0.1,0.2c-0.1,0.1-0.1,0.1-0.2,0.1
			c-0.1,0-0.2,0-0.2-0.1c-0.1-0.1-0.1-0.1-0.1-0.2c0-0.1,0-0.2,0.1-0.2C-746.8,116.9-746.7,116.9-746.6,116.9 M-746.9,120.9v-2.5
			h-0.4V118h0.9v2.9H-746.9z"/>
		<path class="st3" d="M-745.4,118.4h-0.3V118h0.3v-0.6l0.5-0.2v0.8h0.8v0.4h-0.8v1.5c0,0.2,0,0.4,0.1,0.5c0.1,0.1,0.2,0.2,0.4,0.2
			c0.1,0,0.3,0,0.4-0.1l0.1,0.5c-0.2,0.1-0.5,0.1-0.7,0.1c-0.2,0-0.4-0.1-0.6-0.3c-0.2-0.2-0.2-0.4-0.2-0.7V118.4z"/>
		<path class="st3" d="M-742.9,116.9c0.1,0,0.2,0,0.2,0.1c0.1,0.1,0.1,0.1,0.1,0.2c0,0.1,0,0.2-0.1,0.2c-0.1,0.1-0.1,0.1-0.2,0.1
			c-0.1,0-0.2,0-0.2-0.1c-0.1-0.1-0.1-0.1-0.1-0.2c0-0.1,0-0.2,0.1-0.2C-743.1,116.9-743,116.9-742.9,116.9 M-743.2,120.9v-2.5h-0.4
			V118h0.9v2.9H-743.2z"/>
		<path class="st3" d="M-738.5,120.9V119c0-0.5-0.2-0.7-0.6-0.7c-0.1,0-0.2,0-0.4,0.1c-0.1,0.1-0.2,0.2-0.2,0.3v2.2h-0.5v-2.1
			c0-0.1-0.1-0.3-0.2-0.3c-0.1-0.1-0.3-0.1-0.4-0.1c-0.1,0-0.2,0-0.3,0.1c-0.1,0.1-0.2,0.2-0.3,0.3v2.2h-0.5V118h0.3l0.2,0.3
			c0.2-0.3,0.5-0.4,0.8-0.4c0.4,0,0.7,0.1,0.9,0.4c0.1-0.1,0.2-0.2,0.3-0.3c0.2-0.1,0.3-0.1,0.5-0.1c0.3,0,0.5,0.1,0.7,0.3
			c0.2,0.2,0.2,0.4,0.2,0.8v2H-738.5z"/>
		<path class="st3" d="M-736.1,118.4c-0.2,0-0.4,0.1-0.6,0.2c-0.1,0.1-0.2,0.3-0.3,0.5h1.6c0-0.2-0.1-0.4-0.2-0.5
			C-735.6,118.4-735.8,118.4-736.1,118.4 M-734.8,119.5h-2.1c0,0.3,0.1,0.6,0.3,0.8c0.2,0.2,0.4,0.2,0.6,0.2c0.3,0,0.5-0.1,0.7-0.3
			l0.2,0.4c-0.1,0.1-0.2,0.1-0.4,0.2c-0.2,0.1-0.4,0.1-0.7,0.1c-0.4,0-0.7-0.1-0.9-0.4c-0.3-0.3-0.4-0.6-0.4-1.1
			c0-0.5,0.1-0.9,0.4-1.2c0.3-0.3,0.6-0.4,0.9-0.4c0.4,0,0.7,0.1,1,0.4c0.2,0.2,0.3,0.5,0.3,0.9
			C-734.8,119.3-734.8,119.4-734.8,119.5"/>
		<path class="st3" d="M-731,119.5c-0.2,0-0.3-0.1-0.3-0.1c-0.3,0-0.5,0.1-0.6,0.2c-0.2,0.1-0.2,0.3-0.2,0.5c0,0.3,0.2,0.5,0.5,0.5
			c0.3,0,0.5-0.1,0.7-0.4V119.5z M-731,120.6c-0.2,0.3-0.5,0.4-1,0.4c-0.2,0-0.4-0.1-0.6-0.3c-0.2-0.2-0.3-0.4-0.3-0.6
			c0-0.3,0.1-0.5,0.4-0.8c0.3-0.2,0.6-0.3,1-0.3c0.1,0,0.2,0,0.4,0.1c0-0.5-0.2-0.7-0.6-0.7c-0.3,0-0.6,0.1-0.8,0.3l-0.2-0.4
			c0.1-0.1,0.2-0.1,0.4-0.2c0.2-0.1,0.3-0.1,0.5-0.1c0.4,0,0.7,0.1,0.9,0.3c0.2,0.2,0.3,0.5,0.3,0.9v1.1c0,0.3,0.1,0.4,0.2,0.5v0.3
			c-0.2,0-0.4,0-0.5-0.1C-730.9,120.8-730.9,120.7-731,120.6"/>
		<path class="st3" d="M-727.9,120.9v-1.7c0-0.3,0-0.5-0.1-0.7c-0.1-0.1-0.3-0.2-0.5-0.2c-0.1,0-0.2,0-0.4,0.1
			c-0.1,0.1-0.2,0.2-0.3,0.3v2.2h-0.5V118h0.4l0.2,0.4c0.2-0.3,0.5-0.4,0.8-0.4c0.6,0,1,0.4,1,1.2v1.8H-727.9z"/>
		<path class="st3" d="M-724.9,118.6c-0.1-0.2-0.3-0.3-0.5-0.3c-0.3,0-0.5,0.1-0.7,0.3c-0.2,0.2-0.3,0.5-0.3,0.8
			c0,0.7,0.3,1.1,1,1.1c0.1,0,0.2,0,0.3-0.1c0.1-0.1,0.2-0.1,0.2-0.2V118.6z M-724.9,120.9v-0.2c-0.2,0.2-0.4,0.3-0.8,0.3
			c-0.4,0-0.7-0.1-0.9-0.4c-0.2-0.3-0.3-0.6-0.3-1.1c0-0.4,0.1-0.8,0.4-1.1c0.3-0.3,0.6-0.5,0.9-0.5c0.3,0,0.5,0.1,0.7,0.2v-1.4h0.5
			v4.1H-724.9z"/>
		<polygon class="st3" points="-721.4,117.4 -721.4,118.5 -720,118.5 -720,119 -721.4,119 -721.4,120.9 -722,120.9 -722,116.9 
			-719.5,116.9 -719.5,117.4 		"/>
		<path class="st3" d="M-718.6,116.9c0.1,0,0.2,0,0.2,0.1c0.1,0.1,0.1,0.1,0.1,0.2c0,0.1,0,0.2-0.1,0.2c-0.1,0.1-0.1,0.1-0.2,0.1
			c-0.1,0-0.2,0-0.2-0.1c-0.1-0.1-0.1-0.1-0.1-0.2c0-0.1,0-0.2,0.1-0.2C-718.8,116.9-718.7,116.9-718.6,116.9 M-718.9,120.9v-2.5
			h-0.4V118h0.9v2.9H-718.9z"/>
		<path class="st3" d="M-717.8,120.7l0.2-0.5c0.3,0.2,0.5,0.3,0.7,0.3c0.3,0,0.5-0.1,0.5-0.4c0-0.2-0.2-0.4-0.5-0.5
			c-0.2-0.1-0.4-0.2-0.5-0.2c-0.1-0.1-0.2-0.1-0.2-0.2c-0.1-0.1-0.1-0.1-0.1-0.2c0-0.1,0-0.2,0-0.3c0-0.2,0.1-0.4,0.3-0.6
			c0.2-0.1,0.4-0.2,0.7-0.2c0.2,0,0.5,0.1,0.8,0.2l-0.1,0.5c-0.2-0.2-0.4-0.2-0.6-0.2c-0.1,0-0.2,0-0.3,0.1
			c-0.1,0.1-0.1,0.1-0.1,0.2c0,0.2,0.1,0.3,0.3,0.4l0.4,0.2c0.2,0.1,0.4,0.2,0.5,0.4c0.1,0.1,0.2,0.3,0.2,0.5c0,0.3-0.1,0.5-0.3,0.6
			c-0.2,0.1-0.4,0.2-0.8,0.2C-717.2,121-717.5,120.9-717.8,120.7"/>
		<path class="st3" d="M-713.6,120.9v-1.8c0-0.2-0.1-0.4-0.2-0.5c-0.1-0.1-0.3-0.2-0.5-0.2c-0.1,0-0.3,0-0.4,0.1
			c-0.1,0.1-0.2,0.2-0.3,0.3v2.2h-0.5v-4.1h0.5v1.5c0.1-0.1,0.2-0.2,0.3-0.3c0.2-0.1,0.3-0.1,0.5-0.1c0.3,0,0.6,0.1,0.7,0.3
			c0.2,0.2,0.3,0.5,0.3,0.8v1.8H-713.6z"/>
		<path class="st3" d="M-711.2,118.4c-0.2,0-0.4,0.1-0.6,0.2c-0.1,0.1-0.2,0.3-0.3,0.5h1.6c0-0.2-0.1-0.4-0.2-0.5
			C-710.7,118.4-710.9,118.4-711.2,118.4 M-709.9,119.5h-2.1c0,0.3,0.1,0.6,0.3,0.8c0.2,0.2,0.4,0.2,0.6,0.2c0.3,0,0.5-0.1,0.7-0.3
			l0.2,0.4c-0.1,0.1-0.2,0.1-0.4,0.2c-0.2,0.1-0.4,0.1-0.7,0.1c-0.4,0-0.7-0.1-0.9-0.4c-0.3-0.3-0.4-0.6-0.4-1.1
			c0-0.5,0.1-0.9,0.4-1.2c0.3-0.3,0.6-0.4,0.9-0.4c0.4,0,0.7,0.1,1,0.4c0.2,0.2,0.3,0.5,0.3,0.9
			C-709.9,119.3-709.9,119.4-709.9,119.5"/>
		<path class="st3" d="M-707.8,118.5c-0.1-0.1-0.2-0.1-0.3-0.1c-0.2,0-0.3,0.1-0.5,0.3c-0.1,0.2-0.2,0.4-0.2,0.6v1.7h-0.5V118h0.5
			v0.5c0.2-0.3,0.5-0.5,0.8-0.5c0.1,0,0.2,0,0.4,0L-707.8,118.5z"/>
		<path class="st3" d="M-706.7,116.9c0.1,0,0.2,0,0.2,0.1c0.1,0.1,0.1,0.1,0.1,0.2c0,0.1,0,0.2-0.1,0.2c-0.1,0.1-0.1,0.1-0.2,0.1
			c-0.1,0-0.2,0-0.2-0.1c-0.1-0.1-0.1-0.1-0.1-0.2c0-0.1,0-0.2,0.1-0.2C-706.9,116.9-706.8,116.9-706.7,116.9 M-707,120.9v-2.5h-0.4
			V118h0.9v2.9H-707z"/>
		<path class="st3" d="M-704.5,118.4c-0.2,0-0.4,0.1-0.6,0.2c-0.1,0.1-0.2,0.3-0.3,0.5h1.6c0-0.2-0.1-0.4-0.2-0.5
			C-704,118.4-704.2,118.4-704.5,118.4 M-703.2,119.5h-2.1c0,0.3,0.1,0.6,0.3,0.8c0.2,0.2,0.4,0.2,0.6,0.2c0.3,0,0.5-0.1,0.7-0.3
			l0.2,0.4c-0.1,0.1-0.2,0.1-0.4,0.2c-0.2,0.1-0.4,0.1-0.7,0.1c-0.4,0-0.7-0.1-0.9-0.4c-0.3-0.3-0.4-0.6-0.4-1.1
			c0-0.5,0.1-0.9,0.4-1.2c0.3-0.3,0.6-0.4,0.9-0.4c0.4,0,0.7,0.1,1,0.4c0.2,0.2,0.3,0.5,0.3,0.9
			C-703.2,119.3-703.2,119.4-703.2,119.5"/>
		<path class="st3" d="M-702.9,120.7l0.2-0.5c0.3,0.2,0.5,0.3,0.7,0.3c0.3,0,0.5-0.1,0.5-0.4c0-0.2-0.2-0.4-0.5-0.5
			c-0.2-0.1-0.4-0.2-0.5-0.2c-0.1-0.1-0.2-0.1-0.2-0.2c-0.1-0.1-0.1-0.1-0.1-0.2c0-0.1,0-0.2,0-0.3c0-0.2,0.1-0.4,0.3-0.6
			c0.2-0.1,0.4-0.2,0.7-0.2c0.2,0,0.5,0.1,0.8,0.2l-0.1,0.5c-0.2-0.2-0.4-0.2-0.6-0.2c-0.1,0-0.2,0-0.3,0.1
			c-0.1,0.1-0.1,0.1-0.1,0.2c0,0.2,0.1,0.3,0.3,0.4l0.4,0.2c0.2,0.1,0.4,0.2,0.5,0.4c0.1,0.1,0.2,0.3,0.2,0.5c0,0.3-0.1,0.5-0.3,0.6
			c-0.2,0.1-0.4,0.2-0.8,0.2C-702.3,121-702.6,120.9-702.9,120.7"/>
		<polygon class="st3" points="-698.2,117.4 -698.2,118.5 -696.8,118.5 -696.8,119 -698.2,119 -698.2,120.9 -698.8,120.9 
			-698.8,116.9 -696.3,116.9 -696.3,117.4 		"/>
		<g>
			<path class="st3" d="M-695.4,118v1.9c0,0.5,0.2,0.7,0.6,0.7c0.2,0,0.3,0,0.5-0.1c0.1-0.1,0.2-0.2,0.3-0.3V118h0.5v2.9h-0.5v-0.4
				c-0.1,0.1-0.2,0.2-0.4,0.3c-0.2,0.1-0.3,0.1-0.5,0.1c-0.3,0-0.6-0.1-0.7-0.3c-0.2-0.2-0.3-0.4-0.3-0.8V118H-695.4z"/>
			<path class="st3" d="M-691.1,120.9v-1.7c0-0.3,0-0.5-0.1-0.7c-0.1-0.1-0.3-0.2-0.5-0.2c-0.1,0-0.2,0-0.4,0.1
				c-0.1,0.1-0.2,0.2-0.3,0.3v2.2h-0.5V118h0.4l0.2,0.4c0.2-0.3,0.5-0.4,0.8-0.4c0.6,0,1,0.4,1,1.2v1.8H-691.1z"/>
			<path class="st3" d="M-688.1,118.6c-0.1-0.2-0.3-0.3-0.5-0.3c-0.3,0-0.5,0.1-0.7,0.3c-0.2,0.2-0.3,0.5-0.3,0.8
				c0,0.7,0.3,1.1,1,1.1c0.1,0,0.2,0,0.3-0.1c0.1-0.1,0.2-0.1,0.2-0.2V118.6z M-688.1,120.9v-0.2c-0.2,0.2-0.4,0.3-0.8,0.3
				c-0.4,0-0.7-0.1-0.9-0.4c-0.2-0.3-0.3-0.6-0.3-1.1c0-0.4,0.1-0.8,0.4-1.1c0.3-0.3,0.6-0.5,0.9-0.5c0.3,0,0.5,0.1,0.7,0.2v-1.4
				h0.5v4.1H-688.1z"/>
		</g>
	</g>
</g>
</svg>
