<?xml version="1.0" encoding="utf-8"?>
<!-- Generator: Adobe Illustrator 19.0.0, SVG Export Plug-In . SVG Version: 6.00 Build 0)  -->
<svg version="1.1" id="Layer_1" xmlns="http://www.w3.org/2000/svg" xmlns:xlink="http://www.w3.org/1999/xlink" x="0px" y="0px"
	 viewBox="-273 378.9 64 36.1" style="enable-background:new -273 378.9 64 36.1;" xml:space="preserve">
<style type="text/css">
	.st0{fill:#008BD0;}
</style>
<g>
	<path class="st0" d="M-234.4,396.9c-2.2,2.6-5.4,4.3-11.3,5c5.8,0,8.5-0.4,10.9-0.8c1.7-1.5,3.4-9.6,5.7-11.8
		C-231.9,392-232.8,394.7-234.4,396.9z"/>
	<path class="st0" d="M-254.2,383.8c-1.5,1.6-3,3-5.4,6.9c6.2-5.8,12.8-6.4,20.3-7C-245.1,383.2-251.8,383.4-254.2,383.8z"/>
	<path class="st0" d="M-229.3,383.7c2.3-0.1,8.2,0.4,13.1,2.3c-2.6-2-5.9-5.4-8.3-6.8C-226.2,380.6-227.2,381.4-229.3,383.7z"/>
	<path class="st0" d="M-220.7,385.2c-14.3-2.8-38.7-2.5-43.9,14.7c2.4,1.9,14.9,3,23.2,0.4C-232,397.4-234.3,387.4-220.7,385.2z"/>
	<path class="st0" d="M-221.4,413.8v-5.4l-1.2-0.5v6.3c0,0.4,0.2,0.7,0.7,0.7h2.5h0.4l-0.4-1.1H-221.4z"/>
	<path class="st0" d="M-229.9,408.4c-0.3-0.7-1.1-0.7-1.3,0l0,0.1l-1.9,5.8l-0.2,0.6l1.3-0.3l0.4-1.1h2.1l0.4,1.1l1.5,0.3l-0.2-0.6
		L-229.9,408.4z M-231.2,412.3l0.6-2.1l0.7,2.1H-231.2z"/>
	<polygon class="st0" points="-237.5,407.9 -239.5,408.3 -241,410.1 -241,408.4 -242.2,407.9 -242.2,414.9 -241,414.4 -241,412.6 
		-239.5,414.4 -237.5,414.9 -238.2,414.1 -240.6,411.3 -238.2,408.7 	"/>
	<polygon class="st0" points="-259,414.4 -257.8,414.9 -257.8,407.9 -259,408.4 	"/>
	<polygon class="st0" points="-262.8,414.9 -261.6,414.4 -261.6,408.4 -262.8,407.9 	"/>
	<polygon class="st0" points="-269.3,410.5 -271.8,410.5 -271.8,408.4 -273,407.9 -273,414.9 -271.8,414.4 -271.8,411.7 
		-269.3,411.7 -269.3,414.4 -268.1,414.9 -268.1,407.9 -269.3,408.4 	"/>
	<path class="st0" d="M-209.1,414.3l-2.1-5.9c-0.3-0.7-1.1-0.7-1.3,0l0,0.1l-1.9,5.8l-0.2,0.6l1.4-0.3l0.4-1.1h2.1l0.4,1.1l1.3,0.3
		L-209.1,414.3z M-212.4,412.3l0.6-2.1l0.7,2.1H-212.4z"/>
	<path class="st0" d="M-248.8,412.6c0,1-0.8,1.3-1.2,1.3c-0.5,0-1.3-0.3-1.3-1.3v-4.2l-1.2-0.5v4.7c0,1.3,1.2,2.4,2.5,2.4
		c1.3,0,2.5-1.1,2.5-2.4h0v-4.7l-1.3,0.5V412.6z"/>
</g>
</svg>
