<?xml version="1.0" encoding="utf-8"?>
<!-- Generator: Adobe Illustrator 19.0.0, SVG Export Plug-In . SVG Version: 6.00 Build 0)  -->
<svg version="1.1" id="Layer_1" xmlns="http://www.w3.org/2000/svg" xmlns:xlink="http://www.w3.org/1999/xlink" x="0px" y="0px"
	 viewBox="0 0 560 560" style="enable-background:new 0 0 560 560;" xml:space="preserve">
<style type="text/css">
	.st0{fill:#008BD0;}
</style>
<g id="XMLID_1_">
	<path id="XMLID_5_" class="st0" d="M349.4,338.9c-25.5,30.1-62.5,49.8-130.7,57.9c67.1,0,98.3-4.6,126.1-9.3
		c19.7-17.4,39.3-111.1,66-136.5C378.3,282.2,367.9,313.5,349.4,338.9z"/>
	<path id="XMLID_4_" class="st0" d="M120.3,187.4c-17.4,18.5-34.7,34.7-62.5,79.8c71.7-67.1,148.1-74,234.9-81
		C225.6,180.4,148.1,182.7,120.3,187.4z"/>
	<path id="XMLID_3_" class="st0" d="M408.4,186.2c26.6-1.2,94.9,4.6,151.6,26.6c-30.1-23.1-68.3-62.5-96-78.7
		C444.3,150.3,432.7,159.6,408.4,186.2z"/>
	<path id="XMLID_2_" class="st0" d="M507.9,203.6C342.5,171.2,60.2,174.6,0,373.6c27.8,22,172.4,34.7,268.4,4.6
		C377.2,344.7,350.6,229,507.9,203.6z"/>
</g>
</svg>
