<?xml version="1.0" encoding="utf-8"?>
<!-- Generator: Adobe Illustrator 19.0.0, SVG Export Plug-In . SVG Version: 6.00 Build 0)  -->
<svg version="1.1" id="Capa_1" xmlns="http://www.w3.org/2000/svg" xmlns:xlink="http://www.w3.org/1999/xlink" x="0px" y="0px"
	 viewBox="-674.3 -109 472 380" style="enable-background:new -674.3 -109 472 380;" xml:space="preserve">
<style type="text/css">
	.st0{fill:#C8D9EE;}
</style>
<path class="st0" d="M-202.3,185.2C-202.3,185.2-202.3,185.2-202.3,185.2L-202.3,185.2C-202.3,185.2-202.3,185.2-202.3,185.2
	c-30.3-26-64.6-55.4-131-55.4c-66.4,0-100.7,29.4-131,55.4c-28.6,24.6-53.4,45.8-105,45.8c-51.6,0-76.3-21.2-105-45.8v51.6
	c25.2,18.6,56.5,34.2,105,34.2c66.4,0,100.7-29.4,131-55.4c28.6-24.6,53.4-45.8,105-45.8c51.6,0,76.3,21.2,105,45.8c0,0,0,0,0,0
	c8.2,7,16.7,14.3,26,21.2V185.2z"/>
<path class="st0" d="M-202.3,65.8C-202.3,65.8-202.3,65.8-202.3,65.8C-202.3,65.8-202.4,65.8-202.3,65.8
	c-30.3-26-64.6-55.4-131-55.4c-66.4,0-100.7,29.4-131,55.4c-28.6,24.6-53.4,45.8-105,45.8c-51.6,0-76.3-21.2-105-45.8v51.6
	c25.2,18.6,56.5,34.2,105,34.2c66.4,0,100.7-29.4,131-55.4c28.6-24.6,53.4-45.8,105-45.8c51.6,0,76.3,21.2,105,45.8c0,0,0,0,0,0
	c8.2,7,16.7,14.3,26,21.2V65.8z"/>
<path class="st0" d="M-202.3-53.6C-202.3-53.6-202.3-53.6-202.3-53.6C-202.3-53.6-202.3-53.6-202.3-53.6
	c-30.3-26-64.6-55.4-131-55.4c-66.4,0-100.7,29.4-131,55.4C-493-29-517.8-7.8-569.4-7.8c-51.6,0-76.3-21.2-105-45.8V-2
	c25.2,18.6,56.5,34.2,105,34.2c66.4,0,100.7-29.4,131-55.4C-409.7-47.8-385-69-333.4-69c51.6,0,76.3,21.2,105,45.8c0,0,0,0,0,0
	c8.2,7,16.7,14.3,26,21.2V-53.6z"/>
</svg>
